<svg width="695" height="490" viewBox="0 0 695 490" fill="none" xmlns="http://www.w3.org/2000/svg">
<path d="M138.548 65.6279C187.821 65.6279 233.352 91.9153 257.989 134.588C282.626 177.26 282.626 229.835 257.989 272.507C233.352 315.18 187.821 341.467 138.548 341.467C89.2736 341.467 43.7426 315.18 19.1057 272.507C-5.5313 229.835 -5.5313 177.26 19.1057 134.588C43.7426 91.9153 89.2736 65.6279 138.548 65.6279Z" fill="#1010E2"/>
<path d="M399.776 0.266891C441.401 0.266893 479.864 22.4735 500.677 58.5217C521.489 94.5699 521.489 138.983 500.677 175.031C479.864 211.08 441.401 233.286 399.776 233.286C358.152 233.286 319.689 211.08 298.876 175.031C278.064 138.983 278.064 94.5699 298.876 58.5217C319.689 22.4735 358.152 0.266892 399.776 0.266891Z" fill="#FADF4B"/>
<path d="M346.778 244.161C381.653 244.161 413.879 262.767 431.316 292.969C448.753 323.172 448.753 360.383 431.316 390.586C413.878 420.788 381.653 439.394 346.778 439.394C311.903 439.394 279.677 420.788 262.24 390.586C244.802 360.383 244.802 323.172 262.24 292.969C279.677 262.767 311.903 244.161 346.778 244.161Z" fill="#FADF4B"/>
<path d="M552.889 282.621C589.782 282.621 623.874 302.304 642.321 334.255C660.768 366.206 660.768 405.571 642.321 437.522C623.874 469.473 589.782 489.156 552.889 489.156C515.995 489.156 481.903 469.473 463.456 437.522C445.01 405.571 445.01 366.206 463.456 334.255C481.903 302.304 515.995 282.621 552.889 282.621Z" fill="#1010E2"/>
<path d="M608.721 95.6775C639.462 95.6775 667.867 112.077 683.238 138.699C698.608 165.322 698.608 198.121 683.238 224.743C667.867 251.365 639.462 267.765 608.721 267.765C577.981 267.765 549.575 251.365 534.205 224.743C518.835 198.121 518.835 165.322 534.205 138.699C549.575 112.077 577.981 95.6775 608.721 95.6775Z" fill="#1010E2"/>
</svg>
