<svg width="45" height="45" viewBox="0 0 45 45" fill="none" xmlns="http://www.w3.org/2000/svg">
<g id="Cactus 1">
<path id="Vector" d="M43.1998 15.9V13.3H40.5998C39.9998 11.5 38.2998 10.2 36.2998 10.2C33.7998 10.2 31.6998 12.3 31.6998 14.8V25.7H28.5998V6.1C28.5998 5.6 28.4998 5 28.3998 4.5L30.2998 3.3L28.8998 1.1L27.0998 2.2C25.9998 0.8 24.3998 0 22.4998 0C20.5998 0 18.9998 0.8 17.7998 2.2L15.9998 1.1L14.5998 3.3L16.4998 4.5C16.3998 5 16.2998 5.5 16.2998 6.1V18.4H13.1998V12C13.1998 9.5 11.0998 7.4 8.5998 7.4C6.0998 7.4 4.0998 9.4 4.0998 12V12.5H1.7998V15.1H4.1998V18.7H1.7998V21.3H4.2998C4.9998 24.9 8.1998 27.6 11.9998 27.6H16.3998V32.1H13.7998V34.7H16.3998V42.2H18.9998V13.1H22.4998V10.5H18.9998V6.1C18.9998 4.2 20.5998 2.6 22.4998 2.6C24.3998 2.6 25.9998 4.2 25.9998 6.1V18.7H22.4998V21.3H25.9998V28.2H34.2998V14.8C34.2998 13.7 35.1998 12.8 36.2998 12.8C37.3998 12.8 38.2998 13.7 38.2998 14.8V27C38.2998 29.9 35.9998 32.2 33.0998 32.2H25.9998V42.4H28.5998V34.9H32.9998C36.8998 34.9 40.0998 32 40.6998 28.3H43.1998V25.7H40.7998V22.1H43.1998V19.5H40.7998V15.9H43.1998ZM16.3998 25H11.9998C9.0998 25 6.7998 22.7 6.7998 19.8V12C6.7998 10.9 7.6998 10 8.7998 10C9.89981 10 10.7998 10.9 10.7998 12V21.1H16.4998V25H16.3998Z" fill="white"/>
<path id="Vector_2" d="M34.5001 42.3999H10.6001V44.9999H34.5001V42.3999Z" fill="#F1C64D"/>
</g>
</svg>
