<svg width="256" height="304" viewBox="0 0 256 304" fill="none" xmlns="http://www.w3.org/2000/svg">
<path opacity="0.5" d="M255.833 3.95239C255.328 4.88413 254.815 5.81588 254.31 6.73021C252.638 9.75185 250.906 12.8693 249.505 16.1173C247.938 19.7659 246.684 23.5713 245.466 27.2547C244.978 28.7264 244.473 30.2415 243.96 31.7132C243.115 34.1514 242.219 36.6244 241.357 39.0191C239.303 44.7228 237.17 50.6268 235.464 56.5917C231.877 69.5577 228.9 84.0825 226.367 100.985L226.35 101.115V101.437C226.324 108.238 226.298 115.03 226.28 121.831V121.997L226.306 122.153C226.872 125.262 227.42 128.432 227.951 131.497C228.953 137.288 229.988 143.27 231.207 149.148C232.757 156.236 234.445 163.429 236.073 170.378C236.656 172.886 237.248 175.394 237.831 177.91C237.536 180.819 237.553 183.744 237.57 186.583C237.614 192.801 237.649 198.678 234.654 204.33C232.713 208.005 231.381 211.993 230.093 215.842C229.214 218.472 228.3 221.18 227.22 223.722C226.446 225.534 225.418 227.24 224.33 229.052C222.981 231.307 221.579 233.632 220.7 236.201C219.273 240.337 216.226 243.071 211.116 244.813C203.917 247.251 196.414 249.28 189.163 251.239C186.777 251.884 184.392 252.528 182.016 253.19C180.832 253.521 179.492 253.695 178.064 253.878C175.043 254.278 171.91 254.688 169.925 256.691C162.482 264.127 155.745 272.452 149.225 280.498L148.319 281.621C145.543 285.043 142.87 288.622 140.285 292.088C137.56 295.719 134.749 299.481 131.832 303.051C131.719 303.069 131.528 303.086 131.241 303.086C130.326 303.086 129.465 302.903 129.056 302.764C126.845 297.722 124.59 292.515 123.815 287.273C123.815 286.593 124.094 285.775 124.616 284.834L124.964 284.486V284.268C125.835 282.98 127.01 281.691 128.159 280.48C128.777 279.827 129.473 279.148 130.344 278.33L130.37 278.312L130.396 278.286C130.474 278.208 130.562 278.129 130.649 278.051L130.675 278.025L130.701 278.007C130.927 277.798 131.162 277.581 131.406 277.363C131.754 277.058 132.111 276.745 132.485 276.414C132.72 276.205 132.955 276.005 133.19 275.804L133.434 275.595L133.573 275.482C133.817 275.264 134.061 275.055 134.305 274.846C134.54 274.646 134.775 274.446 134.992 274.254C135.227 274.054 135.462 273.854 135.689 273.654C135.88 273.497 136.072 273.331 136.246 273.175L136.315 273.114L136.516 272.948L136.716 272.765C138.387 271.294 139.702 270.083 140.65 268.969C143.941 265.407 143.932 260.539 140.616 256.856C138.657 254.67 136.559 252.589 134.522 250.578C132.503 248.583 130.422 246.528 128.525 244.404C125.878 241.443 123.284 238.056 120.124 233.449C120.098 233.127 120.211 232.483 120.351 232.152C126.923 228.764 134.409 227.519 141.643 226.309C144.002 225.917 146.439 225.508 148.824 225.029L149.93 224.811L150.182 223.714L150.261 223.383C150.374 222.886 150.487 222.399 150.591 221.911L150.809 220.953L150.095 220.274C149.738 219.934 149.347 219.464 148.937 218.959C147.762 217.531 146.544 216.051 144.777 216.025C143.575 216.007 142.374 216.007 141.173 216.007C133.408 216.007 125.521 216.295 117.896 216.573L116.938 216.608C115.432 216.66 113.918 217.888 113.282 218.985C106.223 230.532 100.086 242.767 94.1491 254.601C92.5213 257.849 90.8413 261.21 89.1699 264.475C87.3071 267.993 84.3997 269.552 79.4553 269.683H79.1594C75.4598 269.683 73.3793 267.959 70.733 265.773C70.0976 265.242 69.4447 264.702 68.7396 264.171C63.273 260.017 59.9651 257.509 56.3091 257.509C52.6531 257.509 49.7108 259.852 45.8023 263.631C44.1832 265.189 42.5641 266.739 40.945 268.298C39.5 267.828 38.0376 267.375 36.6187 266.94C32.8147 265.773 28.8714 264.571 25.2415 262.986C25.0761 262.908 24.9107 262.83 24.7366 262.751C24.5799 262.682 24.4232 262.612 24.2578 262.534C23.0653 261.976 22.0294 260.339 21.0283 258.737V258.51L20.7585 258.241C20.6366 257.953 20.506 257.666 20.3841 257.361C25.2241 253.146 27.3916 247.364 27.174 239.275C27.1304 237.69 28.854 235.043 29.6635 234.799L29.9769 234.703C31.1085 234.363 32.2837 234.015 33.3805 234.015C34.3467 234.015 35.6264 234.25 36.9234 236.079C38.5947 238.447 42.6251 240.032 45.3497 240.032C46.0374 240.032 46.6554 239.945 47.2038 239.754C50.5813 238.622 53.5932 234.468 54.4463 231.281C55.8129 226.23 56.605 220.988 57.3711 215.92C57.6845 213.891 57.9978 211.793 58.346 209.746L58.3722 209.598V209.45L58.3373 185.051L58.3199 176.761V176.647C57.815 169.08 51.6085 168.41 47.5085 167.966H47.404L35.696 167.382L27.4699 166.982C27.7224 166.651 27.9835 166.329 28.2359 165.998C29.7245 164.091 31.2652 162.123 32.4404 159.911C33.868 157.255 35.2956 153.58 34.0508 151.203C32.5536 148.382 28.5493 146.806 26.2948 146.126C25.6332 145.917 24.989 145.822 24.3797 145.822C20.6975 145.822 19.1045 149.374 18.3385 151.081C16.0404 156.193 13.0024 161.078 10.3213 165.179C9.99055 165.693 9.06784 166.015 7.9188 166.015C5.79482 166.015 3.60989 164.953 3.04408 163.655C1.59907 160.329 0.310758 157.098 0.302053 154.05C0.249824 141.816 0.632828 131.767 1.50331 122.441C1.73835 119.959 4.20183 116.458 5.57719 116.136C6.18653 115.988 6.89163 115.91 7.65765 115.91C10.3736 115.91 13.3419 116.833 15.0307 118.2C18.3559 120.899 21.0109 124.766 23.5788 128.51C24.0489 129.189 24.519 129.869 24.9803 130.53C27.5657 134.318 31.7701 136.582 36.2444 136.582C40.2747 136.582 43.9482 134.71 46.3507 131.436C50.5552 126.743 53.776 124.644 56.7705 124.644C59.7649 124.644 62.9857 126.56 67.5123 130.861C72.3173 135.424 77.3836 139.848 82.2844 144.123C84.626 146.17 87.0459 148.286 89.3963 150.376C90.1013 151.003 90.7803 151.543 91.3723 151.961C91.6334 152.143 91.8684 152.3 92.0861 152.431L92.1383 152.457C92.3994 152.631 92.7215 152.831 93.0697 153.006C93.4788 153.232 93.888 153.415 94.2797 153.572C94.4364 153.641 94.5843 153.693 94.7236 153.737C94.889 153.798 95.0544 153.85 95.2372 153.894C95.5158 153.99 95.7856 154.05 96.0729 154.103C96.395 154.164 96.717 154.207 97.013 154.225C97.1871 154.242 97.3612 154.251 97.5266 154.251C97.631 154.251 97.7355 154.251 97.8313 154.251C97.9618 154.251 98.075 154.233 98.162 154.225C98.4667 154.199 98.754 154.155 99.0151 154.085C99.0674 154.077 99.1196 154.068 99.1631 154.059H99.2328L99.4939 153.972H99.52C99.6071 153.937 99.7115 153.911 99.8247 153.859C99.8595 153.85 99.8943 153.841 99.9204 153.824C99.9814 153.807 100.051 153.781 100.112 153.754C100.303 153.685 100.495 153.598 100.678 153.502C100.895 153.389 101.113 153.267 101.287 153.154C101.74 152.866 102.166 152.527 102.575 152.135C102.715 152.004 102.845 151.874 102.976 151.734C103.22 151.464 103.455 151.177 103.672 150.881C103.925 150.55 104.142 150.219 104.316 149.923C104.525 149.575 104.708 149.244 104.882 148.895C105.065 148.53 105.23 148.173 105.361 147.842C105.518 147.485 105.666 147.102 105.814 146.666C105.935 146.318 106.075 145.909 106.197 145.456C106.284 145.151 106.362 144.855 106.423 144.585C106.519 144.245 106.597 143.914 106.649 143.618C106.745 143.192 106.823 142.756 106.893 142.321C106.971 141.894 107.032 141.45 107.093 140.989C107.145 140.545 107.198 140.092 107.233 139.639V139.569L107.241 139.5C107.241 138.15 107.224 136.791 107.206 135.442C107.172 132.22 107.128 128.893 107.328 125.663C107.363 125.01 107.885 124.139 108.382 123.294C108.686 122.789 108.991 122.267 109.261 121.709L109.487 121.239L109.409 120.717C107.842 109.71 114.492 105.399 124.834 100.079C137.021 93.8005 147.936 88.0185 158.139 80.878C164.502 76.4108 163.518 68.3996 162.717 61.9557C162.656 61.442 162.595 60.9282 162.534 60.4231C162.204 57.5844 161.803 54.7195 161.412 51.9503C160.733 47.0652 160.027 42.0059 159.697 37.0424C159.488 34.0904 159.81 32.1399 160.637 31.2517C160.959 30.9121 161.568 30.4592 163.17 30.4592C164.667 30.4592 166.704 30.8598 169.411 31.6784C170.996 32.166 172.623 32.7843 174.199 33.3764C177.524 34.6216 180.954 35.9104 184.549 36.2674C185.576 36.3719 186.603 36.4242 187.604 36.4242C197.215 36.4242 205.597 31.6871 212.518 22.3435C214.903 19.1129 217.575 15.9693 220.161 12.9302C222.285 10.4224 224.496 7.8274 226.559 5.16279C227.534 3.89143 227.751 2.25436 227.951 0.817552C227.951 0.774013 227.951 0.73047 227.969 0.678223C229.692 0.817549 231.407 0.939457 233.131 1.07008C239.755 1.57513 246.606 2.08891 253.317 2.72458C253.587 2.75071 253.874 2.77683 254.144 2.80295C254.51 2.83778 255.232 3.44733 255.763 3.90014C255.79 3.91756 255.816 3.94369 255.833 3.96111V3.95239Z" fill="white"/>
</svg>
