<svg width="45" height="45" viewBox="0 0 45 45" fill="none" xmlns="http://www.w3.org/2000/svg">
<g id="Graduation cap 2">
<g id="Group">
<path id="Vector" d="M44.6001 30.9L41.1001 27.4V16.7L38.5001 17.7V27.5L35.0001 30.9C34.8001 31.0999 34.6001 31.4999 34.6001 31.7999C34.6001 32.0999 34.7001 32.5 35.0001 32.7L38.5001 36.2V39.0999C38.5001 39.7999 39.1001 40.4 39.8001 40.4C40.5001 40.4 41.1001 39.7999 41.1001 39.0999V36.2L44.6001 32.7C45.1001 32.2 45.1001 31.4 44.6001 30.9ZM39.8001 33.7999L37.8001 31.7999L39.8001 29.7999L41.8001 31.7999L39.8001 33.7999Z" fill="#F1C64D"/>
<path id="Vector_2" d="M43.4 12.0999L22.6 4.5999C22.3 4.4999 22 4.4999 21.7 4.5999L0.9 12.0999C0.3 12.2999 0 12.7999 0 13.3999C0 13.8999 0.3 14.3999 0.9 14.5999L8.6 17.3999V26.0999C8.6 26.3999 8.7 26.5999 8.8 26.8999C8.9 26.9999 9.7 28.0999 11.7 29.0999C14.3 30.3999 17.7 31.0999 21.8 31.0999C25.9 31.0999 29.4 30.3999 32 29.0999C34.1 28.0999 34.9 26.9999 35 26.8999C35.2 26.6999 35.2 26.3999 35.2 26.0999V17.4999L37.3 16.6999L38.4 16.2999L41 15.2999L41.3 15.1999L43.2 14.4999C43.7 14.2999 44.1 13.7999 44.1 13.2999C44.3 12.7999 43.9 12.2999 43.4 12.0999ZM32.7 25.5999C28.2 29.5999 14.8 29.1999 11.2 25.5999V18.3999L21.4 22.1999C21.6 22.1999 21.7 22.3999 22.3 22.1999L32.7 18.4999V25.5999ZM21.9 19.5999L5.2 13.3999L22.2 7.1999L39.1 13.2999L21.9 19.5999Z" fill="white"/>
</g>
</g>
</svg>
