<svg width="281" height="741" viewBox="0 0 281 741" fill="none" xmlns="http://www.w3.org/2000/svg">
<g opacity="0.1" clip-path="url(#clip0_672_38196)">
<path d="M273.875 4.27495C273.875 1.34277 276.26 -1.04324 279.19 -1.04324C282.121 -1.04324 284.506 1.34277 284.506 4.27495C284.506 7.20713 282.121 9.59314 279.19 9.59314C276.26 9.59314 273.875 7.20713 273.875 4.27495Z" fill="#1010E2"/>
<path d="M234.742 4.2749C234.742 1.5727 236.926 -0.612101 239.627 -0.612101C242.327 -0.612101 244.511 1.5727 244.511 4.2749C244.511 6.97711 242.327 9.16186 239.627 9.16187C236.926 9.16187 234.742 6.97711 234.742 4.2749Z" fill="#1010E2"/>
<path d="M195.638 4.27494C195.638 1.83145 197.62 -0.180794 200.091 -0.180794C202.562 -0.180794 204.545 1.80271 204.545 4.27494C204.545 6.74717 202.562 8.73071 200.091 8.73071C197.62 8.73071 195.638 6.74717 195.638 4.27494Z" fill="#1010E2"/>
<path d="M156.504 4.27489C156.504 2.06138 158.314 0.250347 160.526 0.250347C162.739 0.250347 164.549 2.06138 164.549 4.27489C164.549 6.4884 162.739 8.29944 160.526 8.29944C158.314 8.29944 156.504 6.4884 156.504 4.27489Z" fill="#1010E2"/>
<path d="M117.371 4.27493C117.371 2.29139 118.98 0.71034 120.963 0.71034C122.945 0.71034 124.525 2.32014 124.525 4.27493C124.525 6.22971 122.916 7.86829 120.963 7.86829C119.009 7.86829 117.371 6.25846 117.371 4.27493Z" fill="#1010E2"/>
<path d="M78.2373 4.27493C78.2373 2.55011 79.6452 1.14153 81.3691 1.14153C83.093 1.14153 84.5009 2.55011 84.5009 4.27493C84.5009 5.99974 83.093 7.40832 81.3691 7.40833C79.6452 7.40833 78.2373 5.99974 78.2373 4.27493Z" fill="#1010E2"/>
<path d="M39.1328 4.27484C39.1328 2.78 40.3396 1.57262 41.8336 1.57262C43.3277 1.57262 44.5345 2.78 44.5345 4.27484C44.5345 5.76967 43.3277 6.97705 41.8336 6.97705C40.3396 6.97705 39.1328 5.76967 39.1328 4.27484Z" fill="#1010E2"/>
<path d="M-9.92679e-08 4.27491C-1.54557e-07 3.01005 1.00563 2.00389 2.26984 2.00389C3.53406 2.00389 4.53968 3.01005 4.53968 4.27491C4.53968 5.53978 3.53406 6.5459 2.26984 6.5459C1.00563 6.5459 -4.3979e-08 5.53978 -9.92679e-08 4.27491Z" fill="#1010E2"/>
<path d="M273.875 44.5206C273.875 41.5884 276.26 39.2024 279.19 39.2024C282.121 39.2024 284.506 41.5884 284.506 44.5206C284.506 47.4527 282.121 49.8387 279.19 49.8387C276.26 49.8387 273.875 47.4527 273.875 44.5206Z" fill="#1010E2"/>
<path d="M234.742 44.5205C234.742 41.8183 236.926 39.6335 239.627 39.6335C242.327 39.6335 244.511 41.8183 244.511 44.5205C244.511 47.2227 242.327 49.4075 239.627 49.4075C236.926 49.4075 234.742 47.2227 234.742 44.5205Z" fill="#1010E2"/>
<path d="M195.638 44.5207C195.638 42.0772 197.62 40.0649 200.091 40.0649C202.562 40.0649 204.545 42.0484 204.545 44.5207C204.545 46.9929 202.562 48.9764 200.091 48.9764C197.62 48.9764 195.638 46.9929 195.638 44.5207Z" fill="#1010E2"/>
<path d="M156.504 44.5205C156.504 42.307 158.314 40.496 160.526 40.496C162.739 40.496 164.549 42.307 164.549 44.5205C164.549 46.734 162.739 48.545 160.526 48.545C158.314 48.545 156.504 46.734 156.504 44.5205Z" fill="#1010E2"/>
<path d="M117.371 44.5205C117.371 42.537 118.98 40.9559 120.963 40.9559C122.945 40.9559 124.525 42.5657 124.525 44.5205C124.525 46.4753 122.916 48.1139 120.963 48.1139C119.009 48.1139 117.371 46.5041 117.371 44.5205Z" fill="#1010E2"/>
<path d="M78.2373 44.5205C78.2373 42.7957 79.6452 41.3871 81.3691 41.3871C83.093 41.3871 84.5009 42.7957 84.5009 44.5205C84.5009 46.2453 83.093 47.6539 81.3691 47.6539C79.6452 47.6539 78.2373 46.2453 78.2373 44.5205Z" fill="#1010E2"/>
<path d="M39.1328 44.5206C39.1328 43.0257 40.3396 41.8184 41.8336 41.8184C43.3277 41.8184 44.5345 43.0257 44.5345 44.5206C44.5345 46.0154 43.3277 47.2228 41.8336 47.2228C40.3396 47.2228 39.1328 46.0154 39.1328 44.5206Z" fill="#1010E2"/>
<path d="M-9.92679e-08 44.5206C-1.54557e-07 43.2558 1.00563 42.2496 2.26984 42.2496C3.53406 42.2496 4.53968 43.2558 4.53968 44.5206C4.53968 45.7855 3.53406 46.7916 2.26984 46.7916C1.00563 46.7916 -4.3979e-08 45.7855 -9.92679e-08 44.5206Z" fill="#1010E2"/>
<path d="M273.875 84.7662C273.875 81.834 276.26 79.448 279.19 79.448C282.121 79.448 284.506 81.834 284.506 84.7662C284.506 87.6983 282.121 90.0844 279.19 90.0844C276.26 90.0844 273.875 87.6983 273.875 84.7662Z" fill="#1010E2"/>
<path d="M234.742 84.7662C234.742 82.064 236.926 79.8793 239.627 79.8793C242.327 79.8793 244.511 82.064 244.511 84.7662C244.511 87.4684 242.327 89.6532 239.627 89.6532C236.926 89.6532 234.742 87.4684 234.742 84.7662Z" fill="#1010E2"/>
<path d="M195.638 84.7661C195.638 82.3227 197.62 80.3104 200.091 80.3104C202.562 80.3104 204.545 82.2939 204.545 84.7661C204.545 87.2384 202.562 89.2219 200.091 89.2219C197.62 89.2219 195.638 87.2384 195.638 84.7661Z" fill="#1010E2"/>
<path d="M156.504 84.7662C156.504 82.5527 158.314 80.7417 160.526 80.7417C162.739 80.7417 164.549 82.5527 164.549 84.7662C164.549 86.9797 162.739 88.7908 160.526 88.7908C158.314 88.7908 156.504 86.9797 156.504 84.7662Z" fill="#1010E2"/>
<path d="M117.371 84.7663C117.371 82.7827 118.98 81.2016 120.963 81.2016C122.945 81.2016 124.525 82.8115 124.525 84.7663C124.525 86.721 122.916 88.3596 120.963 88.3596C119.009 88.3596 117.371 86.7498 117.371 84.7663Z" fill="#1010E2"/>
<path d="M78.2373 84.7661C78.2373 83.0413 79.6452 81.6327 81.3691 81.6327C83.093 81.6327 84.5009 83.0413 84.5009 84.7661C84.5009 86.4909 83.093 87.8995 81.3691 87.8995C79.6452 87.8995 78.2373 86.4909 78.2373 84.7661Z" fill="#1010E2"/>
<path d="M39.1328 84.7662C39.1328 83.2713 40.3396 82.064 41.8336 82.064C43.3277 82.064 44.5345 83.2713 44.5345 84.7662C44.5345 86.261 43.3277 87.4684 41.8336 87.4684C40.3396 87.4684 39.1328 86.261 39.1328 84.7662Z" fill="#1010E2"/>
<path d="M-9.92679e-08 84.7662C-1.54557e-07 83.5014 1.00563 82.4952 2.26984 82.4952C3.53406 82.4952 4.53968 83.5014 4.53968 84.7662C4.53968 86.0311 3.53406 87.0372 2.26984 87.0372C1.00563 87.0372 -4.3979e-08 86.0311 -9.92679e-08 84.7662Z" fill="#1010E2"/>
<path d="M273.875 125.012C273.875 122.08 276.26 119.694 279.19 119.694C282.121 119.694 284.506 122.08 284.506 125.012C284.506 127.944 282.121 130.33 279.19 130.33C276.26 130.33 273.875 127.944 273.875 125.012Z" fill="#1010E2"/>
<path d="M234.742 125.012C234.742 122.31 236.926 120.125 239.627 120.125C242.327 120.125 244.511 122.31 244.511 125.012C244.511 127.714 242.327 129.899 239.627 129.899C236.926 129.899 234.742 127.714 234.742 125.012Z" fill="#1010E2"/>
<path d="M195.638 125.012C195.638 122.568 197.62 120.556 200.091 120.556C202.562 120.556 204.545 122.54 204.545 125.012C204.545 127.484 202.562 129.468 200.091 129.468C197.62 129.468 195.638 127.484 195.638 125.012Z" fill="#1010E2"/>
<path d="M156.504 125.012C156.504 122.798 158.314 120.987 160.526 120.987C162.739 120.987 164.549 122.798 164.549 125.012C164.549 127.225 162.739 129.036 160.526 129.036C158.314 129.036 156.504 127.225 156.504 125.012Z" fill="#1010E2"/>
<path d="M117.371 125.012C117.371 123.028 118.98 121.447 120.963 121.447C122.945 121.447 124.525 123.057 124.525 125.012C124.525 126.967 122.916 128.605 120.963 128.605C119.009 128.605 117.371 126.995 117.371 125.012Z" fill="#1010E2"/>
<path d="M78.2373 125.012C78.2373 123.287 79.6452 121.878 81.3691 121.878C83.093 121.878 84.5009 123.287 84.5009 125.012C84.5009 126.737 83.093 128.145 81.3691 128.145C79.6452 128.145 78.2373 126.737 78.2373 125.012Z" fill="#1010E2"/>
<path d="M39.1328 125.012C39.1328 123.517 40.3396 122.31 41.8336 122.31C43.3277 122.31 44.5345 123.517 44.5345 125.012C44.5345 126.507 43.3277 127.714 41.8336 127.714C40.3396 127.714 39.1328 126.507 39.1328 125.012Z" fill="#1010E2"/>
<path d="M-9.92679e-08 125.012C-1.54557e-07 123.747 1.00563 122.741 2.26984 122.741C3.53406 122.741 4.53968 123.747 4.53968 125.012C4.53968 126.277 3.53406 127.283 2.26984 127.283C1.00563 127.283 -4.3979e-08 126.277 -9.92679e-08 125.012Z" fill="#1010E2"/>
<path d="M273.875 165.257C273.875 162.325 276.26 159.939 279.19 159.939C282.121 159.939 284.506 162.325 284.506 165.257C284.506 168.19 282.121 170.576 279.19 170.576C276.26 170.576 273.875 168.19 273.875 165.257Z" fill="#1010E2"/>
<path d="M234.742 165.257C234.742 162.555 236.926 160.37 239.627 160.37C242.327 160.37 244.511 162.555 244.511 165.257C244.511 167.96 242.327 170.144 239.627 170.144C236.926 170.144 234.742 167.96 234.742 165.257Z" fill="#1010E2"/>
<path d="M195.638 165.257C195.638 162.814 197.62 160.802 200.091 160.802C202.562 160.802 204.545 162.785 204.545 165.257C204.545 167.73 202.562 169.713 200.091 169.713C197.62 169.713 195.638 167.73 195.638 165.257Z" fill="#1010E2"/>
<path d="M156.504 165.257C156.504 163.044 158.314 161.233 160.526 161.233C162.739 161.233 164.549 163.015 164.549 165.257C164.549 167.5 162.739 169.282 160.526 169.282C158.314 169.282 156.504 167.471 156.504 165.257Z" fill="#1010E2"/>
<path d="M117.371 165.257C117.371 163.274 118.98 161.693 120.963 161.693C122.945 161.693 124.525 163.303 124.525 165.257C124.525 167.212 122.916 168.851 120.963 168.851C119.009 168.851 117.371 167.241 117.371 165.257Z" fill="#1010E2"/>
<path d="M78.2373 165.257C78.2373 163.533 79.6452 162.124 81.3691 162.124C83.093 162.124 84.5009 163.533 84.5009 165.257C84.5009 166.982 83.093 168.391 81.3691 168.391C79.6452 168.391 78.2373 166.982 78.2373 165.257Z" fill="#1010E2"/>
<path d="M39.1328 165.258C39.1328 163.763 40.3396 162.555 41.8336 162.555C43.3277 162.555 44.5345 163.763 44.5345 165.258C44.5345 166.752 43.3277 167.96 41.8336 167.96C40.3396 167.96 39.1328 166.752 39.1328 165.258Z" fill="#1010E2"/>
<path d="M-9.92679e-08 165.257C-1.54557e-07 163.993 1.00563 162.986 2.26984 162.986C3.53406 162.986 4.53968 163.993 4.53968 165.257C4.53968 166.522 3.53406 167.528 2.26984 167.528C1.00563 167.528 -4.3979e-08 166.522 -9.92679e-08 165.257Z" fill="#1010E2"/>
<path d="M273.875 205.503C273.875 202.571 276.26 200.185 279.19 200.185C282.121 200.185 284.506 202.571 284.506 205.503C284.506 208.435 282.121 210.821 279.19 210.821C276.26 210.821 273.875 208.435 273.875 205.503Z" fill="#1010E2"/>
<path d="M234.742 205.503C234.742 202.801 236.926 200.616 239.627 200.616C242.327 200.616 244.511 202.801 244.511 205.503C244.511 208.205 242.327 210.39 239.627 210.39C236.926 210.39 234.742 208.205 234.742 205.503Z" fill="#1010E2"/>
<path d="M195.638 205.503C195.638 203.06 197.62 201.047 200.091 201.047C202.562 201.047 204.545 203.031 204.545 205.503C204.545 207.975 202.562 209.959 200.091 209.959C197.62 209.959 195.638 207.975 195.638 205.503Z" fill="#1010E2"/>
<path d="M156.504 205.503C156.504 203.29 158.314 201.478 160.526 201.478C162.739 201.478 164.549 203.261 164.549 205.503C164.549 207.745 162.739 209.528 160.526 209.528C158.314 209.528 156.504 207.717 156.504 205.503Z" fill="#1010E2"/>
<path d="M117.371 205.503C117.371 203.52 118.98 201.938 120.963 201.938C122.945 201.938 124.525 203.548 124.525 205.503C124.525 207.458 122.916 209.096 120.963 209.096C119.009 209.096 117.371 207.487 117.371 205.503Z" fill="#1010E2"/>
<path d="M78.2373 205.503C78.2373 203.778 79.6452 202.37 81.3691 202.37C83.093 202.37 84.5009 203.778 84.5009 205.503C84.5009 207.228 83.093 208.636 81.3691 208.636C79.6452 208.636 78.2373 207.228 78.2373 205.503Z" fill="#1010E2"/>
<path d="M39.1328 205.503C39.1328 204.008 40.3396 202.801 41.8336 202.801C43.3277 202.801 44.5345 204.008 44.5345 205.503C44.5345 206.998 43.3277 208.205 41.8336 208.205C40.3396 208.205 39.1328 206.998 39.1328 205.503Z" fill="#1010E2"/>
<path d="M-9.92679e-08 205.503C-1.54557e-07 204.238 1.00563 203.232 2.26984 203.232C3.53406 203.232 4.53968 204.238 4.53968 205.503C4.53968 206.768 3.53406 207.774 2.26984 207.774C1.00563 207.774 -4.3979e-08 206.768 -9.92679e-08 205.503Z" fill="#1010E2"/>
<path d="M273.875 245.749C273.875 242.817 276.26 240.431 279.19 240.431C282.121 240.431 284.506 242.817 284.506 245.749C284.506 248.681 282.121 251.067 279.19 251.067C276.26 251.067 273.875 248.681 273.875 245.749Z" fill="#1010E2"/>
<path d="M234.742 245.749C234.742 243.047 236.926 240.862 239.627 240.862C242.327 240.862 244.511 243.047 244.511 245.749C244.511 248.451 242.327 250.636 239.627 250.636C236.926 250.636 234.742 248.451 234.742 245.749Z" fill="#1010E2"/>
<path d="M195.638 245.749C195.638 243.305 197.62 241.293 200.091 241.293C202.562 241.293 204.545 243.276 204.545 245.749C204.545 248.221 202.562 250.204 200.091 250.204C197.62 250.204 195.638 248.221 195.638 245.749Z" fill="#1010E2"/>
<path d="M156.504 245.749C156.504 243.535 158.314 241.724 160.526 241.724C162.739 241.724 164.549 243.507 164.549 245.749C164.549 247.991 162.739 249.773 160.526 249.773C158.314 249.773 156.504 247.962 156.504 245.749Z" fill="#1010E2"/>
<path d="M117.371 245.749C117.371 243.765 118.98 242.184 120.963 242.184C122.945 242.184 124.525 243.794 124.525 245.749C124.525 247.704 122.916 249.342 120.963 249.342C119.009 249.342 117.371 247.732 117.371 245.749Z" fill="#1010E2"/>
<path d="M78.2373 245.749C78.2373 244.024 79.6452 242.615 81.3691 242.615C83.093 242.615 84.5009 244.024 84.5009 245.749C84.5009 247.473 83.093 248.882 81.3691 248.882C79.6452 248.882 78.2373 247.473 78.2373 245.749Z" fill="#1010E2"/>
<path d="M39.1328 245.749C39.1328 244.254 40.3396 243.046 41.8336 243.046C43.3277 243.046 44.5345 244.254 44.5345 245.749C44.5345 247.244 43.3277 248.451 41.8336 248.451C40.3396 248.451 39.1328 247.244 39.1328 245.749Z" fill="#1010E2"/>
<path d="M-9.92679e-08 245.749C-1.54557e-07 244.484 1.00563 243.478 2.26984 243.478C3.53406 243.478 4.53968 244.484 4.53968 245.749C4.53968 247.014 3.53406 248.02 2.26984 248.02C1.00563 248.02 -4.3979e-08 247.014 -9.92679e-08 245.749Z" fill="#1010E2"/>
<path d="M273.875 285.994C273.875 283.062 276.26 280.676 279.19 280.676C282.121 280.676 284.506 283.062 284.506 285.994C284.506 288.926 282.121 291.312 279.19 291.312C276.26 291.312 273.875 288.926 273.875 285.994Z" fill="#1010E2"/>
<path d="M234.742 285.994C234.742 283.292 236.926 281.107 239.627 281.107C242.327 281.107 244.511 283.292 244.511 285.994C244.511 288.697 242.327 290.881 239.627 290.881C236.926 290.881 234.742 288.697 234.742 285.994Z" fill="#1010E2"/>
<path d="M195.638 285.994C195.638 283.551 197.62 281.539 200.091 281.539C202.562 281.539 204.545 283.522 204.545 285.994C204.545 288.467 202.562 290.45 200.091 290.45C197.62 290.45 195.638 288.467 195.638 285.994Z" fill="#1010E2"/>
<path d="M156.504 285.994C156.504 283.781 158.314 281.97 160.526 281.97C162.739 281.97 164.549 283.752 164.549 285.994C164.549 288.237 162.739 290.019 160.526 290.019C158.314 290.019 156.504 288.208 156.504 285.994Z" fill="#1010E2"/>
<path d="M117.371 285.994C117.371 284.011 118.98 282.43 120.963 282.43C122.945 282.43 124.525 284.04 124.525 285.994C124.525 287.949 122.916 289.588 120.963 289.588C119.009 289.588 117.371 287.978 117.371 285.994Z" fill="#1010E2"/>
<path d="M78.2373 285.994C78.2373 284.269 79.6452 282.861 81.3691 282.861C83.093 282.861 84.5009 284.269 84.5009 285.994C84.5009 287.719 83.093 289.128 81.3691 289.128C79.6452 289.128 78.2373 287.719 78.2373 285.994Z" fill="#1010E2"/>
<path d="M39.1328 285.994C39.1328 284.499 40.3396 283.292 41.8336 283.292C43.3277 283.292 44.5345 284.499 44.5345 285.994C44.5345 287.489 43.3277 288.697 41.8336 288.697C40.3396 288.697 39.1328 287.489 39.1328 285.994Z" fill="#1010E2"/>
<path d="M-9.92679e-08 285.994C-1.54557e-07 284.73 1.00563 283.723 2.26984 283.723C3.53406 283.723 4.53968 284.73 4.53968 285.994C4.53968 287.259 3.53406 288.265 2.26984 288.265C1.00563 288.265 -4.3979e-08 287.259 -9.92679e-08 285.994Z" fill="#1010E2"/>
<path d="M273.875 326.24C273.875 323.308 276.26 320.922 279.19 320.922C282.121 320.922 284.506 323.308 284.506 326.24C284.506 329.172 282.121 331.558 279.19 331.558C276.26 331.558 273.875 329.172 273.875 326.24Z" fill="#1010E2"/>
<path d="M234.742 326.24C234.742 323.538 236.926 321.353 239.627 321.353C242.327 321.353 244.511 323.538 244.511 326.24C244.511 328.942 242.327 331.127 239.627 331.127C236.926 331.127 234.742 328.942 234.742 326.24Z" fill="#1010E2"/>
<path d="M195.638 326.24C195.638 323.796 197.62 321.784 200.091 321.784C202.562 321.784 204.545 323.768 204.545 326.24C204.545 328.712 202.562 330.696 200.091 330.696C197.62 330.696 195.638 328.712 195.638 326.24Z" fill="#1010E2"/>
<path d="M156.504 326.24C156.504 324.026 158.314 322.215 160.526 322.215C162.739 322.215 164.549 323.998 164.549 326.24C164.549 328.482 162.739 330.265 160.526 330.265C158.314 330.265 156.504 328.453 156.504 326.24Z" fill="#1010E2"/>
<path d="M117.371 326.24C117.371 324.256 118.98 322.675 120.963 322.675C122.945 322.675 124.525 324.285 124.525 326.24C124.525 328.195 122.916 329.833 120.963 329.833C119.009 329.833 117.371 328.224 117.371 326.24Z" fill="#1010E2"/>
<path d="M78.2373 326.24C78.2373 324.515 79.6452 323.107 81.3691 323.107C83.093 323.107 84.5009 324.515 84.5009 326.24C84.5009 327.965 83.093 329.373 81.3691 329.373C79.6452 329.373 78.2373 327.965 78.2373 326.24Z" fill="#1010E2"/>
<path d="M39.1328 326.24C39.1328 324.745 40.3396 323.538 41.8336 323.538C43.3277 323.538 44.5345 324.745 44.5345 326.24C44.5345 327.735 43.3277 328.942 41.8336 328.942C40.3396 328.942 39.1328 327.735 39.1328 326.24Z" fill="#1010E2"/>
<path d="M-9.92679e-08 326.24C-1.54557e-07 324.975 1.00563 323.969 2.26984 323.969C3.53406 323.969 4.53968 324.975 4.53968 326.24C4.53968 327.505 3.53406 328.511 2.26984 328.511C1.00563 328.511 -4.3979e-08 327.505 -9.92679e-08 326.24Z" fill="#1010E2"/>
<path d="M273.875 366.486C273.875 363.553 276.26 361.167 279.19 361.167C282.121 361.167 284.506 363.553 284.506 366.486C284.506 369.418 282.121 371.804 279.19 371.804C276.26 371.804 273.875 369.418 273.875 366.486Z" fill="#1010E2"/>
<path d="M234.742 366.486C234.742 363.783 236.926 361.599 239.627 361.599C242.327 361.599 244.511 363.783 244.511 366.486C244.511 369.188 242.327 371.373 239.627 371.373C236.926 371.373 234.742 369.188 234.742 366.486Z" fill="#1010E2"/>
<path d="M195.638 366.486C195.638 364.042 197.62 362.03 200.091 362.03C202.562 362.03 204.545 364.013 204.545 366.486C204.545 368.958 202.562 370.941 200.091 370.941C197.62 370.941 195.638 368.958 195.638 366.486Z" fill="#1010E2"/>
<path d="M156.504 366.486C156.504 364.272 158.314 362.461 160.526 362.461C162.739 362.461 164.549 364.272 164.549 366.486C164.549 368.699 162.739 370.51 160.526 370.51C158.314 370.51 156.504 368.728 156.504 366.486Z" fill="#1010E2"/>
<path d="M117.371 366.486C117.371 364.502 118.98 362.892 120.963 362.892C122.945 362.892 124.525 364.502 124.525 366.486C124.525 368.469 122.916 370.079 120.963 370.079C119.009 370.079 117.371 368.469 117.371 366.486Z" fill="#1010E2"/>
<path d="M78.2373 366.486C78.2373 364.761 79.6452 363.352 81.3691 363.352C83.093 363.352 84.5009 364.761 84.5009 366.486C84.5009 368.21 83.093 369.619 81.3691 369.619C79.6452 369.619 78.2373 368.21 78.2373 366.486Z" fill="#1010E2"/>
<path d="M39.1328 366.486C39.1328 364.991 40.3396 363.783 41.8336 363.783C43.3277 363.783 44.5345 364.991 44.5345 366.486C44.5345 367.98 43.3277 369.188 41.8336 369.188C40.3396 369.188 39.1328 367.98 39.1328 366.486Z" fill="#1010E2"/>
<path d="M-9.92679e-08 366.486C-1.54557e-07 365.221 1.00563 364.215 2.26984 364.215C3.53406 364.215 4.53968 365.221 4.53968 366.486C4.53968 367.75 3.53406 368.757 2.26984 368.757C1.00563 368.757 -4.3979e-08 367.75 -9.92679e-08 366.486Z" fill="#1010E2"/>
<path d="M273.875 406.731C273.875 403.799 276.26 401.413 279.19 401.413C282.121 401.413 284.506 403.799 284.506 406.731C284.506 409.663 282.121 412.049 279.19 412.049C276.26 412.049 273.875 409.663 273.875 406.731Z" fill="#1010E2"/>
<path d="M234.742 406.731C234.742 404.029 236.926 401.844 239.627 401.844C242.327 401.844 244.511 404.029 244.511 406.731C244.511 409.434 242.327 411.618 239.627 411.618C236.926 411.618 234.742 409.434 234.742 406.731Z" fill="#1010E2"/>
<path d="M195.638 406.731C195.638 404.288 197.62 402.275 200.091 402.275C202.562 402.275 204.545 404.259 204.545 406.731C204.545 409.203 202.562 411.187 200.091 411.187C197.62 411.187 195.638 409.203 195.638 406.731Z" fill="#1010E2"/>
<path d="M156.504 406.731C156.504 404.518 158.314 402.707 160.526 402.707C162.739 402.707 164.549 404.518 164.549 406.731C164.549 408.945 162.739 410.756 160.526 410.756C158.314 410.756 156.504 408.974 156.504 406.731Z" fill="#1010E2"/>
<path d="M117.371 406.731C117.371 404.748 118.98 403.138 120.963 403.138C122.945 403.138 124.525 404.748 124.525 406.731C124.525 408.715 122.916 410.325 120.963 410.325C119.009 410.325 117.371 408.715 117.371 406.731Z" fill="#1010E2"/>
<path d="M78.2373 406.731C78.2373 405.006 79.6452 403.598 81.3691 403.598C83.093 403.598 84.5009 405.006 84.5009 406.731C84.5009 408.456 83.093 409.865 81.3691 409.865C79.6452 409.865 78.2373 408.456 78.2373 406.731Z" fill="#1010E2"/>
<path d="M39.1328 406.731C39.1328 405.236 40.3396 404.029 41.8336 404.029C43.3277 404.029 44.5345 405.236 44.5345 406.731C44.5345 408.226 43.3277 409.433 41.8336 409.433C40.3396 409.433 39.1328 408.226 39.1328 406.731Z" fill="#1010E2"/>
<path d="M-9.92688e-08 406.731C-1.54558e-07 405.466 1.00563 404.46 2.26984 404.46C3.53406 404.46 4.53968 405.466 4.53968 406.731C4.53968 407.996 3.53406 409.002 2.26984 409.002C1.00563 409.002 -4.39799e-08 407.996 -9.92688e-08 406.731Z" fill="#1010E2"/>
<path d="M273.875 446.977C273.875 444.045 276.26 441.659 279.19 441.659C282.121 441.659 284.506 444.045 284.506 446.977C284.506 449.909 282.121 452.295 279.19 452.295C276.26 452.295 273.875 449.909 273.875 446.977Z" fill="#1010E2"/>
<path d="M234.742 446.977C234.742 444.275 236.926 442.09 239.627 442.09C242.327 442.09 244.511 444.275 244.511 446.977C244.511 449.679 242.327 451.864 239.627 451.864C236.926 451.864 234.742 449.679 234.742 446.977Z" fill="#1010E2"/>
<path d="M195.638 446.977C195.638 444.533 197.62 442.521 200.091 442.521C202.562 442.521 204.545 444.505 204.545 446.977C204.545 449.449 202.562 451.433 200.091 451.433C197.62 451.433 195.638 449.449 195.638 446.977Z" fill="#1010E2"/>
<path d="M156.504 446.977C156.504 444.763 158.314 442.952 160.526 442.952C162.739 442.952 164.549 444.763 164.549 446.977C164.549 449.19 162.739 451.001 160.526 451.001C158.314 451.001 156.504 449.219 156.504 446.977Z" fill="#1010E2"/>
<path d="M117.371 446.977C117.371 444.993 118.98 443.384 120.963 443.384C122.945 443.384 124.525 444.993 124.525 446.977C124.525 448.96 122.916 450.57 120.963 450.57C119.009 450.57 117.371 448.96 117.371 446.977Z" fill="#1010E2"/>
<path d="M78.2373 446.977C78.2373 445.252 79.6452 443.843 81.3691 443.843C83.093 443.843 84.5009 445.252 84.5009 446.977C84.5009 448.702 83.093 450.11 81.3691 450.11C79.6452 450.11 78.2373 448.702 78.2373 446.977Z" fill="#1010E2"/>
<path d="M39.1328 446.977C39.1328 445.482 40.3396 444.275 41.8336 444.275C43.3277 444.275 44.5345 445.482 44.5345 446.977C44.5345 448.472 43.3277 449.679 41.8336 449.679C40.3396 449.679 39.1328 448.472 39.1328 446.977Z" fill="#1010E2"/>
<path d="M-9.92688e-08 446.977C-1.54558e-07 445.712 1.00563 444.706 2.26984 444.706C3.53406 444.706 4.53968 445.712 4.53968 446.977C4.53968 448.242 3.53406 449.248 2.26984 449.248C1.00563 449.248 -4.39799e-08 448.242 -9.92688e-08 446.977Z" fill="#1010E2"/>
<path d="M273.875 487.222C273.875 484.29 276.26 481.904 279.19 481.904C282.121 481.904 284.506 484.29 284.506 487.222C284.506 490.155 282.121 492.541 279.19 492.541C276.26 492.541 273.875 490.155 273.875 487.222Z" fill="#1010E2"/>
<path d="M234.742 487.223C234.742 484.52 236.926 482.336 239.627 482.336C242.327 482.336 244.511 484.52 244.511 487.223C244.511 489.925 242.327 492.109 239.627 492.109C236.926 492.109 234.742 489.925 234.742 487.223Z" fill="#1010E2"/>
<path d="M195.638 487.223C195.638 484.779 197.62 482.767 200.091 482.767C202.562 482.767 204.545 484.75 204.545 487.223C204.545 489.695 202.562 491.678 200.091 491.678C197.62 491.678 195.638 489.695 195.638 487.223Z" fill="#1010E2"/>
<path d="M156.504 487.223C156.504 485.009 158.314 483.198 160.526 483.198C162.739 483.198 164.549 485.009 164.549 487.223C164.549 489.436 162.739 491.247 160.526 491.247C158.314 491.247 156.504 489.465 156.504 487.223Z" fill="#1010E2"/>
<path d="M117.371 487.223C117.371 485.239 118.98 483.629 120.963 483.629C122.945 483.629 124.525 485.239 124.525 487.223C124.525 489.206 122.916 490.816 120.963 490.816C119.009 490.816 117.371 489.206 117.371 487.223Z" fill="#1010E2"/>
<path d="M78.2373 487.223C78.2373 485.498 79.6452 484.089 81.3691 484.089C83.093 484.089 84.5009 485.498 84.5009 487.223C84.5009 488.947 83.093 490.356 81.3691 490.356C79.6452 490.356 78.2373 488.947 78.2373 487.223Z" fill="#1010E2"/>
<path d="M39.1328 487.222C39.1328 485.728 40.3396 484.52 41.8336 484.52C43.3277 484.52 44.5345 485.728 44.5345 487.222C44.5345 488.717 43.3277 489.925 41.8336 489.925C40.3396 489.925 39.1328 488.717 39.1328 487.222Z" fill="#1010E2"/>
<path d="M-9.92688e-08 487.223C-1.54558e-07 485.958 1.00563 484.952 2.26984 484.952C3.53406 484.952 4.53968 485.958 4.53968 487.223C4.53968 488.487 3.53406 489.494 2.26984 489.494C1.00563 489.494 -4.39799e-08 488.487 -9.92688e-08 487.223Z" fill="#1010E2"/>
<path d="M273.875 527.468C273.875 524.536 276.26 522.15 279.19 522.15C282.121 522.15 284.506 524.536 284.506 527.468C284.506 530.4 282.121 532.786 279.19 532.786C276.26 532.786 273.875 530.4 273.875 527.468Z" fill="#1010E2"/>
<path d="M234.742 527.468C234.742 524.766 236.926 522.581 239.627 522.581C242.327 522.581 244.511 524.766 244.511 527.468C244.511 530.17 242.327 532.355 239.627 532.355C236.926 532.355 234.742 530.17 234.742 527.468Z" fill="#1010E2"/>
<path d="M195.638 527.468C195.638 525.025 197.62 523.012 200.091 523.012C202.562 523.012 204.545 524.996 204.545 527.468C204.545 529.94 202.562 531.924 200.091 531.924C197.62 531.924 195.638 529.94 195.638 527.468Z" fill="#1010E2"/>
<path d="M156.504 527.468C156.504 525.255 158.314 523.444 160.526 523.444C162.739 523.444 164.549 525.255 164.549 527.468C164.549 529.682 162.739 531.493 160.526 531.493C158.314 531.493 156.504 529.682 156.504 527.468Z" fill="#1010E2"/>
<path d="M117.371 527.468C117.371 525.485 118.98 523.875 120.963 523.875C122.945 523.875 124.525 525.485 124.525 527.468C124.525 529.452 122.916 531.062 120.963 531.062C119.009 531.062 117.371 529.452 117.371 527.468Z" fill="#1010E2"/>
<path d="M78.2373 527.468C78.2373 525.743 79.6452 524.335 81.3691 524.335C83.093 524.335 84.5009 525.743 84.5009 527.468C84.5009 529.193 83.093 530.602 81.3691 530.602C79.6452 530.602 78.2373 529.193 78.2373 527.468Z" fill="#1010E2"/>
<path d="M39.1328 527.468C39.1328 525.973 40.3396 524.766 41.8336 524.766C43.3277 524.766 44.5345 525.973 44.5345 527.468C44.5345 528.963 43.3277 530.17 41.8336 530.17C40.3396 530.17 39.1328 528.963 39.1328 527.468Z" fill="#1010E2"/>
<path d="M-9.92688e-08 527.468C-1.54558e-07 526.203 1.00563 525.197 2.26984 525.197C3.53406 525.197 4.53968 526.203 4.53968 527.468C4.53968 528.733 3.53406 529.739 2.26984 529.739C1.00563 529.739 -4.39799e-08 528.733 -9.92688e-08 527.468Z" fill="#1010E2"/>
<path d="M273.875 567.714C273.875 564.782 276.26 562.396 279.19 562.396C282.121 562.396 284.506 564.782 284.506 567.714C284.506 570.646 282.121 573.032 279.19 573.032C276.26 573.032 273.875 570.646 273.875 567.714Z" fill="#1010E2"/>
<path d="M234.742 567.714C234.742 565.012 236.926 562.827 239.627 562.827C242.327 562.827 244.511 565.012 244.511 567.714C244.511 570.416 242.327 572.601 239.627 572.601C236.926 572.601 234.742 570.416 234.742 567.714Z" fill="#1010E2"/>
<path d="M195.638 567.714C195.638 565.27 197.62 563.258 200.091 563.258C202.562 563.258 204.545 565.242 204.545 567.714C204.545 570.186 202.562 572.17 200.091 572.17C197.62 572.17 195.638 570.186 195.638 567.714Z" fill="#1010E2"/>
<path d="M156.504 567.714C156.504 565.5 158.314 563.689 160.526 563.689C162.739 563.689 164.549 565.5 164.549 567.714C164.549 569.927 162.739 571.738 160.526 571.738C158.314 571.738 156.504 569.927 156.504 567.714Z" fill="#1010E2"/>
<path d="M117.371 567.714C117.371 565.73 118.98 564.12 120.963 564.12C122.945 564.12 124.525 565.73 124.525 567.714C124.525 569.697 122.916 571.307 120.963 571.307C119.009 571.307 117.371 569.697 117.371 567.714Z" fill="#1010E2"/>
<path d="M78.2373 567.714C78.2373 565.989 79.6452 564.58 81.3691 564.58C83.093 564.58 84.5009 565.989 84.5009 567.714C84.5009 569.439 83.093 570.847 81.3691 570.847C79.6452 570.847 78.2373 569.439 78.2373 567.714Z" fill="#1010E2"/>
<path d="M39.1328 567.714C39.1328 566.219 40.3396 565.012 41.8336 565.012C43.3277 565.012 44.5345 566.219 44.5345 567.714C44.5345 569.209 43.3277 570.416 41.8336 570.416C40.3396 570.416 39.1328 569.209 39.1328 567.714Z" fill="#1010E2"/>
<path d="M-9.92684e-08 567.714C-1.54557e-07 566.449 1.00563 565.443 2.26984 565.443C3.53406 565.443 4.53968 566.449 4.53968 567.714C4.53968 568.979 3.53406 569.985 2.26984 569.985C1.00563 569.985 -4.39794e-08 568.979 -9.92684e-08 567.714Z" fill="#1010E2"/>
<path d="M273.875 607.959C273.875 605.027 276.26 602.641 279.19 602.641C282.121 602.641 284.506 605.027 284.506 607.959C284.506 610.891 282.121 613.277 279.19 613.277C276.26 613.277 273.875 610.891 273.875 607.959Z" fill="#1010E2"/>
<path d="M234.742 607.959C234.742 605.257 236.926 603.073 239.627 603.073C242.327 603.073 244.511 605.257 244.511 607.959C244.511 610.662 242.327 612.846 239.627 612.846C236.926 612.846 234.742 610.662 234.742 607.959Z" fill="#1010E2"/>
<path d="M195.638 607.959C195.638 605.516 197.62 603.504 200.091 603.504C202.562 603.504 204.545 605.487 204.545 607.959C204.545 610.432 202.562 612.415 200.091 612.415C197.62 612.415 195.638 610.432 195.638 607.959Z" fill="#1010E2"/>
<path d="M156.504 607.959C156.504 605.746 158.314 603.935 160.526 603.935C162.739 603.935 164.549 605.746 164.549 607.959C164.549 610.173 162.739 611.984 160.526 611.984C158.314 611.984 156.504 610.173 156.504 607.959Z" fill="#1010E2"/>
<path d="M117.371 607.959C117.371 605.976 118.98 604.395 120.963 604.395C122.945 604.395 124.525 606.005 124.525 607.959C124.525 609.914 122.916 611.553 120.963 611.553C119.009 611.553 117.371 609.943 117.371 607.959Z" fill="#1010E2"/>
<path d="M78.2373 607.959C78.2373 606.235 79.6452 604.826 81.3691 604.826C83.093 604.826 84.5009 606.235 84.5009 607.959C84.5009 609.684 83.093 611.093 81.3691 611.093C79.6452 611.093 78.2373 609.684 78.2373 607.959Z" fill="#1010E2"/>
<path d="M39.1328 607.959C39.1328 606.465 40.3396 605.257 41.8336 605.257C43.3277 605.257 44.5345 606.465 44.5345 607.959C44.5345 609.454 43.3277 610.662 41.8336 610.662C40.3396 610.662 39.1328 609.454 39.1328 607.959Z" fill="#1010E2"/>
<path d="M-9.92684e-08 607.959C-1.54557e-07 606.695 1.00563 605.688 2.26984 605.688C3.53406 605.688 4.53968 606.695 4.53968 607.959C4.53968 609.224 3.53406 610.23 2.26984 610.23C1.00563 610.23 -4.39794e-08 609.224 -9.92684e-08 607.959Z" fill="#1010E2"/>
<path d="M273.875 648.205C273.875 645.273 276.26 642.887 279.19 642.887C282.121 642.887 284.506 645.273 284.506 648.205C284.506 651.137 282.121 653.523 279.19 653.523C276.26 653.523 273.875 651.137 273.875 648.205Z" fill="#1010E2"/>
<path d="M234.742 648.205C234.742 645.503 236.926 643.318 239.627 643.318C242.327 643.318 244.511 645.503 244.511 648.205C244.511 650.907 242.327 653.092 239.627 653.092C236.926 653.092 234.742 650.907 234.742 648.205Z" fill="#1010E2"/>
<path d="M195.638 648.205C195.638 645.762 197.62 643.749 200.091 643.749C202.562 643.749 204.545 645.733 204.545 648.205C204.545 650.677 202.562 652.661 200.091 652.661C197.62 652.661 195.638 650.677 195.638 648.205Z" fill="#1010E2"/>
<path d="M156.504 648.205C156.504 645.992 158.314 644.18 160.526 644.18C162.739 644.18 164.549 645.992 164.549 648.205C164.549 650.419 162.739 652.23 160.526 652.23C158.314 652.23 156.504 650.419 156.504 648.205Z" fill="#1010E2"/>
<path d="M117.371 648.205C117.371 646.222 118.98 644.64 120.963 644.64C122.945 644.64 124.525 646.25 124.525 648.205C124.525 650.16 122.916 651.798 120.963 651.798C119.009 651.798 117.371 650.189 117.371 648.205Z" fill="#1010E2"/>
<path d="M78.2373 648.205C78.2373 646.48 79.6452 645.072 81.3691 645.072C83.093 645.072 84.5009 646.48 84.5009 648.205C84.5009 649.93 83.093 651.339 81.3691 651.339C79.6452 651.339 78.2373 649.93 78.2373 648.205Z" fill="#1010E2"/>
<path d="M39.1328 648.205C39.1328 646.71 40.3396 645.503 41.8336 645.503C43.3277 645.503 44.5345 646.71 44.5345 648.205C44.5345 649.7 43.3277 650.907 41.8336 650.907C40.3396 650.907 39.1328 649.7 39.1328 648.205Z" fill="#1010E2"/>
<path d="M-9.92686e-08 648.205C-1.54558e-07 646.94 1.00563 645.934 2.26984 645.934C3.53406 645.934 4.53968 646.94 4.53968 648.205C4.53968 649.47 3.53406 650.476 2.26984 650.476C1.00563 650.476 -4.39797e-08 649.47 -9.92686e-08 648.205Z" fill="#1010E2"/>
<path d="M273.875 688.451C273.875 685.518 276.26 683.132 279.19 683.132C282.121 683.132 284.506 685.518 284.506 688.451C284.506 691.383 282.121 693.769 279.19 693.769C276.26 693.769 273.875 691.383 273.875 688.451Z" fill="#1010E2"/>
<path d="M234.742 688.451C234.742 685.748 236.926 683.564 239.627 683.564C242.327 683.564 244.511 685.748 244.511 688.451C244.511 691.153 242.327 693.338 239.627 693.338C236.926 693.338 234.742 691.153 234.742 688.451Z" fill="#1010E2"/>
<path d="M195.638 688.451C195.638 686.007 197.62 683.995 200.091 683.995C202.562 683.995 204.545 685.978 204.545 688.451C204.545 690.923 202.562 692.906 200.091 692.906C197.62 692.906 195.638 690.923 195.638 688.451Z" fill="#1010E2"/>
<path d="M156.504 688.451C156.504 686.237 158.314 684.426 160.526 684.426C162.739 684.426 164.549 686.237 164.549 688.451C164.549 690.664 162.739 692.475 160.526 692.475C158.314 692.475 156.504 690.664 156.504 688.451Z" fill="#1010E2"/>
<path d="M117.371 688.451C117.371 686.467 118.98 684.886 120.963 684.886C122.945 684.886 124.525 686.496 124.525 688.451C124.525 690.405 122.916 692.044 120.963 692.044C119.009 692.044 117.371 690.434 117.371 688.451Z" fill="#1010E2"/>
<path d="M78.2373 688.451C78.2373 686.726 79.6452 685.317 81.3691 685.317C83.093 685.317 84.5009 686.726 84.5009 688.451C84.5009 690.176 83.093 691.584 81.3691 691.584C79.6452 691.584 78.2373 690.176 78.2373 688.451Z" fill="#1010E2"/>
<path d="M39.1328 688.451C39.1328 686.956 40.3396 685.749 41.8336 685.749C43.3277 685.749 44.5345 686.956 44.5345 688.451C44.5345 689.946 43.3277 691.153 41.8336 691.153C40.3396 691.153 39.1328 689.946 39.1328 688.451Z" fill="#1010E2"/>
<path d="M-9.92688e-08 688.451C-1.54558e-07 687.186 1.00563 686.18 2.26984 686.18C3.53406 686.18 4.53968 687.186 4.53968 688.451C4.53968 689.716 3.53406 690.722 2.26984 690.722C1.00563 690.722 -4.39799e-08 689.716 -9.92688e-08 688.451Z" fill="#1010E2"/>
<path d="M273.875 728.696C273.875 725.764 276.26 723.378 279.19 723.378C282.121 723.378 284.506 725.764 284.506 728.696C284.506 731.628 282.121 734.014 279.19 734.014C276.26 734.014 273.875 731.628 273.875 728.696Z" fill="#1010E2"/>
<path d="M234.742 728.696C234.742 725.994 236.926 723.809 239.627 723.809C242.327 723.809 244.511 725.994 244.511 728.696C244.511 731.398 242.327 733.583 239.627 733.583C236.926 733.583 234.742 731.398 234.742 728.696Z" fill="#1010E2"/>
<path d="M195.638 728.696C195.638 726.253 197.62 724.241 200.091 724.241C202.562 724.241 204.545 726.224 204.545 728.696C204.545 731.169 202.562 733.152 200.091 733.152C197.62 733.152 195.638 731.169 195.638 728.696Z" fill="#1010E2"/>
<path d="M156.504 728.696C156.504 726.483 158.314 724.672 160.526 724.672C162.739 724.672 164.549 726.483 164.549 728.696C164.549 730.91 162.739 732.721 160.526 732.721C158.314 732.721 156.504 730.91 156.504 728.696Z" fill="#1010E2"/>
<path d="M117.371 728.696C117.371 726.713 118.98 725.132 120.963 725.132C122.945 725.132 124.525 726.742 124.525 728.696C124.525 730.651 122.916 732.29 120.963 732.29C119.009 732.29 117.371 730.68 117.371 728.696Z" fill="#1010E2"/>
<path d="M78.2373 728.696C78.2373 726.971 79.6452 725.563 81.3691 725.563C83.093 725.563 84.5009 726.971 84.5009 728.696C84.5009 730.421 83.093 731.83 81.3691 731.83C79.6452 731.83 78.2373 730.421 78.2373 728.696Z" fill="#1010E2"/>
<path d="M39.1328 728.696C39.1328 727.202 40.3396 725.994 41.8336 725.994C43.3277 725.994 44.5345 727.202 44.5345 728.696C44.5345 730.191 43.3277 731.399 41.8336 731.399C40.3396 731.399 39.1328 730.191 39.1328 728.696Z" fill="#1010E2"/>
<path d="M-9.92687e-08 728.696C-1.54558e-07 727.431 1.00563 726.425 2.26984 726.425C3.53406 726.425 4.53968 727.431 4.53968 728.696C4.53968 729.961 3.53406 730.967 2.26984 730.967C1.00563 730.967 -4.39798e-08 729.961 -9.92687e-08 728.696Z" fill="#1010E2"/>
</g>
<defs>
<clipPath id="clip0_672_38196">
<rect width="749" height="1864" fill="white" transform="translate(0 741) rotate(-90)"/>
</clipPath>
</defs>
</svg>
