<svg width="528" height="718" viewBox="0 0 528 718" fill="none" xmlns="http://www.w3.org/2000/svg">
<g clip-path="url(#clip0_842_2259)">
<path d="M-5.17665 273.292C-19.5824 276.878 -28.3855 291.504 -24.781 305.962C-21.1897 320.424 -6.55665 329.237 7.84912 325.651C22.2549 322.065 31.058 307.439 27.4535 292.981C23.8622 278.519 9.26862 269.693 -5.17665 273.292Z" fill="#1010E2"/>
<path d="M38.4954 213.977C25.0857 217.308 16.9089 230.91 20.2453 244.332C23.5816 257.753 37.1779 265.943 50.5876 262.612C63.9973 259.28 72.1741 245.678 68.8378 232.257C65.5014 218.836 51.9051 210.645 38.4954 213.977Z" fill="#1010E2"/>
<path d="M82.0863 161.422C69.7166 164.499 62.1659 177.076 65.243 189.444C68.3244 201.824 80.8971 209.387 93.2537 206.315C105.623 203.238 113.174 190.66 110.097 178.292C107.02 165.925 94.4955 158.332 82.0863 161.422Z" fill="#1010E2"/>
<path d="M125.645 116.663C114.271 119.485 107.33 130.986 110.169 142.409C113.008 153.832 124.536 160.746 135.905 157.911C147.278 155.088 154.22 143.543 151.381 132.164C148.555 120.781 137.014 113.827 125.645 116.663Z" fill="#1010E2"/>
<path d="M169.207 80.6524C158.834 83.2331 152.54 93.6883 155.125 104.07C157.709 114.453 168.16 120.757 178.533 118.176C188.907 115.595 195.2 105.14 192.616 94.7577C190.031 84.3755 179.58 78.0716 169.207 80.6524Z" fill="#1010E2"/>
<path d="M212.765 54.4298C203.445 56.7516 197.777 66.2266 200.102 75.5548C202.427 84.883 211.859 90.6167 221.192 88.2905C230.512 85.9687 236.193 76.5332 233.855 67.1655C231.525 57.7802 222.098 52.1036 212.765 54.4298Z" fill="#1010E2"/>
<path d="M256.393 39.022C248.109 41.0761 243.054 49.4876 245.124 57.8188C247.199 66.1632 255.603 71.2126 263.887 69.1585C272.172 67.1044 277.226 58.693 275.156 50.3617C273.081 42.0173 264.678 36.9679 256.393 39.022Z" fill="#1010E2"/>
<path d="M300.093 35.4516C292.809 37.2642 288.377 44.6384 290.192 51.9288C292.007 59.2192 299.378 63.6589 306.662 61.8463C313.946 60.0338 318.379 52.6595 316.564 45.3691C314.749 38.0788 307.377 33.6391 300.093 35.4516Z" fill="#1010E2"/>
<path d="M343.791 44.648C337.503 46.2059 333.684 52.5604 335.257 58.8495C336.817 65.1429 343.169 68.9685 349.453 67.3975C355.741 65.8397 359.56 59.4852 357.987 53.1961C356.427 46.9027 350.075 43.0771 343.791 44.648Z" fill="#1010E2"/>
<path d="M387.585 67.7045C382.337 69.0078 379.139 74.3251 380.444 79.5777C381.749 84.8303 387.064 88.033 392.313 86.7298C397.561 85.4265 400.758 80.1092 399.449 74.8434C398.143 69.5908 392.828 66.3881 387.58 67.6913L387.585 67.7045Z" fill="#1010E2"/>
</g>
<defs>
<clipPath id="clip0_842_2259">
<rect width="489.411" height="807.299" fill="white" transform="translate(374.851) rotate(71.7862)"/>
</clipPath>
</defs>
</svg>
