<svg width="82" height="65" viewBox="0 0 82 65" fill="none" xmlns="http://www.w3.org/2000/svg">
<path id="Vector" opacity="0.5" d="M81.4934 29.9333C80.179 31.7619 78.5076 33.3293 76.4359 34.6878C74.5992 35.9156 72.4404 36.9693 69.8289 37.9271C59.3831 41.7499 53.9077 50.362 49.5901 58.1468C49.3464 58.591 49.1375 59.0351 48.9634 59.4792C48.8154 59.8362 48.6587 60.2368 48.4759 60.7157C48.0581 61.8303 47.6576 62.884 47.0048 63.6502C46.9699 63.7025 46.9264 63.7461 46.8655 63.7983L46.8219 63.8419L46.7784 63.8941C46.7175 63.9551 46.6478 64.016 46.6043 64.0508L46.4999 64.1292L46.4128 64.1815L46.3519 64.2424L46.3171 64.2598L46.2561 64.3033C46.2561 64.3033 46.2126 64.3295 46.1952 64.3469L45.9689 64.4688C45.8557 64.5297 45.7948 64.5559 45.7687 64.5646L45.6816 64.5907H45.6642L45.6033 64.6169L45.4727 64.6778C45.4727 64.6778 45.3073 64.73 45.2638 64.7387L45.2202 64.7562H45.1767C45.1158 64.7823 45.0636 64.7997 45.0026 64.8084L44.9504 64.8258H44.9069L44.8808 64.8432H44.8372L44.7676 64.8607C44.6022 64.8955 44.4194 64.9216 44.2279 64.9391C43.8884 64.9826 43.5663 65 43.2617 65C43.1224 65 42.9744 64.9913 42.8264 64.9826C42.722 64.9826 42.6175 64.9739 42.5218 64.9651L42.3912 64.9391H42.2954L42.1649 64.9129H42.0952L42.0691 64.8955H42.0343C41.5816 64.8084 41.1551 64.6778 40.7199 64.4862C40.5893 64.4253 40.45 64.3469 40.2846 64.2598C40.1802 64.2076 40.0931 64.1553 40.0061 64.0944L39.9364 64.0508C39.8494 63.9899 39.7623 63.9376 39.6753 63.8767L39.623 63.8331L39.5621 63.7983C39.5621 63.7983 39.4838 63.746 39.449 63.7199C39.388 63.6764 39.3358 63.6328 39.2748 63.5893L39.1878 63.5197C39.0398 63.3978 38.9005 63.2758 38.7525 63.1452L38.7177 63.1104L38.6829 63.0843C38.6829 63.0843 38.6046 63.0146 38.5785 62.9884L38.5436 62.9536L38.5001 62.9188C38.3608 62.7882 38.2302 62.6576 38.091 62.5182L37.8559 62.2918C37.7863 62.2134 37.708 62.1351 37.6296 62.048L37.6122 62.0306L37.5165 61.9348C37.4729 61.8826 37.4294 61.839 37.3772 61.7868C37.1509 61.543 36.9158 61.2904 36.6634 61.0292C36.5067 60.855 36.3326 60.6722 36.1237 60.4632L36.0366 60.3587C36.0366 60.3587 35.9583 60.2803 35.9148 60.2368C35.8451 60.1671 35.7842 60.0974 35.7146 60.0278C35.6014 59.9059 35.4795 59.7839 35.3664 59.6707C34.0519 58.3558 32.7114 56.9277 31.4144 55.5432C26.2959 50.092 21.0033 44.4581 14.4051 42.0286C14.2136 41.9589 14.022 41.8805 13.8567 41.8109C13.6651 41.7325 13.4737 41.6454 13.2996 41.567C13.0471 41.4538 12.8121 41.3406 12.577 41.2187L12.5596 41.2013H12.5422C12.4465 41.1491 12.3594 41.0968 12.2288 41.0271C11.8807 40.8356 11.515 40.6091 11.132 40.3566C10.9405 40.226 10.7577 40.0954 10.5836 39.9647C10.5227 39.9125 10.4705 39.869 10.4095 39.8342C10.2093 39.6687 10.0091 39.512 9.8263 39.3552C9.45199 39.033 9.06028 38.6673 8.63374 38.2319C8.39871 37.9968 8.17238 37.7617 7.92865 37.4917C7.82419 37.3698 7.71104 37.2392 7.61529 37.1173L7.58917 37.0824L7.55435 37.0389C7.37154 36.8386 7.18875 36.6296 7.01465 36.4032C6.61422 35.9243 6.23121 35.4367 5.8482 34.9403C5.57835 34.6007 5.31719 34.2698 5.04734 33.9215C4.82102 33.6429 4.5947 33.3642 4.37708 33.1116C4.17687 32.8591 3.96796 32.6153 3.75904 32.3802C3.62847 32.2235 3.48919 32.0667 3.3238 31.9013C3.23675 31.8055 3.14968 31.7097 3.05392 31.6139L2.94078 31.492C2.6187 31.1524 2.29661 30.8389 2.03547 30.6038L1.91359 30.4819C1.86136 30.4383 1.81785 30.3861 1.76562 30.3425C1.65246 30.2293 1.54799 30.1161 1.45223 30.0116L1.31295 29.8636C1.25202 29.8026 1.19981 29.733 1.14758 29.6721L1.11276 29.6285L1.08664 29.5937C1.08664 29.5937 1.03442 29.5327 1.0083 29.5066L0.921248 29.3847C0.869019 29.3324 0.834205 29.2715 0.790681 29.2105C0.660108 29.0276 0.555636 28.8622 0.477292 28.6968C0.459883 28.6619 0.442466 28.6184 0.416352 28.5748L0.381552 28.4704L0.338011 28.3571V28.3397L0.311898 28.3136C0.285783 28.2352 0.259662 28.1482 0.250957 28.0959C0.224843 28.0088 0.224854 27.9304 0.207444 27.8434C0.207444 27.7911 0.19873 27.7389 0.19873 27.6866C0.19873 26.8071 0.973482 25.7448 2.55777 24.4386L2.91467 24.1425C3.24545 23.8726 3.56751 23.6026 3.87218 23.3501L4.18557 23.0889C4.48153 22.8363 4.7775 22.5925 5.05606 22.3661L5.70892 21.8262L6.32696 21.3124L6.57941 21.0947C6.67516 21.0164 6.77091 20.938 6.87537 20.8509L7.08428 20.6855C7.36283 20.4504 7.63268 20.2327 7.86771 20.0324L8.09404 19.8408C8.22462 19.7363 8.35519 19.6318 8.47706 19.5273L8.59023 19.4403C8.73821 19.3184 8.88618 19.1964 8.99064 19.1006C9.17344 18.9526 9.33885 18.822 9.49554 18.6913L9.64351 18.5608L9.8263 18.4127C9.96558 18.2995 10.1049 18.195 10.2267 18.0818L11.0798 17.3765C11.3409 17.1675 11.5412 17.002 11.7066 16.8627H11.724L11.7414 16.8366C11.7762 16.8104 11.8023 16.7843 11.8284 16.7669H11.9242L11.9503 16.7408L12.403 16.288C13.169 15.6436 13.9698 14.947 14.997 14.0414L15.0405 14.0065C19.9936 9.66125 25.1208 4.74133 29.6212 0.0129395L29.6821 0.0564683L29.7691 0.108714C32.9464 1.91125 36.115 3.72248 38.9963 5.37698C37.6122 10.0357 34.0781 11.3332 29.6821 12.9442C26.5135 14.111 22.9271 15.4346 20.0545 18.3082L18.3571 19.9975L20.4897 21.086C21.9173 21.8088 23.2579 22.6274 24.5549 23.4111C27.4101 25.1265 30.0912 26.7461 33.0857 27.1206C39.5099 27.9304 46.0646 28.1394 52.4018 28.3484C55.344 28.4442 58.3907 28.5487 61.3678 28.7054C65.0673 28.9057 68.8191 29.1321 72.449 29.3585C73.3456 29.4108 74.251 29.4717 75.1476 29.524C76.0964 29.5849 77.0539 29.6459 78.0027 29.7156C79.1692 29.7852 80.3357 29.8636 81.4934 29.9333Z" fill="white"/>
</svg>
