<svg width="46" height="84" viewBox="0 0 46 84" fill="none" xmlns="http://www.w3.org/2000/svg">
<path id="Vector" opacity="0.5" d="M45.8901 39.3022C45.5507 41.3311 45.2373 43.3949 44.9326 45.3977C44.1753 50.3699 43.4006 55.5163 42.0861 60.3753C41.4159 62.857 38.9872 65.8177 37.0895 66.4534C36.959 66.497 36.7326 66.5492 36.3496 66.5492C34.4519 66.5492 31.6316 65.304 30.7611 64.0761C29.1072 61.725 26.9571 60.532 24.3804 60.532C22.77 60.532 21.2902 60.9761 19.9845 61.368L19.6711 61.4551C17.0161 62.2562 14.6136 66.5928 14.6919 69.3706C14.866 75.8841 13.3949 80.4731 9.9652 83.9215C8.95544 81.3352 7.98049 78.6532 7.20576 76.2585C7.2754 75.8579 7.38855 75.1091 7.61488 73.6897L7.91085 71.7478C7.94567 71.5824 7.97178 71.4082 7.99789 71.1992C8.80745 65.2517 10.3047 60.5582 11.6278 56.4132C14.8921 46.1814 17.2512 38.7623 5.27328 24.8906C4.75099 22.4437 4.38538 20.5541 4.2461 19.6659V19.5701L4.22869 19.0389L4.06331 18.8734C3.52361 16.9229 2.03507 14.1015 0.259277 11.6198L1.81745 10.5922L1.86097 10.5574L1.90449 10.5313C4.2374 8.76357 6.57031 6.99587 8.90321 5.22816C11.0707 3.59108 13.2295 1.95398 15.397 0.316895L26.5392 0.865497L38.1776 1.4315C43.1568 1.9801 45.542 2.69415 45.8379 6.8217L45.864 20.3015L45.8901 39.3022Z" fill="white"/>
</svg>
