<svg width="31" height="31" viewBox="0 0 31 31" fill="none" xmlns="http://www.w3.org/2000/svg">
<circle cx="15.5" cy="15.5" r="15" fill="#FAFBFF" stroke="#1010E2"/>
<g clip-path="url(#clip0_694_22460)">
<rect width="19.0227" height="19.0227" transform="translate(6.34082 5.63623)" fill="#FAFBFF"/>
<path d="M19.9039 21.4099L19.9039 21.4099C20.1345 21.5861 20.3953 21.7853 20.6418 21.9625C20.8631 22.1215 20.9647 22.3053 20.9933 22.4879C21.0216 22.6686 20.9773 22.8423 20.9176 22.9822C20.8163 23.2198 20.6123 23.4123 20.3709 23.4977C20.233 23.5465 20.019 23.5827 19.8001 23.4667L19.8235 23.4226L19.8001 23.4667C18.6888 22.8781 17.9058 21.8033 17.3396 21.026L17.3374 21.023C17.063 20.6464 16.8304 20.3273 16.5942 20.1017C16.3592 19.8771 16.1263 19.7505 15.8522 19.7505C15.5781 19.7505 15.3451 19.8771 15.1101 20.1017C14.874 20.3273 14.6413 20.6464 14.367 21.023L14.3644 21.0265C13.7982 21.8037 13.0153 22.8782 11.9043 23.4667L19.9039 21.4099ZM19.9039 21.4099L19.8996 21.4066C19.6617 21.2249 19.4352 21.0519 19.2984 20.9605C18.852 20.6621 18.7129 20.1503 18.9509 19.7142C19.1922 19.272 19.7332 19.0929 20.2111 19.3005C20.4947 19.4238 20.9598 19.5594 21.4411 19.6642C21.9223 19.7689 22.4249 19.8439 22.7835 19.8439C23.2702 19.8439 23.6659 19.4482 23.6659 18.9616C23.6659 18.475 23.2702 18.0792 22.7836 18.0792C20.9814 18.0792 19.6792 17.5139 19.1859 16.551C18.8288 15.8537 18.9359 15.0121 19.4925 14.2392C20.1473 13.3298 20.4808 12.3675 20.4808 11.3794C20.4808 8.82717 18.4045 6.75085 15.8522 6.75085C13.2999 6.75085 11.2236 8.82717 11.2236 11.3795C11.2236 12.3675 11.5571 13.3299 12.2119 14.2392C12.7685 15.0122 12.8756 15.8537 12.5185 16.551C12.0252 17.514 10.723 18.0793 8.92081 18.0793C8.43423 18.0793 8.03845 18.475 8.03845 18.9616C8.03845 19.4482 8.43419 19.844 8.92081 19.844C9.27945 19.844 9.78205 19.769 10.2633 19.6642C10.7446 19.5595 11.2097 19.4239 11.4932 19.3006L11.4932 19.3006C11.9709 19.0928 12.5121 19.272 12.7535 19.7142L12.7974 19.6903L12.7535 19.7142C12.9915 20.1503 12.8524 20.6621 12.4058 20.9605L12.4058 20.9605C12.269 21.052 12.042 21.2254 11.8037 21.4074L11.8004 21.4099L11.8004 21.4099M19.9039 21.4099L11.8004 21.4099M11.8004 21.4099C11.5698 21.5861 11.3091 21.7853 11.0625 21.9625C10.8413 22.1215 10.7396 22.3053 10.7111 22.4879C10.6828 22.6686 10.727 22.8423 10.7867 22.9822C10.8881 23.2198 11.092 23.4123 11.3335 23.4977L11.8004 21.4099ZM11.0008 20.6809L10.9578 20.5928C10.2794 20.771 9.48644 20.9085 8.92081 20.9085C7.84726 20.9085 6.97383 20.0351 6.97383 18.9615C6.97383 17.888 7.84726 17.0146 8.92081 17.0146C9.43979 17.0146 10.0093 16.9537 10.4944 16.8064C10.9773 16.6597 11.3874 16.4239 11.5709 16.0656L11.5264 16.0428L11.5709 16.0656C11.795 15.6282 11.5647 15.1623 11.348 14.8612C10.5694 13.78 10.159 12.5759 10.159 11.3794C10.159 8.24024 12.713 5.68623 15.8522 5.68623C18.9914 5.68623 21.5454 8.24023 21.5454 11.3795C21.5454 12.576 21.135 13.7801 20.3564 14.8613C20.1396 15.1623 19.9094 15.6282 20.1334 16.0657L20.1779 16.0429L20.1335 16.0657C20.317 16.4239 20.7271 16.6598 21.21 16.8064C21.695 16.9538 22.2646 17.0146 22.7835 17.0146C23.8571 17.0146 24.7305 17.888 24.7305 18.9615C24.7305 20.0351 23.8571 20.9085 22.7835 20.9085C22.2179 20.9085 21.4249 20.771 20.7466 20.5928L20.7035 20.6809C20.8865 20.8203 21.0811 20.9671 21.2633 21.0981L21.2925 21.0575L21.2633 21.0981C22.0268 21.6469 22.2694 22.5269 21.8969 23.4C21.6775 23.9142 21.2507 24.3156 20.7262 24.5013C20.5229 24.5733 20.3157 24.6089 20.1115 24.6089C19.8304 24.6089 19.5546 24.5414 19.3018 24.4075C17.9747 23.7046 17.1119 22.5216 16.4769 21.6498L16.4754 21.6478C16.2904 21.3939 16.0477 21.0606 15.888 20.8967L15.8522 20.8599L15.8164 20.8967C15.6567 21.0606 15.4139 21.3939 15.229 21.6478L15.2275 21.6498C14.5924 22.5215 13.7297 23.7046 12.4026 24.4075C11.9665 24.6385 11.461 24.6722 10.9782 24.5013C10.4537 24.3156 10.0268 23.9142 9.80744 23.4C9.43497 22.5269 9.67754 21.6469 10.441 21.0981C10.6233 20.9671 10.8179 20.8202 11.0008 20.6809Z" fill="#1010E2" stroke="#1010E2" stroke-width="0.1"/>
<path d="M13.9146 11.2676C13.4933 11.2676 13.1504 11.614 13.1504 12.0417C13.1504 12.4693 13.4932 12.816 13.9146 12.816C14.3365 12.816 14.6793 12.4694 14.6793 12.0417C14.6793 11.6139 14.3365 11.2676 13.9146 11.2676Z" fill="#1010E2"/>
<path d="M17.7842 11.2617C17.3588 11.2617 17.0137 11.611 17.0137 12.0419C17.0137 12.4727 17.3588 12.822 17.7842 12.822C18.2091 12.822 18.5541 12.4727 18.5541 12.0419C18.5541 11.611 18.2091 11.2617 17.7842 11.2617Z" fill="#1010E2"/>
</g>
<defs>
<clipPath id="clip0_694_22460">
<rect width="19.0227" height="19.0227" fill="white" transform="translate(6.34082 5.63623)"/>
</clipPath>
</defs>
</svg>
