<?xml version="1.0" encoding="UTF-8"?><svg id="Layer_2" xmlns="http://www.w3.org/2000/svg" viewBox="0 0 716.47 1081.87"><defs><style>.cls-1{fill:#000abe;}.cls-2{fill:#7371ff;}.cls-3{fill:#1010e2;}.cls-4{fill:#515cff;}</style></defs><g id="_Layer_"><ellipse class="cls-2" cx="207.55" cy="55.93" rx="45.58" ry="30" transform="translate(-4.41 91.68) rotate(-24.65)"/><path class="cls-2" d="m104.5,70.4c18.64-8.69,38.46-5.83,44.28,6.39,5.82,12.22-4.58,29.17-23.21,37.86-18.64,8.69-38.46,5.83-44.28-6.39-5.82-12.22,4.58-29.17,23.21-37.86Z"/><path class="cls-2" d="m42.06,132.78c10.06-15.65,26.6-23.03,36.95-16.49,10.35,6.54,10.58,24.52.53,40.17-10.06,15.65-26.6,23.03-36.95,16.49-10.35-6.54-10.58-24.52-.53-40.16Z"/><path class="cls-2" d="m1.48,227.56c4.48-18.05,17.76-30.37,29.67-27.52,11.9,2.85,17.92,19.8,13.44,37.85-4.48,18.05-17.76,30.37-29.67,27.52-11.9-2.85-17.92-19.8-13.44-37.85Z"/><path class="cls-2" d="m.92,339.67c-1.13-18.56,7.85-34.3,20.06-35.14,12.21-.84,23.03,13.53,24.16,32.09,1.13,18.56-7.85,34.3-20.06,35.14-12.21.84-23.03-13.53-24.16-32.09Z"/><path class="cls-3" d="m486.61,1081.87c17.45-10.06,33.58-22.33,45.91-37.2,52.31-63.06-32.65-188.22,83.43-357.18,121.69-177.14,143.13-460.55,7.32-560.19-102.6-75.27-60.5-20.06-38.96,59.81,21.54,79.87,38.83,296.72-51.79,396.38-90.62,99.66-269.09,281.47-267.17,301.44.92,9.6,50.1,130.94,77.08,196.94h144.18Z"/><path class="cls-3" d="m510.63,185.27s-248.62-133.83-372.24,23.69c-96.66,123.16,30.25,187.15,126.95,169.3,96.7-17.85-117.39,64.24-205.97,32.59-88.58-31.65-.64-299.01,80.03-321.8,80.67-22.79,239.46-39.72,239.46-39.72l153.67,117.7-21.9,18.23Z"/><path class="cls-4" d="m126.11,452.55c85.45,6.1,169.68-33.28,179.68-66.91,10-33.63-61.46,12.61-149.74,0-88.28-12.61-104.94-52.66-108.06-121.26-3.33-73.34,51.38-125.84,121.91-158.66,54.43-25.33,224.85-29.22,350.64,88.48,50.24,47.01,62.95,86.34,55.21,157.81-7.74,71.46-27.52,112.88-183.05,260.01-145.27,137.42-195.36,251.93-212.57,449.09-.63,7.25.37,14.27,2.64,20.76h226.31c-2.36-67.71-45.01-232.07,85.25-352.05,159.74-147.13,182.94-304.71,186.78-346.74,3.84-42.04,26.5-187.31-86.12-284.21C477.77-2,311.29-8.69,194.77,42.04,80.9,91.6,35.58,133.79,16.79,233.76c-18.64,99.15,11.05,211.77,109.33,218.78Z"/><ellipse class="cls-2" cx="369.56" cy="865.33" rx="83.52" ry="54.19" transform="translate(-563.26 988.68) rotate(-74.41)"/><ellipse class="cls-4" cx="370.05" cy="863.9" rx="45.44" ry="29.48" transform="translate(-561.52 988.11) rotate(-74.41)"/><ellipse class="cls-2" cx="260.07" cy="852.75" rx="77.83" ry="48.52" transform="translate(-630.22 805.79) rotate(-70.02)"/><ellipse class="cls-4" cx="260.63" cy="851.45" rx="42.35" ry="26.4" transform="translate(-628.63 805.45) rotate(-70.02)"/><path class="cls-2" d="m419.16,1081.87c3.93-9.92,6.47-20.95,7.23-32.65,3.07-46.81-23.32-86.65-58.95-88.99-35.63-2.34-67.01,33.71-70.08,80.52-.97,14.71.98,28.74,5.21,41.12h116.59Z"/><path class="cls-4" d="m341.55,1081.87h38.94c9.19-7.83,15.7-20.91,16.7-36.11,1.67-25.47-12.69-47.15-32.07-48.42-19.39-1.27-36.46,18.34-38.13,43.81-1.11,16.85,4.83,32,14.57,40.72Z"/><path class="cls-2" d="m270.75,1081.87c9.15-13.27,15.35-30.47,16.81-49.6,3.45-44.95-20.45-83.43-53.37-85.96-32.92-2.52-62.41,31.87-65.85,76.82-1.72,22.4,3.36,43.2,12.96,58.74h89.45Z"/><ellipse class="cls-4" cx="228.16" cy="1026.23" rx="44.41" ry="32.53" transform="translate(-812.51 1175.29) rotate(-85.62)"/><ellipse class="cls-2" cx="441.55" cy="720.8" rx="74.08" ry="51.69" transform="translate(-395.61 603.79) rotate(-50.55)"/><ellipse class="cls-4" cx="442.47" cy="719.82" rx="40.3" ry="28.12" transform="translate(-394.51 604.14) rotate(-50.55)"/><ellipse class="cls-2" cx="326.75" cy="704.14" rx="72.01" ry="43.7" transform="translate(-432.39 542) rotate(-53.05)"/><path class="cls-4" d="m346.59,717.43c-13.01,17.29-32.06,24.91-42.55,17.02-10.49-7.89-8.46-28.31,4.55-45.6,13.01-17.29,32.06-24.91,42.55-17.02,10.49,7.89,8.46,28.31-4.55,45.6Z"/><ellipse class="cls-2" cx="555.76" cy="616.17" rx="69.03" ry="46.06" transform="translate(-273.6 589.73) rotate(-46.12)"/><path class="cls-4" d="m574.99,632.42c-14.28,15.04-34.06,19.58-44.17,10.13-10.11-9.45-6.74-29.31,7.55-44.35,14.28-15.04,34.06-19.58,44.17-10.13,10.11,9.45,6.74,29.31-7.55,44.35Z"/><ellipse class="cls-2" cx="448.26" cy="579.95" rx="68.65" ry="45.82" transform="translate(-265.22 411.94) rotate(-39.05)"/><path class="cls-4" d="m464.92,598.64c-16.04,12.97-36.05,14.79-44.68,4.07-8.64-10.72-2.64-29.93,13.4-42.9,16.04-12.97,36.05-14.79,44.68-4.07,8.64,10.72,2.64,29.93-13.4,42.9Z"/><path class="cls-2" d="m583.01,484.31c-20.26,31.37-52.32,46.65-71.62,34.14-19.3-12.51-18.53-48.09,1.73-79.46,20.26-31.37,52.32-46.65,71.62-34.14,19.3,12.52,18.53,48.09-1.73,79.46Z"/><path class="cls-4" d="m567.8,472.99c-11.02,17.07-28.47,25.38-38.97,18.57-10.5-6.81-10.08-26.16.94-43.23,11.02-17.07,28.47-25.38,38.97-18.57,10.5,6.81,10.08,26.16-.94,43.23Z"/><ellipse class="cls-2" cx="543.1" cy="84.59" rx="31.74" ry="45.21" transform="translate(132.65 450.17) rotate(-50.54)"/><path class="cls-4" d="m553.26,70.53c10.56,8.55,14.29,21.53,8.35,28.99-5.94,7.46-19.32,6.57-29.88-1.98-10.56-8.55-14.29-21.53-8.35-28.99,5.94-7.46,19.32-6.57,29.88,1.98Z"/><path class="cls-2" d="m527.71,124.23c21.47,17.38,30.06,42.53,19.18,56.19-10.88,13.66-37.1,10.64-58.56-6.74-21.47-17.38-30.06-42.53-19.18-56.19,10.88-13.66,37.1-10.64,58.56,6.74Z"/><path class="cls-4" d="m518.06,134.9c11.68,9.45,16.35,23.14,10.44,30.57-5.92,7.43-20.18,5.79-31.86-3.67-11.68-9.45-16.35-23.14-10.44-30.57,5.92-7.43,20.18-5.79,31.86,3.67Z"/><path class="cls-2" d="m467.14,11.03c21.43,8.19,34.52,26.29,29.24,40.43-5.28,14.14-26.92,18.97-48.35,10.78-21.43-8.19-34.52-26.29-29.24-40.43,5.28-14.14,26.92-18.97,48.35-10.78Z"/><path class="cls-4" d="m462.09,22.39c11.66,4.45,18.78,14.3,15.91,22-2.87,7.7-14.65,10.32-26.31,5.87-11.66-4.45-18.78-14.3-15.91-22,2.87-7.7,14.65-10.32,26.31-5.87Z"/><path class="cls-2" d="m429.76,71.99c22.14,8.63,35.22,28.44,29.2,44.25-6.02,15.81-28.84,21.62-50.99,12.99-22.14-8.63-35.22-28.44-29.2-44.25,6.02-15.81,28.84-21.62,50.99-12.99Z"/><path class="cls-4" d="m424.08,84.71c12.05,4.7,19.16,15.47,15.89,24.07-3.27,8.6-15.69,11.76-27.74,7.07-12.05-4.7-19.16-15.47-15.89-24.07,3.27-8.6,15.69-11.76,27.74-7.07Z"/><path class="cls-2" d="m367.27.18c20.03,1.61,35.48,13.61,34.53,26.79-.96,13.19-17.96,22.57-37.99,20.96-20.03-1.61-35.48-13.61-34.53-26.79.96-13.19,17.96-22.57,37.99-20.96Z"/><path class="cls-4" d="m365.83,10.97c10.9.88,19.31,7.4,18.79,14.58-.52,7.17-9.77,12.28-20.67,11.4-10.9-.88-19.31-7.4-18.79-14.58.52-7.17,9.77-12.28,20.67-11.4Z"/><path class="cls-2" d="m343.71,56.47c16.51,2.37,28.47,14.86,26.7,27.91-1.76,13.05-16.57,21.71-33.08,19.35-16.51-2.37-28.47-14.86-26.7-27.91,1.76-13.05,16.57-21.71,33.08-19.35Z"/><path class="cls-4" d="m341.72,67.13c8.98,1.29,15.49,8.09,14.53,15.19s-9.02,11.81-18,10.53c-8.98-1.29-15.49-8.09-14.53-15.19.96-7.1,9.02-11.81,18-10.53Z"/><path class="cls-2" d="m285.52,7.65c18.18-.27,33.13,9.22,33.4,21.18.27,11.96-14.25,21.87-32.43,22.14-18.18.27-33.13-9.22-33.4-21.18-.27-11.96,14.25-21.87,32.43-22.14Z"/><path class="cls-4" d="m285.15,17.5c9.89-.14,18.03,5.01,18.17,11.52.15,6.51-7.75,11.9-17.64,12.05-9.89.14-18.03-5.01-18.17-11.52-.15-6.51,7.75-11.9,17.64-12.05Z"/><ellipse class="cls-2" cx="266.85" cy="75.91" rx="23.84" ry="34.74" transform="translate(153.17 328.99) rotate(-81.69)"/><path class="cls-4" d="m267.91,62.92c10.34,1.44,17.97,8.36,17.04,15.46-.93,7.1-10.06,11.7-20.4,10.26-10.34-1.44-17.97-8.36-17.04-15.46.93-7.1,10.06-11.7,20.4-10.26Z"/><path class="cls-2" d="m102.15,362.22c-15.82-2.73-30.17,3.48-32.05,13.88-1.88,10.4,9.42,21.04,25.24,23.77,15.82,2.73,30.17-3.48,32.05-13.88,1.88-10.4-9.42-21.04-25.24-23.77Z"/><path class="cls-4" d="m101.13,370.86c-8.61-1.49-16.42,1.9-17.44,7.55-1.02,5.66,5.13,11.45,13.74,12.93,8.61,1.49,16.42-1.9,17.44-7.55,1.02-5.66-5.13-11.45-13.74-12.93Z"/><path class="cls-2" d="m128.09,422.6c-16.94-.31-30.92,8.86-31.23,20.49-.31,11.63,13.18,21.3,30.12,21.61,16.94.31,30.92-8.86,31.23-20.49.31-11.63-13.18-21.3-30.12-21.61Z"/><path class="cls-4" d="m128.4,432.17c-9.22-.17-16.83,4.82-16.99,11.15-.17,6.33,7.17,11.59,16.39,11.76,9.22.17,16.83-4.82,16.99-11.15.17-6.33-7.17-11.59-16.39-11.76Z"/><path class="cls-2" d="m177.1,378.8c-15.61-1.32-28.93,4.9-29.77,13.9-.84,9,11.14,17.37,26.74,18.69,15.61,1.32,28.93-4.9,29.77-13.9.84-9-11.14-17.37-26.74-18.69Z"/><path class="cls-4" d="m176.92,386.25c-8.49-.72-15.74,2.67-16.2,7.56-.45,4.9,6.06,9.45,14.55,10.17,8.49.72,15.74-2.67,16.2-7.56.45-4.9-6.06-9.45-14.55-10.17Z"/><path class="cls-2" d="m188.34,419.9c-14.81,2.15-25.8,11.35-24.54,20.54,1.26,9.19,14.29,14.9,29.1,12.75,14.81-2.15,25.8-11.35,24.54-20.54-1.26-9.19-14.29-14.9-29.1-12.75Z"/><path class="cls-4" d="m189.87,427.39c-8.06,1.17-14.03,6.17-13.35,11.17.69,5,7.77,8.11,15.83,6.94,8.06-1.17,14.03-6.17,13.35-11.17-.69-5-7.77-8.11-15.83-6.94Z"/><path class="cls-2" d="m228.17,373.04c-11.63,4.67-18.62,14.68-15.61,22.36,3.01,7.68,14.88,10.12,26.51,5.45,11.63-4.67,18.62-14.68,15.61-22.36-3.01-7.68-14.88-10.12-26.51-5.45Z"/><path class="cls-4" d="m231.03,379.2c-6.33,2.54-10.13,7.99-8.49,12.16,1.64,4.18,8.1,5.51,14.43,2.96,6.33-2.54,10.13-7.99,8.49-12.16-1.64-4.18-8.1-5.51-14.43-2.96Z"/><path class="cls-2" d="m231.81,403.16c-11.38,6.74-16.91,18.56-12.35,26.41,4.56,7.85,17.49,8.75,28.87,2.02,11.38-6.74,16.91-18.56,12.35-26.41-4.56-7.85-17.49-8.75-28.87-2.02Z"/><path class="cls-4" d="m235.94,409.39c-6.19,3.67-9.2,10.1-6.72,14.37,2.48,4.27,9.51,4.76,15.71,1.1,6.19-3.67,9.2-10.1,6.72-14.37-2.48-4.27-9.51-4.76-15.71-1.1Z"/><path class="cls-2" d="m281.08,390.36c-9.07,8.65-12.89,19.43-8.53,24.08,4.36,4.65,15.25,1.41,24.32-7.24,9.07-8.65,12.89-19.43,8.53-24.08-4.36-4.65-15.25-1.41-24.32,7.24Z"/><path class="cls-4" d="m284.96,393.9c-4.94,4.71-7.01,10.57-4.64,13.1,2.37,2.53,8.3.77,13.23-3.94,4.94-4.71,7.01-10.57,4.64-13.1-2.37-2.53-8.3-.77-13.23,3.94Z"/><path class="cls-2" d="m674.01,508.19c-12.03,35.35-39.42,57.96-61.18,50.51-21.76-7.45-29.65-42.15-17.63-77.5,12.03-35.35,39.42-57.96,61.18-50.51,21.76,7.45,29.65,42.15,17.63,77.5Z"/><path class="cls-4" d="m656.5,500.9c-6.54,19.23-21.45,31.54-33.29,27.48-11.84-4.05-16.13-22.93-9.59-42.16,6.54-19.23,21.45-31.54,33.29-27.48,11.84,4.05,16.13,22.93,9.59,42.16Z"/><ellipse class="cls-2" cx="583.5" cy="333.21" rx="60.32" ry="37.16" transform="translate(132.37 831.19) rotate(-77.55)"/><path class="cls-4" d="m603.53,336.58c-3.93,17.7-15.94,30.06-26.84,27.62-10.9-2.44-16.55-18.76-12.62-36.46,3.93-17.7,15.94-30.06,26.84-27.62,10.9,2.44,16.55,18.76,12.62,36.46Z"/><ellipse class="cls-2" cx="666.15" cy="354.47" rx="37.16" ry="60.32" transform="translate(-9.73 18.92) rotate(-1.62)"/><path class="cls-4" d="m686.39,352.87c.49,18.12-8.16,33.04-19.33,33.32-11.16.28-20.61-14.18-21.1-32.3-.49-18.12,8.16-33.04,19.33-33.32,11.16-.28,20.61,14.18,21.1,32.3Z"/><path class="cls-2" d="m700.54,217.93c10.17,22.8,2.63,48.49-16.84,57.37-19.47,8.88-43.5-2.41-53.68-25.21-10.17-22.8-2.63-48.49,16.84-57.37,19.47-8.88,43.5,2.41,53.68,25.21Z"/><path class="cls-4" d="m684.19,224.49c5.53,12.41,1.43,26.38-9.16,31.21-10.59,4.83-23.67-1.31-29.2-13.72-5.53-12.41-1.43-26.38,9.16-31.21s23.67,1.31,29.2,13.72Z"/><ellipse class="cls-2" cx="573.32" cy="228.09" rx="31.61" ry="50.01" transform="translate(-43.28 250.97) rotate(-23.82)"/><path class="cls-4" d="m588.64,220.09c6.14,13.72,4.12,28.04-4.52,31.99-8.64,3.95-20.62-3.97-26.76-17.68-6.14-13.72-4.12-28.04,4.52-31.99,8.64-3.95,20.62,3.97,26.76,17.68Z"/><ellipse class="cls-2" cx="613.36" cy="149.05" rx="38.75" ry="45.21" transform="translate(45.7 425.07) rotate(-39.59)"/><path class="cls-4" d="m628.69,134.45c8.9,10.27,9.02,24.83.29,32.53-8.74,7.7-23.03,5.61-31.93-4.66-8.9-10.27-9.02-24.83-.29-32.53,8.74-7.7,23.03-5.61,31.93,4.66Z"/><path class="cls-2" d="m99.97,91.38c13.22-12.48,30.65-15.6,38.93-6.97,8.28,8.63,4.28,25.75-8.94,38.23-13.22,12.48-30.65,15.6-38.93,6.97-8.28-8.63-4.28-25.75,8.94-38.23Z"/><path class="cls-4" d="m106.35,98.9c7.19-6.79,16.68-8.49,21.18-3.79,4.51,4.7,2.33,14.01-4.86,20.8-7.19,6.79-16.68,8.49-21.18,3.79-4.51-4.7-2.33-14.01,4.86-20.8Z"/><ellipse class="cls-2" cx="190.6" cy="66.05" rx="34.74" ry="23.84" transform="translate(-11.06 61.2) rotate(-17.74)"/><path class="cls-4" d="m185.85,53.91c9.92-3.25,19.82-.38,22.1,6.41,2.29,6.79-3.9,14.93-13.83,18.18-9.92,3.25-19.82.38-22.1-6.41-2.28-6.79,3.91-14.93,13.83-18.18Z"/><path class="cls-2" d="m17.39,346.03c-10.46-15.38-10.77-33.5-.7-40.46,10.07-6.96,26.71-.13,37.16,15.25,10.46,15.38,10.77,33.49.7,40.46-10.07,6.96-26.71.13-37.16-15.25Z"/><path class="cls-4" d="m26.02,340.81c-5.69-8.37-5.86-18.22-.38-22.01,5.48-3.79,14.53-.07,20.22,8.3,5.69,8.37,5.86,18.22.38,22.01-5.48,3.79-14.53.07-20.22-8.3Z"/><path class="cls-2" d="m44.46,424.02c-13.74-13.26-19.46-29.71-12.79-36.74,6.67-7.03,23.22-1.97,36.96,11.29,13.74,13.26,19.46,29.71,12.79,36.74-6.67,7.03-23.22,1.97-36.96-11.29Z"/><path class="cls-4" d="m50.4,418.67c-7.47-7.22-10.59-16.17-6.96-19.99,3.63-3.82,12.63-1.07,20.11,6.14,7.47,7.22,10.59,16.17,6.96,19.99-3.63,3.82-12.63,1.07-20.11-6.14Z"/><path class="cls-2" d="m10.84,253.09c4.18-18.12,17.26-30.66,29.21-28,11.95,2.66,18.24,19.51,14.06,37.63-4.18,18.12-17.26,30.66-29.21,28-11.95-2.66-18.24-19.51-14.06-37.63Z"/><path class="cls-4" d="m20.53,255.87c2.28-9.86,9.39-16.68,15.89-15.23,6.5,1.45,9.93,10.61,7.65,20.47-2.28,9.86-9.39,16.68-15.89,15.23-6.5-1.45-9.93-10.61-7.65-20.47Z"/><path class="cls-2" d="m41.85,153.57c9.78-15.82,26.19-23.5,36.65-17.15,10.46,6.35,11.02,24.33,1.24,40.15-9.78,15.82-26.19,23.5-36.65,17.15-10.46-6.35-11.02-24.33-1.24-40.15Z"/><path class="cls-4" d="m50.14,159.31c5.32-8.61,14.25-12.78,19.94-9.33,5.69,3.46,6,13.24.68,21.84-5.32,8.61-14.25,12.79-19.94,9.33-5.69-3.46-5.99-13.24-.67-21.84Z"/><path class="cls-1" d="m478.78,1081.87h7.81c17.46-10.07,33.6-22.32,45.94-37.2,52.31-63.06-32.65-188.22,83.43-357.18,36.27-52.8,63.63-115.04,80.58-179.05-49.78,88.35-157.69,212.93-193.26,302.19-34.49,86.56-20.85,204.13-24.49,271.23Z"/><path class="cls-1" d="m96.86,236.8c-38.97,86.46,21.56,129.26,73.55,133.78-60.56-22.19-97.34-78.39-32.02-161.61,31.37-39.98,70.8-61.18,112.17-70.58-48.69,3.06-120.5,24.78-153.69,98.41Z"/></g></svg>