<?xml version="1.0" encoding="UTF-8"?><svg id="Layer_2" xmlns="http://www.w3.org/2000/svg" viewBox="0 0 603.37 1125.85"><defs><style>.cls-1{fill:none;stroke:#fff;stroke-miterlimit:10;}</style></defs><g id="_Layer_"><path class="cls-1" d="m152.01,953.16c-13.43-.48-23.68-18.82-22.88-40.97.8-22.14,12.34-39.7,25.78-39.22,13.44.49,23.68,18.83,22.88,40.98-.8,22.14-12.34,39.7-25.78,39.21Z"/><path class="cls-1" d="m193.82,799.96c-10.48-6.27-10.59-25.34-.26-42.6,10.33-17.26,27.2-26.17,37.67-19.9,10.48,6.27,10.59,25.34.26,42.6s-27.2,26.17-37.67,19.9Z"/><path class="cls-1" d="m321.52,662.35c-11.78,14.09-28.95,19.12-38.33,11.24-6.68-5.61-7.63-16.25-3.37-26.99h.01c1.72-4.36,4.29-8.73,7.69-12.79,5.08-6.08,11.17-10.47,17.2-12.87.01,0,.01-.01.01-.01,7.95-3.15,15.79-2.84,21.12,1.64,9.39,7.88,7.45,25.69-4.33,39.78Z"/><path class="cls-1" d="m452.16,420.31c-4.42,15.04-15.51,25.01-24.77,22.27-3.02-.9-5.48-3.03-7.26-6.03h0c-3.67-6.2-4.48-16.04-1.5-26.16,2.73-9.29,8.01-16.65,13.83-20.26,3.6-2.25,7.4-3.06,10.94-2.01,9.26,2.74,13.18,17.15,8.76,32.19Z"/><path class="cls-1" d="m511.17,195.92c-.77-2.18-1.68-4.24-2.7-6.15-.01-.02-.02-.03-.03-.05-.52-.98-1.08-1.93-1.66-2.83-.08-.13-.16-.25-.24-.38-5.66-8.55-13.58-13.15-20.1-10.79-8.62,3.12-11.53,17.22-6.49,31.5,5.03,14.27,16.11,23.31,24.73,20.19,8.62-3.12,11.53-17.22,6.49-31.49Zm0,0c-.77-2.18-1.68-4.24-2.7-6.15-.01-.02-.02-.03-.03-.05-.52-.98-1.08-1.93-1.66-2.83-.08-.13-.16-.25-.24-.38-5.66-8.55-13.58-13.15-20.1-10.79-8.62,3.12-11.53,17.22-6.49,31.5,5.03,14.27,16.11,23.31,24.73,20.19,8.62-3.12,11.53-17.22,6.49-31.49Zm0,0c-.77-2.18-1.68-4.24-2.7-6.15-.01-.02-.02-.03-.03-.05-.52-.98-1.08-1.93-1.66-2.83-.08-.13-.16-.25-.24-.38-5.66-8.55-13.58-13.15-20.1-10.79-8.62,3.12-11.53,17.22-6.49,31.5,5.03,14.27,16.11,23.31,24.73,20.19,8.62-3.12,11.53-17.22,6.49-31.49Zm13.13,204.21c-12.07-2.44-24.43,7.78-27.6,22.83-3.18,15.05,4.04,29.23,16.11,31.67,12.08,2.45,24.44-7.77,27.61-22.83,3.17-15.05-4.04-29.23-16.12-31.67Zm21.31-92.12c-1.85-14.75-12.91-25.43-24.72-23.86-11.8,1.57-19.87,14.81-18.02,29.56,1.84,14.76,12.91,25.44,24.71,23.87,11.8-1.58,19.87-14.82,18.03-29.57Zm-21.31,92.12c-12.07-2.44-24.43,7.78-27.6,22.83-3.18,15.05,4.04,29.23,16.11,31.67,12.08,2.45,24.44-7.77,27.61-22.83,3.17-15.05-4.04-29.23-16.12-31.67Zm-13.13-204.21c-.77-2.18-1.68-4.24-2.7-6.15-.01-.02-.02-.03-.03-.05-.52-.98-1.08-1.93-1.66-2.83-.08-.13-.16-.25-.24-.38-5.66-8.55-13.58-13.15-20.1-10.79-8.62,3.12-11.53,17.22-6.49,31.5,5.03,14.27,16.11,23.31,24.73,20.19,8.62-3.12,11.53-17.22,6.49-31.49Zm34.44,112.09c-1.85-14.75-12.91-25.43-24.72-23.86-11.8,1.57-19.87,14.81-18.02,29.56,1.84,14.76,12.91,25.44,24.71,23.87,11.8-1.58,19.87-14.82,18.03-29.57Zm-125.55,330.47c-10.06-7.11-26.96-.73-37.75,14.26-10.78,14.99-11.37,32.91-1.31,40.03s26.96.73,37.74-14.26c10.79-14.99,11.38-32.91,1.32-40.03Zm80.71-126.49c-10.58-6.31-26.92,1.37-36.5,17.16-9.57,15.78-8.76,33.68,1.82,39.99s26.92-1.37,36.5-17.16c9.58-15.78,8.76-33.68-1.82-39.99Zm10.4-316.07c-.77-2.18-1.68-4.24-2.7-6.15-.01-.02-.02-.03-.03-.05-.52-.98-1.08-1.93-1.66-2.83-.08-.13-.16-.25-.24-.38-5.66-8.55-13.58-13.15-20.1-10.79-8.62,3.12-11.53,17.22-6.49,31.5,5.03,14.27,16.11,23.31,24.73,20.19,8.62-3.12,11.53-17.22,6.49-31.49Zm13.13,204.21c-12.07-2.44-24.43,7.78-27.6,22.83-3.18,15.05,4.04,29.23,16.11,31.67,12.08,2.45,24.44-7.77,27.61-22.83,3.17-15.05-4.04-29.23-16.12-31.67Zm21.31-92.12c-1.85-14.75-12.91-25.43-24.72-23.86-11.8,1.57-19.87,14.81-18.02,29.56,1.84,14.76,12.91,25.44,24.71,23.87,11.8-1.58,19.87-14.82,18.03-29.57Zm-125.55,330.47c-10.06-7.11-26.96-.73-37.75,14.26-10.78,14.99-11.37,32.91-1.31,40.03s26.96.73,37.74-14.26c10.79-14.99,11.38-32.91,1.32-40.03Zm80.71-126.49c-10.58-6.31-26.92,1.37-36.5,17.16-9.57,15.78-8.76,33.68,1.82,39.99s26.92-1.37,36.5-17.16c9.58-15.78,8.76-33.68-1.82-39.99Zm23.53-111.86c-12.07-2.44-24.43,7.78-27.6,22.83-3.18,15.05,4.04,29.23,16.11,31.67,12.08,2.45,24.44-7.77,27.61-22.83,3.17-15.05-4.04-29.23-16.12-31.67Zm-13.13-204.21c-.77-2.18-1.68-4.24-2.7-6.15-.01-.02-.02-.03-.03-.05-.52-.98-1.08-1.93-1.66-2.83-.08-.13-.16-.25-.24-.38-5.66-8.55-13.58-13.15-20.1-10.79-8.62,3.12-11.53,17.22-6.49,31.5,5.03,14.27,16.11,23.31,24.73,20.19,8.62-3.12,11.53-17.22,6.49-31.49Zm34.44,112.09c-1.85-14.75-12.91-25.43-24.72-23.86-11.8,1.57-19.87,14.81-18.02,29.56,1.84,14.76,12.91,25.44,24.71,23.87,11.8-1.58,19.87-14.82,18.03-29.57ZM353.9,10.09c14.03,3.6,27.41,8.08,40.14,13.35-12.77-5.73-26.16-10.23-40.14-13.35Zm66.16,628.39c-10.06-7.11-26.96-.73-37.75,14.26-10.78,14.99-11.37,32.91-1.31,40.03s26.96.73,37.74-14.26c10.79-14.99,11.38-32.91,1.32-40.03Zm80.71-126.49c-10.58-6.31-26.92,1.37-36.5,17.16-9.57,15.78-8.76,33.68,1.82,39.99s26.92-1.37,36.5-17.16c9.58-15.78,8.76-33.68-1.82-39.99Zm10.4-316.07c-.77-2.18-1.68-4.24-2.7-6.15-.01-.02-.02-.03-.03-.05-.52-.98-1.08-1.93-1.66-2.83-.08-.13-.16-.25-.24-.38-5.66-8.55-13.58-13.15-20.1-10.79-8.62,3.12-11.53,17.22-6.49,31.5,5.03,14.27,16.11,23.31,24.73,20.19,8.62-3.12,11.53-17.22,6.49-31.49Zm13.13,204.21c-12.07-2.44-24.43,7.78-27.6,22.83-3.18,15.05,4.04,29.23,16.11,31.67,12.08,2.45,24.44-7.77,27.61-22.83,3.17-15.05-4.04-29.23-16.12-31.67Zm21.31-92.12c-1.85-14.75-12.91-25.43-24.72-23.86-11.8,1.57-19.87,14.81-18.02,29.56,1.84,14.76,12.91,25.44,24.71,23.87,11.8-1.58,19.87-14.82,18.03-29.57Zm10.35,35.49c-6.01,9.44-14.95,15.95-25.53,17.36-21.69,2.89-42.03-16.74-45.42-43.86-3.39-27.11,11.44-51.44,33.13-54.34,9.13-1.22,18.01,1.55,25.5,7.19-4.14-13.6-9.34-27.6-15.58-41.68-2.09,10.73-7.42,18.86-15.48,21.78-15.85,5.73-36.2-10.89-45.46-37.12-9.26-26.24-3.91-52.15,11.94-57.89,1.88-.68,3.83-1.05,5.81-1.11-5.48-7.42-11.28-14.67-17.38-21.71-1.23,5.82-4.1,10.64-8.6,13.66-12.51,8.41-32.89-.27-45.51-19.38-11.33-17.14-12.57-36.86-3.67-46.81-2.48-1.73-4.99-3.43-7.53-5.08-.14.41-.3.82-.47,1.22-5.38,12.46-25.04,15.82-43.91,7.49-18.87-8.33-29.81-25.18-24.43-37.64.37-.86.81-1.67,1.31-2.44-5.95-1.76-12.01-3.3-18.19-4.61.14,1.26.1,2.54-.13,3.81-1.95,10.92-16.96,17.26-33.52,14.17-15.54-2.9-26.93-13.06-26.67-23.32-7.29.15-14.47.57-21.53,1.22.8,2.35.57,4.97-.85,7.69-4.72,9.04-20.81,15.8-35.94,15.11-12.06-.54-19.87-5.66-20.16-12.29-6.9,1.91-13.64,4.02-20.21,6.3,3.51,1.47,5.64,3.93,5.57,7.03-.16,6.25-9.25,12.75-20.31,14.51-10.72,1.71-19.35-1.67-19.73-7.57-6.3,2.93-12.4,5.99-18.28,9.12,4.18,3.63,2.94,11.77-3.28,19.25-6.88,8.27-17.24,12.61-23.15,9.7-3.8-1.88-4.83-6.3-3.25-11.41-13.41,8.75-25.2,17.6-35.18,25.85,2.73,2.64,2.27,9.24-1.48,16.35-4.51,8.53-12.04,14.55-16.84,13.45-3.38-.78-4.5-4.9-3.27-10.26-8.41,8.41-13.78,15.01-15.77,18.47,6.2,7.17,24.64-.34,24.64-.34,6.67-8.37,14.82-16.24,24.14-23.52-.24-4.09,2.58-9.64,7.84-14.53,7.69-7.14,17.69-10.17,22.34-6.78.47.34.86.73,1.18,1.17,11.18-5.94,23.21-11.24,35.79-15.83-.09-.2-.16-.4-.22-.61-1.69-5.76,5.99-13.73,17.17-17.79,11.17-4.07,21.6-2.7,23.29,3.06.33,1.12.3,2.33-.04,3.57,5.85-1.33,11.75-2.51,17.68-3.52-1.47-3.09-1.18-6.59,1.21-9.99,5.67-8.03,20.96-12.49,34.16-9.95,11.05,2.13,17.13,8.48,15.49,15.21,4.1-.04,8.17-.01,12.21.12-.07-1.68.16-3.34.71-4.94,3.41-10,17.95-13.98,32.47-8.89,11.78,4.12,19.92,12.95,20.76,21.46,2.63.71,5.23,1.47,7.79,2.3.22-.76.52-1.5.89-2.21,4.91-9.35,21.15-10.36,36.26-2.26,15.11,8.1,23.37,22.25,18.45,31.6-.56,1.07-1.28,2.04-2.12,2.87,2.15,1.75,4.25,3.51,6.31,5.29.67-1.8,1.68-3.36,3.05-4.62,8.06-7.41,25.4-1.45,38.75,13.3,13.34,14.75,17.63,32.71,9.57,40.12-1.63,1.5-3.63,2.45-5.91,2.89,3.17,4.9,6.1,9.86,8.8,14.88,1.97-2.45,4.43-4.29,7.31-5.33,12.2-4.42,27.45,7.17,34.04,25.88,6.6,18.71,2.05,37.46-10.16,41.87-2.8,1.01-5.76,1.18-8.74.61,1.14,5.75,2.08,11.54,2.81,17.35,5.43-4.42,11.49-6.49,17.44-5.4,15.08,2.76,23.7,24.85,19.26,49.34-4.45,24.48-20.27,42.09-35.35,39.32-.79-.14-1.56-.34-2.31-.59-.69,5.21-1.48,10.41-2.36,15.61,4.28-1.31,8.58-1.46,12.69-.24,17.02,5.04,24.22,31.53,16.1,59.18-8.13,27.64-28.52,45.96-45.53,40.92-3.13-.93-5.92-2.58-8.35-4.83-1.83,5.32-3.69,10.58-5.58,15.77-.39,1.07-.79,2.13-1.2,3.2,5.3-.65,10.36.13,14.84,2.52,17.61,9.4,19.55,40.21,4.34,68.82-15.21,28.6-41.81,44.16-59.41,34.76-6.72-3.59-11.15-10.28-13.23-18.78-7.53,9.36-15.45,18.63-23.63,27.79,5.56.81,10.61,2.93,14.82,6.46,17.26,14.49,13.69,47.23-7.97,73.12-21.65,25.89-53.19,35.14-70.45,20.65-6.53-5.48-10.08-13.57-10.79-22.91-13.61,13.7-26.67,26.95-38.53,39.68,11.27-4.98,22.33-5.45,31-.26,19.25,11.52,19.46,46.58.47,78.3-18.99,31.73-49.99,48.1-69.24,36.58-13.27-7.95-17.49-27.07-12.62-48.57-14.31,25.46-25.29,49.99-33.67,73.17,7.29-7.29,15.83-11.37,24.83-11.05,24.7.89,43.53,34.6,42.06,75.3s-22.68,72.98-47.38,72.08c-19.9-.72-36-22.75-40.72-52.58-8.45,57.97-1.29,98.36,1.13,109.48h0c.45,2.04.73,3.1.73,3.1,0,0-.46,1.28-1.08,3.59t0,.02s-.01.01,0,.02t-.01.02c-2.98,11.04-9.43,45.17,14.09,73.61h207.21c-53.08-166.03,33.3-329.96,91.88-424.09-19.28,19.38-44.2,26.28-59.98,15.12-18.49-13.08-17.41-46.02,2.42-73.57,19.82-27.56,50.88-39.29,69.37-26.2,13.83,9.78,16.7,30.67,8.99,52.1,4.48-6.9,8.53-13.13,12.05-18.66,11.4-17.95,22.74-37.92,33.45-59.26-13.69,8.08-28.2,9.81-39.28,3.21-19.45-11.59-20.94-44.5-3.34-73.51,17.6-29,47.63-43.12,67.08-31.52,5.64,3.36,9.76,8.5,12.35,14.83,3.77-10.89,7.26-21.89,10.41-32.93-8.83,6.6-19.32,9.59-29.69,7.49-22.19-4.49-35.45-30.55-29.62-58.21,5.84-27.67,28.55-46.45,50.74-41.96,10.34,2.09,18.74,8.86,24.17,18.3,2.29-18.02,3.34-35.78,2.93-52.99Zm-44.79-147.58c-.77-2.18-1.68-4.24-2.7-6.15-.01-.02-.02-.03-.03-.05-.52-.98-1.08-1.93-1.66-2.83-.08-.13-.16-.25-.24-.38-5.66-8.55-13.58-13.15-20.1-10.79-8.62,3.12-11.53,17.22-6.49,31.5,5.03,14.27,16.11,23.31,24.73,20.19,8.62-3.12,11.53-17.22,6.49-31.49Zm-91.11,442.56c-10.06-7.11-26.96-.73-37.75,14.26-10.78,14.99-11.37,32.91-1.31,40.03s26.96.73,37.74-14.26c10.79-14.99,11.38-32.91,1.32-40.03Zm80.71-126.49c-10.58-6.31-26.92,1.37-36.5,17.16-9.57,15.78-8.76,33.68,1.82,39.99s26.92-1.37,36.5-17.16c9.58-15.78,8.76-33.68-1.82-39.99Zm23.53-111.86c-12.07-2.44-24.43,7.78-27.6,22.83-3.18,15.05,4.04,29.23,16.11,31.67,12.08,2.45,24.44-7.77,27.61-22.83,3.17-15.05-4.04-29.23-16.12-31.67Zm21.31-92.12c-1.85-14.75-12.91-25.43-24.72-23.86-11.8,1.57-19.87,14.81-18.02,29.56,1.84,14.76,12.91,25.44,24.71,23.87,11.8-1.58,19.87-14.82,18.03-29.57Zm0,0c-1.85-14.75-12.91-25.43-24.72-23.86-11.8,1.57-19.87,14.81-18.02,29.56,1.84,14.76,12.91,25.44,24.71,23.87,11.8-1.58,19.87-14.82,18.03-29.57Zm-21.31,92.12c-12.07-2.44-24.43,7.78-27.6,22.83-3.18,15.05,4.04,29.23,16.11,31.67,12.08,2.45,24.44-7.77,27.61-22.83,3.17-15.05-4.04-29.23-16.12-31.67Zm-13.13-204.21c-.77-2.18-1.68-4.24-2.7-6.15-.01-.02-.02-.03-.03-.05-.52-.98-1.08-1.93-1.66-2.83-.08-.13-.16-.25-.24-.38-5.66-8.55-13.58-13.15-20.1-10.79-8.62,3.12-11.53,17.22-6.49,31.5,5.03,14.27,16.11,23.31,24.73,20.19,8.62-3.12,11.53-17.22,6.49-31.49Zm-10.4,316.07c-10.58-6.31-26.92,1.37-36.5,17.16-9.57,15.78-8.76,33.68,1.82,39.99s26.92-1.37,36.5-17.16c9.58-15.78,8.76-33.68-1.82-39.99Zm-80.71,126.49c-10.06-7.11-26.96-.73-37.75,14.26-10.78,14.99-11.37,32.91-1.31,40.03s26.96.73,37.74-14.26c10.79-14.99,11.38-32.91,1.32-40.03Zm125.55-330.47c-1.85-14.75-12.91-25.43-24.72-23.86-11.8,1.57-19.87,14.81-18.02,29.56,1.84,14.76,12.91,25.44,24.71,23.87,11.8-1.58,19.87-14.82,18.03-29.57Zm-34.44-112.09c-.77-2.18-1.68-4.24-2.7-6.15-.01-.02-.02-.03-.03-.05-.52-.98-1.08-1.93-1.66-2.83-.08-.13-.16-.25-.24-.38-5.66-8.55-13.58-13.15-20.1-10.79-8.62,3.12-11.53,17.22-6.49,31.5,5.03,14.27,16.11,23.31,24.73,20.19,8.62-3.12,11.53-17.22,6.49-31.49Zm13.13,204.21c-12.07-2.44-24.43,7.78-27.6,22.83-3.18,15.05,4.04,29.23,16.11,31.67,12.08,2.45,24.44-7.77,27.61-22.83,3.17-15.05-4.04-29.23-16.12-31.67Zm-23.53,111.86c-10.58-6.31-26.92,1.37-36.5,17.16-9.57,15.78-8.76,33.68,1.82,39.99s26.92-1.37,36.5-17.16c9.58-15.78,8.76-33.68-1.82-39.99Zm44.84-203.98c-1.85-14.75-12.91-25.43-24.72-23.86-11.8,1.57-19.87,14.81-18.02,29.56,1.84,14.76,12.91,25.44,24.71,23.87,11.8-1.58,19.87-14.82,18.03-29.57Zm-21.31,92.12c-12.07-2.44-24.43,7.78-27.6,22.83-3.18,15.05,4.04,29.23,16.11,31.67,12.08,2.45,24.44-7.77,27.61-22.83,3.17-15.05-4.04-29.23-16.12-31.67Zm-13.13-204.21c-.77-2.18-1.68-4.24-2.7-6.15-.01-.02-.02-.03-.03-.05-.52-.98-1.08-1.93-1.66-2.83-.08-.13-.16-.25-.24-.38-5.66-8.55-13.58-13.15-20.1-10.79-8.62,3.12-11.53,17.22-6.49,31.5,5.03,14.27,16.11,23.31,24.73,20.19,8.62-3.12,11.53-17.22,6.49-31.49Zm-10.4,316.07c-10.58-6.31-26.92,1.37-36.5,17.16-9.57,15.78-8.76,33.68,1.82,39.99s26.92-1.37,36.5-17.16c9.58-15.78,8.76-33.68-1.82-39.99Zm44.84-203.98c-1.85-14.75-12.91-25.43-24.72-23.86-11.8,1.57-19.87,14.81-18.02,29.56,1.84,14.76,12.91,25.44,24.71,23.87,11.8-1.58,19.87-14.82,18.03-29.57Zm-34.44-112.09c-.77-2.18-1.68-4.24-2.7-6.15-.01-.02-.02-.03-.03-.05-.52-.98-1.08-1.93-1.66-2.83-.08-.13-.16-.25-.24-.38-5.66-8.55-13.58-13.15-20.1-10.79-8.62,3.12-11.53,17.22-6.49,31.5,5.03,14.27,16.11,23.31,24.73,20.19,8.62-3.12,11.53-17.22,6.49-31.49Zm34.44,112.09c-1.85-14.75-12.91-25.43-24.72-23.86-11.8,1.57-19.87,14.81-18.02,29.56,1.84,14.76,12.91,25.44,24.71,23.87,11.8-1.58,19.87-14.82,18.03-29.57Zm-34.44-112.09c-.77-2.18-1.68-4.24-2.7-6.15-.01-.02-.02-.03-.03-.05-.52-.98-1.08-1.93-1.66-2.83-.08-.13-.16-.25-.24-.38-5.66-8.55-13.58-13.15-20.1-10.79-8.62,3.12-11.53,17.22-6.49,31.5,5.03,14.27,16.11,23.31,24.73,20.19,8.62-3.12,11.53-17.22,6.49-31.49Z"/><path class="cls-1" d="m506.78,186.89c.58.9,1.14,1.85,1.66,2.83-.54-.95-1.1-1.89-1.66-2.83Z"/><path class="cls-1" d="m479.1,717.05c2.01-3.6,4.06-7.22,6.13-10.87-2.07,3.65-4.11,7.27-6.13,10.87Z"/><path class="cls-1" d="m550.97,171.25c-1.12-2.11-2.26-4.2-3.42-6.28,1.17,2.08,2.3,4.18,3.42,6.28Z"/><path class="cls-1" d="m581.16,404.24c-16.45,102.93-57.78,181.81-98.36,243.84-36.65,56.02-185.88,220.88-67.84,477.27h-82.93c-53.08-166.03,33.3-329.96,91.88-424.09.07-.06.12-.11.17-.17,3.27-3.29,6.36-6.94,9.22-10.91,4.98-6.93,8.78-14.19,11.38-21.4.01-.02.02-.04.03-.07,4.48-6.9,8.53-13.13,12.05-18.66,11.4-17.95,22.74-37.92,33.45-59.26,10.35-6.11,20.23-15.83,27.8-28.32,12.5-20.6,15.37-43.17,9.01-58.67,3.77-10.89,7.26-21.89,10.41-32.93,10.05-7.52,17.95-19.73,21.05-34.47,3.11-14.77.78-29.09-5.45-39.91,2.29-18.02,3.34-35.78,2.93-52.99h0c6.3-9.93,9.34-23.09,7.6-36.98-1.97-15.71-9.61-28.9-19.92-36.66h0c-4.14-13.61-9.34-27.61-15.58-41.69h0c2.03-10.39,1-23.21-3.55-36.11-8.15-23.11-24.93-38.77-39.64-38.23-5.48-7.42-11.28-14.67-17.38-21.71,2.23-10.37-.72-23.92-8.8-36.17-12.63-19.11-33-27.79-45.52-19.38-1.29.87-2.44,1.88-3.46,3.02-2.48-1.73-4.99-3.43-7.53-5.08,4.2-12.32-6.63-28.36-24.9-36.42-17.57-7.76-35.83-5.39-42.6,5.05-5.95-1.76-12.01-3.3-18.19-4.61-1-9.64-11.97-18.83-26.6-21.56-16.57-3.09-31.58,3.26-33.52,14.18-.12.68-.19,1.36-.2,2.04-7.29.15-14.47.57-21.53,1.22-1.84-5.44-9.15-9.43-19.71-9.91-15.14-.69-31.23,6.08-35.94,15.11-.96,1.84-1.38,3.62-1.3,5.31-6.9,1.91-13.64,4.02-20.21,6.3-3.58-1.51-8.6-2-14.19-1.11-11.06,1.76-20.15,8.25-20.3,14.51,0,.19,0,.38.02.57-6.3,2.93-12.4,5.99-18.28,9.12-.44-.39-.95-.72-1.51-1-5.91-2.92-16.28,1.42-23.16,9.69-2.46,2.96-4.14,6.01-5.01,8.85-13.41,8.75-25.2,17.6-35.18,25.85-.54-.53-1.21-.9-2.01-1.08-4.8-1.1-12.33,4.92-16.84,13.44-1.32,2.51-2.24,4.95-2.74,7.18-8.41,8.41-13.78,15.01-15.77,18.47-.12-.13-.23-.27-.33-.42-.06-.07-.12-.16-.18-.24-.22-.33-.42-.68-.59-1.06-.06-.12-.11-.23-.15-.35-.02-.03-.03-.06-.04-.09-.07-.16-.13-.32-.18-.49-.09-.27-.17-.54-.23-.82-.01-.01-.01-.02-.01-.03-.06-.28-.12-.56-.16-.86-.05-.31-.08-.62-.1-.95-.03-.33-.04-.68-.04-1.03,0-.25.01-.51.02-.77.02-.54.07-1.1.15-1.68.02-.14.04-.28.06-.42.02-.17.05-.35.08-.53.03-.18.06-.36.1-.54s.07-.36.11-.55c.03-.18.07-.37.12-.56.07-.31.15-.63.23-.96.02-.07.04-.14.06-.22.11-.4.23-.81.35-1.23.07-.21.13-.42.2-.64.07-.23.14-.46.22-.69.1-.31.21-.62.33-.94.08-.23.16-.46.25-.7.06-.17.12-.33.19-.5.1-.28.21-.56.33-.85.14-.35.28-.71.44-1.07.15-.37.31-.73.47-1.11.42-.97.95-2.01,1.57-3.12C27.91,92.73,173.12-30.58,344.42,7.81c3.16.71,6.29,1.46,9.38,2.26.03,0,.07.01.1.02,14.03,3.6,27.41,8.08,40.14,13.35.1.04.2.08.3.13,66.66,27.64,115.73,76.84,149.46,134.81,10.61,35.44,23.2,82.25,31.32,128.49,0,.02.01.05.02.08,7.49,42.72,11.19,84.95,6.02,117.29Z"/><path class="cls-1" d="m596.55,308.23c.01.07.02.13.03.2-.06-.4-.13-.8-.2-1.19.06.33.12.66.17.99Z"/><path class="cls-1" d="m598.76,322.99c.05.37.1.74.14,1.11-.12-.92-.24-1.84-.37-2.77.02.13.04.26.06.4.05.42.11.84.17,1.26Z"/><path class="cls-1" d="m599.46,328.46l.18,1.53c-.09-.77-.18-1.53-.28-2.3.04.26.07.51.1.77Z"/><path class="cls-1" d="m602.42,363.78c.03.68.05,1.37.08,2.05-.04-.9-.08-1.8-.12-2.7.02.22.03.43.04.65Z"/><path class="cls-1" d="m602.71,372.05c-.03-1.05-.06-2.1-.1-3.15.02.49.04.98.06,1.47.02.56.03,1.12.04,1.68Z"/><path class="cls-1" d="m602.84,388.76c-.03,3.17-.1,6.32-.21,9.44-.04,1.36-.09,2.72-.16,4.07-.02.54-.04,1.07-.07,1.6-.04,1.03-.1,2.06-.16,3.08-.02.46-.05.91-.08,1.37,0,.12,0,.24-.02.36-.04.81-.09,1.62-.15,2.43-.06,1-.13,2-.21,3-.03.5-.06.99-.11,1.49-.06.79-.12,1.59-.19,2.38-.07.9-.15,1.79-.23,2.68-.04.54-.09,1.08-.15,1.62-.24,2.55-.5,5.07-.79,7.57-.06.56-.13,1.13-.2,1.69-.12,1.02-.24,2.03-.38,3.04-.2,1.57-.41,3.13-.63,4.68-.83,5.83-1.79,11.55-2.89,17.13-.69,3.53-1.43,7.05-2.22,10.55-.26,1.17-.52,2.33-.8,3.49-.22.95-.44,1.9-.67,2.85-.11.47-.23.95-.35,1.43-1.01,4.18-2.09,8.33-3.23,12.47-.26.96-.53,1.91-.8,2.86-.39,1.42-.8,2.84-1.22,4.26-.09.3-.17.59-.26.89-.1.36-.21.72-.32,1.09-.33,1.11-.66,2.22-1.01,3.33-.09.31-.18.62-.28.93-.4,1.3-.8,2.59-1.21,3.88-.32,1.01-.64,2.02-.97,3.02-.37,1.15-.74,2.29-1.12,3.43-.45,1.36-.9,2.72-1.37,4.08-.25.75-.5,1.49-.76,2.23-.45,1.3-.91,2.6-1.37,3.9-.32.89-.63,1.77-.95,2.65-.5,1.4-1.01,2.8-1.53,4.2-.38,1.01-.75,2.02-1.13,3.02-.48,1.29-.97,2.58-1.47,3.86-.27.72-.55,1.44-.83,2.15-.57,1.47-1.15,2.94-1.73,4.41-1.22,3.03-2.45,6.05-3.7,9.05-.89,2.15-1.8,4.28-2.71,6.41-.46,1.07-.92,2.13-1.38,3.19-.92,2.12-1.86,4.24-2.81,6.35-.47,1.06-.94,2.11-1.42,3.16s-.95,2.1-1.44,3.15c-.48,1.05-.96,2.09-1.45,3.14-2.91,6.27-5.9,12.48-8.95,18.63-.51,1.03-1.02,2.05-1.53,3.07s-1.02,2.04-1.54,3.06c-.51,1.02-1.03,2.04-1.55,3.05-1.03,2.03-2.07,4.06-3.12,6.08-.52,1.01-1.04,2.01-1.57,3.02-2.14,4.1-4.3,8.18-6.48,12.23-7.4,13.82-14.98,27.33-22.49,40.54-.55.95-1.09,1.9-1.62,2.85-1.37,2.4-2.74,4.8-4.11,7.18-1.06,1.86-2.11,3.7-3.16,5.55-1.64,2.85-3.27,5.69-4.89,8.52-1.07,1.86-2.13,3.71-3.18,5.56-.22.37-.43.74-.63,1.11-.53.92-1.05,1.83-1.57,2.74-1.37,2.4-2.73,4.79-4.08,7.17-2.07,3.65-4.12,7.27-6.13,10.87-.67,1.2-1.34,2.39-2,3.58-.5.89-.99,1.78-1.48,2.66-.55.99-1.1,1.98-1.63,2.96-.78,1.4-1.55,2.8-2.31,4.19-1.2,2.21-2.4,4.42-3.58,6.61-.71,1.32-1.41,2.63-2.11,3.94-.92,1.74-1.84,3.49-2.75,5.22-.58,1.1-1.15,2.19-1.7,3.29-.9,1.72-1.78,3.43-2.64,5.14-.44.85-.87,1.71-1.29,2.56-.43.85-.86,1.7-1.27,2.55-.32.64-.64,1.28-.95,1.92-.63,1.28-1.25,2.55-1.86,3.82s-1.22,2.53-1.81,3.79c-.8,1.69-1.58,3.36-2.35,5.03-.76,1.67-1.51,3.34-2.25,5-.37.83-.74,1.66-1.09,2.49-.38.86-.76,1.73-1.12,2.59-.37.87-.74,1.73-1.09,2.58-.57,1.36-1.13,2.71-1.67,4.06-.42,1.03-.83,2.05-1.23,3.07-.28.73-.57,1.45-.84,2.17-.28.72-.55,1.44-.82,2.16-.29.75-.57,1.5-.84,2.26-.28.75-.55,1.51-.82,2.27-.27.75-.54,1.5-.79,2.25-.25.69-.48,1.38-.71,2.06-.15.42-.29.84-.42,1.25-.14.42-.28.84-.41,1.25-.54,1.63-1.05,3.25-1.53,4.86-.28.88-.54,1.76-.79,2.64-.77,2.64-1.48,5.26-2.13,7.86-.19.78-.38,1.55-.56,2.33-19.14,81.23-12.77,174.89,10.85,219.73,13.77,26.13,8.12,57.88-12.32,78.16h-13.83c-118.04-256.39,31.19-421.25,67.84-477.27,40.58-62.03,81.91-140.91,98.36-243.84,5.17-32.34,1.47-74.57-6.02-117.29,0-.03-.02-.06-.02-.08-8.12-46.24-20.71-93.05-31.32-128.49,1.27,2.18,2.52,4.38,3.75,6.59,1.16,2.08,2.3,4.17,3.42,6.28.46.87.92,1.74,1.37,2.61.46.87.91,1.74,1.36,2.62.45.87.89,1.75,1.33,2.62.45.88.89,1.76,1.32,2.64,1.12,2.26,2.22,4.53,3.3,6.82.98,2.08,1.95,4.16,2.89,6.26.57,1.25,1.13,2.5,1.68,3.76.94,2.12,1.85,4.25,2.75,6.39.37.87.73,1.74,1.09,2.62.48,1.15.95,2.31,1.41,3.46,1.12,2.75,2.2,5.51,3.24,8.28.4,1.04.79,2.08,1.17,3.12,1.11,2.98,2.18,5.96,3.21,8.96.44,1.26.87,2.51,1.29,3.77.43,1.26.85,2.53,1.26,3.79.36,1.08.71,2.17,1.05,3.25.87,2.72,1.71,5.44,2.52,8.17.24.82.49,1.62.72,2.43,1.19,4.04,2.31,8.09,3.37,12.15.2.74.39,1.48.58,2.23.32,1.2.62,2.41.92,3.61.38,1.52.75,3.05,1.11,4.57.05.17.08.33.12.49.22.89.43,1.78.63,2.68.28,1.22.56,2.45.83,3.67.34,1.48.66,2.97.97,4.45.18.8.35,1.6.51,2.4.34,1.6.66,3.21.97,4.81.24,1.21.47,2.41.7,3.62.17.86.33,1.72.48,2.58.16.8.3,1.61.44,2.42.21,1.16.41,2.33.61,3.49.08.41.15.83.21,1.25.07.39.14.79.2,1.19l.21,1.29c.2,1.2.39,2.4.57,3.6.2,1.27.4,2.55.58,3.83.19,1.28.37,2.56.54,3.83.02.12.04.23.05.35.13.93.25,1.85.37,2.77.16,1.2.31,2.39.46,3.59.1.77.19,1.53.28,2.3.34,2.83.65,5.65.93,8.48.11,1.16.23,2.33.33,3.49.2,2.1.38,4.2.54,6.29.06.73.11,1.46.17,2.2.12,1.61.23,3.22.33,4.82.04.53.07,1.05.1,1.57.01.16.02.32.03.48.12,1.94.22,3.88.31,5.81.04.9.08,1.8.12,2.7.05,1.02.08,2.04.11,3.07.04,1.05.07,2.1.1,3.15v.17c.02.65.03,1.31.05,1.97.05,1.92.08,3.84.09,5.75,0,.39.01.79.01,1.19.02,2.55.02,5.1-.02,7.63Z"/><path class="cls-1" d="m219.63,1125.35h77.02c4.23-14.57,4.82-32.67.76-51.51-8.78-40.83-35.99-69.61-60.77-64.28-24.78,5.33-37.74,42.75-28.96,83.58,2.57,11.96,6.73,22.87,11.94,32.21Z"/><ellipse class="cls-1" cx="252.33" cy="1082.14" rx="24.97" ry="41.14" transform="translate(-221.97 77.28) rotate(-12.14)"/><path class="cls-1" d="m140.79,1125.35h35.12c14.53-11.68,22.41-38.24,18.41-67.62-5.12-37.57-27.75-65.52-50.55-62.41-22.8,3.11-37.14,36.08-32.02,73.66,3.46,25.4,14.93,46.39,29.04,56.37Z"/><path class="cls-1" d="m175.39,1059.06c2.78,20.44-5.02,38.39-17.42,40.08-12.41,1.69-24.72-13.51-27.5-33.96-2.78-20.44,5.02-38.39,17.42-40.08,12.41-1.69,24.72,13.51,27.5,33.96Z"/><ellipse class="cls-1" cx="259.92" cy="926.64" rx="49.78" ry="67.66" transform="translate(-37.31 11.29) rotate(-2.32)"/><path class="cls-1" d="m287.01,924.31c.82,20.31-10.63,37.27-25.57,37.88s-27.73-15.37-28.55-35.68c-.82-20.31,10.63-37.27,25.57-37.88,14.95-.61,27.73,15.37,28.55,35.68Z"/><path class="cls-1" d="m156,840.71c-9-.32-17.54,3.76-24.83,11.05-12.71,12.7-21.62,35.17-22.55,61.03-.29,7.9.19,15.54,1.34,22.72,4.72,29.83,20.82,51.86,40.72,52.58,24.7.9,45.91-31.38,47.38-72.08s-17.36-74.41-42.06-75.3Zm21.79,73.24c-.8,22.14-12.34,39.7-25.78,39.21-13.43-.48-23.68-18.82-22.88-40.97.8-22.14,12.34-39.7,25.78-39.22,13.44.49,23.68,18.83,22.88,40.98Z"/><path class="cls-1" d="m177.79,913.95c-.8,22.14-12.34,39.7-25.78,39.21-13.43-.48-23.68-18.82-22.88-40.97.8-22.14,12.34-39.7,25.78-39.22,13.44.49,23.68,18.83,22.88,40.98Z"/><path class="cls-1" d="m177.79,913.95c-.8,22.14-12.34,39.7-25.78,39.21-13.43-.48-23.68-18.82-22.88-40.97.8-22.14,12.34-39.7,25.78-39.22,13.44.49,23.68,18.83,22.88,40.98Z"/><ellipse class="cls-1" cx="316.4" cy="787.99" rx="73.95" ry="44.88" transform="translate(-532.57 771.01) rotate(-66.98)"/><path class="cls-1" d="m339.46,796.33c-8.69,20.45-25.8,32.75-38.21,27.48-12.41-5.27-15.43-26.13-6.74-46.58,8.69-20.45,25.8-32.75,38.21-27.48,12.41,5.27,15.43,26.13,6.74,46.58Z"/><path class="cls-1" d="m246.23,712.28c-8.67-5.19-19.73-4.72-31,.26,0,0,0,.01-.01.01-13.74,6.08-27.79,18.88-38.23,36.3-5.9,9.86-9.95,20.04-12.15,29.74-4.87,21.5-.65,40.62,12.62,48.57,19.25,11.52,50.25-4.85,69.24-36.58,18.99-31.72,18.78-66.78-.47-78.3Zm-14.74,67.78c-10.33,17.26-27.2,26.17-37.67,19.9-10.48-6.27-10.59-25.34-.26-42.6,10.33-17.26,27.2-26.17,37.67-19.9,10.48,6.27,10.59,25.34.26,42.6Z"/><path class="cls-1" d="m231.49,780.06c-10.33,17.26-27.2,26.17-37.67,19.9-10.48-6.27-10.59-25.34-.26-42.6,10.33-17.26,27.2-26.17,37.67-19.9,10.48,6.27,10.59,25.34.26,42.6Z"/><path class="cls-1" d="m231.49,780.06c-10.33,17.26-27.2,26.17-37.67,19.9-10.48-6.27-10.59-25.34-.26-42.6,10.33-17.26,27.2-26.17,37.67-19.9,10.48,6.27,10.59,25.34.26,42.6Z"/><path class="cls-1" d="m435.72,616.61c-18.49-13.09-49.55-1.36-69.37,26.2-19.83,27.55-20.91,60.49-2.42,73.57,15.78,11.16,40.7,4.26,59.98-15.12.07-.06.12-.11.17-.17,3.27-3.29,6.36-6.94,9.22-10.91,4.98-6.93,8.78-14.19,11.38-21.4.01-.02.02-.04.03-.07,7.71-21.43,4.84-42.32-8.99-52.1Zm-16.98,61.9c-10.78,14.99-27.68,21.38-37.74,14.26s-9.47-25.04,1.31-40.03c10.79-14.99,27.69-21.37,37.75-14.26,10.06,7.12,9.47,25.04-1.32,40.03Z"/><path class="cls-1" d="m418.74,678.51c-10.78,14.99-27.68,21.38-37.74,14.26s-9.47-25.04,1.31-40.03c10.79-14.99,27.69-21.37,37.75-14.26,10.06,7.12,9.47,25.04-1.32,40.03Z"/><path class="cls-1" d="m418.74,678.51c-10.78,14.99-27.68,21.38-37.74,14.26s-9.47-25.04,1.31-40.03c10.79-14.99,27.69-21.37,37.75-14.26,10.06,7.12,9.47,25.04-1.32,40.03Z"/><path class="cls-1" d="m342.97,602c-4.21-3.53-9.26-5.65-14.82-6.46-17.23-2.53-39.26,7.53-55.63,27.11-13.47,16.11-19.94,34.85-18.76,50.21.71,9.34,4.26,17.43,10.79,22.91,17.26,14.49,48.8,5.24,70.45-20.65,21.66-25.89,25.23-58.63,7.97-73.12Zm-21.45,60.35c-11.78,14.09-28.95,19.12-38.33,11.24-6.68-5.61-7.63-16.25-3.37-26.99h.01c1.72-4.36,4.29-8.73,7.69-12.79,5.08-6.08,11.17-10.47,17.2-12.87.01,0,.01-.01.01-.01,7.95-3.15,15.79-2.84,21.12,1.64,9.39,7.88,7.45,25.69-4.33,39.78Z"/><path class="cls-1" d="m527.02,503.8c-2.59-6.33-6.71-11.47-12.35-14.83-19.45-11.6-49.48,2.52-67.08,31.52-17.6,29.01-16.11,61.92,3.34,73.51,11.08,6.6,25.59,4.87,39.28-3.21,10.35-6.11,20.23-15.83,27.8-28.32,12.5-20.6,15.37-43.17,9.01-58.67Zm-24.43,48.18c-9.58,15.79-25.92,23.47-36.5,17.16s-11.39-24.21-1.82-39.99c9.58-15.79,25.92-23.47,36.5-17.16,10.58,6.31,11.4,24.21,1.82,39.99Z"/><path class="cls-1" d="m502.59,551.98c-9.58,15.79-25.92,23.47-36.5,17.16s-11.39-24.21-1.82-39.99c9.58-15.79,25.92-23.47,36.5-17.16,10.58,6.31,11.4,24.21,1.82,39.99Z"/><path class="cls-1" d="m502.59,551.98c-9.58,15.79-25.92,23.47-36.5,17.16s-11.39-24.21-1.82-39.99c9.58-15.79,25.92-23.47,36.5-17.16,10.58,6.31,11.4,24.21,1.82,39.99Z"/><path class="cls-1" d="m420.08,482.95c-4.48-2.39-9.54-3.17-14.84-2.52-15.56,1.88-33.23,15.95-44.57,37.29-9.41,17.69-12.26,36.23-8.89,50.03,2.08,8.5,6.51,15.19,13.23,18.78,17.6,9.4,44.2-6.16,59.41-34.76,15.21-28.61,13.27-59.42-4.34-68.82Zm-9.64,60.14c-8.28,15.57-22.75,24.03-32.33,18.92-5.65-3.02-8.33-10.09-7.88-18.58,0-.01.01-.02.01-.02.3-5.89,2.12-12.46,5.51-18.84,4.6-8.64,11.1-15.1,17.62-18.25,5.22-2.53,10.45-2.94,14.71-.67,9.57,5.12,10.63,21.88,2.36,37.44Z"/><path class="cls-1" d="m410.44,543.09c-8.28,15.57-22.75,24.03-32.33,18.92-5.65-3.02-8.33-10.09-7.88-18.58,0-.01.01-.02.01-.02.3-5.89,2.12-12.46,5.51-18.84,4.6-8.64,11.1-15.1,17.62-18.25,5.22-2.53,10.45-2.94,14.71-.67,9.57,5.12,10.63,21.88,2.36,37.44Z"/><path class="cls-1" d="m553.03,396.49c-5.43-9.44-13.83-16.21-24.17-18.3-22.19-4.49-44.9,14.29-50.74,41.96-5.83,27.66,7.43,53.72,29.62,58.21,10.37,2.1,20.86-.89,29.69-7.49,10.05-7.52,17.95-19.73,21.05-34.47,3.11-14.77.78-29.09-5.45-39.91Zm-12.61,35.31c-3.17,15.06-15.53,25.28-27.61,22.83-12.07-2.44-19.29-16.62-16.11-31.67,3.17-15.05,15.53-25.27,27.6-22.83,12.08,2.44,19.29,16.62,16.12,31.67Z"/><path class="cls-1" d="m540.42,431.8c-3.17,15.06-15.53,25.28-27.61,22.83-12.07-2.44-19.29-16.62-16.11-31.67,3.17-15.05,15.53-25.27,27.6-22.83,12.08,2.44,19.29,16.62,16.12,31.67Z"/><path class="cls-1" d="m540.42,431.8c-3.17,15.06-15.53,25.28-27.61,22.83-12.07-2.44-19.29-16.62-16.11-31.67,3.17-15.05,15.53-25.27,27.6-22.83,12.08,2.44,19.29,16.62,16.12,31.67Z"/><path class="cls-1" d="m449.8,366.19c-4.11-1.22-8.41-1.07-12.69.24-13.46,4.11-26.68,19.72-32.84,40.69-6.64,22.56-3.05,44.35,7.75,54.33h0c2.43,2.26,5.22,3.91,8.35,4.84,17.01,5.04,37.4-13.28,45.53-40.92,8.12-27.65.92-54.14-16.1-59.18Zm2.36,54.12c-4.42,15.04-15.51,25.01-24.77,22.27-3.02-.9-5.48-3.03-7.26-6.03h0c-3.67-6.2-4.48-16.04-1.5-26.16,2.73-9.29,8.01-16.65,13.83-20.26,3.6-2.25,7.4-3.06,10.94-2.01,9.26,2.74,13.18,17.15,8.76,32.19Z"/><path class="cls-1" d="m563.56,306.52c-1.97-15.71-9.61-28.9-19.92-36.66h0c-7.49-5.65-16.37-8.42-25.5-7.2-21.69,2.9-36.52,27.23-33.13,54.34,3.39,27.12,23.73,46.75,45.42,43.86,10.58-1.41,19.52-7.92,25.53-17.36h0c6.3-9.93,9.34-23.09,7.6-36.98Zm-35.98,31.06c-11.8,1.57-22.87-9.11-24.71-23.87-1.85-14.75,6.22-27.99,18.02-29.56,11.81-1.57,22.87,9.11,24.72,23.86,1.84,14.75-6.23,27.99-18.03,29.57Z"/><path class="cls-1" d="m527.58,337.58c-11.8,1.57-22.87-9.11-24.71-23.87-1.85-14.75,6.22-27.99,18.02-29.56,11.81-1.57,22.87,9.11,24.72,23.86,1.84,14.75-6.23,27.99-18.03,29.57Z"/><path class="cls-1" d="m527.58,337.58c-11.8,1.57-22.87-9.11-24.71-23.87-1.85-14.75,6.22-27.99,18.02-29.56,11.81-1.57,22.87,9.11,24.72,23.86,1.84,14.75-6.23,27.99-18.03,29.57Z"/><path class="cls-1" d="m457.87,262.75c-5.95-1.09-12.01.98-17.44,5.4-8.35,6.78-15.21,19.09-17.9,33.92-4.22,23.21,3.3,44.26,16.94,48.74h0c.75.26,1.52.46,2.31.6,15.08,2.77,30.9-14.84,35.35-39.32,4.44-24.49-4.18-46.58-19.26-49.34Zm7,46.26c-2.42,13.32-11.03,22.9-19.23,21.39-1.41-.26-2.72-.83-3.9-1.67-5.7-4.01-8.58-14.14-6.58-25.17,1.16-6.4,3.76-11.94,7.05-15.8h0c3.56-4.17,7.93-6.38,12.18-5.6,8.21,1.51,12.9,13.53,10.48,26.85Z"/><path class="cls-1" d="m464.87,309.01c-2.42,13.32-11.03,22.9-19.23,21.39-1.41-.26-2.72-.83-3.9-1.67-5.7-4.01-8.58-14.14-6.58-25.17,1.16-6.4,3.76-11.94,7.05-15.8h0c3.56-4.17,7.93-6.38,12.18-5.6,8.21,1.51,12.9,13.53,10.48,26.85Z"/><path class="cls-1" d="m524.51,192.06c-8.15-23.11-24.93-38.77-39.64-38.23-1.98.06-3.93.43-5.81,1.11-15.85,5.74-21.2,31.65-11.94,57.89,9.26,26.23,29.61,42.85,45.46,37.12,8.06-2.92,13.39-11.05,15.48-21.78h0c2.03-10.39,1-23.21-3.55-36.11Zm-19.83,35.35c-8.62,3.12-19.7-5.92-24.73-20.19-5.04-14.28-2.13-28.38,6.49-31.5,6.52-2.36,14.44,2.24,20.1,10.79.08.13.16.25.24.38.58.9,1.14,1.85,1.66,2.83.01.02.02.03.03.05,1.02,1.91,1.93,3.97,2.7,6.15,5.04,14.27,2.13,28.37-6.49,31.49Z"/><path class="cls-1" d="m504.68,227.41c-8.62,3.12-19.7-5.92-24.73-20.19-5.04-14.28-2.13-28.38,6.49-31.5,6.52-2.36,14.44,2.24,20.1,10.79.08.13.16.25.24.38.58.9,1.14,1.85,1.66,2.83.01.02.02.03.03.05,1.02,1.91,1.93,3.97,2.7,6.15,5.04,14.27,2.13,28.37-6.49,31.49Z"/><path class="cls-1" d="m504.68,227.41c-8.62,3.12-19.7-5.92-24.73-20.19-5.04-14.28-2.13-28.38,6.49-31.5,6.52-2.36,14.44,2.24,20.1,10.79.08.13.16.25.24.38.58.9,1.14,1.85,1.66,2.83.01.02.02.03.03.05,1.02,1.91,1.93,3.97,2.7,6.15,5.04,14.27,2.13,28.37-6.49,31.49Z"/><path class="cls-1" d="m456.52,208.32c-6.59-18.71-21.84-30.3-34.04-25.88-2.88,1.04-5.34,2.88-7.31,5.33-6.43,7.93-7.89,22.24-2.86,36.53,5.08,14.41,15.3,24.61,25.31,26.5,2.98.57,5.94.4,8.74-.61,12.21-4.41,16.76-23.16,10.16-41.87Zm-15.78,25.8c-2.28.82-4.76.62-7.17-.41-4.62-1.97-9.01-6.99-11.36-13.68-2.32-6.58-2.1-13.17.13-17.66,1.23-2.45,3.05-4.27,5.4-5.12,6.64-2.4,14.93,3.91,18.52,14.09,3.59,10.18,1.12,20.38-5.52,22.78Z"/><path class="cls-1" d="m440.74,234.12c-2.28.82-4.76.62-7.17-.41-4.62-1.97-9.01-6.99-11.36-13.68-2.32-6.58-2.1-13.17.13-17.66,1.23-2.45,3.05-4.27,5.4-5.12,6.64-2.4,14.93,3.91,18.52,14.09,3.59,10.18,1.12,20.38-5.52,22.78Z"/><path class="cls-1" d="m458.69,95.95c-12.63-19.11-33-27.79-45.52-19.38-1.29.87-2.44,1.88-3.46,3.02-8.9,9.95-7.66,29.67,3.67,46.81,12.62,19.11,33,27.79,45.51,19.38,4.5-3.02,7.37-7.84,8.6-13.66,2.23-10.37-.72-23.92-8.8-36.17Zm-10.6,33.4c-6.81,4.58-17.89-.14-24.76-10.54-6.87-10.4-6.92-22.54-.11-27.11.49-.33,1.01-.62,1.54-.85,6.84-3.02,16.85,1.74,23.22,11.39,3.1,4.69,4.81,9.73,5.13,14.27.39,5.53-1.28,10.33-5.02,12.84Z"/><path class="cls-1" d="m448.09,129.35c-6.81,4.58-17.89-.14-24.76-10.54-6.87-10.4-6.92-22.54-.11-27.11.49-.33,1.01-.62,1.54-.85,6.84-3.02,16.85,1.74,23.22,11.39,3.1,4.69,4.81,9.73,5.13,14.27.39,5.53-1.28,10.33-5.02,12.84Z"/><path class="cls-1" d="m402.71,129.88c-13.35-14.75-30.69-20.71-38.75-13.3-1.37,1.26-2.38,2.82-3.05,4.62-3.28,8.79,1.56,23.25,12.63,35.49,10.64,11.77,23.84,17.94,32.83,16.2,2.28-.44,4.28-1.39,5.91-2.89,8.06-7.41,3.77-25.37-9.57-40.12Zm-22.94,20.19c-5.58-6.16-8.25-13.36-7.19-18.19.31-1.45.96-2.7,1.98-3.63,4.39-4.03,13.82-.79,21.08,7.24,7.26,8.02,9.6,17.8,5.21,21.82-1.12,1.03-2.56,1.58-4.2,1.7-4.84.37-11.47-2.95-16.88-8.94Z"/><path class="cls-1" d="m400.85,157.31c-1.12,1.03-2.56,1.58-4.2,1.7-4.84.37-11.47-2.95-16.88-8.94-5.58-6.16-8.25-13.36-7.19-18.19.31-1.45.96-2.7,1.98-3.63,4.39-4.03,13.82-.79,21.08,7.24,7.26,8.02,9.6,17.8,5.21,21.82Z"/><path class="cls-1" d="m377.28,38.09c-17.57-7.76-35.83-5.39-42.6,5.05-.5.77-.94,1.58-1.31,2.44-5.38,12.46,5.56,29.31,24.43,37.64,18.87,8.33,38.53,4.97,43.91-7.49.17-.4.33-.81.47-1.22,4.2-12.32-6.63-28.36-24.9-36.42Zm8.25,30.46c-2.93,6.78-13.63,8.6-23.89,4.07-10.27-4.53-16.22-13.7-13.29-20.48.6-1.4,1.53-2.58,2.72-3.53,4.59-3.73,13.01-4.14,21.17-.54,8.52,3.76,14.07,10.71,14.04,16.84-.01,1.26-.25,2.49-.75,3.64Z"/><path class="cls-1" d="m386.28,64.91c-.01,1.26-.25,2.49-.75,3.64-2.93,6.78-13.63,8.6-23.89,4.07-10.27-4.53-16.22-13.7-13.29-20.48.6-1.4,1.53-2.58,2.72-3.53,4.59-3.73,13.01-4.14,21.17-.54,8.52,3.76,14.07,10.71,14.04,16.84Z"/><path class="cls-1" d="m338.27,81.44c-15.11-8.1-31.35-7.09-36.26,2.26-.37.71-.67,1.45-.89,2.21-2.73,9.26,5.38,21.9,19.34,29.38,13.37,7.18,27.63,7.2,34.14.62.84-.83,1.56-1.8,2.12-2.87,4.92-9.35-3.34-23.5-18.45-31.6Zm5.5,24.62c-.19.36-.41.7-.65,1.01-3.28,4.12-11.44,4.31-19.08.22-7.98-4.28-12.46-11.67-10.25-16.74.06-.15.13-.3.21-.45,2.67-5.09,11.51-5.64,19.73-1.23,8.22,4.4,12.71,12.1,10.04,17.19Z"/><path class="cls-1" d="m343.77,106.06c-.19.36-.41.7-.65,1.01-3.28,4.12-11.44,4.31-19.08.22-7.98-4.28-12.46-11.67-10.25-16.74.06-.15.13-.3.21-.45,2.67-5.09,11.51-5.64,19.73-1.23,8.22,4.4,12.71,12.1,10.04,17.19Z"/><path class="cls-1" d="m316.49,38.53c-1-9.64-11.97-18.83-26.6-21.56-16.57-3.09-31.58,3.26-33.52,14.18-.12.68-.19,1.36-.2,2.04-.26,10.26,11.13,20.42,26.67,23.32,16.56,3.09,31.57-3.25,33.52-14.17.23-1.27.27-2.55.13-3.81Zm-14.34,1.12c-1.06,5.94-9.23,9.4-18.24,7.72-9.02-1.68-15.46-7.86-14.4-13.8.02-.13.05-.26.08-.39,1.33-5.7,9.34-8.97,18.15-7.33,7.11,1.33,12.62,5.44,14.11,10.03.41,1.24.52,2.51.3,3.77Z"/><path class="cls-1" d="m302.15,39.65c-1.06,5.94-9.23,9.4-18.24,7.72-9.02-1.68-15.46-7.86-14.4-13.8.02-.13.05-.26.08-.39,1.33-5.7,9.34-8.97,18.15-7.33,7.11,1.33,12.62,5.44,14.11,10.03.41,1.24.52,2.51.3,3.77Z"/><path class="cls-1" d="m293.33,83.61c-.84-8.51-8.98-17.34-20.76-21.46-14.52-5.09-29.06-1.11-32.47,8.89-.55,1.6-.78,3.26-.71,4.94.33,8.79,8.63,18.1,20.83,22.37,14.52,5.09,29.06,1.11,32.47-8.89.65-1.89.85-3.86.64-5.85Zm-13.09,1.46c-1.86,5.43-9.77,7.6-17.67,4.83-7.17-2.51-11.87-8.21-11.29-13.3.05-.53.16-1.05.34-1.56,1.86-5.44,9.77-7.6,17.67-4.83,5.79,2.03,9.96,6.14,11.05,10.33.41,1.53.39,3.08-.1,4.53Z"/><path class="cls-1" d="m280.24,85.07c-1.86,5.43-9.77,7.6-17.67,4.83-7.17-2.51-11.87-8.21-11.29-13.3.05-.53.16-1.05.34-1.56,1.86-5.44,9.77-7.6,17.67-4.83,5.79,2.03,9.96,6.14,11.05,10.33.41,1.53.39,3.08-.1,4.53Z"/><path class="cls-1" d="m211.69,60.65c-13.2-2.54-28.49,1.92-34.16,9.95-2.39,3.4-2.68,6.9-1.21,9.99,1.99,4.23,7.24,7.7,14.86,9.17,13.2,2.54,28.49-1.92,34.15-9.95.93-1.31,1.54-2.64,1.85-3.95,1.64-6.73-4.44-13.08-15.49-15.21Zm3.06,15.62c-.18.46-.44.92-.76,1.38-3.08,4.37-11.4,6.8-18.59,5.41-3.68-.71-6.34-2.28-7.65-4.23-1.25-1.85-1.27-4.05.23-6.19,3.08-4.37,11.4-6.79,18.58-5.41,6.44,1.24,9.77,5.11,8.19,9.04Z"/><path class="cls-1" d="m214.75,76.27c-.18.46-.44.92-.76,1.38-3.08,4.37-11.4,6.8-18.59,5.41-3.68-.71-6.34-2.28-7.65-4.23-1.25-1.85-1.27-4.05.23-6.19,3.08-4.37,11.4-6.79,18.58-5.41,6.44,1.24,9.77,5.11,8.19,9.04Z"/><path class="cls-1" d="m234.64,34.41c-1.84-5.44-9.15-9.43-19.71-9.91-15.14-.69-31.23,6.08-35.94,15.11-.96,1.84-1.38,3.62-1.3,5.31.29,6.63,8.1,11.75,20.16,12.29,15.13.69,31.22-6.07,35.94-15.11,1.42-2.72,1.65-5.34.85-7.69Zm-13.86,7.13c-2.56,4.91-11.32,8.59-19.55,8.22-7.4-.33-11.86-3.83-10.82-8.11.12-.48.3-.98.56-1.47,2.56-4.91,11.32-8.59,19.55-8.22,4.85.22,8.44,1.79,10.04,4.06,1.12,1.58,1.28,3.5.22,5.52Z"/><path class="cls-1" d="m220.78,41.54c-2.56,4.91-11.32,8.59-19.55,8.22-7.4-.33-11.86-3.83-10.82-8.11.12-.48.3-.98.56-1.47,2.56-4.91,11.32-8.59,19.55-8.22,4.85.22,8.44,1.79,10.04,4.06,1.12,1.58,1.28,3.5.22,5.52Z"/><path class="cls-1" d="m158.68,80.54c-1.69-5.76-12.12-7.13-23.29-3.06-11.18,4.06-18.86,12.03-17.17,17.79.06.21.13.41.22.61,2.23,5.24,12.3,6.37,23.07,2.45,8.99-3.28,15.73-9.08,17.13-14.22.34-1.24.37-2.45.04-3.57Zm-9.76,5.92c-1.02,2.68-4.54,5.59-9.17,7.27-5.59,2.03-10.84,1.57-12.36-.96-.13-.22-.24-.46-.31-.71-.92-3.13,3.26-7.47,9.34-9.68,6.08-2.21,11.75-1.47,12.67,1.67.22.75.15,1.57-.17,2.41Z"/><path class="cls-1" d="m148.92,86.46c-1.02,2.68-4.54,5.59-9.17,7.27-5.59,2.03-10.84,1.57-12.36-.96-.13-.22-.24-.46-.31-.71-.92-3.13,3.26-7.47,9.34-9.68,6.08-2.21,11.75-1.47,12.67,1.67.22.75.15,1.57-.17,2.41Z"/><path class="cls-1" d="m157.48,51.22c-3.58-1.51-8.6-2-14.19-1.11-11.06,1.76-20.15,8.25-20.3,14.51,0,.19,0,.38.02.57.38,5.9,9.01,9.28,19.73,7.57,11.06-1.76,20.15-8.26,20.31-14.51.07-3.1-2.06-5.56-5.57-7.03Zm-14.97,16.45c-6.02.96-10.83-1.03-10.75-4.43.02-.78.29-1.57.78-2.33,1.63-2.56,5.63-4.83,10.26-5.56,1.38-.22,2.7-.29,3.91-.21,4.06.24,6.9,2.01,6.84,4.63-.08,3.41-5.03,6.94-11.04,7.9Z"/><path class="cls-1" d="m153.55,59.77c-.08,3.41-5.03,6.94-11.04,7.9-6.02.96-10.83-1.03-10.75-4.43.02-.78.29-1.57.78-2.33,1.63-2.56,5.63-4.83,10.26-5.56,1.38-.22,2.7-.29,3.91-.21,4.06.24,6.9,2.01,6.84,4.63Z"/><path class="cls-1" d="m82.65,111.71c-.32-.44-.71-.83-1.18-1.17-4.65-3.39-14.65-.36-22.34,6.78-5.26,4.89-8.08,10.44-7.84,14.53.1,1.9.85,3.49,2.32,4.56,4.65,3.4,14.65.37,22.34-6.78,6.92-6.42,9.61-13.99,6.7-17.92Zm-10.77,15.36c-4.19,3.89-9.63,5.54-12.16,3.69-1.26-.93-1.56-2.55-1.01-4.43.54-1.88,1.92-4.02,4.01-5.96,3.89-3.61,8.87-5.29,11.58-4.01.01-.01.01,0,.01,0,.21.09.4.2.57.33,2.53,1.84,1.18,6.49-3,10.38Z"/><path class="cls-1" d="m71.88,127.07c-4.19,3.89-9.63,5.54-12.16,3.69-1.26-.93-1.56-2.55-1.01-4.43.54-1.88,1.92-4.02,4.01-5.96,3.89-3.61,8.87-5.29,11.58-4.01.01-.01.01,0,.01,0,.21.09.4.2.57.33,2.53,1.84,1.18,6.49-3,10.38Z"/><path class="cls-1" d="m104.73,74.31c-.44-.39-.95-.72-1.51-1-5.91-2.92-16.28,1.42-23.16,9.69-2.46,2.96-4.14,6.01-5.01,8.85-1.58,5.11-.55,9.53,3.25,11.41,5.91,2.91,16.27-1.43,23.15-9.7,6.22-7.48,7.46-15.62,3.28-19.25Zm-8.36,17.12c-3.74,4.5-9.38,6.86-12.6,5.28-3.18-1.58-2.79-6.43.86-10.9h.01s.06-.08.09-.12c2.81-3.37,6.69-5.54,9.8-5.75.01,0,.01,0,.02,0,1.03-.07,1.98.08,2.78.47,3.21,1.59,2.78,6.52-.96,11.02Z"/><path class="cls-1" d="m96.37,91.43c-3.74,4.5-9.38,6.86-12.6,5.28-3.18-1.58-2.79-6.43.86-10.9h.01s.06-.08.09-.12c2.81-3.37,6.69-5.54,9.8-5.75.01,0,.01,0,.02,0,1.03-.07,1.98.08,2.78.47,3.21,1.59,2.78,6.52-.96,11.02Z"/><path class="cls-1" d="m39.87,117.7c-.54-.53-1.21-.9-2.01-1.08-4.8-1.1-12.33,4.92-16.84,13.44-1.32,2.51-2.24,4.95-2.74,7.18-1.23,5.36-.11,9.48,3.27,10.26,4.8,1.1,12.33-4.92,16.84-13.45,3.75-7.11,4.21-13.71,1.48-16.35Zm-5.57,15.73c-2.46,4.64-6.56,7.91-9.17,7.31-2.6-.6-2.73-4.84-.28-9.48.14-.26.28-.51.42-.76,2.02-3.44,4.91-6,7.24-6.52.54-.13,1.04-.15,1.5-.04,2.61.6,2.74,4.85.29,9.49Z"/><path class="cls-1" d="m34.3,133.43c-2.46,4.64-6.56,7.91-9.17,7.31-2.6-.6-2.73-4.84-.28-9.48.14-.26.28-.51.42-.76,2.02-3.44,4.91-6,7.24-6.52.54-.13,1.04-.15,1.5-.04,2.61.6,2.74,4.85.29,9.49Z"/></g></svg>