<?xml version="1.0" encoding="UTF-8"?><svg id="Layer_2" xmlns="http://www.w3.org/2000/svg" viewBox="0 0 602.38 1124.86"><defs><style>.cls-1{fill:#000abe;}.cls-2{fill:#7371ff;}.cls-3{fill:#1010e2;}.cls-4{fill:#515cff;}</style></defs><g id="_Layer_"><path class="cls-4" d="m26.65,154.88c58.79-73.77,232.26-108.62,313.73-49.96,139.19,100.23,108.65,253.24,65.57,371.81-40.03,110.18-191.58,216.34-235.95,291.54-91.97,155.86-58.67,279.33-58.67,279.33,0,0-15.48,42.78,13,77.25h303.97c20.44-20.28,26.09-52.03,12.32-78.16-23.62-44.84-29.99-138.5-10.85-219.73,23.38-99.24,121.29-217.79,150.91-368.51,29.62-150.72-51.12-409.6-227.27-448.86C177.25-29.67,19.3,99.27,3.71,134.92c-15.59,35.65,22.93,19.96,22.93,19.96Z"/><path class="cls-3" d="m274.06,32.84c172,6.57,271.06,185.81,280.41,292.23,9.35,106.42-43.65,238.59-98.21,324.49-46.72,73.56-189.42,272.75-124.73,475.3h96.75c20.44-20.28,26.09-52.03,12.32-78.16-23.62-44.84-29.99-138.5-10.85-219.73,23.38-99.24,136.33-220.35,165.95-371.07,29.62-150.72-36.83-400.41-251.79-448.58C167.82-32.15,19.3,99.27,3.71,134.92c-4.81,10.99-4.47,17.1-1.7,20.29C12.72,136.58,121.63,27.02,274.06,32.84Z"/><path class="cls-1" d="m428.29,1124.86c20.44-20.28,26.09-52.03,12.32-78.16-23.62-44.84-29.99-138.5-10.85-219.73,23.38-99.24,136.33-220.35,165.95-371.07,16.85-85.75,2.58-203.52-52.42-298.01,20.43,68.2,48.14,178.5,37.37,245.86-16.45,102.93-57.79,181.81-98.37,243.84-36.65,56.02-185.88,220.88-67.84,477.27h13.82Z"/><path class="cls-2" d="m219.13,1124.86h77.02c4.23-14.57,4.82-32.67.76-51.51-8.78-40.83-35.99-69.61-60.77-64.28-24.78,5.33-37.74,42.75-28.96,83.58,2.57,11.96,6.73,22.87,11.94,32.21Z"/><ellipse class="cls-4" cx="251.83" cy="1081.64" rx="24.97" ry="41.14" transform="translate(-221.88 77.17) rotate(-12.14)"/><path class="cls-2" d="m140.29,1124.86h35.12c14.53-11.68,22.41-38.24,18.41-67.62-5.12-37.57-27.75-65.52-50.55-62.41-22.8,3.11-37.14,36.08-32.02,73.66,3.46,25.4,14.93,46.39,29.04,56.37Z"/><path class="cls-4" d="m174.89,1058.56c2.78,20.44-5.02,38.39-17.42,40.08-12.41,1.69-24.72-13.51-27.5-33.96-2.78-20.44,5.02-38.39,17.42-40.08,12.41-1.69,24.72,13.51,27.5,33.96Z"/><ellipse class="cls-2" cx="259.42" cy="926.14" rx="49.78" ry="67.66" transform="translate(-37.29 11.26) rotate(-2.32)"/><path class="cls-4" d="m286.51,923.82c.82,20.31-10.63,37.27-25.57,37.88s-27.73-15.37-28.55-35.68c-.82-20.31,10.63-37.27,25.57-37.88,14.95-.61,27.73,15.37,28.55,35.68Z"/><ellipse class="cls-2" cx="152.84" cy="913.91" rx="73.74" ry="44.75" transform="translate(-765.98 1033.7) rotate(-87.93)"/><path class="cls-4" d="m177.29,913.46c-.8,22.14-12.34,39.7-25.78,39.22-13.44-.48-23.68-18.83-22.88-40.97.8-22.14,12.34-39.7,25.78-39.22,13.44.48,23.68,18.83,22.88,40.97Z"/><ellipse class="cls-2" cx="315.9" cy="787.49" rx="73.95" ry="44.88" transform="translate(-532.42 770.25) rotate(-66.98)"/><path class="cls-4" d="m338.96,795.84c-8.69,20.45-25.8,32.75-38.21,27.48-12.41-5.27-15.43-26.13-6.74-46.58,8.69-20.45,25.8-32.75,38.21-27.48,12.41,5.27,15.43,26.13,6.74,46.58Z"/><ellipse class="cls-2" cx="211.35" cy="769.23" rx="66.94" ry="40.62" transform="translate(-557.21 555.47) rotate(-59.09)"/><path class="cls-4" d="m230.99,779.57c-10.33,17.26-27.2,26.17-37.67,19.9-10.47-6.27-10.59-25.34-.26-42.6,10.33-17.26,27.2-26.17,37.67-19.9,10.47,6.27,10.59,25.34.26,42.6Z"/><path class="cls-2" d="m432.8,689.69c-19.82,27.55-50.88,39.28-69.37,26.2-18.49-13.08-17.41-46.02,2.41-73.57,19.82-27.55,50.88-39.28,69.37-26.2,18.49,13.08,17.41,46.02-2.42,73.57Z"/><path class="cls-4" d="m418.24,678.02c-10.79,14.99-27.68,21.37-37.74,14.26-10.06-7.12-9.47-25.04,1.31-40.03,10.79-14.99,27.68-21.37,37.74-14.26,10.06,7.12,9.47,25.04-1.31,40.03Z"/><ellipse class="cls-2" cx="303.26" cy="648.4" rx="61.12" ry="40.8" transform="translate(-388.95 466.11) rotate(-50.18)"/><ellipse class="cls-4" cx="304.02" cy="647.59" rx="33.25" ry="22.2" transform="translate(-388.06 466.4) rotate(-50.18)"/><ellipse class="cls-2" cx="482.3" cy="540.99" rx="61.43" ry="40.99" transform="translate(-231.23 668.09) rotate(-58.38)"/><path class="cls-4" d="m502.09,551.49c-9.58,15.78-25.92,23.46-36.5,17.15-10.58-6.31-11.4-24.21-1.82-39.99,9.58-15.78,25.92-23.46,36.5-17.15,10.58,6.31,11.39,24.21,1.82,39.99Z"/><path class="cls-2" d="m423.92,551.27c-15.21,28.6-41.81,44.17-59.41,34.76-17.6-9.4-19.54-40.21-4.33-68.81,15.21-28.6,41.81-44.17,59.41-34.76,17.6,9.4,19.54,40.21,4.33,68.81Z"/><path class="cls-4" d="m409.94,542.6c-8.27,15.56-22.75,24.03-32.32,18.91-9.58-5.12-10.63-21.88-2.36-37.44,8.27-15.56,22.75-24.03,32.32-18.91,9.58,5.12,10.63,21.88,2.36,37.44Z"/><ellipse class="cls-2" cx="517.81" cy="427.78" rx="51.19" ry="40.99" transform="translate(-13.63 838.51) rotate(-77.26)"/><path class="cls-4" d="m539.92,431.31c-3.17,15.05-15.53,25.27-27.61,22.83-12.07-2.44-19.29-16.62-16.12-31.67,3.17-15.05,15.53-25.27,27.61-22.83,12.07,2.44,19.29,16.62,16.12,31.67Z"/><ellipse class="cls-2" cx="434.58" cy="415.75" rx="52.17" ry="32.14" transform="translate(-86.52 716.02) rotate(-73.68)"/><ellipse class="cls-4" cx="434.9" cy="414.86" rx="28.38" ry="17.49" transform="translate(-85.44 715.68) rotate(-73.68)"/><ellipse class="cls-2" cx="523.79" cy="311.27" rx="39.62" ry="49.48" transform="translate(-30.99 59.35) rotate(-6.3)"/><path class="cls-4" d="m545.11,307.52c1.85,14.75-6.22,27.99-18.03,29.56-11.8,1.57-22.87-9.11-24.71-23.86-1.85-14.75,6.22-27.99,18.03-29.56,11.8-1.57,22.87,9.11,24.71,23.86Z"/><ellipse class="cls-2" cx="449.33" cy="306.59" rx="45.06" ry="27.76" transform="translate(67.89 694.4) rotate(-79.78)"/><path class="cls-4" d="m464.37,308.52c-2.42,13.32-11.03,22.9-19.23,21.4-8.2-1.5-12.89-13.52-10.48-26.85,2.42-13.32,11.03-22.9,19.23-21.4,8.2,1.5,12.89,13.52,10.48,26.85Z"/><path class="cls-2" d="m524.02,191.57c9.26,26.23,3.91,52.15-11.93,57.88-15.85,5.73-36.2-10.88-45.46-37.12-9.26-26.23-3.91-52.15,11.93-57.88,15.85-5.73,36.2,10.88,45.46,37.12Z"/><path class="cls-4" d="m510.67,195.43c5.04,14.27,2.13,28.37-6.49,31.49-8.62,3.12-19.7-5.92-24.73-20.2-5.04-14.27-2.13-28.37,6.49-31.49s19.7,5.92,24.73,20.2Z"/><ellipse class="cls-2" cx="433.92" cy="215.82" rx="23.5" ry="35.92" transform="translate(-46.71 153.69) rotate(-19.08)"/><path class="cls-4" d="m445.77,210.85c3.59,10.18,1.11,20.38-5.53,22.78-6.64,2.4-14.94-3.9-18.52-14.08-3.59-10.18-1.11-20.38,5.53-22.78,6.64-2.4,14.94,3.9,18.52,14.08Z"/><path class="cls-2" d="m458.19,95.46c12.62,19.11,12.71,41.42.2,49.83-12.51,8.41-32.89-.27-45.51-19.38-12.62-19.11-12.71-41.42-.2-49.83,12.51-8.41,32.89.27,45.51,19.38Z"/><path class="cls-4" d="m447.48,101.75c6.87,10.4,6.92,22.54.11,27.11-6.81,4.57-17.89-.15-24.76-10.55-6.87-10.4-6.92-22.54-.11-27.11,6.81-4.57,17.89.15,24.76,10.55Z"/><path class="cls-2" d="m402.21,129.39c13.34,14.75,17.63,32.71,9.57,40.11-8.05,7.4-25.4,1.45-38.74-13.31-13.34-14.75-17.63-32.71-9.58-40.11,8.05-7.4,25.4-1.45,38.74,13.31Z"/><path class="cls-4" d="m395.15,135c7.26,8.03,9.59,17.8,5.21,21.83-4.38,4.03-13.82.79-21.08-7.24-7.26-8.03-9.59-17.8-5.21-21.83,4.38-4.03,13.82-.79,21.08,7.24Z"/><path class="cls-2" d="m376.79,37.6c18.87,8.33,29.81,25.18,24.43,37.64-5.38,12.46-25.04,15.81-43.91,7.49-18.87-8.33-29.81-25.18-24.43-37.64,5.38-12.46,25.04-15.81,43.91-7.49Z"/><path class="cls-4" d="m371.74,47.58c10.27,4.53,16.22,13.7,13.29,20.48-2.93,6.78-13.62,8.6-23.89,4.07s-16.22-13.7-13.29-20.48c2.93-6.78,13.62-8.6,23.89-4.07Z"/><path class="cls-2" d="m337.77,80.95c15.11,8.1,23.37,22.25,18.46,31.59-4.92,9.35-21.15,10.36-36.26,2.26-15.11-8.1-23.37-22.25-18.46-31.59,4.92-9.35,21.15-10.36,36.26-2.26Z"/><path class="cls-4" d="m333.23,88.38c8.22,4.41,12.72,12.1,10.04,17.19s-11.51,5.64-19.73,1.23c-8.22-4.41-12.72-12.1-10.04-17.19,2.68-5.09,11.51-5.64,19.73-1.23Z"/><path class="cls-2" d="m289.39,16.48c16.57,3.09,28.42,14.45,26.47,25.36-1.95,10.92-16.95,17.26-33.52,14.17-16.57-3.09-28.42-14.45-26.47-25.36,1.95-10.92,16.95-17.26,33.52-14.17Z"/><path class="cls-4" d="m287.25,25.36c9.01,1.68,15.46,7.86,14.4,13.8-1.06,5.94-9.22,9.39-18.24,7.71-9.01-1.68-15.46-7.86-14.4-13.8,1.06-5.94,9.22-9.39,18.24-7.71Z"/><path class="cls-2" d="m272.08,61.66c14.52,5.09,23.53,17.32,20.12,27.31-3.41,10-17.95,13.97-32.48,8.89-14.52-5.09-23.53-17.32-20.12-27.31,3.41-10,17.95-13.97,32.48-8.89Z"/><path class="cls-4" d="m268.79,69.72c7.9,2.77,12.8,9.42,10.95,14.86-1.86,5.44-9.77,7.6-17.67,4.83-7.9-2.77-12.8-9.42-10.95-14.86,1.86-5.44,9.77-7.6,17.67-4.83Z"/><path class="cls-2" d="m190.68,89.27c13.2,2.54,28.49-1.91,34.16-9.95,5.66-8.04-.44-16.61-13.64-19.15-13.2-2.54-28.49,1.91-34.16,9.95-5.66,8.04.44,16.61,13.64,19.15Z"/><path class="cls-4" d="m194.91,82.57c7.18,1.38,15.5-1.04,18.58-5.41,3.08-4.37-.24-9.04-7.42-10.42-7.18-1.38-15.5,1.04-18.58,5.41-3.08,4.37.24,9.04,7.42,10.42Z"/><path class="cls-2" d="m197.35,56.72c15.13.69,31.22-6.08,35.94-15.11,4.72-9.03-3.73-16.92-18.86-17.6-15.13-.69-31.22,6.08-35.94,15.11-4.72,9.03,3.73,16.92,18.86,17.6Z"/><path class="cls-4" d="m200.73,49.27c8.23.37,16.99-3.31,19.55-8.22s-2.03-9.2-10.26-9.58c-8.23-.37-16.99,3.31-19.55,8.22-2.57,4.92,2.03,9.2,10.26,9.58Z"/><path class="cls-2" d="m141.01,97.84c11.17-4.07,18.86-12.04,17.17-17.8-1.69-5.76-12.12-7.13-23.29-3.06-11.17,4.07-18.86,12.04-17.17,17.8,1.69,5.76,12.12,7.13,23.29,3.06Z"/><path class="cls-4" d="m139.25,93.24c6.08-2.21,10.26-6.55,9.34-9.68-.92-3.13-6.59-3.88-12.67-1.67-6.08,2.21-10.26,6.55-9.34,9.68.92,3.13,6.59,3.88,12.67,1.67Z"/><path class="cls-2" d="m142.25,72.27c11.06-1.76,20.15-8.26,20.3-14.51s-8.69-9.9-19.75-8.14c-11.06,1.76-20.15,8.26-20.3,14.51-.15,6.25,8.69,9.9,19.75,8.14Z"/><path class="cls-4" d="m142.01,67.18c6.02-.96,10.96-4.49,11.05-7.9s-4.73-5.39-10.75-4.43c-6.02.96-10.96,4.49-11.05,7.9s4.73,5.39,10.75,4.43Z"/><path class="cls-2" d="m75.45,129.14c7.69-7.14,10.16-15.69,5.51-19.09-4.65-3.4-14.65-.36-22.34,6.78-7.69,7.14-10.16,15.69-5.51,19.09,4.65,3.4,14.65.36,22.34-6.78Z"/><path class="cls-4" d="m71.38,126.58c4.18-3.89,5.53-8.54,3-10.39-2.53-1.85-7.97-.2-12.15,3.69-4.18,3.89-5.53,8.54-3,10.39,2.53,1.85,7.97.2,12.15-3.69Z"/><path class="cls-2" d="m100.96,93.07c6.88-8.27,7.67-17.34,1.76-20.25-5.91-2.92-16.27,1.43-23.15,9.7-6.88,8.27-7.67,17.34-1.76,20.25,5.91,2.92,16.27-1.43,23.15-9.7Z"/><path class="cls-4" d="m95.87,90.94c3.74-4.5,4.17-9.43.96-11.02-3.21-1.59-8.85.78-12.6,5.27-3.74,4.5-4.17,9.43-.96,11.02,3.21,1.59,8.85-.78,12.6-5.28Z"/><path class="cls-2" d="m37.89,133.56c4.5-8.53,4.27-16.33-.53-17.44-4.8-1.1-12.33,4.92-16.84,13.45-4.5,8.53-4.27,16.33.53,17.44,4.8,1.1,12.33-4.92,16.84-13.45Z"/><path class="cls-4" d="m33.8,132.93c2.45-4.64,2.32-8.89-.29-9.49-2.61-.6-6.71,2.68-9.16,7.32s-2.32,8.89.29,9.49c2.61.6,6.71-2.68,9.16-7.32Z"/></g></svg>