<svg width="314" height="460" viewBox="0 0 314 460" fill="none" xmlns="http://www.w3.org/2000/svg">
<g clip-path="url(#clip0_842_2243)">
<path d="M305.24 398.577C317.027 399.538 327.394 390.727 328.355 378.952C329.316 367.165 320.505 356.798 308.731 355.837C296.944 354.876 286.577 363.687 285.616 375.461C284.654 387.236 293.414 397.615 305.24 398.577Z" fill="#1010E2"/>
<path d="M253.676 424.989C264.512 425.879 274.025 417.833 274.915 406.958C275.805 396.084 267.72 386.597 256.884 385.72C246.049 384.83 236.523 392.914 235.646 403.75C234.756 414.586 242.841 424.112 253.676 424.989Z" fill="#1010E2"/>
<path d="M204.703 443.716C214.587 444.521 223.22 437.202 224.026 427.317C224.831 417.433 217.512 408.8 207.627 407.994C197.743 407.189 189.11 414.508 188.304 424.393C187.499 434.277 194.818 442.91 204.703 443.716Z" fill="#1010E2"/>
<path d="M158.635 453.847C167.517 454.568 175.309 447.925 176.03 439.042C176.751 430.16 170.159 422.331 161.264 421.609C152.382 420.888 144.591 427.493 143.869 436.414C143.135 445.347 149.74 453.126 158.635 453.847Z" fill="#1010E2"/>
<path d="M115.711 454.458C123.603 455.107 130.541 449.216 131.19 441.285C131.84 433.342 125.949 426.417 118.057 425.768C110.165 425.118 103.227 431.009 102.578 438.94C101.928 446.884 107.819 453.808 115.711 454.458Z" fill="#1010E2"/>
<path d="M76.2331 444.65C83.1743 445.216 89.2572 440.051 89.8227 433.11C90.3881 426.169 85.2238 420.086 78.2826 419.521C71.3415 418.955 65.2585 424.12 64.6931 431.061C64.1276 438.002 69.292 444.085 76.2331 444.65Z" fill="#1010E2"/>
<path d="M40.5419 423.629C46.5319 424.123 51.7735 419.673 52.2548 413.683C52.749 407.693 48.2987 402.452 42.3087 401.97C36.3188 401.476 31.0771 405.926 30.5958 411.916C30.1017 417.906 34.5519 423.148 40.5419 423.629Z" fill="#1010E2"/>
<path d="M8.87596 390.406C13.8762 390.816 18.2636 387.093 18.6733 382.092C19.0831 377.092 15.3597 372.705 10.3595 372.295C5.35926 371.885 0.971792 375.609 0.561984 380.622C0.152271 385.622 3.87567 390.009 8.87587 390.419L8.87596 390.406Z" fill="#1010E2"/>
</g>
<defs>
<clipPath id="clip0_842_2243">
<rect width="453.659" height="749.008" fill="white" transform="translate(0 453.646) rotate(-89.5792)"/>
</clipPath>
</defs>
</svg>
