<svg width="428" height="302" viewBox="0 0 428 302" fill="none" xmlns="http://www.w3.org/2000/svg">
<path opacity="0.5" d="M427.461 123.635C427.33 124.601 427.173 125.542 426.799 126.021C424.788 128.624 422.612 131.185 420.506 133.666C417.885 136.749 415.178 139.936 412.715 143.262C406.404 151.787 399.17 155.932 390.604 155.932C389.716 155.932 388.802 155.88 387.888 155.793C384.755 155.48 381.682 154.33 378.426 153.102C376.798 152.493 375.118 151.857 373.421 151.343C370.339 150.403 368.041 149.967 366.17 149.967C363.976 149.967 362.27 150.603 361.095 151.866C359.537 153.538 358.936 156.211 359.223 160.278C359.563 165.363 360.277 170.475 360.964 175.421C361.347 178.172 361.748 181.02 362.07 183.815C362.131 184.329 362.2 184.851 362.261 185.374C363.019 191.461 363.793 197.756 359.136 201.013C349.126 208.032 338.314 213.753 326.241 219.97C317.301 224.568 307.194 229.775 308.892 243.638C308.735 243.917 308.57 244.204 308.387 244.509C307.708 245.65 306.942 246.947 306.846 248.445C306.646 251.798 306.69 255.194 306.724 258.468C306.742 259.792 306.759 261.106 306.759 262.421C306.724 262.796 306.681 263.179 306.637 263.553C306.585 263.945 306.524 264.337 306.463 264.72C306.394 265.121 306.324 265.513 306.246 265.896C306.193 266.166 306.132 266.427 306.054 266.723C305.984 266.984 305.915 267.245 305.845 267.515C305.741 267.864 305.636 268.195 305.523 268.526C305.401 268.874 305.288 269.17 305.157 269.475C305.044 269.762 304.914 270.041 304.766 270.337C304.635 270.589 304.496 270.842 304.322 271.138C304.2 271.347 304.061 271.556 303.887 271.791C303.73 272.009 303.582 272.183 303.416 272.357C303.347 272.435 303.268 272.514 303.19 272.583L303.173 272.601V272.618C302.929 272.845 302.677 273.045 302.407 273.21C302.328 273.263 302.224 273.324 302.076 273.393C301.998 273.437 301.919 273.472 301.832 273.506H301.815L301.71 273.55L301.667 273.567H301.649L301.58 273.576L301.38 273.655H301.353L301.223 273.689C301.153 273.707 301.031 273.733 300.805 273.75C300.709 273.759 300.614 273.759 300.526 273.759H300.274C300.1 273.742 299.908 273.715 299.726 273.681H299.7L299.665 273.672C299.534 273.646 299.412 273.62 299.29 273.576L299.256 273.559H299.221C299.099 273.515 298.977 273.48 298.864 273.437L298.794 273.419C298.751 273.402 298.707 273.385 298.655 273.367L298.559 273.332C298.289 273.228 298.011 273.097 297.715 272.932C297.393 272.766 297.158 272.618 296.94 272.479L296.557 272.235C296.505 272.192 296.444 272.157 296.392 272.113C295.878 271.765 295.312 271.312 294.712 270.781C292.344 268.665 289.915 266.549 287.574 264.503C282.699 260.244 277.668 255.847 272.915 251.336C267.613 246.303 263.679 244.161 259.77 244.161C255.627 244.161 251.718 246.556 246.696 252.181L246.635 252.242L246.582 252.32C244.824 254.758 242.213 256.099 239.244 256.099C235.928 256.099 232.794 254.41 230.844 251.545C230.374 250.883 229.913 250.213 229.451 249.534C226.744 245.589 223.941 241.514 220.224 238.501C217.917 236.629 214.166 235.427 210.658 235.427C209.622 235.427 208.647 235.531 207.768 235.74C204.538 236.515 201.369 241.54 201.039 245.11C200.159 254.558 199.768 264.711 199.82 277.068C199.829 280.76 201.317 284.513 202.849 288.031C204.172 291.105 207.959 292.498 210.919 292.498C213.304 292.498 215.245 291.619 216.246 290.078C218.988 285.863 222.122 280.839 224.516 275.509C225.708 272.845 226.518 272.305 227.38 272.305C227.641 272.305 227.945 272.357 228.285 272.453C231.149 273.332 233.334 274.621 233.969 275.831C234.239 276.345 233.926 278.374 232.376 281.274C231.332 283.216 229.956 284.983 228.485 286.856C227.876 287.639 227.249 288.449 226.64 289.268L225.7 290.234C223.393 291.985 221.086 293.726 218.779 295.477C216.464 297.218 214.157 298.968 211.841 300.719L210.057 301.903C208.142 299.839 206.244 298.55 204.416 298.063H204.381L204.373 298.045H204.329L204.294 298.028C199.515 296.661 189.688 289.39 190.645 285.428V285.358L190.671 285.297L191.359 280.969C191.376 280.882 191.394 280.795 191.402 280.699L191.437 280.516C192.569 273.376 189.174 267.646 181.331 263.475C169.884 257.406 158.115 251.502 146.729 245.789L142.176 243.508C139.992 242.411 137.624 241.566 135.326 241.087C125.106 238.971 120.345 233.067 120.345 222.53V222.173C120.336 217.967 120.327 213.614 119.109 209.547C117.35 203.695 111.709 199.768 105.05 199.768C102.038 199.768 99.1396 200.604 96.6848 202.189C90.4435 206.203 83.9148 210.035 77.6038 213.744C76.0021 214.685 74.4004 215.625 72.7987 216.574C71.7367 217.201 70.666 217.584 69.7868 217.663C66.9055 217.872 63.972 218.037 61.1255 218.194C57.5652 218.394 53.8831 218.594 50.2618 218.908C49.9746 218.934 49.696 218.943 49.4436 218.943C48.4686 218.943 47.7984 218.76 47.4589 218.403C46.9975 217.933 46.806 216.888 46.8669 215.277C46.8757 215.103 46.8757 214.928 46.8844 214.763C46.8931 214.615 46.9018 214.476 46.9018 214.354L47.0759 209.913V209.817C47.0759 209.199 47.0323 208.589 46.9714 207.997V207.866C46.3272 202.232 43.2457 198.453 39.3024 198.453C38.5364 198.453 37.753 198.601 36.9869 198.88L36.6823 198.993C36.5343 199.045 36.3776 199.106 36.2209 199.167C36.0903 199.211 35.9424 199.263 35.8031 199.315C31.1547 200.917 24.3649 202.92 22.18 203.251L22.1626 203.225H22.1452C21.4575 202.52 20.3171 201.475 19.0549 200.412L19.0027 200.36C17.3575 198.958 15.6687 197.669 14.2324 196.729C12.3435 195.492 8.65263 188.848 7.44265 186.663C6.8159 185.522 6.19786 184.39 5.61463 183.31C4.2915 180.872 3.14245 178.756 2.30679 177.45L0.304671 173.644C-0.00870354 173.061 -0.0522278 171.772 0.0870499 171.311C6.37196 165.729 9.15751 158.362 11.0552 151.875C14.2673 140.92 22.2844 135.199 36.2644 133.867C36.9956 133.814 37.6833 133.745 38.371 133.675L38.5538 133.658H38.5799L38.7714 133.623C39.0152 133.597 39.2589 133.562 39.5026 133.527C39.8421 133.483 40.1816 133.44 40.5037 133.379H40.5907C40.8519 133.327 41.1043 133.283 41.3307 133.231C41.6527 133.17 41.9574 133.109 42.2882 133.048C42.767 132.944 43.2196 132.83 43.6462 132.717C43.8115 132.674 43.9769 132.639 44.1336 132.587C44.4122 132.517 44.682 132.438 44.9345 132.36L45.0825 132.325L45.1434 132.29L45.5525 132.151C45.8224 132.073 46.0835 131.977 46.3708 131.864L46.806 131.698C47.0062 131.629 47.189 131.55 47.337 131.481C47.4937 131.42 47.6417 131.359 47.781 131.28C47.8593 131.245 47.9376 131.211 48.0073 131.176L48.0943 131.141C48.2162 131.08 48.3555 131.019 48.4861 130.958C48.7298 130.828 48.9822 130.697 49.1911 130.575C49.3391 130.505 49.4697 130.427 49.609 130.349C49.757 130.261 49.9049 130.174 50.0442 130.087C50.2096 129.983 50.4011 129.87 50.6013 129.722C50.7754 129.608 50.9408 129.486 51.0975 129.382C51.2977 129.243 51.4805 129.095 51.6633 128.955C51.8461 128.807 52.0202 128.668 52.1682 128.537C52.2988 128.424 52.4381 128.311 52.5338 128.215C52.7166 128.058 52.8907 127.893 53.03 127.754C53.3608 127.431 53.6654 127.101 53.9353 126.787C54.2313 126.456 54.5185 126.099 54.7536 125.768C55.0408 125.394 55.2845 125.037 55.5022 124.688L55.5718 124.584C55.6589 124.445 55.7459 124.297 55.833 124.149C55.8939 124.053 55.9461 123.948 56.007 123.852L56.0419 123.792C56.1811 123.548 56.3291 123.286 56.4597 123.025C56.5729 122.808 56.7034 122.555 56.8166 122.285C56.9559 121.989 57.1039 121.675 57.2431 121.336C57.2606 121.301 57.278 121.266 57.2954 121.223V121.205L57.3215 121.153C57.4085 120.961 57.4869 120.77 57.5565 120.578L57.5739 120.526V120.5L57.5913 120.465C57.7132 120.178 57.8177 119.908 57.9047 119.638C57.9308 119.577 57.9569 119.516 57.9743 119.455C58.0875 119.124 58.2007 118.784 58.3138 118.445C58.427 118.079 58.5489 117.696 58.6446 117.348C58.7665 116.965 58.871 116.581 58.9841 116.181C59.2191 115.301 59.4542 114.387 59.6718 113.464C59.9155 112.489 60.1419 111.487 60.3769 110.46L60.6729 109.197L60.8382 108.492C61.0123 107.743 61.1951 106.985 61.3867 106.228C61.6304 105.261 61.9002 104.216 62.2049 103.154C62.4748 102.179 62.7881 101.151 63.1711 99.9928C64.9905 94.1847 65.8958 89.1515 65.948 84.5537V84.2577L65.8522 83.9877C62.9274 75.5062 60.4204 68.2874 59.3236 65.1438V65.0219L59.193 64.7607C58.9667 64.1076 58.7926 63.6112 58.6881 63.3064C59.0189 62.366 61.1777 59.3531 64.886 57.5941L65.4692 57.3154L65.7304 56.7146L67.1057 53.5623L68.2809 50.8803L68.603 50.1488L68.2635 49.4348C67.7412 48.3376 67.2972 46.744 68.1503 45.3595C68.9773 44.0359 70.8227 43.2521 73.2078 43.226H73.4516L73.6866 43.1564L78.953 41.5889C80.5199 41.1187 81.9649 40.8836 83.2445 40.8836C87.1617 40.8836 90.0169 43.0083 93.1071 48.2156C96.8067 54.4418 102.474 57.4721 110.447 57.4721C113.833 57.4721 117.246 56.9497 120.179 56.462C127.335 55.2952 134.09 51.8991 140.627 48.6162L141.698 48.085L158.045 40.1347L159.482 39.4381L158.907 37.9403C154.415 26.2543 152.857 18.5217 153.057 16.1183L155.199 16.2228C155.913 16.2577 156.566 16.2751 157.184 16.2751C161.214 16.2751 163.616 15.5436 164.757 13.9675C169.057 8.00256 175.177 6.35677 181.609 5.07671C185.126 4.36266 188.408 2.74299 191.576 1.17557L192.482 0.731464C193.448 0.252529 194.319 0 195.015 0C195.502 0 196.416 0 196.773 1.84607C196.869 2.35113 196.973 2.87361 197.087 3.40479C197.818 7.00115 198.732 11.477 197.417 13.8804C194.423 19.3402 194.101 24.9743 196.495 30.1729C199.324 36.312 205.783 41.2406 212.938 42.7297C222.94 44.8109 234.117 46.3435 247.113 47.4145C247.636 47.4581 248.193 47.4842 248.741 47.4842C253.024 47.4842 257.498 46.2302 260.719 44.1404C265.254 41.1971 269.903 39.769 274.925 39.769C276.014 39.769 277.145 39.8386 278.286 39.9693C278.312 39.978 278.338 39.978 278.364 39.9867C279.922 40.3263 281.541 40.6572 283.195 40.9707L283.334 41.11H283.831L283.874 41.1187C285.58 41.6064 287.33 42.2159 289.219 42.9909L289.288 43.017L289.358 43.0432C291.665 43.7659 294.007 44.1404 296.331 44.1404C303.26 44.1404 309.414 40.8226 314.01 37.9316L314.184 37.8184L314.332 37.6704C314.907 37.0695 315.516 36.5035 316.169 35.9027C316.5 35.5892 316.839 35.2757 317.179 34.9535H317.196L317.544 34.5965C319.538 33.4296 321.079 32.4195 322.115 31.601L322.854 31.0263L326.824 29.1279L327.102 29.4066C327.999 31.4094 329.609 34.1698 331.464 37.3308C331.759 37.8445 332.064 38.367 332.369 38.8895V40.1695H333.109C336.843 46.6569 338.68 50.6626 338.575 52.1081C337.818 53.0485 337.017 54.0238 336.199 54.973C336.164 55.0165 336.121 55.0688 336.086 55.1123L335.981 55.2342C335.938 55.2865 335.886 55.3387 335.833 55.391C335.799 55.4345 335.755 55.4867 335.694 55.5564C333.779 57.7247 331.759 59.8842 329.801 61.9741C326.275 65.7359 322.628 69.6371 319.39 73.7908C317.536 76.168 317.605 81.6801 319.52 83.9616C321.375 86.1473 325.109 87.8627 328.034 87.8627C328.574 87.8627 329.078 87.8018 329.548 87.6886C333.823 86.6436 337.896 84.8062 341.84 83.0211C343.32 82.3593 344.852 81.6714 346.349 81.0357C349.335 79.7818 351.598 79.1984 353.461 79.1984C356.534 79.1984 358.971 80.8267 361.87 84.7975C366.17 90.6928 372.899 96.9712 390.274 98.8608C396.846 99.5749 403.305 101.491 408.197 103.084C414.865 105.261 414.961 112.245 415.056 119.647C415.074 120.935 415.091 122.268 415.152 123.522L415.239 125.333L417.041 125.176C417.807 125.115 418.582 125.054 419.348 124.993C420.262 124.924 421.167 124.854 422.081 124.776C422.194 124.793 422.307 124.793 422.421 124.793H422.682L422.725 124.776H422.821L422.873 124.767H422.882L425.006 124.497L425.224 124.471C425.302 124.453 425.38 124.445 425.467 124.436H425.52L426.198 124.34L426.756 124.27L427.165 123.887C427.26 123.792 427.365 123.713 427.469 123.635H427.461Z" fill="white"/>
</svg>
