<svg width="308" height="307" viewBox="0 0 308 307" fill="none" xmlns="http://www.w3.org/2000/svg">
<path opacity="0.5" d="M308 0.898682C308 4.47763 307.904 8.31782 307.713 11.9926C306.111 17.5047 303.238 22.1547 298.929 26.2038C296.553 28.4418 294.368 30.9148 292.262 33.2921C290.033 35.8087 287.735 38.4036 285.263 40.659C283.705 42.0871 281.555 43.0014 279.283 43.9767C276.01 47.2683 261.055 61.9585 259.27 64.1616C259.235 64.1964 259.209 64.2313 259.192 64.2574C258.295 65.5026 257.364 66.6956 256.345 67.8276C255.867 68.3588 255.388 68.9074 254.909 69.4647C253.029 71.633 251.088 73.8796 248.859 74.9942C240.772 79.0347 235.959 86.3755 234.148 97.4606C233.051 104.183 232.642 111.08 232.242 117.759C231.989 122.034 231.728 126.449 231.284 130.76C230.884 134.757 229.856 138.701 228.324 142.167C227.123 144.884 225.922 147.67 224.755 150.352C220.438 160.323 215.972 170.624 210.514 180.09C202.541 193.883 192.93 207.581 176.774 214.347C173.153 215.862 170.193 216.602 167.73 216.602C167.364 216.602 167.007 216.585 166.668 216.55C164.596 216.35 162.498 216.245 160.435 216.245C141.894 216.245 126.086 224.413 111.766 233.252C109.991 234.349 108.136 235.42 106.352 236.447C103.262 238.233 100.067 240.079 97.0812 242.169C87.2448 249.022 82.3526 259.802 82.5442 274.188C82.5442 274.318 82.5441 274.449 82.5528 274.579V274.884C82.5528 280.945 81.517 286.466 79.393 291.734H78.801V293.11C76.6945 297.838 73.7348 302.253 69.7654 306.581C67.92 306.468 66.0833 306.354 64.2291 306.233C63.2803 306.172 62.3228 306.111 61.3652 306.05C60.4686 305.997 59.572 305.936 58.6493 305.876C55.0194 305.658 51.2589 305.423 47.5593 305.222C44.5387 305.066 41.4746 304.961 38.515 304.865C32.2562 304.665 25.7798 304.456 19.521 303.672C17.2577 303.385 14.9858 302.018 12.3569 300.424C11.7127 300.033 11.0511 299.632 10.3635 299.24C12.3569 297.882 14.6462 297.037 16.8834 296.218C21.732 294.433 27.2161 292.422 28.7046 284.855L28.9483 283.627L27.8602 283C24.8571 281.276 21.4709 279.343 18.0673 277.409C19.7473 275.572 21.2184 273.883 22.4632 272.359H22.4719L22.5242 272.289C23.6645 270.887 24.6307 269.598 25.3881 268.449L25.4925 268.301L25.5535 268.127L27.9299 262.075C29.4532 258.2 30.5152 253.106 23.8908 241.568C22.2195 238.659 21.9583 236.7 22.8637 234.105L27.364 221.644L28.0256 219.807L26.128 219.354C16.8312 217.151 9.16219 212.048 8.07408 208.835C8.04797 208.765 8.02186 208.695 7.99574 208.617C7.11655 206.17 4.25267 201.651 0.692383 197.549L1.8414 196.26L2.59875 195.529C4.479 193.735 6.35053 191.941 8.22208 190.139C12.0522 186.429 14.3242 184.992 16.3089 184.992C18.7985 184.992 21.7494 187.23 26.6328 190.94C27.277 191.428 27.9038 191.95 28.5131 192.455C31.3161 194.771 34.2061 197.166 39.1591 197.166H39.5421C45.74 197.001 49.7791 194.763 52.2599 190.087C53.9487 186.786 55.6287 183.416 57.2652 180.16C63.1671 168.395 69.2692 156.222 76.2766 144.762C76.4333 144.501 76.8773 144.152 77.1036 144.091L78.0176 144.057C85.617 143.778 93.4687 143.491 101.173 143.491C102.33 143.491 103.497 143.491 104.654 143.508C105.02 143.682 105.786 144.614 106.247 145.18C106.439 145.406 106.63 145.641 106.831 145.868C104.916 146.234 102.966 146.556 101.077 146.869C93.4687 148.141 85.5995 149.455 78.5138 153.182C77.7478 153.557 77.1994 154.375 76.8773 155.612C76.6858 156.317 76.3463 158.085 77.1471 159.269C80.4463 164.085 83.1535 167.62 85.9303 170.72C87.8976 172.923 90.0216 175.022 92.076 177.051C94.0694 179.028 96.1411 181.074 98.0214 183.181C100.145 185.532 100.163 188.389 98.0736 190.626C96.8549 191.924 95.5405 193.143 94.4263 194.144L94.1651 194.371L94.0345 194.484L93.9562 194.545C93.7908 194.693 93.6167 194.85 93.4426 194.989L93.4252 195.007L93.4078 195.024C93.1815 195.215 92.9552 195.416 92.7201 195.616C92.4938 195.808 92.2675 195.999 92.0412 196.2C91.7887 196.417 91.5363 196.635 91.2925 196.844L90.9269 197.157C90.6745 197.375 90.422 197.593 90.1957 197.793C89.8214 198.115 89.4384 198.446 89.0815 198.777C88.8377 198.995 88.594 199.212 88.359 199.43C88.2197 199.543 88.0891 199.674 87.9586 199.796C84.9989 202.504 83.1361 204.594 81.9261 206.544L81.9087 206.562L81.8216 206.71L81.4734 207.058V207.293C80.5246 208.93 80.1503 210.367 80.3505 211.647C81.1862 217.473 83.6061 223.011 85.9564 228.367L86.0348 228.558C86.8792 230.474 90.5178 230.57 91.2403 230.57C92.7549 230.57 93.7299 230.239 94.3131 229.525C97.3511 225.824 100.259 221.931 103.07 218.17C105.638 214.739 108.293 211.186 111.018 207.816L111.932 206.693C118.391 198.716 125.076 190.461 132.388 183.146C133.546 181.988 136.07 181.657 138.516 181.335C139.996 181.144 141.528 180.943 142.947 180.551C145.315 179.89 147.691 179.245 150.068 178.601C157.38 176.624 164.927 174.587 172.239 172.105C178.358 170.024 182.206 166.497 183.991 161.333C184.757 159.113 186.001 157.04 187.316 154.846C188.421 153.017 189.562 151.119 190.423 149.081C191.555 146.416 192.486 143.639 193.392 140.948C194.698 137.055 195.925 133.381 197.736 129.967C201.139 123.532 201.096 116.94 201.052 110.557C201.035 108.11 201.026 105.602 201.217 103.156C201.409 103.095 201.609 103.042 201.809 102.981L202.097 102.894C202.897 102.668 203.507 102.476 204.055 102.293C204.647 102.111 205.222 101.91 205.805 101.701C206.466 101.475 207.111 101.24 207.694 101.013C208.207 100.822 208.669 100.639 209.061 100.474C210.775 99.7682 212.429 99.0019 213.944 98.2008C214.249 98.044 214.545 97.8786 214.849 97.7044L215.049 97.5912C215.232 97.4867 215.415 97.3822 215.598 97.269C215.816 97.1471 216.033 97.0165 216.242 96.8859L216.364 96.8162C216.547 96.703 216.738 96.5811 216.921 96.4679L217.113 96.346C217.774 95.928 218.41 95.4839 219.019 95.0572C219.245 94.8918 219.472 94.7263 219.689 94.5522C220.151 94.2125 220.577 93.8817 220.96 93.5595C221.056 93.4724 221.16 93.3853 221.265 93.3069C221.352 93.2286 221.439 93.1502 221.535 93.0805L221.552 93.0631L221.569 93.0457C221.831 92.828 222.074 92.6016 222.344 92.3665C222.919 91.8353 223.389 91.3912 223.798 90.9732C224.355 90.4159 224.877 89.8586 225.347 89.3274C225.878 88.7266 226.383 88.1257 226.862 87.5249C227.036 87.3072 227.193 87.1069 227.349 86.8979C227.584 86.5932 227.811 86.2884 228.028 86.001C228.229 85.7398 228.429 85.4524 228.646 85.1389C228.925 84.7471 229.195 84.3552 229.456 83.9721C230.004 83.1709 230.527 82.3785 231.014 81.6209C231.319 81.142 231.632 80.6544 231.928 80.1928L232.207 79.7487C232.912 78.6428 233.634 77.5021 234.409 76.3788C234.601 76.0914 234.801 75.8128 235.001 75.5254C236.533 73.3397 237.969 71.5981 239.536 70.022C239.963 69.5866 240.398 69.1686 240.842 68.7768C241.295 68.3588 241.765 67.9582 242.278 67.5403C242.522 67.34 242.766 67.1484 243.044 66.9394C243.549 66.5476 244.089 66.1557 244.655 65.7726C244.968 65.5636 245.29 65.3459 245.638 65.1282C245.865 64.9888 246.1 64.8408 246.326 64.7102L246.352 64.6928L246.378 64.6753C246.7 64.4751 247.031 64.2748 247.371 64.0919L247.405 64.0745L247.44 64.0571C247.745 63.8742 248.067 63.7001 248.406 63.5259C249.242 63.0905 249.912 62.7596 250.539 62.4722C255.275 60.3649 259.427 57.9616 262.917 55.2969C264.833 53.7644 266.643 52.1708 268.288 50.5511C268.889 49.959 269.49 49.3408 270.125 48.6702C270.421 48.3568 270.708 48.0258 271.004 47.7037C271.283 47.3902 271.553 47.0767 271.814 46.7719C272.545 45.9272 273.268 45.039 274.034 44.0376V44.0202L274.121 43.9331C274.26 43.7416 274.399 43.55 274.538 43.3671L274.852 42.9491C275.061 42.6531 275.261 42.3657 275.461 42.0784C275.653 41.8258 275.844 41.5559 276.044 41.2511L276.131 41.1205C276.584 40.4587 276.993 39.8317 277.35 39.2483C277.55 38.9435 277.742 38.63 277.942 38.3078C278.36 37.6199 278.717 37.0104 279.021 36.4705C279.378 35.8609 279.727 35.2513 280.049 34.6592C280.188 34.4154 280.31 34.1803 280.44 33.9452L280.562 33.71C280.849 33.1789 281.128 32.6477 281.398 32.1252H281.407L281.528 31.8901C281.851 31.2805 282.155 30.6884 282.46 30.0876L283.026 28.9817C283.296 28.4679 283.574 27.9367 283.835 27.4229C284.445 26.2648 285.063 25.0718 285.724 23.8788C285.829 23.6698 285.942 23.4696 286.055 23.2693L286.186 23.0342C287.004 21.5887 287.761 20.3173 288.518 19.1504C288.753 18.7934 288.988 18.4364 289.224 18.0794L289.25 18.0532V18.0358L289.284 17.9923C289.311 17.9488 289.345 17.9052 289.372 17.8704C289.711 17.3653 290.103 16.8167 290.573 16.1811V16.1636L290.599 16.1375L290.634 16.094L290.729 15.9721C290.991 15.615 291.26 15.2667 291.513 14.9358L291.635 14.7878C291.87 14.4917 292.096 14.2131 292.322 13.9257C292.627 13.5687 292.941 13.1942 293.28 12.8198C293.672 12.3583 294.037 11.9577 294.412 11.5659C294.882 11.0695 295.247 10.6864 295.595 10.3468L295.63 10.3119C295.891 10.042 296.17 9.77204 296.457 9.50209C296.753 9.22344 297.049 8.93607 297.345 8.66613C297.954 8.12624 298.599 7.56893 299.243 7.02034C299.713 6.63719 300.27 6.18438 300.862 5.74027L301.21 5.46163L301.515 5.22651C302.263 4.6605 302.951 4.17285 303.587 3.72875C304.326 3.22369 305.145 2.6838 306.067 2.08296C306.685 1.6911 307.321 1.29925 307.991 0.898682H308Z" fill="white"/>
</svg>
