<svg width="119" height="172" viewBox="0 0 119 172" fill="none" xmlns="http://www.w3.org/2000/svg">
<path opacity="0.5" d="M118.956 68.9016C118.956 68.9016 118.939 68.9103 118.93 68.9103C117.581 69.6853 116.362 70.4168 115.213 71.1395C114.256 71.7404 113.411 72.3064 112.619 72.8637C111.94 73.3339 111.226 73.8477 110.417 74.4486L110.069 74.7272L109.755 74.971C109.129 75.4413 108.537 75.9289 108.032 76.3382C107.335 76.9216 106.665 77.505 106.012 78.0972C105.699 78.3845 105.385 78.6719 105.072 78.968C104.715 79.3076 104.419 79.6036 104.149 79.8736C103.766 80.248 103.375 80.6486 102.896 81.1711C102.487 81.589 102.078 82.0418 101.66 82.5295C101.32 82.9126 100.989 83.3045 100.659 83.7051C100.406 84.0098 100.163 84.3059 99.9275 84.6107L99.7882 84.7761C99.501 85.1419 99.2137 85.525 98.9439 85.8907L98.9177 85.9256C98.8568 85.9952 98.8046 86.0736 98.7523 86.1433C98.2649 86.8051 97.8558 87.3885 97.4902 87.9197L97.464 87.9545V87.9806L97.4205 88.0242C97.3944 88.0677 97.3596 88.12 97.3248 88.1635C97.0811 88.5292 96.8373 88.9037 96.6023 89.2607C95.8101 90.4885 95.0093 91.8121 94.1649 93.3273L94.0343 93.5537C93.9038 93.7888 93.7732 94.0152 93.6687 94.2155C93.0072 95.4259 92.3717 96.6363 91.7537 97.8119C91.4925 98.3343 91.2227 98.8481 90.9441 99.3793L90.3696 100.494C90.1085 101.008 89.8473 101.521 89.5774 102.035V102.053L89.4382 102.288C89.177 102.801 88.9072 103.315 88.6286 103.829H88.6199L88.4981 104.064L88.3849 104.282C88.263 104.5 88.1499 104.717 88.0106 104.961C87.6885 105.544 87.349 106.137 87.0008 106.746C86.7048 107.269 86.3654 107.843 85.965 108.496C85.7822 108.801 85.5906 109.097 85.3991 109.402C85.0857 109.907 84.7288 110.456 84.3458 111.022L84.3284 111.039L84.2327 111.187C84.0237 111.509 83.841 111.771 83.6582 112.023L83.6407 112.041L83.6234 112.067C83.4318 112.345 83.2403 112.615 83.0488 112.877L82.7442 113.286C82.631 113.434 82.5265 113.582 82.4134 113.739L82.3437 113.834C81.6734 114.714 80.9422 115.611 80.1849 116.499C79.9325 116.795 79.6713 117.091 79.4102 117.387C79.1403 117.692 78.8705 117.988 78.6006 118.284C77.9913 118.92 77.4255 119.512 76.851 120.069C75.2928 121.602 73.5779 123.117 71.7847 124.554C68.5378 127.027 64.6207 129.291 60.1202 131.294C59.4151 131.616 58.6926 131.973 57.8134 132.434C57.4391 132.626 57.0648 132.826 56.7079 133.044C56.3075 133.253 55.9245 133.479 55.5502 133.715C55.289 133.871 55.0192 134.037 54.7842 134.185C54.4186 134.42 54.0442 134.655 53.7047 134.89C53.0867 135.317 52.4861 135.752 51.9377 136.17C51.633 136.397 51.3457 136.623 51.0846 136.841C50.5275 137.285 50.0051 137.738 49.5177 138.19C49.0389 138.617 48.5427 139.087 48.064 139.575C46.3665 141.282 44.8084 143.171 43.1631 145.522C42.9368 145.836 42.7192 146.141 42.5277 146.437C41.7443 147.586 41.0043 148.744 40.2818 149.868L39.9946 150.321C39.6986 150.791 39.4027 151.261 39.098 151.731C38.6279 152.471 38.1144 153.238 37.5921 154.004C37.3396 154.378 37.0872 154.744 36.8173 155.11L36.7999 155.136L36.7825 155.162C36.6258 155.406 36.4517 155.641 36.2602 155.902C36.0339 156.198 35.8162 156.494 35.5899 156.79L35.5725 156.808L35.5551 156.825C35.4419 156.991 35.3114 157.148 35.1547 157.339C34.702 157.914 34.2407 158.471 33.7445 159.02C33.3266 159.499 32.8479 160.004 32.3256 160.526C31.9513 160.909 31.5334 161.31 31.0199 161.78C30.7848 161.989 30.5585 162.189 30.3148 162.398C30.219 162.477 30.1233 162.555 30.0275 162.633C29.9405 162.712 29.8534 162.79 29.7577 162.869C29.3747 163.173 28.9917 163.487 28.5999 163.774L28.5825 163.792H28.5651C28.3736 163.948 28.1908 164.088 28.008 164.218C27.4335 164.628 26.859 165.019 26.267 165.403L26.0668 165.524C25.9014 165.629 25.736 165.734 25.5619 165.838L25.4401 165.916C25.2573 166.03 25.0657 166.143 24.8742 166.247L24.8307 166.273L24.7959 166.3C24.6479 166.387 24.4999 166.474 24.352 166.552L24.1431 166.674C23.8819 166.813 23.6208 166.961 23.3335 167.109C21.9059 167.867 20.3652 168.59 18.7199 169.26C18.3543 169.417 17.9539 169.582 17.4838 169.757C16.918 169.966 16.3087 170.192 15.6558 170.418C15.0987 170.619 14.5677 170.801 13.9932 170.976C13.4622 171.159 12.8877 171.333 12.1303 171.55L11.8779 171.62C11.4079 169.609 10.9378 167.597 10.4677 165.577C8.8399 158.645 7.15988 151.47 5.61912 144.417C4.41785 138.626 3.38195 132.661 2.3896 126.905C1.86731 123.883 1.32762 120.757 0.770508 117.683C0.787918 110.909 0.81402 104.143 0.840135 97.3765C3.34713 80.6747 6.28938 66.3241 9.82355 53.5322C11.4949 47.6979 13.6015 41.8549 15.6471 36.1947C16.5089 33.8001 17.4055 31.3183 18.2586 28.8627C18.7809 27.3562 19.2857 25.8323 19.7732 24.352C20.9745 20.7382 22.2106 17.0025 23.7165 13.4932C25.0484 10.4019 26.7284 7.36288 28.3649 4.41961C29.0178 3.23533 29.688 2.01623 30.3409 0.797119C31.96 1.38926 34.1188 2.12073 37.0262 3.00893L37.0872 3.02635L37.1394 3.04376C41.9184 4.17579 45.7572 5.25557 49.213 6.42243L49.3175 6.45726C49.9007 6.64012 50.4839 6.84041 51.0933 7.06682C58.8319 10.2713 72.751 21.8441 82.5526 30.2821C84.9116 32.311 87.1401 34.2442 89.1422 35.9858C91.8059 38.3108 94.1127 40.3136 95.7753 41.6981L95.9581 41.8462L96.1757 41.942C98.9091 43.1785 101.938 44.1625 105.699 45.0507C112.802 46.7313 116.014 49.4743 117.163 54.8122L117.329 55.5785C117.398 55.8833 117.459 56.1707 117.511 56.4232C117.537 56.5451 117.564 56.6583 117.59 56.7802C117.607 56.8847 117.633 56.9892 117.651 57.1024C117.903 58.2867 118.138 59.471 118.382 60.6639C118.678 62.6145 118.878 65.4533 118.965 68.9016H118.956Z" fill="white"/>
</svg>
