<svg width="45" height="45" viewBox="0 0 45 45" fill="none" xmlns="http://www.w3.org/2000/svg">
<g id="Drop of liquid 1" clip-path="url(#clip0_1618_980)">
<path id="Vector" d="M23.5002 0.500098C23.0002 -0.199902 21.9002 -0.199902 21.5002 0.500098C20.9002 1.4001 7.2002 21.7001 7.2002 29.7001C7.2002 38.1001 14.1002 45.0001 22.5002 45.0001C30.9002 45.0001 37.8002 38.1001 37.8002 29.7001C37.8002 21.7001 24.1002 1.4001 23.5002 0.500098ZM22.5002 42.5001C15.4002 42.5001 9.7002 36.7001 9.7002 29.7001C9.7002 24.1001 18.2002 10.0001 22.5002 3.4001C26.8002 10.0001 35.3002 24.1001 35.3002 29.7001C35.3002 36.8001 29.6002 42.5001 22.5002 42.5001Z" fill="white"/>
<path id="Vector_2" d="M23.7001 38.9C23.7001 39.6 23.2001 40.1 22.5001 40.1C16.8001 40.1 12.1001 35.4 12.1001 29.7C12.1001 29 12.6001 28.5 13.3001 28.5C14.0001 28.5 14.5001 29 14.5001 29.7C14.5001 34.1 18.1001 37.6 22.5001 37.6C23.2001 37.7 23.7001 38.2 23.7001 38.9Z" fill="#F1C64D"/>
</g>
<defs>
<clipPath id="clip0_1618_980">
<rect width="45" height="45" fill="white"/>
</clipPath>
</defs>
</svg>
