<svg width="476" height="435" viewBox="0 0 476 435" fill="none" xmlns="http://www.w3.org/2000/svg">
<g opacity="0.1" clip-path="url(#clip0_672_39110)">
<path d="M1.02618 7.12898C1.02618 10.7853 -1.93981 13.7571 -5.58896 13.7571C-9.23812 13.7571 -12.2041 10.7853 -12.2041 7.12898C-12.2041 3.47268 -9.23812 0.500886 -5.58896 0.500886C-1.93981 0.500886 1.02618 3.47268 1.02618 7.12898Z" fill="white"/>
<path d="M23.6376 7.12894C23.6376 10.6517 20.7883 13.5066 17.2724 13.5066C13.7566 13.5066 10.9072 10.6517 10.9072 7.12894C10.9072 3.6062 13.7566 0.751268 17.2724 0.751268C20.7883 0.751268 23.6376 3.6062 23.6376 7.12894Z" fill="white"/>
<path d="M46.2657 7.12912C46.2657 10.5183 43.5329 13.2563 40.1504 13.2563C36.7678 13.2563 34.0352 10.5183 34.0352 7.12912C34.0352 3.73994 36.7678 1.00187 40.1504 1.00187C43.5329 1.00187 46.2657 3.73994 46.2657 7.12912Z" fill="white"/>
<path d="M68.8771 7.12881C68.8771 10.3677 66.261 13.0056 63.0118 13.0056C59.7625 13.0056 57.1465 10.3844 57.1465 7.12881C57.1465 3.8732 59.7625 1.25203 63.0118 1.25203C66.261 1.25203 68.8771 3.8732 68.8771 7.12881Z" fill="white"/>
<path d="M91.4885 7.12901C91.4885 10.2344 88.9725 12.7554 85.8732 12.7554C82.7739 12.7554 80.2578 10.2344 80.2578 7.12901C80.2578 4.02366 82.7739 1.50265 85.8732 1.50265C88.9725 1.50265 91.4885 4.02366 91.4885 7.12901Z" fill="white"/>
<path d="M114.116 7.12895C114.116 10.1007 111.717 12.5049 108.768 12.5049C105.818 12.5049 103.419 10.1007 103.419 7.12895C103.419 4.15716 105.818 1.76972 108.768 1.76972C111.717 1.76972 114.116 4.17385 114.116 7.12895Z" fill="white"/>
<path d="M136.729 7.12899C136.729 9.95052 134.446 12.2378 131.63 12.2378C128.814 12.2378 126.531 9.95052 126.531 7.12899C126.531 4.30746 128.814 2.02019 131.63 2.02019C134.446 2.02019 136.729 4.30746 136.729 7.12899Z" fill="white"/>
<path d="M159.34 7.12892C159.34 9.81689 157.174 11.9873 154.491 11.9873C151.809 11.9873 149.643 9.81689 149.643 7.12892C149.643 4.44095 151.809 2.27054 154.491 2.27054C157.174 2.27054 159.34 4.44095 159.34 7.12892Z" fill="white"/>
<path d="M181.968 7.12888C181.968 9.66659 179.902 11.7368 177.369 11.7368C174.837 11.7368 172.771 9.66659 172.771 7.12888C172.771 4.59117 174.837 2.52092 177.369 2.52092C179.902 2.52092 181.968 4.59117 181.968 7.12888Z" fill="white"/>
<path d="M204.58 7.12906C204.58 9.5332 202.63 11.4866 200.231 11.4866C197.831 11.4866 195.882 9.5332 195.882 7.12906C195.882 4.72491 197.831 2.77152 200.231 2.77152C202.63 2.77152 204.58 4.72491 204.58 7.12906Z" fill="white"/>
<path d="M227.208 7.12902C227.208 9.3996 225.375 11.2361 223.109 11.2361C220.843 11.2361 219.01 9.3996 219.01 7.12902C219.01 4.85844 220.843 3.02195 223.109 3.02195C225.375 3.02195 227.208 4.85844 227.208 7.12902Z" fill="white"/>
<path d="M249.819 7.12895C249.819 9.24927 248.103 10.9856 245.97 10.9856C243.837 10.9856 242.138 9.26597 242.138 7.12895C242.138 4.99193 243.854 3.27231 245.97 3.27231C248.086 3.27231 249.819 4.99193 249.819 7.12895Z" fill="white"/>
<path d="M272.431 7.12899C272.431 9.11575 270.831 10.7185 268.848 10.7185C266.865 10.7185 265.266 9.11575 265.266 7.12899C265.266 5.14224 266.865 3.53948 268.848 3.53948C270.831 3.53948 272.431 5.14224 272.431 7.12899Z" fill="white"/>
<path d="M295.059 7.12893C295.059 8.98212 293.559 10.468 291.726 10.468C289.893 10.468 288.394 8.96543 288.394 7.12893C288.394 5.29243 289.893 3.78984 291.726 3.78984C293.559 3.78984 295.059 5.29243 295.059 7.12893Z" fill="white"/>
<path d="M317.67 7.12886C317.67 8.8318 316.287 10.2175 314.587 10.2175C312.888 10.2175 311.505 8.8318 311.505 7.12886C311.505 5.42593 312.888 4.04019 314.587 4.04019C316.287 4.04019 317.67 5.42592 317.67 7.12886Z" fill="white"/>
<path d="M340.298 7.12906C340.298 8.69844 339.032 9.96728 337.466 9.96729C335.899 9.96729 334.633 8.69844 334.633 7.12906C334.633 5.55969 335.899 4.29082 337.466 4.29082C339.032 4.29082 340.298 5.55969 340.298 7.12906Z" fill="white"/>
<path d="M362.91 7.129C362.91 8.56481 361.76 9.7168 360.327 9.7168C358.894 9.7168 357.744 8.56481 357.744 7.129C357.744 5.69319 358.894 4.54122 360.327 4.54122C361.76 4.54122 362.91 5.69319 362.91 7.129Z" fill="white"/>
<path d="M385.521 7.12896C385.521 8.41451 384.488 9.46631 383.188 9.46631C381.889 9.46631 380.855 8.41451 380.855 7.12896C380.855 5.84341 381.889 4.7916 383.188 4.7916C384.488 4.7916 385.521 5.84341 385.521 7.12896Z" fill="white"/>
<path d="M408.149 7.12889C408.149 8.28087 407.216 9.21582 406.083 9.21582C404.95 9.21582 404.017 8.28088 404.017 7.12889C404.017 5.9769 404.95 5.05867 406.083 5.05867C407.216 5.05867 408.149 5.9936 408.149 7.12889Z" fill="white"/>
<path d="M430.76 7.12893C430.76 8.13066 429.944 8.94873 428.944 8.94873C427.944 8.94873 427.128 8.13066 427.128 7.12893C427.128 6.12721 427.944 5.30913 428.944 5.30913C429.944 5.30913 430.76 6.12721 430.76 7.12893Z" fill="white"/>
<path d="M453.372 7.12887C453.372 7.99703 452.672 8.69824 451.806 8.69824C450.939 8.69824 450.239 7.99703 450.239 7.12887C450.239 6.2607 450.939 5.55949 451.806 5.55949C452.672 5.55949 453.372 6.2607 453.372 7.12887Z" fill="white"/>
<path d="M476 7.12907C476 7.86367 475.417 8.448 474.684 8.448C473.95 8.448 473.367 7.86367 473.367 7.12907C473.367 6.39447 473.95 5.81011 474.684 5.81011C475.417 5.81011 476 6.39447 476 7.12907Z" fill="white"/>
<path d="M1.02618 30.5025C1.02618 34.1588 -1.93981 37.1306 -5.58896 37.1306C-9.23812 37.1306 -12.2041 34.1588 -12.2041 30.5025C-12.2041 26.8462 -9.23812 23.8744 -5.58896 23.8744C-1.93981 23.8744 1.02618 26.8462 1.02618 30.5025Z" fill="white"/>
<path d="M23.6376 30.5025C23.6376 34.0252 20.7883 36.8801 17.2724 36.8801C13.7566 36.8801 10.9072 34.0252 10.9072 30.5025C10.9072 26.9797 13.7566 24.1248 17.2724 24.1248C20.7883 24.1248 23.6376 26.9797 23.6376 30.5025Z" fill="white"/>
<path d="M46.2657 30.5027C46.2657 33.8918 43.5329 36.6299 40.1504 36.6299C36.7678 36.6299 34.0352 33.8918 34.0352 30.5027C34.0352 27.1135 36.7678 24.3754 40.1504 24.3754C43.5329 24.3754 46.2657 27.1135 46.2657 30.5027Z" fill="white"/>
<path d="M68.8771 30.5026C68.8771 33.7415 66.261 36.3794 63.0118 36.3794C59.7625 36.3794 57.1465 33.7582 57.1465 30.5026C57.1465 27.247 59.7625 24.6258 63.0118 24.6258C66.261 24.6258 68.8771 27.247 68.8771 30.5026Z" fill="white"/>
<path d="M91.4885 30.5025C91.4885 33.6079 88.9725 36.1289 85.8732 36.1289C82.7739 36.1289 80.2578 33.6079 80.2578 30.5025C80.2578 27.3972 82.7739 24.8762 85.8732 24.8762C88.9725 24.8762 91.4885 27.3972 91.4885 30.5025Z" fill="white"/>
<path d="M114.116 30.5025C114.116 33.4743 111.717 35.8784 108.768 35.8784C105.818 35.8784 103.419 33.4743 103.419 30.5025C103.419 27.5307 105.818 25.1432 108.768 25.1432C111.717 25.1432 114.116 27.5474 114.116 30.5025Z" fill="white"/>
<path d="M136.729 30.5025C136.729 33.3241 134.446 35.6113 131.63 35.6113C128.814 35.6113 126.531 33.3241 126.531 30.5025C126.531 27.681 128.814 25.3937 131.63 25.3937C134.446 25.3937 136.729 27.681 136.729 30.5025Z" fill="white"/>
<path d="M159.34 30.5025C159.34 33.1904 157.174 35.3608 154.491 35.3608C151.809 35.3608 149.643 33.1904 149.643 30.5025C149.643 27.8145 151.809 25.6441 154.491 25.6441C157.174 25.6441 159.34 27.8145 159.34 30.5025Z" fill="white"/>
<path d="M181.968 30.5027C181.968 33.0404 179.902 35.1106 177.369 35.1106C174.837 35.1106 172.771 33.0404 172.771 30.5027C172.771 27.965 174.837 25.8947 177.369 25.8947C179.902 25.8947 181.968 27.965 181.968 30.5027Z" fill="white"/>
<path d="M204.58 30.5026C204.58 32.9067 202.63 34.8601 200.231 34.8601C197.831 34.8601 195.882 32.9067 195.882 30.5026C195.882 28.0984 197.831 26.1451 200.231 26.1451C202.63 26.1451 204.58 28.0984 204.58 30.5026Z" fill="white"/>
<path d="M227.208 30.5026C227.208 32.7731 225.375 34.6096 223.109 34.6096C220.843 34.6096 219.01 32.7731 219.01 30.5026C219.01 28.232 220.843 26.3955 223.109 26.3955C225.375 26.3955 227.208 28.232 227.208 30.5026Z" fill="white"/>
<path d="M249.819 30.5025C249.819 32.6228 248.103 34.3591 245.97 34.3591C243.837 34.3591 242.138 32.6395 242.138 30.5025C242.138 28.3655 243.854 26.6458 245.97 26.6458C248.086 26.6458 249.819 28.3655 249.819 30.5025Z" fill="white"/>
<path d="M272.431 30.5025C272.431 32.4893 270.831 34.092 268.848 34.092C266.865 34.092 265.266 32.4893 265.266 30.5025C265.266 28.5158 266.865 26.913 268.848 26.913C270.831 26.913 272.431 28.5158 272.431 30.5025Z" fill="white"/>
<path d="M295.059 30.5027C295.059 32.3559 293.559 33.8418 291.726 33.8418C289.893 33.8418 288.394 32.3392 288.394 30.5027C288.394 28.6662 289.893 27.1636 291.726 27.1636C293.559 27.1636 295.059 28.6662 295.059 30.5027Z" fill="white"/>
<path d="M317.67 30.5026C317.67 32.2056 316.287 33.5913 314.587 33.5913C312.888 33.5913 311.505 32.2056 311.505 30.5026C311.505 28.7997 312.888 27.414 314.587 27.414C316.287 27.414 317.67 28.7997 317.67 30.5026Z" fill="white"/>
<path d="M340.298 30.5026C340.298 32.072 339.032 33.3408 337.466 33.3408C335.899 33.3408 334.633 32.072 334.633 30.5026C334.633 28.9332 335.899 27.6644 337.466 27.6644C339.032 27.6644 340.298 28.9332 340.298 30.5026Z" fill="white"/>
<path d="M362.91 30.5025C362.91 31.9383 361.76 33.0903 360.327 33.0903C358.894 33.0903 357.744 31.9383 357.744 30.5025C357.744 29.0667 358.894 27.9147 360.327 27.9147C361.76 27.9147 362.91 29.0667 362.91 30.5025Z" fill="white"/>
<path d="M385.521 30.5025C385.521 31.788 384.488 32.8398 383.188 32.8398C381.889 32.8398 380.855 31.788 380.855 30.5025C380.855 29.2169 381.889 28.1651 383.188 28.1651C384.488 28.1651 385.521 29.2169 385.521 30.5025Z" fill="white"/>
<path d="M408.149 30.5027C408.149 31.6547 407.216 32.5896 406.083 32.5896C404.95 32.5896 404.017 31.6547 404.017 30.5027C404.017 29.3507 404.95 28.4324 406.083 28.4324C407.216 28.4324 408.149 29.3674 408.149 30.5027Z" fill="white"/>
<path d="M430.76 30.5027C430.76 31.5044 429.944 32.3225 428.944 32.3225C427.944 32.3225 427.128 31.5044 427.128 30.5027C427.128 29.501 427.944 28.6829 428.944 28.6829C429.944 28.6829 430.76 29.501 430.76 30.5027Z" fill="white"/>
<path d="M453.372 30.5026C453.372 31.3708 452.672 32.072 451.806 32.072C450.939 32.072 450.239 31.3708 450.239 30.5026C450.239 29.6345 450.939 28.9333 451.806 28.9333C452.672 28.9333 453.372 29.6345 453.372 30.5026Z" fill="white"/>
<path d="M476 30.5026C476 31.2372 475.417 31.8215 474.684 31.8215C473.95 31.8215 473.367 31.2372 473.367 30.5026C473.367 29.768 473.95 29.1836 474.684 29.1836C475.417 29.1836 476 29.768 476 30.5026Z" fill="white"/>
<path d="M1.02618 53.8763C1.02618 57.5326 -1.93981 60.5044 -5.58896 60.5044C-9.23812 60.5044 -12.2041 57.5326 -12.2041 53.8763C-12.2041 50.22 -9.23812 47.2482 -5.58896 47.2482C-1.93981 47.2482 1.02618 50.22 1.02618 53.8763Z" fill="white"/>
<path d="M23.6376 53.8763C23.6376 57.399 20.7883 60.2539 17.2724 60.2539C13.7566 60.2539 10.9072 57.399 10.9072 53.8763C10.9072 50.3535 13.7566 47.4986 17.2724 47.4986C20.7883 47.4986 23.6376 50.3535 23.6376 53.8763Z" fill="white"/>
<path d="M46.2657 53.8762C46.2657 57.2654 43.5329 60.0034 40.1504 60.0034C36.7678 60.0034 34.0352 57.2654 34.0352 53.8762C34.0352 50.487 36.7678 47.749 40.1504 47.749C43.5329 47.749 46.2657 50.487 46.2657 53.8762Z" fill="white"/>
<path d="M68.8771 53.8761C68.8771 57.115 66.261 59.7529 63.0118 59.7529C59.7625 59.7529 57.1465 57.1317 57.1465 53.8761C57.1465 50.6205 59.7625 47.9993 63.0118 47.9993C66.261 47.9993 68.8771 50.6205 68.8771 53.8761Z" fill="white"/>
<path d="M91.4885 53.8763C91.4885 56.9817 88.9725 59.5027 85.8732 59.5027C82.7739 59.5027 80.2578 56.9817 80.2578 53.8763C80.2578 50.771 82.7739 48.25 85.8732 48.25C88.9725 48.25 91.4885 50.771 91.4885 53.8763Z" fill="white"/>
<path d="M114.116 53.8763C114.116 56.848 111.717 59.2522 108.768 59.2522C105.818 59.2522 103.419 56.8481 103.419 53.8763C103.419 50.9045 105.818 48.517 108.768 48.517C111.717 48.517 114.116 50.9212 114.116 53.8763Z" fill="white"/>
<path d="M136.729 53.8763C136.729 56.6978 134.446 58.9851 131.63 58.9851C128.814 58.9851 126.531 56.6978 126.531 53.8763C126.531 51.0548 128.814 48.7675 131.63 48.7675C134.446 48.7675 136.729 51.0548 136.729 53.8763Z" fill="white"/>
<path d="M159.34 53.8762C159.34 56.5642 157.174 58.7346 154.491 58.7346C151.809 58.7346 149.643 56.5642 149.643 53.8762C149.643 51.1883 151.809 49.0179 154.491 49.0179C157.174 49.0179 159.34 51.1883 159.34 53.8762Z" fill="white"/>
<path d="M181.968 53.8762C181.968 56.4139 179.902 58.4841 177.369 58.4841C174.837 58.4841 172.771 56.4139 172.771 53.8762C172.771 51.3385 174.837 49.2683 177.369 49.2683C179.902 49.2683 181.968 51.3385 181.968 53.8762Z" fill="white"/>
<path d="M204.58 53.8761C204.58 56.2803 202.63 58.2336 200.231 58.2336C197.831 58.2336 195.882 56.2803 195.882 53.8761C195.882 51.472 197.831 49.5186 200.231 49.5186C202.63 49.5186 204.58 51.472 204.58 53.8761Z" fill="white"/>
<path d="M227.208 53.8763C227.208 56.1469 225.375 57.9834 223.109 57.9834C220.843 57.9834 219.01 56.1469 219.01 53.8763C219.01 51.6058 220.843 49.7692 223.109 49.7692C225.375 49.7692 227.208 51.6057 227.208 53.8763Z" fill="white"/>
<path d="M249.819 53.8763C249.819 55.9966 248.103 57.7329 245.97 57.7329C243.837 57.7329 242.138 56.0133 242.138 53.8763C242.138 51.7392 243.854 50.0196 245.97 50.0196C248.086 50.0196 249.819 51.7392 249.819 53.8763Z" fill="white"/>
<path d="M272.431 53.8763C272.431 55.8631 270.831 57.4658 268.848 57.4658C266.865 57.4658 265.266 55.8631 265.266 53.8763C265.266 51.8896 266.865 50.2868 268.848 50.2868C270.831 50.2868 272.431 51.8895 272.431 53.8763Z" fill="white"/>
<path d="M295.059 53.8762C295.059 55.7294 293.559 57.2153 291.726 57.2153C289.893 57.2153 288.394 55.7127 288.394 53.8762C288.394 52.0397 289.893 50.5372 291.726 50.5372C293.559 50.5372 295.059 52.0397 295.059 53.8762Z" fill="white"/>
<path d="M317.67 53.8762C317.67 55.5791 316.287 56.9648 314.587 56.9648C312.888 56.9648 311.505 55.5791 311.505 53.8762C311.505 52.1732 312.888 50.7875 314.587 50.7875C316.287 50.7875 317.67 52.1732 317.67 53.8762Z" fill="white"/>
<path d="M340.298 53.8761C340.298 55.4455 339.032 56.7144 337.466 56.7144C335.899 56.7144 334.633 55.4455 334.633 53.8761C334.633 52.3068 335.899 51.0379 337.466 51.0379C339.032 51.0379 340.298 52.3068 340.298 53.8761Z" fill="white"/>
<path d="M362.91 53.8763C362.91 55.3121 361.76 56.4641 360.327 56.4641C358.894 56.4641 357.744 55.3121 357.744 53.8763C357.744 52.4405 358.894 51.2885 360.327 51.2885C361.76 51.2885 362.91 52.4405 362.91 53.8763Z" fill="white"/>
<path d="M385.521 53.8763C385.521 55.1618 384.488 56.2136 383.188 56.2136C381.889 56.2136 380.855 55.1618 380.855 53.8763C380.855 52.5907 381.889 51.5389 383.188 51.5389C384.488 51.5389 385.521 52.5907 385.521 53.8763Z" fill="white"/>
<path d="M408.149 53.8762C408.149 55.0282 407.216 55.9631 406.083 55.9631C404.95 55.9631 404.017 55.0282 404.017 53.8762C404.017 52.7242 404.95 51.806 406.083 51.806C407.216 51.806 408.149 52.7409 408.149 53.8762Z" fill="white"/>
<path d="M430.76 53.8762C430.76 54.878 429.944 55.696 428.944 55.696C427.944 55.696 427.128 54.878 427.128 53.8762C427.128 52.8745 427.944 52.0564 428.944 52.0564C429.944 52.0564 430.76 52.8745 430.76 53.8762Z" fill="white"/>
<path d="M453.372 53.8762C453.372 54.7443 452.672 55.4456 451.806 55.4456C450.939 55.4456 450.239 54.7443 450.239 53.8762C450.239 53.008 450.939 52.3068 451.806 52.3068C452.672 52.3068 453.372 53.008 453.372 53.8762Z" fill="white"/>
<path d="M476 53.8761C476 54.6107 475.417 55.1951 474.684 55.1951C473.95 55.1951 473.367 54.6107 473.367 53.8761C473.367 53.1415 473.95 52.5572 474.684 52.5572C475.417 52.5572 476 53.1415 476 53.8761Z" fill="white"/>
<path d="M1.02618 77.2498C1.02618 80.9061 -1.93981 83.8779 -5.58896 83.8779C-9.23812 83.8779 -12.2041 80.9061 -12.2041 77.2498C-12.2041 73.5935 -9.23812 70.6217 -5.58896 70.6217C-1.93981 70.6217 1.02618 73.5935 1.02618 77.2498Z" fill="white"/>
<path d="M23.6376 77.25C23.6376 80.7728 20.7883 83.6277 17.2724 83.6277C13.7566 83.6277 10.9072 80.7728 10.9072 77.25C10.9072 73.7273 13.7566 70.8724 17.2724 70.8724C20.7883 70.8724 23.6376 73.7273 23.6376 77.25Z" fill="white"/>
<path d="M46.2657 77.2497C46.2657 80.6389 43.5329 83.377 40.1504 83.377C36.7678 83.377 34.0352 80.6389 34.0352 77.2497C34.0352 73.8605 36.7678 71.1225 40.1504 71.1225C43.5329 71.1225 46.2657 73.8605 46.2657 77.2497Z" fill="white"/>
<path d="M68.8771 77.2499C68.8771 80.4888 66.261 83.1267 63.0118 83.1267C59.7625 83.1267 57.1465 80.5055 57.1465 77.2499C57.1465 73.9943 59.7625 71.3731 63.0118 71.3731C66.261 71.3731 68.8771 73.9943 68.8771 77.2499Z" fill="white"/>
<path d="M91.4885 77.2499C91.4885 80.3552 88.9725 82.8762 85.8732 82.8762C82.7739 82.8762 80.2578 80.3552 80.2578 77.2499C80.2578 74.1445 82.7739 71.6235 85.8732 71.6235C88.9725 71.6235 91.4885 74.1445 91.4885 77.2499Z" fill="white"/>
<path d="M114.116 77.2498C114.116 80.2216 111.717 82.6257 108.768 82.6257C105.818 82.6257 103.419 80.2216 103.419 77.2498C103.419 74.278 105.818 71.8905 108.768 71.8905C111.717 71.8905 114.116 74.2947 114.116 77.2498Z" fill="white"/>
<path d="M136.729 77.2498C136.729 80.0714 134.446 82.3586 131.63 82.3586C128.814 82.3586 126.531 80.0714 126.531 77.2498C126.531 74.4283 128.814 72.141 131.63 72.141C134.446 72.141 136.729 74.4283 136.729 77.2498Z" fill="white"/>
<path d="M159.34 77.2498C159.34 79.9377 157.174 82.1082 154.491 82.1082C151.809 82.1082 149.643 79.9377 149.643 77.2498C149.643 74.5618 151.809 72.3914 154.491 72.3914C157.174 72.3914 159.34 74.5618 159.34 77.2498Z" fill="white"/>
<path d="M181.968 77.2497C181.968 79.7874 179.902 81.8577 177.369 81.8577C174.837 81.8577 172.771 79.7874 172.771 77.2497C172.771 74.712 174.837 72.6418 177.369 72.6418C179.902 72.6418 181.968 74.712 181.968 77.2497Z" fill="white"/>
<path d="M204.58 77.2499C204.58 79.6541 202.63 81.6074 200.231 81.6074C197.831 81.6074 195.882 79.6541 195.882 77.2499C195.882 74.8458 197.831 72.8924 200.231 72.8924C202.63 72.8924 204.58 74.8458 204.58 77.2499Z" fill="white"/>
<path d="M227.208 77.2499C227.208 79.5204 225.375 81.3569 223.109 81.3569C220.843 81.3569 219.01 79.5204 219.01 77.2499C219.01 74.9793 220.843 73.1428 223.109 73.1428C225.375 73.1428 227.208 74.9793 227.208 77.2499Z" fill="white"/>
<path d="M249.819 77.2498C249.819 79.3701 248.103 81.1064 245.97 81.1064C243.837 81.1064 242.138 79.3868 242.138 77.2498C242.138 75.1128 243.854 73.3932 245.97 73.3932C248.086 73.3932 249.819 75.1128 249.819 77.2498Z" fill="white"/>
<path d="M272.431 77.2498C272.431 79.2366 270.831 80.8394 268.848 80.8394C266.865 80.8394 265.266 79.2366 265.266 77.2498C265.266 75.2631 266.865 73.6603 268.848 73.6603C270.831 73.6603 272.431 75.2631 272.431 77.2498Z" fill="white"/>
<path d="M295.059 77.2498C295.059 79.103 293.559 80.5889 291.726 80.5889C289.893 80.5889 288.394 79.0863 288.394 77.2498C288.394 75.4133 289.893 73.9107 291.726 73.9107C293.559 73.9107 295.059 75.4133 295.059 77.2498Z" fill="white"/>
<path d="M317.67 77.25C317.67 78.9529 316.287 80.3386 314.587 80.3386C312.888 80.3386 311.505 78.9529 311.505 77.25C311.505 75.547 312.888 74.1613 314.587 74.1613C316.287 74.1613 317.67 75.547 317.67 77.25Z" fill="white"/>
<path d="M340.298 77.2499C340.298 78.8193 339.032 80.0881 337.466 80.0881C335.899 80.0881 334.633 78.8193 334.633 77.2499C334.633 75.6805 335.899 74.4117 337.466 74.4117C339.032 74.4117 340.298 75.6805 340.298 77.2499Z" fill="white"/>
<path d="M362.91 77.2498C362.91 78.6857 361.76 79.8376 360.327 79.8376C358.894 79.8376 357.744 78.6857 357.744 77.2498C357.744 75.814 358.894 74.662 360.327 74.662C361.76 74.662 362.91 75.814 362.91 77.2498Z" fill="white"/>
<path d="M385.521 77.2498C385.521 78.5354 384.488 79.5872 383.188 79.5872C381.889 79.5872 380.855 78.5354 380.855 77.2498C380.855 75.9643 381.889 74.9125 383.188 74.9125C384.488 74.9125 385.521 75.9643 385.521 77.2498Z" fill="white"/>
<path d="M408.149 77.2497C408.149 78.4017 407.216 79.3367 406.083 79.3367C404.95 79.3367 404.017 78.4017 404.017 77.2497C404.017 76.0978 404.95 75.1795 406.083 75.1795C407.216 75.1795 408.149 76.1144 408.149 77.2497Z" fill="white"/>
<path d="M430.76 77.2498C430.76 78.2515 429.944 79.0696 428.944 79.0696C427.944 79.0696 427.128 78.2515 427.128 77.2498C427.128 76.2481 427.944 75.43 428.944 75.43C429.944 75.43 430.76 76.2481 430.76 77.2498Z" fill="white"/>
<path d="M453.372 77.25C453.372 78.1181 452.672 78.8193 451.806 78.8193C450.939 78.8193 450.239 78.1181 450.239 77.25C450.239 76.3818 450.939 75.6806 451.806 75.6806C452.672 75.6806 453.372 76.3818 453.372 77.25Z" fill="white"/>
<path d="M476 77.2499C476 77.9845 475.417 78.5688 474.684 78.5688C473.95 78.5688 473.367 77.9845 473.367 77.2499C473.367 76.5153 473.95 75.931 474.684 75.931C475.417 75.931 476 76.5153 476 77.2499Z" fill="white"/>
<path d="M1.02618 100.624C1.02618 104.28 -1.93981 107.252 -5.58896 107.252C-9.23812 107.252 -12.2041 104.28 -12.2041 100.624C-12.2041 96.9673 -9.23812 93.9955 -5.58896 93.9955C-1.93981 93.9955 1.02618 96.9673 1.02618 100.624Z" fill="white"/>
<path d="M23.6376 100.624C23.6376 104.146 20.7883 107.001 17.2724 107.001C13.7566 107.001 10.9072 104.146 10.9072 100.624C10.9072 97.1008 13.7566 94.2459 17.2724 94.2459C20.7883 94.2459 23.6376 97.1008 23.6376 100.624Z" fill="white"/>
<path d="M46.2657 100.624C46.2657 104.013 43.5329 106.751 40.1504 106.751C36.7678 106.751 34.0352 104.013 34.0352 100.624C34.0352 97.2343 36.7678 94.4963 40.1504 94.4963C43.5329 94.4963 46.2657 97.2343 46.2657 100.624Z" fill="white"/>
<path d="M68.8771 100.624C68.8771 103.863 66.261 106.5 63.0118 106.5C59.7625 106.5 57.1465 103.879 57.1465 100.624C57.1465 97.3681 59.7625 94.7469 63.0118 94.7469C66.261 94.7469 68.8771 97.3681 68.8771 100.624Z" fill="white"/>
<path d="M91.4885 100.623C91.4885 103.729 88.9725 106.25 85.8732 106.25C82.7739 106.25 80.2578 103.729 80.2578 100.623C80.2578 97.518 82.7739 94.997 85.8732 94.997C88.9725 94.997 91.4885 97.518 91.4885 100.623Z" fill="white"/>
<path d="M114.116 100.624C114.116 103.595 111.717 106 108.768 106C105.818 106 103.419 103.595 103.419 100.624C103.419 97.6518 105.818 95.2643 108.768 95.2643C111.717 95.2643 114.116 97.6685 114.116 100.624Z" fill="white"/>
<path d="M136.729 100.623C136.729 103.445 134.446 105.732 131.63 105.732C128.814 105.732 126.531 103.445 126.531 100.623C126.531 97.8018 128.814 95.5146 131.63 95.5146C134.446 95.5146 136.729 97.8018 136.729 100.623Z" fill="white"/>
<path d="M159.34 100.624C159.34 103.312 157.174 105.482 154.491 105.482C151.809 105.482 149.643 103.312 149.643 100.624C149.643 97.9356 151.809 95.7652 154.491 95.7652C157.174 95.7652 159.34 97.9356 159.34 100.624Z" fill="white"/>
<path d="M181.968 100.624C181.968 103.161 179.902 105.231 177.369 105.231C174.837 105.231 172.771 103.161 172.771 100.624C172.771 98.0858 174.837 96.0156 177.369 96.0156C179.902 96.0156 181.968 98.0858 181.968 100.624Z" fill="white"/>
<path d="M204.58 100.623C204.58 103.028 202.63 104.981 200.231 104.981C197.831 104.981 195.882 103.028 195.882 100.623C195.882 98.2193 197.831 96.2659 200.231 96.2659C202.63 96.2659 204.58 98.2193 204.58 100.623Z" fill="white"/>
<path d="M227.208 100.623C227.208 102.894 225.375 104.73 223.109 104.73C220.843 104.73 219.01 102.894 219.01 100.623C219.01 98.3528 220.843 96.5163 223.109 96.5163C225.375 96.5163 227.208 98.3528 227.208 100.623Z" fill="white"/>
<path d="M249.819 100.624C249.819 102.744 248.103 104.48 245.97 104.48C243.837 104.48 242.138 102.761 242.138 100.624C242.138 98.4866 243.854 96.7669 245.97 96.7669C248.086 96.7669 249.819 98.4866 249.819 100.624Z" fill="white"/>
<path d="M272.431 100.623C272.431 102.61 270.831 104.213 268.848 104.213C266.865 104.213 265.266 102.61 265.266 100.623C265.266 98.6366 266.865 97.0339 268.848 97.0339C270.831 97.0339 272.431 98.6366 272.431 100.623Z" fill="white"/>
<path d="M295.059 100.624C295.059 102.477 293.559 103.963 291.726 103.963C289.893 103.963 288.394 102.46 288.394 100.624C288.394 98.7871 289.893 97.2845 291.726 97.2845C293.559 97.2845 295.059 98.7871 295.059 100.624Z" fill="white"/>
<path d="M317.67 100.623C317.67 102.326 316.287 103.712 314.587 103.712C312.888 103.712 311.505 102.326 311.505 100.623C311.505 98.9206 312.888 97.5348 314.587 97.5348C316.287 97.5348 317.67 98.9206 317.67 100.623Z" fill="white"/>
<path d="M340.298 100.623C340.298 102.193 339.032 103.462 337.466 103.462C335.899 103.462 334.633 102.193 334.633 100.623C334.633 99.0541 335.899 97.7852 337.466 97.7852C339.032 97.7852 340.298 99.0541 340.298 100.623Z" fill="white"/>
<path d="M362.91 100.623C362.91 102.059 361.76 103.211 360.327 103.211C358.894 103.211 357.744 102.059 357.744 100.623C357.744 99.1876 358.894 98.0356 360.327 98.0356C361.76 98.0356 362.91 99.1876 362.91 100.623Z" fill="white"/>
<path d="M385.521 100.624C385.521 101.909 384.488 102.961 383.188 102.961C381.889 102.961 380.855 101.909 380.855 100.624C380.855 99.338 381.889 98.2862 383.188 98.2862C384.488 98.2862 385.521 99.3213 385.521 100.624Z" fill="white"/>
<path d="M408.149 100.624C408.149 101.776 407.216 102.71 406.083 102.71C404.95 102.71 404.017 101.776 404.017 100.624C404.017 99.4715 404.95 98.5533 406.083 98.5533C407.216 98.5533 408.149 99.4882 408.149 100.624Z" fill="white"/>
<path d="M430.76 100.624C430.76 101.625 429.944 102.443 428.944 102.443C427.944 102.443 427.128 101.625 427.128 100.624C427.128 99.6218 427.944 98.8038 428.944 98.8038C429.944 98.8038 430.76 99.6218 430.76 100.624Z" fill="white"/>
<path d="M453.372 100.623C453.372 101.492 452.672 102.193 451.806 102.193C450.939 102.193 450.239 101.492 450.239 100.623C450.239 99.7553 450.939 99.0541 451.806 99.0541C452.672 99.0541 453.372 99.7553 453.372 100.623Z" fill="white"/>
<path d="M476 100.623C476 101.358 475.417 101.942 474.684 101.942C473.95 101.942 473.367 101.358 473.367 100.623C473.367 99.8889 473.95 99.3045 474.684 99.3045C475.417 99.3045 476 99.8889 476 100.623Z" fill="white"/>
<path d="M1.02618 123.997C1.02618 127.653 -1.93981 130.625 -5.58896 130.625C-9.23812 130.625 -12.2041 127.653 -12.2041 123.997C-12.2041 120.341 -9.23812 117.369 -5.58896 117.369C-1.93981 117.369 1.02618 120.341 1.02618 123.997Z" fill="white"/>
<path d="M23.6376 123.997C23.6376 127.52 20.7883 130.375 17.2724 130.375C13.7566 130.375 10.9072 127.52 10.9072 123.997C10.9072 120.474 13.7566 117.619 17.2724 117.619C20.7883 117.619 23.6376 120.474 23.6376 123.997Z" fill="white"/>
<path d="M46.2657 123.997C46.2657 127.386 43.5329 130.124 40.1504 130.124C36.7678 130.124 34.0352 127.386 34.0352 123.997C34.0352 120.608 36.7678 117.87 40.1504 117.87C43.5329 117.87 46.2657 120.608 46.2657 123.997Z" fill="white"/>
<path d="M68.8771 123.997C68.8771 127.236 66.261 129.874 63.0118 129.874C59.7625 129.874 57.1465 127.253 57.1465 123.997C57.1465 120.742 59.7625 118.12 63.0118 118.12C66.261 118.12 68.8771 120.742 68.8771 123.997Z" fill="white"/>
<path d="M91.4885 123.997C91.4885 127.103 88.9725 129.624 85.8732 129.624C82.7739 129.624 80.2578 127.103 80.2578 123.997C80.2578 120.892 82.7739 118.371 85.8732 118.371C88.9725 118.371 91.4885 120.892 91.4885 123.997Z" fill="white"/>
<path d="M114.116 123.997C114.116 126.969 111.717 129.373 108.768 129.373C105.818 129.373 103.419 126.969 103.419 123.997C103.419 121.025 105.818 118.638 108.768 118.638C111.717 118.638 114.116 121.042 114.116 123.997Z" fill="white"/>
<path d="M136.729 123.997C136.729 126.819 134.446 129.106 131.63 129.106C128.814 129.106 126.531 126.819 126.531 123.997C126.531 121.176 128.814 118.888 131.63 118.888C134.446 118.888 136.729 121.176 136.729 123.997Z" fill="white"/>
<path d="M159.34 123.997C159.34 126.685 157.174 128.855 154.491 128.855C151.809 128.855 149.643 126.685 149.643 123.997C149.643 121.309 151.809 119.139 154.491 119.139C157.174 119.139 159.34 121.309 159.34 123.997Z" fill="white"/>
<path d="M181.968 123.997C181.968 126.551 179.902 128.605 177.369 128.605C174.837 128.605 172.771 126.535 172.771 123.997C172.771 121.459 174.837 119.389 177.369 119.389C179.902 119.389 181.968 121.459 181.968 123.997Z" fill="white"/>
<path d="M204.58 123.997C204.58 126.401 202.63 128.355 200.231 128.355C197.831 128.355 195.882 126.401 195.882 123.997C195.882 121.593 197.831 119.64 200.231 119.64C202.63 119.64 204.58 121.593 204.58 123.997Z" fill="white"/>
<path d="M227.208 123.997C227.208 126.268 225.375 128.104 223.109 128.104C220.843 128.104 219.01 126.268 219.01 123.997C219.01 121.727 220.843 119.89 223.109 119.89C225.375 119.89 227.208 121.727 227.208 123.997Z" fill="white"/>
<path d="M249.819 123.997C249.819 126.117 248.103 127.854 245.97 127.854C243.837 127.854 242.138 126.134 242.138 123.997C242.138 121.86 243.854 120.14 245.97 120.14C248.086 120.14 249.819 121.86 249.819 123.997Z" fill="white"/>
<path d="M272.431 123.997C272.431 125.984 270.831 127.587 268.848 127.587C266.865 127.587 265.266 125.984 265.266 123.997C265.266 122.01 266.865 120.408 268.848 120.408C270.831 120.408 272.431 122.01 272.431 123.997Z" fill="white"/>
<path d="M295.059 123.997C295.059 125.85 293.559 127.336 291.726 127.336C289.893 127.336 288.394 125.834 288.394 123.997C288.394 122.161 289.893 120.658 291.726 120.658C293.559 120.658 295.059 122.161 295.059 123.997Z" fill="white"/>
<path d="M317.67 123.997C317.67 125.7 316.287 127.086 314.587 127.086C312.888 127.086 311.505 125.7 311.505 123.997C311.505 122.294 312.888 120.908 314.587 120.908C316.287 120.908 317.67 122.294 317.67 123.997Z" fill="white"/>
<path d="M340.298 123.997C340.298 125.566 339.032 126.835 337.466 126.835C335.899 126.835 334.633 125.566 334.633 123.997C334.633 122.428 335.899 121.159 337.466 121.159C339.032 121.159 340.298 122.428 340.298 123.997Z" fill="white"/>
<path d="M362.91 123.997C362.91 125.433 361.76 126.585 360.327 126.585C358.894 126.585 357.744 125.433 357.744 123.997C357.744 122.561 358.894 121.409 360.327 121.409C361.76 121.409 362.91 122.561 362.91 123.997Z" fill="white"/>
<path d="M385.521 123.997C385.521 125.283 384.488 126.334 383.188 126.334C381.889 126.334 380.855 125.283 380.855 123.997C380.855 122.712 381.889 121.66 383.188 121.66C384.488 121.66 385.521 122.695 385.521 123.997Z" fill="white"/>
<path d="M408.149 123.997C408.149 125.149 407.216 126.084 406.083 126.084C404.95 126.084 404.017 125.149 404.017 123.997C404.017 122.845 404.95 121.927 406.083 121.927C407.216 121.927 408.149 122.862 408.149 123.997Z" fill="white"/>
<path d="M430.76 123.997C430.76 124.999 429.944 125.817 428.944 125.817C427.944 125.817 427.128 124.999 427.128 123.997C427.128 122.995 427.944 122.177 428.944 122.177C429.944 122.177 430.76 122.995 430.76 123.997Z" fill="white"/>
<path d="M453.372 123.997C453.372 124.865 452.672 125.566 451.806 125.566C450.939 125.566 450.239 124.865 450.239 123.997C450.239 123.129 450.939 122.428 451.806 122.428C452.672 122.428 453.372 123.129 453.372 123.997Z" fill="white"/>
<path d="M476 123.997C476 124.732 475.417 125.316 474.684 125.316C473.95 125.316 473.367 124.732 473.367 123.997C473.367 123.263 473.95 122.678 474.684 122.678C475.417 122.678 476 123.263 476 123.997Z" fill="white"/>
<path d="M1.02618 147.371C1.02618 151.027 -1.93981 153.999 -5.58896 153.999C-9.23812 153.999 -12.2041 151.027 -12.2041 147.371C-12.2041 143.714 -9.23812 140.743 -5.58896 140.743C-1.93981 140.743 1.02618 143.714 1.02618 147.371Z" fill="white"/>
<path d="M23.6376 147.371C23.6376 150.894 20.7883 153.749 17.2724 153.749C13.7566 153.749 10.9072 150.894 10.9072 147.371C10.9072 143.848 13.7566 140.993 17.2724 140.993C20.7883 140.993 23.6376 143.848 23.6376 147.371Z" fill="white"/>
<path d="M46.2657 147.371C46.2657 150.76 43.5329 153.498 40.1504 153.498C36.7678 153.498 34.0352 150.76 34.0352 147.371C34.0352 143.982 36.7678 141.244 40.1504 141.244C43.5329 141.244 46.2657 143.982 46.2657 147.371Z" fill="white"/>
<path d="M68.8771 147.371C68.8771 150.61 66.261 153.248 63.0118 153.248C59.7625 153.248 57.1465 150.626 57.1465 147.371C57.1465 144.115 59.7625 141.494 63.0118 141.494C66.261 141.494 68.8771 144.115 68.8771 147.371Z" fill="white"/>
<path d="M91.4885 147.371C91.4885 150.476 88.9725 152.997 85.8732 152.997C82.7739 152.997 80.2578 150.476 80.2578 147.371C80.2578 144.265 82.7739 141.744 85.8732 141.744C88.9725 141.744 91.4885 144.265 91.4885 147.371Z" fill="white"/>
<path d="M114.116 147.371C114.116 150.342 111.717 152.747 108.768 152.747C105.818 152.747 103.419 150.342 103.419 147.371C103.419 144.399 105.818 142.011 108.768 142.011C111.717 142.011 114.116 144.416 114.116 147.371Z" fill="white"/>
<path d="M136.729 147.371C136.729 150.192 134.446 152.479 131.63 152.479C128.814 152.479 126.531 150.192 126.531 147.371C126.531 144.549 128.814 142.262 131.63 142.262C134.446 142.262 136.729 144.549 136.729 147.371Z" fill="white"/>
<path d="M159.34 147.371C159.34 150.059 157.174 152.229 154.491 152.229C151.809 152.229 149.643 150.059 149.643 147.371C149.643 144.683 151.809 142.512 154.491 142.512C157.174 142.512 159.34 144.683 159.34 147.371Z" fill="white"/>
<path d="M181.968 147.371C181.968 149.925 179.902 151.979 177.369 151.979C174.837 151.979 172.771 149.909 172.771 147.371C172.771 144.833 174.837 142.763 177.369 142.763C179.902 142.763 181.968 144.833 181.968 147.371Z" fill="white"/>
<path d="M204.58 147.371C204.58 149.775 202.63 151.728 200.231 151.728C197.831 151.728 195.882 149.775 195.882 147.371C195.882 144.967 197.831 143.013 200.231 143.013C202.63 143.013 204.58 144.967 204.58 147.371Z" fill="white"/>
<path d="M227.208 147.371C227.208 149.641 225.375 151.478 223.109 151.478C220.843 151.478 219.01 149.641 219.01 147.371C219.01 145.1 220.843 143.264 223.109 143.264C225.375 143.264 227.208 145.1 227.208 147.371Z" fill="white"/>
<path d="M249.819 147.371C249.819 149.491 248.103 151.227 245.97 151.227C243.837 151.227 242.138 149.508 242.138 147.371C242.138 145.234 243.854 143.514 245.97 143.514C248.086 143.514 249.819 145.234 249.819 147.371Z" fill="white"/>
<path d="M272.431 147.371C272.431 149.358 270.831 150.977 268.848 150.977C266.865 150.977 265.266 149.374 265.266 147.371C265.266 145.367 266.865 143.781 268.848 143.781C270.831 143.781 272.431 145.384 272.431 147.371Z" fill="white"/>
<path d="M295.059 147.371C295.059 149.224 293.559 150.71 291.726 150.71C289.893 150.71 288.394 149.207 288.394 147.371C288.394 145.534 289.893 144.032 291.726 144.032C293.559 144.032 295.059 145.534 295.059 147.371Z" fill="white"/>
<path d="M317.67 147.371C317.67 149.074 316.287 150.459 314.587 150.459C312.888 150.459 311.505 149.074 311.505 147.371C311.505 145.668 312.888 144.282 314.587 144.282C316.287 144.282 317.67 145.668 317.67 147.371Z" fill="white"/>
<path d="M340.298 147.371C340.298 148.94 339.032 150.209 337.466 150.209C335.899 150.209 334.633 148.94 334.633 147.371C334.633 145.801 335.899 144.533 337.466 144.533C339.032 144.533 340.298 145.801 340.298 147.371Z" fill="white"/>
<path d="M362.91 147.371C362.91 148.807 361.76 149.958 360.327 149.958C358.894 149.958 357.744 148.807 357.744 147.371C357.744 145.935 358.894 144.783 360.327 144.783C361.76 144.783 362.91 145.935 362.91 147.371Z" fill="white"/>
<path d="M385.521 147.371C385.521 148.656 384.488 149.708 383.188 149.708C381.889 149.708 380.855 148.656 380.855 147.371C380.855 146.085 381.889 145.033 383.188 145.033C384.488 145.033 385.521 146.068 385.521 147.371Z" fill="white"/>
<path d="M408.149 147.371C408.149 148.523 407.216 149.458 406.083 149.458C404.95 149.458 404.017 148.523 404.017 147.371C404.017 146.219 404.95 145.301 406.083 145.301C407.216 145.301 408.149 146.236 408.149 147.371Z" fill="white"/>
<path d="M430.76 147.371C430.76 148.372 429.944 149.19 428.944 149.19C427.944 149.19 427.128 148.372 427.128 147.371C427.128 146.369 427.944 145.551 428.944 145.551C429.944 145.551 430.76 146.369 430.76 147.371Z" fill="white"/>
<path d="M453.372 147.371C453.372 148.239 452.672 148.94 451.806 148.94C450.939 148.94 450.239 148.239 450.239 147.371C450.239 146.503 450.939 145.801 451.806 145.801C452.672 145.801 453.372 146.503 453.372 147.371Z" fill="white"/>
<path d="M476 147.371C476 148.105 475.417 148.69 474.684 148.69C473.95 148.69 473.367 148.105 473.367 147.371C473.367 146.636 473.95 146.052 474.684 146.052C475.417 146.052 476 146.636 476 147.371Z" fill="white"/>
<path d="M1.02618 170.744C1.02618 174.401 -1.93981 177.373 -5.58896 177.373C-9.23812 177.373 -12.2041 174.401 -12.2041 170.744C-12.2041 167.088 -9.23812 164.116 -5.58896 164.116C-1.93981 164.116 1.02618 167.088 1.02618 170.744Z" fill="white"/>
<path d="M23.6376 170.744C23.6376 174.267 20.7883 177.122 17.2724 177.122C13.7566 177.122 10.9072 174.267 10.9072 170.744C10.9072 167.222 13.7566 164.367 17.2724 164.367C20.7883 164.367 23.6376 167.222 23.6376 170.744Z" fill="white"/>
<path d="M46.2657 170.744C46.2657 174.134 43.5329 176.872 40.1504 176.872C36.7678 176.872 34.0352 174.134 34.0352 170.744C34.0352 167.355 36.7678 164.617 40.1504 164.617C43.5329 164.617 46.2657 167.355 46.2657 170.744Z" fill="white"/>
<path d="M68.8771 170.745C68.8771 173.983 66.261 176.621 63.0118 176.621C59.7625 176.621 57.1465 174 57.1465 170.745C57.1465 167.489 59.7625 164.868 63.0118 164.868C66.261 164.868 68.8771 167.489 68.8771 170.745Z" fill="white"/>
<path d="M91.4885 170.744C91.4885 173.85 88.9725 176.371 85.8732 176.371C82.7739 176.371 80.2578 173.85 80.2578 170.744C80.2578 167.639 82.7739 165.118 85.8732 165.118C88.9725 165.118 91.4885 167.639 91.4885 170.744Z" fill="white"/>
<path d="M114.116 170.744C114.116 173.716 111.717 176.12 108.768 176.12C105.818 176.12 103.419 173.716 103.419 170.744C103.419 167.773 105.818 165.385 108.768 165.385C111.717 165.385 114.116 167.789 114.116 170.744Z" fill="white"/>
<path d="M136.729 170.744C136.729 173.566 134.446 175.853 131.63 175.853C128.814 175.853 126.531 173.566 126.531 170.744C126.531 167.923 128.814 165.636 131.63 165.636C134.446 165.636 136.729 167.923 136.729 170.744Z" fill="white"/>
<path d="M159.34 170.744C159.34 173.432 157.174 175.603 154.491 175.603C151.809 175.603 149.643 173.432 149.643 170.744C149.643 168.056 151.809 165.886 154.491 165.886C157.174 165.886 159.34 168.056 159.34 170.744Z" fill="white"/>
<path d="M181.968 170.744C181.968 173.299 179.902 175.352 177.369 175.352C174.837 175.352 172.771 173.282 172.771 170.744C172.771 168.207 174.837 166.136 177.369 166.136C179.902 166.136 181.968 168.207 181.968 170.744Z" fill="white"/>
<path d="M204.58 170.744C204.58 173.148 202.63 175.102 200.231 175.102C197.831 175.102 195.882 173.148 195.882 170.744C195.882 168.34 197.831 166.387 200.231 166.387C202.63 166.387 204.58 168.34 204.58 170.744Z" fill="white"/>
<path d="M227.208 170.744C227.208 173.015 225.375 174.851 223.109 174.851C220.843 174.851 219.01 173.015 219.01 170.744C219.01 168.474 220.843 166.637 223.109 166.637C225.375 166.637 227.208 168.474 227.208 170.744Z" fill="white"/>
<path d="M249.819 170.744C249.819 172.865 248.103 174.601 245.97 174.601C243.837 174.601 242.138 172.881 242.138 170.744C242.138 168.607 243.854 166.888 245.97 166.888C248.086 166.888 249.819 168.607 249.819 170.744Z" fill="white"/>
<path d="M272.431 170.744C272.431 172.731 270.831 174.351 268.848 174.351C266.865 174.351 265.266 172.748 265.266 170.744C265.266 168.741 266.865 167.155 268.848 167.155C270.831 167.155 272.431 168.758 272.431 170.744Z" fill="white"/>
<path d="M295.059 170.744C295.059 172.598 293.559 174.083 291.726 174.083C289.893 174.083 288.394 172.581 288.394 170.744C288.394 168.908 289.893 167.405 291.726 167.405C293.559 167.405 295.059 168.908 295.059 170.744Z" fill="white"/>
<path d="M317.67 170.744C317.67 172.447 316.287 173.833 314.587 173.833C312.888 173.833 311.505 172.447 311.505 170.744C311.505 169.041 312.888 167.656 314.587 167.656C316.287 167.656 317.67 169.041 317.67 170.744Z" fill="white"/>
<path d="M340.298 170.744C340.298 172.314 339.032 173.583 337.466 173.583C335.899 173.583 334.633 172.314 334.633 170.744C334.633 169.175 335.899 167.906 337.466 167.906C339.032 167.906 340.298 169.175 340.298 170.744Z" fill="white"/>
<path d="M362.91 170.744C362.91 172.18 361.76 173.332 360.327 173.332C358.894 173.332 357.744 172.18 357.744 170.744C357.744 169.309 358.894 168.157 360.327 168.157C361.76 168.157 362.91 169.309 362.91 170.744Z" fill="white"/>
<path d="M385.521 170.744C385.521 172.03 384.488 173.082 383.188 173.082C381.889 173.082 380.855 172.03 380.855 170.744C380.855 169.459 381.889 168.407 383.188 168.407C384.488 168.407 385.521 169.442 385.521 170.744Z" fill="white"/>
<path d="M408.149 170.744C408.149 171.896 407.216 172.831 406.083 172.831C404.95 172.831 404.017 171.896 404.017 170.744C404.017 169.592 404.95 168.674 406.083 168.674C407.216 168.674 408.149 169.609 408.149 170.744Z" fill="white"/>
<path d="M430.76 170.744C430.76 171.746 429.944 172.564 428.944 172.564C427.944 172.564 427.128 171.746 427.128 170.744C427.128 169.743 427.944 168.925 428.944 168.925C429.944 168.925 430.76 169.743 430.76 170.744Z" fill="white"/>
<path d="M453.372 170.744C453.372 171.613 452.672 172.314 451.806 172.314C450.939 172.314 450.239 171.613 450.239 170.744C450.239 169.876 450.939 169.175 451.806 169.175C452.672 169.175 453.372 169.876 453.372 170.744Z" fill="white"/>
<path d="M476 170.744C476 171.479 475.417 172.063 474.684 172.063C473.95 172.063 473.367 171.479 473.367 170.744C473.367 170.01 473.95 169.425 474.684 169.425C475.417 169.425 476 170.01 476 170.744Z" fill="white"/>
<path d="M1.02618 194.118C1.02618 197.774 -1.93981 200.746 -5.58896 200.746C-9.23812 200.746 -12.2041 197.774 -12.2041 194.118C-12.2041 190.462 -9.23812 187.49 -5.58896 187.49C-1.93981 187.49 1.02618 190.462 1.02618 194.118Z" fill="white"/>
<path d="M23.6376 194.118C23.6376 197.641 20.7883 200.496 17.2724 200.496C13.7566 200.496 10.9072 197.641 10.9072 194.118C10.9072 190.595 13.7566 187.74 17.2724 187.74C20.7883 187.74 23.6376 190.595 23.6376 194.118Z" fill="white"/>
<path d="M46.2657 194.118C46.2657 197.507 43.5329 200.245 40.1504 200.245C36.7678 200.245 34.0352 197.507 34.0352 194.118C34.0352 190.729 36.7678 187.991 40.1504 187.991C43.5329 187.991 46.2657 190.729 46.2657 194.118Z" fill="white"/>
<path d="M68.8771 194.118C68.8771 197.357 66.261 199.995 63.0118 199.995C59.7625 199.995 57.1465 197.374 57.1465 194.118C57.1465 190.862 59.7625 188.241 63.0118 188.241C66.261 188.241 68.8771 190.862 68.8771 194.118Z" fill="white"/>
<path d="M91.4885 194.118C91.4885 197.223 88.9725 199.744 85.8732 199.744C82.7739 199.744 80.2578 197.223 80.2578 194.118C80.2578 191.013 82.7739 188.492 85.8732 188.492C88.9725 188.492 91.4885 191.013 91.4885 194.118Z" fill="white"/>
<path d="M114.116 194.118C114.116 197.09 111.717 199.494 108.768 199.494C105.818 199.494 103.419 197.09 103.419 194.118C103.419 191.146 105.818 188.759 108.768 188.759C111.717 188.759 114.116 191.163 114.116 194.118Z" fill="white"/>
<path d="M136.729 194.118C136.729 196.94 134.446 199.227 131.63 199.227C128.814 199.227 126.531 196.94 126.531 194.118C126.531 191.296 128.814 189.009 131.63 189.009C134.446 189.009 136.729 191.296 136.729 194.118Z" fill="white"/>
<path d="M159.34 194.118C159.34 196.806 157.174 198.976 154.491 198.976C151.809 198.976 149.643 196.806 149.643 194.118C149.643 191.43 151.809 189.26 154.491 189.26C157.174 189.26 159.34 191.43 159.34 194.118Z" fill="white"/>
<path d="M181.968 194.118C181.968 196.672 179.902 198.726 177.369 198.726C174.837 198.726 172.771 196.656 172.771 194.118C172.771 191.58 174.837 189.51 177.369 189.51C179.902 189.51 181.968 191.58 181.968 194.118Z" fill="white"/>
<path d="M204.58 194.118C204.58 196.522 202.63 198.476 200.231 198.476C197.831 198.476 195.882 196.522 195.882 194.118C195.882 191.714 197.831 189.761 200.231 189.761C202.63 189.761 204.58 191.714 204.58 194.118Z" fill="white"/>
<path d="M227.208 194.118C227.208 196.389 225.375 198.225 223.109 198.225C220.843 198.225 219.01 196.389 219.01 194.118C219.01 191.847 220.843 190.011 223.109 190.011C225.375 190.011 227.208 191.847 227.208 194.118Z" fill="white"/>
<path d="M249.819 194.118C249.819 196.238 248.103 197.975 245.97 197.975C243.837 197.975 242.138 196.255 242.138 194.118C242.138 191.981 243.854 190.261 245.97 190.261C248.086 190.261 249.819 191.981 249.819 194.118Z" fill="white"/>
<path d="M272.431 194.118C272.431 196.105 270.831 197.724 268.848 197.724C266.865 197.724 265.266 196.121 265.266 194.118C265.266 192.114 266.865 190.528 268.848 190.528C270.831 190.528 272.431 192.131 272.431 194.118Z" fill="white"/>
<path d="M295.059 194.118C295.059 195.971 293.559 197.457 291.726 197.457C289.893 197.457 288.394 195.954 288.394 194.118C288.394 192.281 289.893 190.779 291.726 190.779C293.559 190.779 295.059 192.281 295.059 194.118Z" fill="white"/>
<path d="M317.67 194.118C317.67 195.821 316.287 197.207 314.587 197.207C312.888 197.207 311.505 195.821 311.505 194.118C311.505 192.415 312.888 191.029 314.587 191.029C316.287 191.029 317.67 192.415 317.67 194.118Z" fill="white"/>
<path d="M340.298 194.118C340.298 195.687 339.032 196.956 337.466 196.956C335.899 196.956 334.633 195.687 334.633 194.118C334.633 192.549 335.899 191.28 337.466 191.28C339.032 191.28 340.298 192.549 340.298 194.118Z" fill="white"/>
<path d="M362.91 194.118C362.91 195.554 361.76 196.706 360.327 196.706C358.894 196.706 357.744 195.554 357.744 194.118C357.744 192.682 358.894 191.53 360.327 191.53C361.76 191.53 362.91 192.682 362.91 194.118Z" fill="white"/>
<path d="M385.521 194.118C385.521 195.404 384.488 196.455 383.188 196.455C381.889 196.455 380.855 195.404 380.855 194.118C380.855 192.832 381.889 191.781 383.188 191.781C384.488 191.781 385.521 192.816 385.521 194.118Z" fill="white"/>
<path d="M408.149 194.118C408.149 195.27 407.216 196.205 406.083 196.205C404.95 196.205 404.017 195.27 404.017 194.118C404.017 192.966 404.95 192.048 406.083 192.048C407.216 192.048 408.149 192.983 408.149 194.118Z" fill="white"/>
<path d="M430.76 194.118C430.76 195.12 429.944 195.938 428.944 195.938C427.944 195.938 427.128 195.12 427.128 194.118C427.128 193.116 427.944 192.298 428.944 192.298C429.944 192.298 430.76 193.116 430.76 194.118Z" fill="white"/>
<path d="M453.372 194.118C453.372 194.986 452.672 195.687 451.806 195.687C450.939 195.687 450.239 194.986 450.239 194.118C450.239 193.25 450.939 192.549 451.806 192.549C452.672 192.549 453.372 193.25 453.372 194.118Z" fill="white"/>
<path d="M476 194.118C476 194.853 475.417 195.437 474.684 195.437C473.95 195.437 473.367 194.853 473.367 194.118C473.367 193.383 473.95 192.799 474.684 192.799C475.417 192.799 476 193.383 476 194.118Z" fill="white"/>
<path d="M1.02618 217.492C1.02618 221.148 -1.93981 224.12 -5.58896 224.12C-9.23812 224.12 -12.2041 221.148 -12.2041 217.492C-12.2041 213.835 -9.23812 210.863 -5.58896 210.863C-1.93981 210.863 1.02618 213.835 1.02618 217.492Z" fill="white"/>
<path d="M23.6376 217.492C23.6376 221.014 20.7883 223.869 17.2724 223.869C13.7566 223.869 10.9072 221.014 10.9072 217.492C10.9072 213.969 13.7566 211.114 17.2724 211.114C20.7883 211.114 23.6376 213.969 23.6376 217.492Z" fill="white"/>
<path d="M46.2657 217.492C46.2657 220.881 43.5329 223.619 40.1504 223.619C36.7678 223.619 34.0352 220.881 34.0352 217.492C34.0352 214.102 36.7678 211.364 40.1504 211.364C43.5329 211.364 46.2657 214.102 46.2657 217.492Z" fill="white"/>
<path d="M68.8771 217.492C68.8771 220.731 66.261 223.368 63.0118 223.368C59.7625 223.368 57.1465 220.747 57.1465 217.492C57.1465 214.236 59.7625 211.615 63.0118 211.615C66.261 211.615 68.8771 214.236 68.8771 217.492Z" fill="white"/>
<path d="M91.4885 217.492C91.4885 220.597 88.9725 223.118 85.8732 223.118C82.7739 223.118 80.2578 220.597 80.2578 217.492C80.2578 214.386 82.7739 211.865 85.8732 211.865C88.9725 211.865 91.4885 214.386 91.4885 217.492Z" fill="white"/>
<path d="M114.116 217.492C114.116 220.464 111.717 222.868 108.768 222.868C105.818 222.868 103.419 220.464 103.419 217.492C103.419 214.52 105.818 212.132 108.768 212.132C111.717 212.132 114.116 214.537 114.116 217.492Z" fill="white"/>
<path d="M136.729 217.492C136.729 220.313 134.446 222.6 131.63 222.6C128.814 222.6 126.531 220.313 126.531 217.492C126.531 214.67 128.814 212.383 131.63 212.383C134.446 212.383 136.729 214.67 136.729 217.492Z" fill="white"/>
<path d="M159.34 217.492C159.34 220.18 157.174 222.35 154.491 222.35C151.809 222.35 149.643 220.18 149.643 217.492C149.643 214.804 151.809 212.633 154.491 212.633C157.174 212.633 159.34 214.804 159.34 217.492Z" fill="white"/>
<path d="M181.968 217.492C181.968 220.029 179.902 222.1 177.369 222.1C174.837 222.1 172.771 220.029 172.771 217.492C172.771 214.954 174.837 212.884 177.369 212.884C179.902 212.884 181.968 214.954 181.968 217.492Z" fill="white"/>
<path d="M204.58 217.492C204.58 219.896 202.63 221.849 200.231 221.849C197.831 221.849 195.882 219.896 195.882 217.492C195.882 215.087 197.831 213.134 200.231 213.134C202.63 213.134 204.58 215.087 204.58 217.492Z" fill="white"/>
<path d="M227.208 217.492C227.208 219.762 225.375 221.599 223.109 221.599C220.843 221.599 219.01 219.762 219.01 217.492C219.01 215.221 220.843 213.384 223.109 213.384C225.375 213.384 227.208 215.221 227.208 217.492Z" fill="white"/>
<path d="M249.819 217.492C249.819 219.612 248.103 221.348 245.97 221.348C243.837 221.348 242.138 219.629 242.138 217.492C242.138 215.355 243.854 213.635 245.97 213.635C248.086 213.635 249.819 215.355 249.819 217.492Z" fill="white"/>
<path d="M272.431 217.492C272.431 219.478 270.831 221.081 268.848 221.081C266.865 221.081 265.266 219.478 265.266 217.492C265.266 215.505 266.865 213.902 268.848 213.902C270.831 213.902 272.431 215.505 272.431 217.492Z" fill="white"/>
<path d="M295.059 217.492C295.059 219.345 293.559 220.831 291.726 220.831C289.893 220.831 288.394 219.328 288.394 217.492C288.394 215.655 289.893 214.153 291.726 214.153C293.559 214.153 295.059 215.655 295.059 217.492Z" fill="white"/>
<path d="M317.67 217.492C317.67 219.195 316.287 220.58 314.587 220.58C312.888 220.58 311.505 219.195 311.505 217.492C311.505 215.789 312.888 214.403 314.587 214.403C316.287 214.403 317.67 215.789 317.67 217.492Z" fill="white"/>
<path d="M340.298 217.492C340.298 219.061 339.032 220.33 337.466 220.33C335.899 220.33 334.633 219.061 334.633 217.492C334.633 215.922 335.899 214.653 337.466 214.653C339.032 214.653 340.298 215.922 340.298 217.492Z" fill="white"/>
<path d="M362.91 217.492C362.91 218.927 361.76 220.079 360.327 220.079C358.894 220.079 357.744 218.927 357.744 217.492C357.744 216.056 358.894 214.904 360.327 214.904C361.76 214.904 362.91 216.056 362.91 217.492Z" fill="white"/>
<path d="M385.521 217.492C385.521 218.777 384.488 219.829 383.188 219.829C381.889 219.829 380.855 218.794 380.855 217.492C380.855 216.19 381.889 215.154 383.188 215.154C384.488 215.154 385.521 216.206 385.521 217.492Z" fill="white"/>
<path d="M408.149 217.492C408.149 218.644 407.216 219.579 406.083 219.579C404.95 219.579 404.017 218.644 404.017 217.492C404.017 216.34 404.95 215.405 406.083 215.405C407.216 215.405 408.149 216.34 408.149 217.492Z" fill="white"/>
<path d="M430.76 217.492C430.76 218.493 429.944 219.312 428.944 219.312C427.944 219.312 427.128 218.493 427.128 217.492C427.128 216.49 427.944 215.672 428.944 215.672C429.944 215.672 430.76 216.49 430.76 217.492Z" fill="white"/>
<path d="M453.372 217.492C453.372 218.36 452.672 219.061 451.806 219.061C450.939 219.061 450.239 218.36 450.239 217.492C450.239 216.623 450.939 215.922 451.806 215.922C452.672 215.922 453.372 216.623 453.372 217.492Z" fill="white"/>
<path d="M476 217.492C476 218.226 475.417 218.811 474.684 218.811C473.95 218.811 473.367 218.226 473.367 217.492C473.367 216.757 473.95 216.173 474.684 216.173C475.417 216.173 476 216.757 476 217.492Z" fill="white"/>
<path d="M1.02618 240.865C1.02618 244.522 -1.93981 247.493 -5.58896 247.493C-9.23812 247.493 -12.2041 244.522 -12.2041 240.865C-12.2041 237.209 -9.23812 234.237 -5.58896 234.237C-1.93981 234.237 1.02618 237.209 1.02618 240.865Z" fill="white"/>
<path d="M23.6376 240.865C23.6376 244.388 20.7883 247.243 17.2724 247.243C13.7566 247.243 10.9072 244.388 10.9072 240.865C10.9072 237.343 13.7566 234.488 17.2724 234.488C20.7883 234.488 23.6376 237.343 23.6376 240.865Z" fill="white"/>
<path d="M46.2657 240.865C46.2657 244.254 43.5329 246.992 40.1504 246.992C36.7678 246.992 34.0352 244.254 34.0352 240.865C34.0352 237.476 36.7678 234.738 40.1504 234.738C43.5329 234.738 46.2657 237.476 46.2657 240.865Z" fill="white"/>
<path d="M68.8771 240.865C68.8771 244.104 66.261 246.742 63.0118 246.742C59.7625 246.742 57.1465 244.121 57.1465 240.865C57.1465 237.61 59.7625 234.989 63.0118 234.989C66.261 234.989 68.8771 237.61 68.8771 240.865Z" fill="white"/>
<path d="M91.4885 240.865C91.4885 243.971 88.9725 246.492 85.8732 246.492C82.7739 246.492 80.2578 243.971 80.2578 240.865C80.2578 237.76 82.7739 235.239 85.8732 235.239C88.9725 235.239 91.4885 237.76 91.4885 240.865Z" fill="white"/>
<path d="M114.116 240.865C114.116 243.837 111.717 246.241 108.768 246.241C105.818 246.241 103.419 243.837 103.419 240.865C103.419 237.893 105.818 235.506 108.768 235.506C111.717 235.506 114.116 237.91 114.116 240.865Z" fill="white"/>
<path d="M136.729 240.865C136.729 243.687 134.446 245.974 131.63 245.974C128.814 245.974 126.531 243.687 126.531 240.865C126.531 238.044 128.814 235.757 131.63 235.757C134.446 235.757 136.729 238.044 136.729 240.865Z" fill="white"/>
<path d="M159.34 240.865C159.34 243.553 157.174 245.724 154.491 245.724C151.809 245.724 149.643 243.553 149.643 240.865C149.643 238.177 151.809 236.007 154.491 236.007C157.174 236.007 159.34 238.177 159.34 240.865Z" fill="white"/>
<path d="M181.968 240.865C181.968 243.403 179.902 245.473 177.369 245.473C174.837 245.473 172.771 243.403 172.771 240.865C172.771 238.327 174.837 236.257 177.369 236.257C179.902 236.257 181.968 238.327 181.968 240.865Z" fill="white"/>
<path d="M204.58 240.865C204.58 243.269 202.63 245.223 200.231 245.223C197.831 245.223 195.882 243.269 195.882 240.865C195.882 238.461 197.831 236.508 200.231 236.508C202.63 236.508 204.58 238.461 204.58 240.865Z" fill="white"/>
<path d="M227.208 240.865C227.208 243.136 225.375 244.972 223.109 244.972C220.843 244.972 219.01 243.136 219.01 240.865C219.01 238.595 220.843 236.758 223.109 236.758C225.375 236.758 227.208 238.595 227.208 240.865Z" fill="white"/>
<path d="M249.819 240.865C249.819 242.986 248.103 244.722 245.97 244.722C243.837 244.722 242.138 243.002 242.138 240.865C242.138 238.728 243.854 237.009 245.97 237.009C248.086 237.009 249.819 238.728 249.819 240.865Z" fill="white"/>
<path d="M272.431 240.865C272.431 242.852 270.831 244.455 268.848 244.455C266.865 244.455 265.266 242.852 265.266 240.865C265.266 238.879 266.865 237.276 268.848 237.276C270.831 237.276 272.431 238.879 272.431 240.865Z" fill="white"/>
<path d="M295.059 240.865C295.059 242.718 293.559 244.204 291.726 244.204C289.893 244.204 288.394 242.702 288.394 240.865C288.394 239.029 289.893 237.526 291.726 237.526C293.559 237.526 295.059 239.029 295.059 240.865Z" fill="white"/>
<path d="M317.67 240.865C317.67 242.568 316.287 243.954 314.587 243.954C312.888 243.954 311.505 242.568 311.505 240.865C311.505 239.162 312.888 237.777 314.587 237.777C316.287 237.777 317.67 239.162 317.67 240.865Z" fill="white"/>
<path d="M340.298 240.865C340.298 242.435 339.032 243.704 337.466 243.704C335.899 243.704 334.633 242.435 334.633 240.865C334.633 239.296 335.899 238.027 337.466 238.027C339.032 238.027 340.298 239.296 340.298 240.865Z" fill="white"/>
<path d="M362.91 240.865C362.91 242.301 361.76 243.453 360.327 243.453C358.894 243.453 357.744 242.301 357.744 240.865C357.744 239.43 358.894 238.278 360.327 238.278C361.76 238.278 362.91 239.43 362.91 240.865Z" fill="white"/>
<path d="M385.521 240.865C385.521 242.151 384.488 243.203 383.188 243.203C381.889 243.203 380.855 242.168 380.855 240.865C380.855 239.563 381.889 238.528 383.188 238.528C384.488 238.528 385.521 239.58 385.521 240.865Z" fill="white"/>
<path d="M408.149 240.865C408.149 242.017 407.216 242.952 406.083 242.952C404.95 242.952 404.017 242.017 404.017 240.865C404.017 239.713 404.95 238.778 406.083 238.778C407.216 238.778 408.149 239.713 408.149 240.865Z" fill="white"/>
<path d="M430.76 240.865C430.76 241.867 429.944 242.685 428.944 242.685C427.944 242.685 427.128 241.867 427.128 240.865C427.128 239.864 427.944 239.045 428.944 239.045C429.944 239.045 430.76 239.864 430.76 240.865Z" fill="white"/>
<path d="M453.372 240.865C453.372 241.733 452.672 242.435 451.806 242.435C450.939 242.435 450.239 241.733 450.239 240.865C450.239 239.997 450.939 239.296 451.806 239.296C452.672 239.296 453.372 239.997 453.372 240.865Z" fill="white"/>
<path d="M476 240.865C476 241.6 475.417 242.184 474.684 242.184C473.95 242.184 473.367 241.6 473.367 240.865C473.367 240.131 473.95 239.546 474.684 239.546C475.417 239.546 476 240.131 476 240.865Z" fill="white"/>
<path d="M1.02618 264.239C1.02618 267.895 -1.93981 270.867 -5.58896 270.867C-9.23812 270.867 -12.2041 267.895 -12.2041 264.239C-12.2041 260.583 -9.23812 257.611 -5.58896 257.611C-1.93981 257.611 1.02618 260.583 1.02618 264.239Z" fill="white"/>
<path d="M23.6376 264.239C23.6376 267.762 20.7883 270.617 17.2724 270.617C13.7566 270.617 10.9072 267.762 10.9072 264.239C10.9072 260.716 13.7566 257.861 17.2724 257.861C20.7883 257.861 23.6376 260.716 23.6376 264.239Z" fill="white"/>
<path d="M46.2657 264.239C46.2657 267.628 43.5329 270.366 40.1504 270.366C36.7678 270.366 34.0352 267.628 34.0352 264.239C34.0352 260.85 36.7678 258.112 40.1504 258.112C43.5329 258.112 46.2657 260.85 46.2657 264.239Z" fill="white"/>
<path d="M68.8771 264.239C68.8771 267.478 66.261 270.116 63.0118 270.116C59.7625 270.116 57.1465 267.495 57.1465 264.239C57.1465 260.983 59.7625 258.362 63.0118 258.362C66.261 258.362 68.8771 260.983 68.8771 264.239Z" fill="white"/>
<path d="M91.4885 264.239C91.4885 267.344 88.9725 269.865 85.8732 269.865C82.7739 269.865 80.2578 267.344 80.2578 264.239C80.2578 261.134 82.7739 258.613 85.8732 258.613C88.9725 258.613 91.4885 261.134 91.4885 264.239Z" fill="white"/>
<path d="M114.116 264.239C114.116 267.211 111.717 269.615 108.768 269.615C105.818 269.615 103.419 267.211 103.419 264.239C103.419 261.267 105.818 258.88 108.768 258.88C111.717 258.88 114.116 261.284 114.116 264.239Z" fill="white"/>
<path d="M136.729 264.239C136.729 267.06 134.446 269.348 131.63 269.348C128.814 269.348 126.531 267.06 126.531 264.239C126.531 261.417 128.814 259.13 131.63 259.13C134.446 259.13 136.729 261.417 136.729 264.239Z" fill="white"/>
<path d="M159.34 264.239C159.34 266.927 157.174 269.097 154.491 269.097C151.809 269.097 149.643 266.927 149.643 264.239C149.643 261.551 151.809 259.38 154.491 259.38C157.174 259.38 159.34 261.551 159.34 264.239Z" fill="white"/>
<path d="M181.968 264.239C181.968 266.777 179.902 268.847 177.369 268.847C174.837 268.847 172.771 266.777 172.771 264.239C172.771 261.701 174.837 259.631 177.369 259.631C179.902 259.631 181.968 261.701 181.968 264.239Z" fill="white"/>
<path d="M204.58 264.239C204.58 266.643 202.63 268.596 200.231 268.596C197.831 268.596 195.882 266.643 195.882 264.239C195.882 261.835 197.831 259.881 200.231 259.881C202.63 259.881 204.58 261.835 204.58 264.239Z" fill="white"/>
<path d="M227.208 264.239C227.208 266.509 225.375 268.346 223.109 268.346C220.843 268.346 219.01 266.509 219.01 264.239C219.01 261.968 220.843 260.132 223.109 260.132C225.375 260.132 227.208 261.968 227.208 264.239Z" fill="white"/>
<path d="M249.819 264.239C249.819 266.359 248.103 268.095 245.97 268.095C243.837 268.095 242.138 266.376 242.138 264.239C242.138 262.102 243.854 260.382 245.97 260.382C248.086 260.382 249.819 262.102 249.819 264.239Z" fill="white"/>
<path d="M272.431 264.239C272.431 266.226 270.831 267.828 268.848 267.828C266.865 267.828 265.266 266.226 265.266 264.239C265.266 262.252 266.865 260.649 268.848 260.649C270.831 260.649 272.431 262.252 272.431 264.239Z" fill="white"/>
<path d="M295.059 264.239C295.059 266.092 293.559 267.578 291.726 267.578C289.893 267.578 288.394 266.075 288.394 264.239C288.394 262.402 289.893 260.9 291.726 260.9C293.559 260.9 295.059 262.402 295.059 264.239Z" fill="white"/>
<path d="M317.67 264.239C317.67 265.942 316.287 267.328 314.587 267.328C312.888 267.328 311.505 265.942 311.505 264.239C311.505 262.536 312.888 261.15 314.587 261.15C316.287 261.15 317.67 262.536 317.67 264.239Z" fill="white"/>
<path d="M340.298 264.239C340.298 265.808 339.032 267.077 337.466 267.077C335.899 267.077 334.633 265.808 334.633 264.239C334.633 262.67 335.899 261.401 337.466 261.401C339.032 261.401 340.298 262.67 340.298 264.239Z" fill="white"/>
<path d="M362.91 264.239C362.91 265.675 361.76 266.827 360.327 266.827C358.894 266.827 357.744 265.675 357.744 264.239C357.744 262.803 358.894 261.651 360.327 261.651C361.76 261.651 362.91 262.803 362.91 264.239Z" fill="white"/>
<path d="M385.521 264.239C385.521 265.524 384.488 266.576 383.188 266.576C381.889 266.576 380.855 265.541 380.855 264.239C380.855 262.937 381.889 261.901 383.188 261.901C384.488 261.901 385.521 262.953 385.521 264.239Z" fill="white"/>
<path d="M408.149 264.239C408.149 265.391 407.216 266.326 406.083 266.326C404.95 266.326 404.017 265.391 404.017 264.239C404.017 263.087 404.95 262.152 406.083 262.152C407.216 262.152 408.149 263.087 408.149 264.239Z" fill="white"/>
<path d="M430.76 264.239C430.76 265.241 429.944 266.059 428.944 266.059C427.944 266.059 427.128 265.241 427.128 264.239C427.128 263.237 427.944 262.419 428.944 262.419C429.944 262.419 430.76 263.237 430.76 264.239Z" fill="white"/>
<path d="M453.372 264.239C453.372 265.107 452.672 265.808 451.806 265.808C450.939 265.808 450.239 265.107 450.239 264.239C450.239 263.371 450.939 262.67 451.806 262.67C452.672 262.67 453.372 263.371 453.372 264.239Z" fill="white"/>
<path d="M476 264.239C476 264.974 475.417 265.558 474.684 265.558C473.95 265.558 473.367 264.974 473.367 264.239C473.367 263.504 473.95 262.92 474.684 262.92C475.417 262.92 476 263.504 476 264.239Z" fill="white"/>
<path d="M1.02618 287.613C1.02618 291.269 -1.93981 294.241 -5.58896 294.241C-9.23812 294.241 -12.2041 291.269 -12.2041 287.613C-12.2041 283.956 -9.23812 280.985 -5.58896 280.985C-1.93981 280.985 1.02618 283.956 1.02618 287.613Z" fill="white"/>
<path d="M23.6376 287.613C23.6376 291.135 20.7883 293.99 17.2724 293.99C13.7566 293.99 10.9072 291.135 10.9072 287.613C10.9072 284.09 13.7566 281.235 17.2724 281.235C20.7883 281.235 23.6376 284.09 23.6376 287.613Z" fill="white"/>
<path d="M46.2657 287.613C46.2657 291.002 43.5329 293.74 40.1504 293.74C36.7678 293.74 34.0352 291.002 34.0352 287.613C34.0352 284.223 36.7678 281.485 40.1504 281.485C43.5329 281.485 46.2657 284.223 46.2657 287.613Z" fill="white"/>
<path d="M68.8771 287.612C68.8771 290.851 66.261 293.489 63.0118 293.489C59.7625 293.489 57.1465 290.868 57.1465 287.612C57.1465 284.357 59.7625 281.736 63.0118 281.736C66.261 281.736 68.8771 284.357 68.8771 287.612Z" fill="white"/>
<path d="M91.4885 287.612C91.4885 290.718 88.9725 293.239 85.8732 293.239C82.7739 293.239 80.2578 290.718 80.2578 287.612C80.2578 284.507 82.7739 281.986 85.8732 281.986C88.9725 281.986 91.4885 284.507 91.4885 287.612Z" fill="white"/>
<path d="M114.116 287.613C114.116 290.584 111.717 292.989 108.768 292.989C105.818 292.989 103.419 290.584 103.419 287.613C103.419 284.641 105.818 282.253 108.768 282.253C111.717 282.253 114.116 284.657 114.116 287.613Z" fill="white"/>
<path d="M136.729 287.613C136.729 290.434 134.446 292.721 131.63 292.721C128.814 292.721 126.531 290.434 126.531 287.613C126.531 284.791 128.814 282.504 131.63 282.504C134.446 282.504 136.729 284.791 136.729 287.613Z" fill="white"/>
<path d="M159.34 287.613C159.34 290.301 157.174 292.471 154.491 292.471C151.809 292.471 149.643 290.301 149.643 287.613C149.643 284.925 151.809 282.754 154.491 282.754C157.174 282.754 159.34 284.925 159.34 287.613Z" fill="white"/>
<path d="M181.968 287.613C181.968 290.15 179.902 292.22 177.369 292.22C174.837 292.22 172.771 290.15 172.771 287.613C172.771 285.075 174.837 283.005 177.369 283.005C179.902 283.005 181.968 285.075 181.968 287.613Z" fill="white"/>
<path d="M204.58 287.612C204.58 290.017 202.63 291.97 200.231 291.97C197.831 291.97 195.882 290.017 195.882 287.612C195.882 285.208 197.831 283.255 200.231 283.255C202.63 283.255 204.58 285.208 204.58 287.612Z" fill="white"/>
<path d="M227.208 287.612C227.208 289.883 225.375 291.719 223.109 291.719C220.843 291.719 219.01 289.883 219.01 287.612C219.01 285.342 220.843 283.505 223.109 283.505C225.375 283.505 227.208 285.342 227.208 287.612Z" fill="white"/>
<path d="M249.819 287.613C249.819 289.733 248.103 291.469 245.97 291.469C243.837 291.469 242.138 289.75 242.138 287.613C242.138 285.476 243.854 283.756 245.97 283.756C248.086 283.756 249.819 285.476 249.819 287.613Z" fill="white"/>
<path d="M272.431 287.613C272.431 289.599 270.831 291.202 268.848 291.202C266.865 291.202 265.266 289.599 265.266 287.613C265.266 285.626 266.865 284.023 268.848 284.023C270.831 284.023 272.431 285.626 272.431 287.613Z" fill="white"/>
<path d="M295.059 287.613C295.059 289.466 293.559 290.952 291.726 290.952C289.893 290.952 288.394 289.449 288.394 287.613C288.394 285.776 289.893 284.273 291.726 284.273C293.559 284.273 295.059 285.776 295.059 287.613Z" fill="white"/>
<path d="M317.67 287.613C317.67 289.315 316.287 290.701 314.587 290.701C312.888 290.701 311.505 289.315 311.505 287.613C311.505 285.91 312.888 284.524 314.587 284.524C316.287 284.524 317.67 285.91 317.67 287.613Z" fill="white"/>
<path d="M340.298 287.612C340.298 289.182 339.032 290.451 337.466 290.451C335.899 290.451 334.633 289.182 334.633 287.612C334.633 286.043 335.899 284.774 337.466 284.774C339.032 284.774 340.298 286.043 340.298 287.612Z" fill="white"/>
<path d="M362.91 287.613C362.91 289.048 361.76 290.2 360.327 290.2C358.894 290.2 357.744 289.048 357.744 287.613C357.744 286.177 358.894 285.025 360.327 285.025C361.76 285.025 362.91 286.177 362.91 287.613Z" fill="white"/>
<path d="M385.521 287.613C385.521 288.898 384.488 289.95 383.188 289.95C381.889 289.95 380.855 288.915 380.855 287.613C380.855 286.31 381.889 285.275 383.188 285.275C384.488 285.275 385.521 286.327 385.521 287.613Z" fill="white"/>
<path d="M408.149 287.613C408.149 288.765 407.216 289.699 406.083 289.699C404.95 289.699 404.017 288.765 404.017 287.613C404.017 286.461 404.95 285.526 406.083 285.526C407.216 285.526 408.149 286.461 408.149 287.613Z" fill="white"/>
<path d="M430.76 287.613C430.76 288.614 429.944 289.432 428.944 289.432C427.944 289.432 427.128 288.614 427.128 287.613C427.128 286.611 427.944 285.793 428.944 285.793C429.944 285.793 430.76 286.611 430.76 287.613Z" fill="white"/>
<path d="M453.372 287.613C453.372 288.481 452.672 289.182 451.806 289.182C450.939 289.182 450.239 288.481 450.239 287.613C450.239 286.744 450.939 286.043 451.806 286.043C452.672 286.043 453.372 286.744 453.372 287.613Z" fill="white"/>
<path d="M476 287.612C476 288.347 475.417 288.931 474.684 288.931C473.95 288.931 473.367 288.347 473.367 287.612C473.367 286.878 473.95 286.294 474.684 286.294C475.417 286.294 476 286.878 476 287.612Z" fill="white"/>
<path d="M1.02618 310.986C1.02618 314.642 -1.93981 317.614 -5.58896 317.614C-9.23812 317.614 -12.2041 314.642 -12.2041 310.986C-12.2041 307.33 -9.23812 304.358 -5.58896 304.358C-1.93981 304.358 1.02618 307.33 1.02618 310.986Z" fill="white"/>
<path d="M23.6376 310.986C23.6376 314.509 20.7883 317.364 17.2724 317.364C13.7566 317.364 10.9072 314.509 10.9072 310.986C10.9072 307.463 13.7566 304.608 17.2724 304.608C20.7883 304.608 23.6376 307.463 23.6376 310.986Z" fill="white"/>
<path d="M46.2657 310.986C46.2657 314.375 43.5329 317.113 40.1504 317.113C36.7678 317.113 34.0352 314.375 34.0352 310.986C34.0352 307.597 36.7678 304.859 40.1504 304.859C43.5329 304.859 46.2657 307.597 46.2657 310.986Z" fill="white"/>
<path d="M68.8771 310.986C68.8771 314.225 66.261 316.863 63.0118 316.863C59.7625 316.863 57.1465 314.242 57.1465 310.986C57.1465 307.731 59.7625 305.109 63.0118 305.109C66.261 305.109 68.8771 307.731 68.8771 310.986Z" fill="white"/>
<path d="M91.4885 310.986C91.4885 314.092 88.9725 316.613 85.8732 316.613C82.7739 316.613 80.2578 314.092 80.2578 310.986C80.2578 307.881 82.7739 305.36 85.8732 305.36C88.9725 305.36 91.4885 307.881 91.4885 310.986Z" fill="white"/>
<path d="M114.116 310.986C114.116 313.958 111.717 316.362 108.768 316.362C105.818 316.362 103.419 313.958 103.419 310.986C103.419 308.014 105.818 305.627 108.768 305.627C111.717 305.627 114.116 308.031 114.116 310.986Z" fill="white"/>
<path d="M136.729 310.986C136.729 313.808 134.446 316.095 131.63 316.095C128.814 316.095 126.531 313.808 126.531 310.986C126.531 308.165 128.814 305.877 131.63 305.877C134.446 305.877 136.729 308.165 136.729 310.986Z" fill="white"/>
<path d="M159.34 310.986C159.34 313.674 157.174 315.844 154.491 315.844C151.809 315.844 149.643 313.674 149.643 310.986C149.643 308.298 151.809 306.128 154.491 306.128C157.174 306.128 159.34 308.298 159.34 310.986Z" fill="white"/>
<path d="M181.968 310.986C181.968 313.524 179.902 315.594 177.369 315.594C174.837 315.594 172.771 313.524 172.771 310.986C172.771 308.448 174.837 306.378 177.369 306.378C179.902 306.378 181.968 308.448 181.968 310.986Z" fill="white"/>
<path d="M204.58 310.986C204.58 313.39 202.63 315.344 200.231 315.344C197.831 315.344 195.882 313.39 195.882 310.986C195.882 308.582 197.831 306.629 200.231 306.629C202.63 306.629 204.58 308.582 204.58 310.986Z" fill="white"/>
<path d="M227.208 310.986C227.208 313.257 225.375 315.093 223.109 315.093C220.843 315.093 219.01 313.257 219.01 310.986C219.01 308.716 220.843 306.879 223.109 306.879C225.375 306.879 227.208 308.716 227.208 310.986Z" fill="white"/>
<path d="M249.819 310.986C249.819 313.106 248.103 314.843 245.97 314.843C243.837 314.843 242.138 313.123 242.138 310.986C242.138 308.849 243.854 307.129 245.97 307.129C248.086 307.129 249.819 308.849 249.819 310.986Z" fill="white"/>
<path d="M272.431 310.986C272.431 312.973 270.831 314.576 268.848 314.576C266.865 314.576 265.266 312.973 265.266 310.986C265.266 308.999 266.865 307.397 268.848 307.397C270.831 307.397 272.431 308.999 272.431 310.986Z" fill="white"/>
<path d="M295.059 310.986C295.059 312.839 293.559 314.325 291.726 314.325C289.893 314.325 288.394 312.823 288.394 310.986C288.394 309.15 289.893 307.647 291.726 307.647C293.559 307.647 295.059 309.15 295.059 310.986Z" fill="white"/>
<path d="M317.67 310.986C317.67 312.689 316.287 314.075 314.587 314.075C312.888 314.075 311.505 312.689 311.505 310.986C311.505 309.283 312.888 307.897 314.587 307.897C316.287 307.897 317.67 309.283 317.67 310.986Z" fill="white"/>
<path d="M340.298 310.986C340.298 312.556 339.032 313.824 337.466 313.824C335.899 313.824 334.633 312.556 334.633 310.986C334.633 309.417 335.899 308.148 337.466 308.148C339.032 308.148 340.298 309.417 340.298 310.986Z" fill="white"/>
<path d="M362.91 310.986C362.91 312.422 361.76 313.574 360.327 313.574C358.894 313.574 357.744 312.422 357.744 310.986C357.744 309.55 358.894 308.398 360.327 308.398C361.76 308.398 362.91 309.55 362.91 310.986Z" fill="white"/>
<path d="M385.521 310.986C385.521 312.272 384.488 313.323 383.188 313.323C381.889 313.323 380.855 312.288 380.855 310.986C380.855 309.684 381.889 308.649 383.188 308.649C384.488 308.649 385.521 309.701 385.521 310.986Z" fill="white"/>
<path d="M408.149 310.986C408.149 312.138 407.216 313.073 406.083 313.073C404.95 313.073 404.017 312.138 404.017 310.986C404.017 309.834 404.95 308.899 406.083 308.899C407.216 308.899 408.149 309.834 408.149 310.986Z" fill="white"/>
<path d="M430.76 310.986C430.76 311.988 429.944 312.806 428.944 312.806C427.944 312.806 427.128 311.988 427.128 310.986C427.128 309.984 427.944 309.166 428.944 309.166C429.944 309.166 430.76 309.984 430.76 310.986Z" fill="white"/>
<path d="M453.372 310.986C453.372 311.854 452.672 312.555 451.806 312.555C450.939 312.555 450.239 311.854 450.239 310.986C450.239 310.118 450.939 309.417 451.806 309.417C452.672 309.417 453.372 310.118 453.372 310.986Z" fill="white"/>
<path d="M476 310.986C476 311.721 475.417 312.305 474.684 312.305C473.95 312.305 473.367 311.721 473.367 310.986C473.367 310.252 473.95 309.667 474.684 309.667C475.417 309.667 476 310.252 476 310.986Z" fill="white"/>
<path d="M1.02618 334.36C1.02618 338.016 -1.93981 340.988 -5.58896 340.988C-9.23812 340.988 -12.2041 338.016 -12.2041 334.36C-12.2041 330.703 -9.23812 327.732 -5.58896 327.732C-1.93981 327.732 1.02618 330.703 1.02618 334.36Z" fill="white"/>
<path d="M23.6376 334.36C23.6376 337.883 20.7883 340.738 17.2724 340.738C13.7566 340.738 10.9072 337.883 10.9072 334.36C10.9072 330.837 13.7566 327.982 17.2724 327.982C20.7883 327.982 23.6376 330.837 23.6376 334.36Z" fill="white"/>
<path d="M46.2657 334.36C46.2657 337.749 43.5329 340.487 40.1504 340.487C36.7678 340.487 34.0352 337.749 34.0352 334.36C34.0352 330.971 36.7678 328.233 40.1504 328.233C43.5329 328.233 46.2657 330.971 46.2657 334.36Z" fill="white"/>
<path d="M68.8771 334.36C68.8771 337.599 66.261 340.237 63.0118 340.237C59.7625 340.237 57.1465 337.615 57.1465 334.36C57.1465 331.104 59.7625 328.483 63.0118 328.483C66.261 328.483 68.8771 331.104 68.8771 334.36Z" fill="white"/>
<path d="M91.4885 334.36C91.4885 337.465 88.9725 339.986 85.8732 339.986C82.7739 339.986 80.2578 337.465 80.2578 334.36C80.2578 331.254 82.7739 328.733 85.8732 328.733C88.9725 328.733 91.4885 331.254 91.4885 334.36Z" fill="white"/>
<path d="M114.116 334.36C114.116 337.332 111.717 339.736 108.768 339.736C105.818 339.736 103.419 337.332 103.419 334.36C103.419 331.388 105.818 329.001 108.768 329.001C111.717 329.001 114.116 331.405 114.116 334.36Z" fill="white"/>
<path d="M136.729 334.36C136.729 337.181 134.446 339.469 131.63 339.469C128.814 339.469 126.531 337.181 126.531 334.36C126.531 331.538 128.814 329.251 131.63 329.251C134.446 329.251 136.729 331.538 136.729 334.36Z" fill="white"/>
<path d="M159.34 334.36C159.34 337.048 157.174 339.218 154.491 339.218C151.809 339.218 149.643 337.048 149.643 334.36C149.643 331.672 151.809 329.502 154.491 329.502C157.174 329.502 159.34 331.672 159.34 334.36Z" fill="white"/>
<path d="M181.968 334.36C181.968 336.898 179.902 338.968 177.369 338.968C174.837 338.968 172.771 336.898 172.771 334.36C172.771 331.822 174.837 329.752 177.369 329.752C179.902 329.752 181.968 331.822 181.968 334.36Z" fill="white"/>
<path d="M204.58 334.36C204.58 336.764 202.63 338.717 200.231 338.717C197.831 338.717 195.882 336.764 195.882 334.36C195.882 331.956 197.831 330.002 200.231 330.002C202.63 330.002 204.58 331.956 204.58 334.36Z" fill="white"/>
<path d="M227.208 334.36C227.208 336.63 225.375 338.467 223.109 338.467C220.843 338.467 219.01 336.63 219.01 334.36C219.01 332.089 220.843 330.253 223.109 330.253C225.375 330.253 227.208 332.089 227.208 334.36Z" fill="white"/>
<path d="M249.819 334.36C249.819 336.48 248.103 338.217 245.97 338.217C243.837 338.217 242.138 336.497 242.138 334.36C242.138 332.223 243.854 330.503 245.97 330.503C248.086 330.503 249.819 332.223 249.819 334.36Z" fill="white"/>
<path d="M272.431 334.36C272.431 336.346 270.831 337.949 268.848 337.949C266.865 337.949 265.266 336.346 265.266 334.36C265.266 332.373 266.865 330.77 268.848 330.77C270.831 330.77 272.431 332.373 272.431 334.36Z" fill="white"/>
<path d="M295.059 334.36C295.059 336.213 293.559 337.699 291.726 337.699C289.893 337.699 288.394 336.196 288.394 334.36C288.394 332.523 289.893 331.021 291.726 331.021C293.559 331.021 295.059 332.523 295.059 334.36Z" fill="white"/>
<path d="M317.67 334.36C317.67 336.063 316.287 337.448 314.587 337.448C312.888 337.448 311.505 336.063 311.505 334.36C311.505 332.657 312.888 331.271 314.587 331.271C316.287 331.271 317.67 332.657 317.67 334.36Z" fill="white"/>
<path d="M340.298 334.36C340.298 335.929 339.032 337.198 337.466 337.198C335.899 337.198 334.633 335.929 334.633 334.36C334.633 332.79 335.899 331.522 337.466 331.522C339.032 331.522 340.298 332.79 340.298 334.36Z" fill="white"/>
<path d="M362.91 334.36C362.91 335.796 361.76 336.948 360.327 336.948C358.894 336.948 357.744 335.796 357.744 334.36C357.744 332.924 358.894 331.772 360.327 331.772C361.76 331.772 362.91 332.924 362.91 334.36Z" fill="white"/>
<path d="M385.521 334.36C385.521 335.645 384.488 336.697 383.188 336.697C381.889 336.697 380.855 335.645 380.855 334.36C380.855 333.074 381.889 332.023 383.188 332.023C384.488 332.023 385.521 333.074 385.521 334.36Z" fill="white"/>
<path d="M408.149 334.36C408.149 335.512 407.216 336.447 406.083 336.447C404.95 336.447 404.017 335.512 404.017 334.36C404.017 333.208 404.95 332.273 406.083 332.273C407.216 332.273 408.149 333.208 408.149 334.36Z" fill="white"/>
<path d="M430.76 334.36C430.76 335.362 429.944 336.18 428.944 336.18C427.944 336.18 427.128 335.362 427.128 334.36C427.128 333.358 427.944 332.54 428.944 332.54C429.944 332.54 430.76 333.358 430.76 334.36Z" fill="white"/>
<path d="M453.372 334.36C453.372 335.228 452.672 335.929 451.806 335.929C450.939 335.929 450.239 335.228 450.239 334.36C450.239 333.492 450.939 332.79 451.806 332.79C452.672 332.79 453.372 333.492 453.372 334.36Z" fill="white"/>
<path d="M476 334.36C476 335.094 475.417 335.679 474.684 335.679C473.95 335.679 473.367 335.094 473.367 334.36C473.367 333.625 473.95 333.041 474.684 333.041C475.417 333.041 476 333.625 476 334.36Z" fill="white"/>
<path d="M1.02618 357.733C1.02618 361.39 -1.93981 364.362 -5.58896 364.362C-9.23812 364.362 -12.2041 361.39 -12.2041 357.733C-12.2041 354.077 -9.23812 351.105 -5.58896 351.105C-1.93981 351.105 1.02618 354.077 1.02618 357.733Z" fill="white"/>
<path d="M23.6376 357.733C23.6376 361.256 20.7883 364.111 17.2724 364.111C13.7566 364.111 10.9072 361.256 10.9072 357.733C10.9072 354.211 13.7566 351.356 17.2724 351.356C20.7883 351.356 23.6376 354.211 23.6376 357.733Z" fill="white"/>
<path d="M46.2657 357.733C46.2657 361.123 43.5329 363.861 40.1504 363.861C36.7678 363.861 34.0352 361.123 34.0352 357.733C34.0352 354.344 36.7678 351.606 40.1504 351.606C43.5329 351.606 46.2657 354.344 46.2657 357.733Z" fill="white"/>
<path d="M68.8771 357.733C68.8771 360.972 66.261 363.61 63.0118 363.61C59.7625 363.61 57.1465 360.989 57.1465 357.733C57.1465 354.478 59.7625 351.857 63.0118 351.857C66.261 351.857 68.8771 354.478 68.8771 357.733Z" fill="white"/>
<path d="M91.4885 357.733C91.4885 360.839 88.9725 363.36 85.8732 363.36C82.7739 363.36 80.2578 360.839 80.2578 357.733C80.2578 354.628 82.7739 352.107 85.8732 352.107C88.9725 352.107 91.4885 354.628 91.4885 357.733Z" fill="white"/>
<path d="M114.116 357.733C114.116 360.705 111.717 363.109 108.768 363.109C105.818 363.109 103.419 360.705 103.419 357.733C103.419 354.762 105.818 352.374 108.768 352.374C111.717 352.374 114.116 354.778 114.116 357.733Z" fill="white"/>
<path d="M136.729 357.733C136.729 360.555 134.446 362.842 131.63 362.842C128.814 362.842 126.531 360.555 126.531 357.733C126.531 354.912 128.814 352.625 131.63 352.625C134.446 352.625 136.729 354.912 136.729 357.733Z" fill="white"/>
<path d="M159.34 357.733C159.34 360.421 157.174 362.592 154.491 362.592C151.809 362.592 149.643 360.421 149.643 357.733C149.643 355.045 151.809 352.875 154.491 352.875C157.174 352.875 159.34 355.045 159.34 357.733Z" fill="white"/>
<path d="M181.968 357.733C181.968 360.271 179.902 362.341 177.369 362.341C174.837 362.341 172.771 360.271 172.771 357.733C172.771 355.196 174.837 353.125 177.369 353.125C179.902 353.125 181.968 355.196 181.968 357.733Z" fill="white"/>
<path d="M204.58 357.733C204.58 360.137 202.63 362.091 200.231 362.091C197.831 362.091 195.882 360.137 195.882 357.733C195.882 355.329 197.831 353.376 200.231 353.376C202.63 353.376 204.58 355.329 204.58 357.733Z" fill="white"/>
<path d="M227.208 357.733C227.208 360.004 225.375 361.841 223.109 361.841C220.843 361.841 219.01 360.004 219.01 357.733C219.01 355.463 220.843 353.626 223.109 353.626C225.375 353.626 227.208 355.463 227.208 357.733Z" fill="white"/>
<path d="M249.819 357.733C249.819 359.854 248.103 361.59 245.97 361.59C243.837 361.59 242.138 359.87 242.138 357.733C242.138 355.596 243.854 353.877 245.97 353.877C248.086 353.877 249.819 355.596 249.819 357.733Z" fill="white"/>
<path d="M272.431 357.733C272.431 359.72 270.831 361.323 268.848 361.323C266.865 361.323 265.266 359.72 265.266 357.733C265.266 355.747 266.865 354.144 268.848 354.144C270.831 354.144 272.431 355.747 272.431 357.733Z" fill="white"/>
<path d="M295.059 357.733C295.059 359.587 293.559 361.073 291.726 361.073C289.893 361.073 288.394 359.57 288.394 357.733C288.394 355.897 289.893 354.394 291.726 354.394C293.559 354.394 295.059 355.897 295.059 357.733Z" fill="white"/>
<path d="M317.67 357.733C317.67 359.436 316.287 360.822 314.587 360.822C312.888 360.822 311.505 359.436 311.505 357.733C311.505 356.03 312.888 354.645 314.587 354.645C316.287 354.645 317.67 356.03 317.67 357.733Z" fill="white"/>
<path d="M340.298 357.733C340.298 359.303 339.032 360.572 337.466 360.572C335.899 360.572 334.633 359.303 334.633 357.733C334.633 356.164 335.899 354.895 337.466 354.895C339.032 354.895 340.298 356.164 340.298 357.733Z" fill="white"/>
<path d="M362.91 357.733C362.91 359.169 361.76 360.321 360.327 360.321C358.894 360.321 357.744 359.169 357.744 357.733C357.744 356.298 358.894 355.146 360.327 355.146C361.76 355.146 362.91 356.298 362.91 357.733Z" fill="white"/>
<path d="M385.521 357.733C385.521 359.019 384.488 360.071 383.188 360.071C381.889 360.071 380.855 359.019 380.855 357.733C380.855 356.448 381.889 355.396 383.188 355.396C384.488 355.396 385.521 356.448 385.521 357.733Z" fill="white"/>
<path d="M408.149 357.733C408.149 358.885 407.216 359.82 406.083 359.82C404.95 359.82 404.017 358.885 404.017 357.733C404.017 356.581 404.95 355.663 406.083 355.663C407.216 355.663 408.149 356.598 408.149 357.733Z" fill="white"/>
<path d="M430.76 357.733C430.76 358.735 429.944 359.553 428.944 359.553C427.944 359.553 427.128 358.735 427.128 357.733C427.128 356.732 427.944 355.914 428.944 355.914C429.944 355.914 430.76 356.732 430.76 357.733Z" fill="white"/>
<path d="M453.372 357.733C453.372 358.602 452.672 359.303 451.806 359.303C450.939 359.303 450.239 358.602 450.239 357.733C450.239 356.865 450.939 356.164 451.806 356.164C452.672 356.164 453.372 356.865 453.372 357.733Z" fill="white"/>
<path d="M476 357.733C476 358.468 475.417 359.052 474.684 359.052C473.95 359.052 473.367 358.468 473.367 357.733C473.367 356.999 473.95 356.414 474.684 356.414C475.417 356.414 476 356.999 476 357.733Z" fill="white"/>
<path d="M1.02618 381.107C1.02618 384.763 -1.93981 387.735 -5.58896 387.735C-9.23812 387.735 -12.2041 384.763 -12.2041 381.107C-12.2041 377.451 -9.23812 374.479 -5.58896 374.479C-1.93981 374.479 1.02618 377.451 1.02618 381.107Z" fill="white"/>
<path d="M23.6376 381.107C23.6376 384.63 20.7883 387.485 17.2724 387.485C13.7566 387.485 10.9072 384.63 10.9072 381.107C10.9072 377.584 13.7566 374.729 17.2724 374.729C20.7883 374.729 23.6376 377.584 23.6376 381.107Z" fill="white"/>
<path d="M46.2657 381.107C46.2657 384.496 43.5329 387.234 40.1504 387.234C36.7678 387.234 34.0352 384.496 34.0352 381.107C34.0352 377.718 36.7678 374.98 40.1504 374.98C43.5329 374.98 46.2657 377.718 46.2657 381.107Z" fill="white"/>
<path d="M68.8771 381.107C68.8771 384.346 66.261 386.984 63.0118 386.984C59.7625 386.984 57.1465 384.363 57.1465 381.107C57.1465 377.851 59.7625 375.23 63.0118 375.23C66.261 375.23 68.8771 377.851 68.8771 381.107Z" fill="white"/>
<path d="M91.4885 381.107C91.4885 384.212 88.9725 386.733 85.8732 386.733C82.7739 386.733 80.2578 384.212 80.2578 381.107C80.2578 378.002 82.7739 375.481 85.8732 375.481C88.9725 375.481 91.4885 378.002 91.4885 381.107Z" fill="white"/>
<path d="M114.116 381.107C114.116 384.079 111.717 386.483 108.768 386.483C105.818 386.483 103.419 384.079 103.419 381.107C103.419 378.135 105.818 375.748 108.768 375.748C111.717 375.748 114.116 378.152 114.116 381.107Z" fill="white"/>
<path d="M136.729 381.107C136.729 383.929 134.446 386.216 131.63 386.216C128.814 386.216 126.531 383.929 126.531 381.107C126.531 378.285 128.814 375.998 131.63 375.998C134.446 375.998 136.729 378.285 136.729 381.107Z" fill="white"/>
<path d="M159.34 381.107C159.34 383.795 157.174 385.965 154.491 385.965C151.809 385.965 149.643 383.795 149.643 381.107C149.643 378.419 151.809 376.249 154.491 376.249C157.174 376.249 159.34 378.419 159.34 381.107Z" fill="white"/>
<path d="M181.968 381.107C181.968 383.645 179.902 385.715 177.369 385.715C174.837 385.715 172.771 383.645 172.771 381.107C172.771 378.569 174.837 376.499 177.369 376.499C179.902 376.499 181.968 378.569 181.968 381.107Z" fill="white"/>
<path d="M204.58 381.107C204.58 383.511 202.63 385.465 200.231 385.465C197.831 385.465 195.882 383.511 195.882 381.107C195.882 378.703 197.831 376.75 200.231 376.75C202.63 376.75 204.58 378.703 204.58 381.107Z" fill="white"/>
<path d="M227.208 381.107C227.208 383.378 225.375 385.214 223.109 385.214C220.843 385.214 219.01 383.378 219.01 381.107C219.01 378.836 220.843 377 223.109 377C225.375 377 227.208 378.836 227.208 381.107Z" fill="white"/>
<path d="M249.819 381.107C249.819 383.227 248.103 384.964 245.97 384.964C243.837 384.964 242.138 383.244 242.138 381.107C242.138 378.97 243.854 377.25 245.97 377.25C248.086 377.25 249.819 378.97 249.819 381.107Z" fill="white"/>
<path d="M272.431 381.107C272.431 383.094 270.831 384.697 268.848 384.697C266.865 384.697 265.266 383.094 265.266 381.107C265.266 379.12 266.865 377.517 268.848 377.517C270.831 377.517 272.431 379.12 272.431 381.107Z" fill="white"/>
<path d="M295.059 381.107C295.059 382.96 293.559 384.446 291.726 384.446C289.893 384.446 288.394 382.943 288.394 381.107C288.394 379.27 289.893 377.768 291.726 377.768C293.559 377.768 295.059 379.27 295.059 381.107Z" fill="white"/>
<path d="M317.67 381.107C317.67 382.81 316.287 384.196 314.587 384.196C312.888 384.196 311.505 382.81 311.505 381.107C311.505 379.404 312.888 378.018 314.587 378.018C316.287 378.018 317.67 379.404 317.67 381.107Z" fill="white"/>
<path d="M340.298 381.107C340.298 382.676 339.032 383.945 337.466 383.945C335.899 383.945 334.633 382.676 334.633 381.107C334.633 379.538 335.899 378.269 337.466 378.269C339.032 378.269 340.298 379.538 340.298 381.107Z" fill="white"/>
<path d="M362.91 381.107C362.91 382.543 361.76 383.695 360.327 383.695C358.894 383.695 357.744 382.543 357.744 381.107C357.744 379.671 358.894 378.519 360.327 378.519C361.76 378.519 362.91 379.671 362.91 381.107Z" fill="white"/>
<path d="M385.521 381.107C385.521 382.393 384.488 383.444 383.188 383.444C381.889 383.444 380.855 382.393 380.855 381.107C380.855 379.821 381.889 378.77 383.188 378.77C384.488 378.77 385.521 379.821 385.521 381.107Z" fill="white"/>
<path d="M408.149 381.107C408.149 382.259 407.216 383.194 406.083 383.194C404.95 383.194 404.017 382.259 404.017 381.107C404.017 379.955 404.95 379.037 406.083 379.037C407.216 379.037 408.149 379.972 408.149 381.107Z" fill="white"/>
<path d="M430.76 381.107C430.76 382.109 429.944 382.927 428.944 382.927C427.944 382.927 427.128 382.109 427.128 381.107C427.128 380.105 427.944 379.287 428.944 379.287C429.944 379.287 430.76 380.105 430.76 381.107Z" fill="white"/>
<path d="M453.372 381.107C453.372 381.975 452.672 382.677 451.806 382.677C450.939 382.677 450.239 381.975 450.239 381.107C450.239 380.239 450.939 379.538 451.806 379.538C452.672 379.538 453.372 380.239 453.372 381.107Z" fill="white"/>
<path d="M476 381.107C476 381.842 475.417 382.426 474.684 382.426C473.95 382.426 473.367 381.842 473.367 381.107C473.367 380.372 473.95 379.788 474.684 379.788C475.417 379.788 476 380.372 476 381.107Z" fill="white"/>
<path d="M1.02618 404.481C1.02618 408.137 -1.93981 411.109 -5.58896 411.109C-9.23812 411.109 -12.2041 408.137 -12.2041 404.481C-12.2041 400.824 -9.23812 397.853 -5.58896 397.853C-1.93981 397.853 1.02618 400.824 1.02618 404.481Z" fill="white"/>
<path d="M23.6376 404.481C23.6376 408.003 20.7883 410.858 17.2724 410.858C13.7566 410.858 10.9072 408.003 10.9072 404.481C10.9072 400.958 13.7566 398.103 17.2724 398.103C20.7883 398.103 23.6376 400.958 23.6376 404.481Z" fill="white"/>
<path d="M46.2657 404.481C46.2657 407.87 43.5329 410.608 40.1504 410.608C36.7678 410.608 34.0352 407.87 34.0352 404.481C34.0352 401.092 36.7678 398.353 40.1504 398.353C43.5329 398.353 46.2657 401.092 46.2657 404.481Z" fill="white"/>
<path d="M68.8771 404.481C68.8771 407.72 66.261 410.357 63.0118 410.357C59.7625 410.357 57.1465 407.736 57.1465 404.481C57.1465 401.225 59.7625 398.604 63.0118 398.604C66.261 398.604 68.8771 401.225 68.8771 404.481Z" fill="white"/>
<path d="M91.4885 404.481C91.4885 407.586 88.9725 410.107 85.8732 410.107C82.7739 410.107 80.2578 407.586 80.2578 404.481C80.2578 401.375 82.7739 398.854 85.8732 398.854C88.9725 398.854 91.4885 401.375 91.4885 404.481Z" fill="white"/>
<path d="M114.116 404.481C114.116 407.453 111.717 409.857 108.768 409.857C105.818 409.857 103.419 407.453 103.419 404.481C103.419 401.509 105.818 399.122 108.768 399.122C111.717 399.122 114.116 401.526 114.116 404.481Z" fill="white"/>
<path d="M136.729 404.481C136.729 407.302 134.446 409.59 131.63 409.59C128.814 409.59 126.531 407.302 126.531 404.481C126.531 401.659 128.814 399.372 131.63 399.372C134.446 399.372 136.729 401.659 136.729 404.481Z" fill="white"/>
<path d="M159.34 404.481C159.34 407.169 157.174 409.339 154.491 409.339C151.809 409.339 149.643 407.169 149.643 404.481C149.643 401.793 151.809 399.622 154.491 399.622C157.174 399.622 159.34 401.793 159.34 404.481Z" fill="white"/>
<path d="M181.968 404.481C181.968 407.018 179.902 409.089 177.369 409.089C174.837 409.089 172.771 407.018 172.771 404.481C172.771 401.943 174.837 399.873 177.369 399.873C179.902 399.873 181.968 401.943 181.968 404.481Z" fill="white"/>
<path d="M204.58 404.481C204.58 406.885 202.63 408.838 200.231 408.838C197.831 408.838 195.882 406.885 195.882 404.481C195.882 402.076 197.831 400.123 200.231 400.123C202.63 400.123 204.58 402.076 204.58 404.481Z" fill="white"/>
<path d="M227.208 404.481C227.208 406.751 225.375 408.588 223.109 408.588C220.843 408.588 219.01 406.751 219.01 404.481C219.01 402.21 220.843 400.373 223.109 400.373C225.375 400.373 227.208 402.21 227.208 404.481Z" fill="white"/>
<path d="M249.819 404.481C249.819 406.601 248.103 408.337 245.97 408.337C243.837 408.337 242.138 406.618 242.138 404.481C242.138 402.344 243.854 400.624 245.97 400.624C248.086 400.624 249.819 402.344 249.819 404.481Z" fill="white"/>
<path d="M272.431 404.481C272.431 406.468 270.831 408.07 268.848 408.07C266.865 408.07 265.266 406.468 265.266 404.481C265.266 402.494 266.865 400.891 268.848 400.891C270.831 400.891 272.431 402.494 272.431 404.481Z" fill="white"/>
<path d="M295.059 404.481C295.059 406.334 293.559 407.82 291.726 407.82C289.893 407.82 288.394 406.317 288.394 404.481C288.394 402.644 289.893 401.142 291.726 401.142C293.559 401.142 295.059 402.644 295.059 404.481Z" fill="white"/>
<path d="M317.67 404.481C317.67 406.184 316.287 407.569 314.587 407.569C312.888 407.569 311.505 406.184 311.505 404.481C311.505 402.778 312.888 401.392 314.587 401.392C316.287 401.392 317.67 402.778 317.67 404.481Z" fill="white"/>
<path d="M340.298 404.481C340.298 406.05 339.032 407.319 337.466 407.319C335.899 407.319 334.633 406.05 334.633 404.481C334.633 402.911 335.899 401.642 337.466 401.642C339.032 401.642 340.298 402.911 340.298 404.481Z" fill="white"/>
<path d="M362.91 404.481C362.91 405.916 361.76 407.068 360.327 407.068C358.894 407.068 357.744 405.916 357.744 404.481C357.744 403.045 358.894 401.893 360.327 401.893C361.76 401.893 362.91 403.045 362.91 404.481Z" fill="white"/>
<path d="M385.521 404.481C385.521 405.766 384.488 406.818 383.188 406.818C381.889 406.818 380.855 405.766 380.855 404.481C380.855 403.195 381.889 402.143 383.188 402.143C384.488 402.143 385.521 403.195 385.521 404.481Z" fill="white"/>
<path d="M408.149 404.481C408.149 405.633 407.216 406.568 406.083 406.568C404.95 406.568 404.017 405.633 404.017 404.481C404.017 403.329 404.95 402.41 406.083 402.41C407.216 402.41 408.149 403.345 408.149 404.481Z" fill="white"/>
<path d="M430.76 404.481C430.76 405.482 429.944 406.301 428.944 406.301C427.944 406.301 427.128 405.482 427.128 404.481C427.128 403.479 427.944 402.661 428.944 402.661C429.944 402.661 430.76 403.479 430.76 404.481Z" fill="white"/>
<path d="M453.372 404.481C453.372 405.349 452.672 406.05 451.806 406.05C450.939 406.05 450.239 405.349 450.239 404.481C450.239 403.613 450.939 402.911 451.806 402.911C452.672 402.911 453.372 403.613 453.372 404.481Z" fill="white"/>
<path d="M476 404.481C476 405.215 475.417 405.8 474.684 405.8C473.95 405.8 473.367 405.215 473.367 404.481C473.367 403.746 473.95 403.162 474.684 403.162C475.417 403.162 476 403.746 476 404.481Z" fill="white"/>
<path d="M1.02618 427.854C1.02618 431.511 -1.93981 434.482 -5.58896 434.482C-9.23812 434.482 -12.2041 431.511 -12.2041 427.854C-12.2041 424.198 -9.23812 421.226 -5.58896 421.226C-1.93981 421.226 1.02618 424.198 1.02618 427.854Z" fill="white"/>
<path d="M23.6376 427.854C23.6376 431.377 20.7883 434.232 17.2724 434.232C13.7566 434.232 10.9072 431.377 10.9072 427.854C10.9072 424.332 13.7566 421.477 17.2724 421.477C20.7883 421.477 23.6376 424.332 23.6376 427.854Z" fill="white"/>
<path d="M46.2657 427.854C46.2657 431.243 43.5329 433.981 40.1504 433.981C36.7678 433.981 34.0352 431.243 34.0352 427.854C34.0352 424.465 36.7678 421.727 40.1504 421.727C43.5329 421.727 46.2657 424.465 46.2657 427.854Z" fill="white"/>
<path d="M68.8771 427.854C68.8771 431.093 66.261 433.731 63.0118 433.731C59.7625 433.731 57.1465 431.11 57.1465 427.854C57.1465 424.599 59.7625 421.977 63.0118 421.977C66.261 421.977 68.8771 424.599 68.8771 427.854Z" fill="white"/>
<path d="M91.4885 427.854C91.4885 430.96 88.9725 433.481 85.8732 433.481C82.7739 433.481 80.2578 430.96 80.2578 427.854C80.2578 424.749 82.7739 422.228 85.8732 422.228C88.9725 422.228 91.4885 424.749 91.4885 427.854Z" fill="white"/>
<path d="M114.116 427.854C114.116 430.826 111.717 433.23 108.768 433.23C105.818 433.23 103.419 430.826 103.419 427.854C103.419 424.882 105.818 422.495 108.768 422.495C111.717 422.495 114.116 424.899 114.116 427.854Z" fill="white"/>
<path d="M136.729 427.854C136.729 430.676 134.446 432.963 131.63 432.963C128.814 432.963 126.531 430.676 126.531 427.854C126.531 425.033 128.814 422.746 131.63 422.746C134.446 422.746 136.729 425.033 136.729 427.854Z" fill="white"/>
<path d="M159.34 427.854C159.34 430.542 157.174 432.713 154.491 432.713C151.809 432.713 149.643 430.542 149.643 427.854C149.643 425.166 151.809 422.996 154.491 422.996C157.174 422.996 159.34 425.166 159.34 427.854Z" fill="white"/>
<path d="M181.968 427.854C181.968 430.392 179.902 432.462 177.369 432.462C174.837 432.462 172.771 430.392 172.771 427.854C172.771 425.317 174.837 423.246 177.369 423.246C179.902 423.246 181.968 425.317 181.968 427.854Z" fill="white"/>
<path d="M204.58 427.854C204.58 430.259 202.63 432.212 200.231 432.212C197.831 432.212 195.882 430.259 195.882 427.854C195.882 425.45 197.831 423.497 200.231 423.497C202.63 423.497 204.58 425.45 204.58 427.854Z" fill="white"/>
<path d="M227.208 427.854C227.208 430.125 225.375 431.961 223.109 431.961C220.843 431.961 219.01 430.125 219.01 427.854C219.01 425.584 220.843 423.747 223.109 423.747C225.375 423.747 227.208 425.584 227.208 427.854Z" fill="white"/>
<path d="M249.819 427.854C249.819 429.975 248.103 431.711 245.97 431.711C243.837 431.711 242.138 429.991 242.138 427.854C242.138 425.717 243.854 423.998 245.97 423.998C248.086 423.998 249.819 425.717 249.819 427.854Z" fill="white"/>
<path d="M272.431 427.854C272.431 429.841 270.831 431.444 268.848 431.444C266.865 431.444 265.266 429.841 265.266 427.854C265.266 425.868 266.865 424.265 268.848 424.265C270.831 424.265 272.431 425.868 272.431 427.854Z" fill="white"/>
<path d="M295.059 427.854C295.059 429.707 293.559 431.193 291.726 431.193C289.893 431.193 288.394 429.691 288.394 427.854C288.394 426.018 289.893 424.515 291.726 424.515C293.559 424.515 295.059 426.018 295.059 427.854Z" fill="white"/>
<path d="M317.67 427.854C317.67 429.557 316.287 430.943 314.587 430.943C312.888 430.943 311.505 429.557 311.505 427.854C311.505 426.151 312.888 424.766 314.587 424.766C316.287 424.766 317.67 426.151 317.67 427.854Z" fill="white"/>
<path d="M340.298 427.854C340.298 429.424 339.032 430.693 337.466 430.693C335.899 430.693 334.633 429.424 334.633 427.854C334.633 426.285 335.899 425.016 337.466 425.016C339.032 425.016 340.298 426.285 340.298 427.854Z" fill="white"/>
<path d="M362.91 427.854C362.91 429.29 361.76 430.442 360.327 430.442C358.894 430.442 357.744 429.29 357.744 427.854C357.744 426.419 358.894 425.267 360.327 425.267C361.76 425.267 362.91 426.419 362.91 427.854Z" fill="white"/>
<path d="M385.521 427.854C385.521 429.14 384.488 430.192 383.188 430.192C381.889 430.192 380.855 429.14 380.855 427.854C380.855 426.569 381.889 425.517 383.188 425.517C384.488 425.517 385.521 426.569 385.521 427.854Z" fill="white"/>
<path d="M408.149 427.854C408.149 429.006 407.216 429.941 406.083 429.941C404.95 429.941 404.017 429.006 404.017 427.854C404.017 426.702 404.95 425.784 406.083 425.784C407.216 425.784 408.149 426.719 408.149 427.854Z" fill="white"/>
<path d="M430.76 427.854C430.76 428.856 429.944 429.674 428.944 429.674C427.944 429.674 427.128 428.856 427.128 427.854C427.128 426.853 427.944 426.034 428.944 426.034C429.944 426.034 430.76 426.853 430.76 427.854Z" fill="white"/>
<path d="M453.372 427.854C453.372 428.722 452.672 429.424 451.806 429.424C450.939 429.424 450.239 428.722 450.239 427.854C450.239 426.986 450.939 426.285 451.806 426.285C452.672 426.285 453.372 426.986 453.372 427.854Z" fill="white"/>
<path d="M476 427.854C476 428.589 475.417 429.173 474.684 429.173C473.95 429.173 473.367 428.589 473.367 427.854C473.367 427.12 473.95 426.535 474.684 426.535C475.417 426.535 476 427.12 476 427.854Z" fill="white"/>
</g>
<defs>
<clipPath id="clip0_672_39110">
<rect width="435" height="1081" fill="white" transform="translate(-605 435) rotate(-90)"/>
</clipPath>
</defs>
</svg>
