<svg width="233" height="741" viewBox="0 0 233 741" fill="none" xmlns="http://www.w3.org/2000/svg">
<g opacity="0.1" clip-path="url(#clip0_672_37282)">
<path d="M37.9948 4.27482C37.9948 6.74705 36.0123 8.73059 33.5413 8.73059C31.0704 8.73059 29.0879 6.74705 29.0879 4.27482C29.0879 1.80258 31.0704 -0.180916 33.5413 -0.180916C36.0123 -0.180916 37.9948 1.80258 37.9948 4.27482Z" fill="#1010E2"/>
<path d="M76.9844 4.27477C76.9844 6.48828 75.203 8.29932 72.9619 8.29932C70.7207 8.29932 68.9395 6.48828 68.9395 4.27477C68.9395 2.06126 70.7207 0.250225 72.9619 0.250225C75.203 0.250225 76.9844 2.06126 76.9844 4.27477Z" fill="#1010E2"/>
<path d="M116.003 4.27493C116.003 6.25846 114.394 7.86829 112.44 7.86829C110.486 7.86829 108.877 6.25846 108.877 4.27493C108.877 2.29139 110.486 0.71034 112.44 0.71034C114.394 0.71034 116.003 2.32014 116.003 4.27493Z" fill="#1010E2"/>
<path d="M154.992 4.27493C154.992 5.99974 153.584 7.40832 151.86 7.40833C150.136 7.40833 148.729 5.99974 148.729 4.27493C148.729 2.55011 150.136 1.14153 151.86 1.14153C153.584 1.14153 154.992 2.55011 154.992 4.27493Z" fill="#1010E2"/>
<path d="M193.982 4.27484C193.982 5.76967 192.775 6.97705 191.281 6.97705C189.787 6.97705 188.58 5.76967 188.58 4.27484C188.58 2.78 189.787 1.57262 191.281 1.57262C192.775 1.57262 193.982 2.78 193.982 4.27484Z" fill="#1010E2"/>
<path d="M233 4.27491C233 5.53978 231.994 6.5459 230.73 6.5459C229.466 6.5459 228.46 5.53978 228.46 4.27491C228.46 3.01005 229.466 2.00389 230.73 2.00389C231.994 2.00389 233 3.01005 233 4.27491Z" fill="#1010E2"/>
<path d="M37.9948 44.5205C37.9948 46.9928 36.0123 48.9763 33.5413 48.9763C31.0704 48.9763 29.0879 46.9928 29.0879 44.5205C29.0879 42.0483 31.0704 40.0648 33.5413 40.0648C36.0123 40.0648 37.9948 42.0483 37.9948 44.5205Z" fill="#1010E2"/>
<path d="M76.9844 44.5205C76.9844 46.734 75.203 48.545 72.9619 48.545C70.7207 48.545 68.9395 46.734 68.9395 44.5205C68.9395 42.307 70.7207 40.496 72.9619 40.496C75.203 40.496 76.9844 42.307 76.9844 44.5205Z" fill="#1010E2"/>
<path d="M116.003 44.5204C116.003 46.5039 114.394 48.1138 112.44 48.1138C110.486 48.1138 108.877 46.5039 108.877 44.5204C108.877 42.5369 110.486 40.9558 112.44 40.9558C114.394 40.9558 116.003 42.5656 116.003 44.5204Z" fill="#1010E2"/>
<path d="M154.992 44.5205C154.992 46.2453 153.584 47.6539 151.86 47.6539C150.136 47.6539 148.729 46.2453 148.729 44.5205C148.729 42.7957 150.136 41.3871 151.86 41.3871C153.584 41.3871 154.992 42.7957 154.992 44.5205Z" fill="#1010E2"/>
<path d="M193.982 44.5204C193.982 46.0153 192.775 47.2227 191.281 47.2227C189.787 47.2227 188.58 46.0153 188.58 44.5204C188.58 43.0256 189.787 41.8182 191.281 41.8182C192.775 41.8182 193.982 43.0256 193.982 44.5204Z" fill="#1010E2"/>
<path d="M233 44.5205C233 45.7854 231.994 46.7915 230.73 46.7915C229.466 46.7915 228.46 45.7854 228.46 44.5205C228.46 43.2557 229.466 42.2495 230.73 42.2495C231.994 42.2495 233 43.2557 233 44.5205Z" fill="#1010E2"/>
<path d="M37.9948 84.7661C37.9948 87.2384 36.0123 89.2219 33.5413 89.2219C31.0704 89.2219 29.0879 87.2384 29.0879 84.7661C29.0879 82.2939 31.0704 80.3104 33.5413 80.3104C36.0123 80.3104 37.9948 82.2939 37.9948 84.7661Z" fill="#1010E2"/>
<path d="M76.9844 84.7661C76.9844 86.9796 75.203 88.7906 72.9619 88.7906C70.7207 88.7906 68.9395 86.9796 68.9395 84.7661C68.9395 82.5526 70.7207 80.7416 72.9619 80.7416C75.203 80.7416 76.9844 82.5526 76.9844 84.7661Z" fill="#1010E2"/>
<path d="M116.003 84.7661C116.003 86.7497 114.394 88.3595 112.44 88.3595C110.486 88.3595 108.877 86.7497 108.877 84.7661C108.877 82.7826 110.486 81.2015 112.44 81.2015C114.394 81.2015 116.003 82.8113 116.003 84.7661Z" fill="#1010E2"/>
<path d="M154.992 84.7661C154.992 86.4909 153.584 87.8995 151.86 87.8995C150.136 87.8995 148.729 86.4909 148.729 84.7661C148.729 83.0413 150.136 81.6327 151.86 81.6327C153.584 81.6327 154.992 83.0413 154.992 84.7661Z" fill="#1010E2"/>
<path d="M193.982 84.766C193.982 86.2609 192.775 87.4683 191.281 87.4683C189.787 87.4683 188.58 86.2609 188.58 84.766C188.58 83.2712 189.787 82.0638 191.281 82.0638C192.775 82.0638 193.982 83.2712 193.982 84.766Z" fill="#1010E2"/>
<path d="M233 84.7661C233 86.031 231.994 87.0371 230.73 87.0371C229.466 87.0371 228.46 86.031 228.46 84.7661C228.46 83.5013 229.466 82.4951 230.73 82.4951C231.994 82.4951 233 83.5013 233 84.7661Z" fill="#1010E2"/>
<path d="M37.9948 125.012C37.9948 127.484 36.0123 129.468 33.5413 129.468C31.0704 129.468 29.0879 127.484 29.0879 125.012C29.0879 122.54 31.0704 120.556 33.5413 120.556C36.0123 120.556 37.9948 122.54 37.9948 125.012Z" fill="#1010E2"/>
<path d="M76.9844 125.012C76.9844 127.225 75.203 129.036 72.9619 129.036C70.7207 129.036 68.9395 127.225 68.9395 125.012C68.9395 122.798 70.7207 120.987 72.9619 120.987C75.203 120.987 76.9844 122.798 76.9844 125.012Z" fill="#1010E2"/>
<path d="M116.003 125.012C116.003 126.995 114.394 128.605 112.44 128.605C110.486 128.605 108.877 126.995 108.877 125.012C108.877 123.028 110.486 121.447 112.44 121.447C114.394 121.447 116.003 123.057 116.003 125.012Z" fill="#1010E2"/>
<path d="M154.992 125.012C154.992 126.737 153.584 128.145 151.86 128.145C150.136 128.145 148.729 126.737 148.729 125.012C148.729 123.287 150.136 121.878 151.86 121.878C153.584 121.878 154.992 123.287 154.992 125.012Z" fill="#1010E2"/>
<path d="M193.982 125.012C193.982 126.507 192.775 127.714 191.281 127.714C189.787 127.714 188.58 126.507 188.58 125.012C188.58 123.517 189.787 122.31 191.281 122.31C192.775 122.31 193.982 123.517 193.982 125.012Z" fill="#1010E2"/>
<path d="M233 125.012C233 126.277 231.994 127.283 230.73 127.283C229.466 127.283 228.46 126.277 228.46 125.012C228.46 123.747 229.466 122.741 230.73 122.741C231.994 122.741 233 123.747 233 125.012Z" fill="#1010E2"/>
<path d="M37.9948 165.257C37.9948 167.73 36.0123 169.713 33.5413 169.713C31.0704 169.713 29.0879 167.73 29.0879 165.257C29.0879 162.785 31.0704 160.802 33.5413 160.802C36.0123 160.802 37.9948 162.785 37.9948 165.257Z" fill="#1010E2"/>
<path d="M76.9844 165.257C76.9844 167.471 75.203 169.282 72.9619 169.282C70.7207 169.282 68.9395 167.471 68.9395 165.257C68.9395 163.044 70.7207 161.233 72.9619 161.233C75.203 161.233 76.9844 163.015 76.9844 165.257Z" fill="#1010E2"/>
<path d="M116.003 165.257C116.003 167.241 114.394 168.851 112.44 168.851C110.486 168.851 108.877 167.241 108.877 165.257C108.877 163.274 110.486 161.693 112.44 161.693C114.394 161.693 116.003 163.303 116.003 165.257Z" fill="#1010E2"/>
<path d="M154.992 165.257C154.992 166.982 153.584 168.391 151.86 168.391C150.136 168.391 148.729 166.982 148.729 165.257C148.729 163.533 150.136 162.124 151.86 162.124C153.584 162.124 154.992 163.533 154.992 165.257Z" fill="#1010E2"/>
<path d="M193.982 165.257C193.982 166.752 192.775 167.96 191.281 167.96C189.787 167.96 188.58 166.752 188.58 165.257C188.58 163.763 189.787 162.555 191.281 162.555C192.775 162.555 193.982 163.763 193.982 165.257Z" fill="#1010E2"/>
<path d="M233 165.257C233 166.522 231.994 167.528 230.73 167.528C229.466 167.528 228.46 166.522 228.46 165.257C228.46 163.992 229.466 162.986 230.73 162.986C231.994 162.986 233 163.992 233 165.257Z" fill="#1010E2"/>
<path d="M37.9948 205.503C37.9948 207.975 36.0123 209.959 33.5413 209.959C31.0704 209.959 29.0879 207.975 29.0879 205.503C29.0879 203.031 31.0704 201.047 33.5413 201.047C36.0123 201.047 37.9948 203.031 37.9948 205.503Z" fill="#1010E2"/>
<path d="M76.9844 205.503C76.9844 207.716 75.203 209.527 72.9619 209.527C70.7207 209.527 68.9395 207.716 68.9395 205.503C68.9395 203.289 70.7207 201.478 72.9619 201.478C75.203 201.478 76.9844 203.261 76.9844 205.503Z" fill="#1010E2"/>
<path d="M116.003 205.503C116.003 207.487 114.394 209.096 112.44 209.096C110.486 209.096 108.877 207.487 108.877 205.503C108.877 203.52 110.486 201.938 112.44 201.938C114.394 201.938 116.003 203.548 116.003 205.503Z" fill="#1010E2"/>
<path d="M154.992 205.503C154.992 207.228 153.584 208.636 151.86 208.636C150.136 208.636 148.729 207.228 148.729 205.503C148.729 203.778 150.136 202.37 151.86 202.37C153.584 202.37 154.992 203.778 154.992 205.503Z" fill="#1010E2"/>
<path d="M193.982 205.503C193.982 206.998 192.775 208.205 191.281 208.205C189.787 208.205 188.58 206.998 188.58 205.503C188.58 204.008 189.787 202.801 191.281 202.801C192.775 202.801 193.982 204.008 193.982 205.503Z" fill="#1010E2"/>
<path d="M233 205.503C233 206.768 231.994 207.774 230.73 207.774C229.466 207.774 228.46 206.768 228.46 205.503C228.46 204.238 229.466 203.232 230.73 203.232C231.994 203.232 233 204.238 233 205.503Z" fill="#1010E2"/>
<path d="M37.9948 245.749C37.9948 248.221 36.0123 250.204 33.5413 250.204C31.0704 250.204 29.0879 248.221 29.0879 245.749C29.0879 243.276 31.0704 241.293 33.5413 241.293C36.0123 241.293 37.9948 243.276 37.9948 245.749Z" fill="#1010E2"/>
<path d="M76.9844 245.749C76.9844 247.962 75.203 249.773 72.9619 249.773C70.7207 249.773 68.9395 247.962 68.9395 245.749C68.9395 243.535 70.7207 241.724 72.9619 241.724C75.203 241.724 76.9844 243.506 76.9844 245.749Z" fill="#1010E2"/>
<path d="M116.003 245.749C116.003 247.732 114.394 249.342 112.44 249.342C110.486 249.342 108.877 247.732 108.877 245.749C108.877 243.765 110.486 242.184 112.44 242.184C114.394 242.184 116.003 243.794 116.003 245.749Z" fill="#1010E2"/>
<path d="M154.992 245.749C154.992 247.473 153.584 248.882 151.86 248.882C150.136 248.882 148.729 247.473 148.729 245.749C148.729 244.024 150.136 242.615 151.86 242.615C153.584 242.615 154.992 244.024 154.992 245.749Z" fill="#1010E2"/>
<path d="M193.982 245.749C193.982 247.244 192.775 248.451 191.281 248.451C189.787 248.451 188.58 247.244 188.58 245.749C188.58 244.254 189.787 243.046 191.281 243.046C192.775 243.046 193.982 244.254 193.982 245.749Z" fill="#1010E2"/>
<path d="M233 245.749C233 247.014 231.994 248.02 230.73 248.02C229.466 248.02 228.46 247.014 228.46 245.749C228.46 244.484 229.466 243.478 230.73 243.478C231.994 243.478 233 244.484 233 245.749Z" fill="#1010E2"/>
<path d="M37.9948 285.994C37.9948 288.467 36.0123 290.45 33.5413 290.45C31.0704 290.45 29.0879 288.467 29.0879 285.994C29.0879 283.522 31.0704 281.539 33.5413 281.539C36.0123 281.539 37.9948 283.522 37.9948 285.994Z" fill="#1010E2"/>
<path d="M76.9844 285.994C76.9844 288.208 75.203 290.019 72.9619 290.019C70.7207 290.019 68.9395 288.208 68.9395 285.994C68.9395 283.781 70.7207 281.97 72.9619 281.97C75.203 281.97 76.9844 283.752 76.9844 285.994Z" fill="#1010E2"/>
<path d="M116.003 285.994C116.003 287.978 114.394 289.588 112.44 289.588C110.486 289.588 108.877 287.978 108.877 285.994C108.877 284.011 110.486 282.43 112.44 282.43C114.394 282.43 116.003 284.039 116.003 285.994Z" fill="#1010E2"/>
<path d="M154.992 285.994C154.992 287.719 153.584 289.128 151.86 289.128C150.136 289.128 148.729 287.719 148.729 285.994C148.729 284.269 150.136 282.861 151.86 282.861C153.584 282.861 154.992 284.269 154.992 285.994Z" fill="#1010E2"/>
<path d="M193.982 285.994C193.982 287.489 192.775 288.697 191.281 288.697C189.787 288.697 188.58 287.489 188.58 285.994C188.58 284.499 189.787 283.292 191.281 283.292C192.775 283.292 193.982 284.499 193.982 285.994Z" fill="#1010E2"/>
<path d="M233 285.994C233 287.259 231.994 288.265 230.73 288.265C229.466 288.265 228.46 287.259 228.46 285.994C228.46 284.73 229.466 283.723 230.73 283.723C231.994 283.723 233 284.73 233 285.994Z" fill="#1010E2"/>
<path d="M37.9948 326.24C37.9948 328.712 36.0123 330.696 33.5413 330.696C31.0704 330.696 29.0879 328.712 29.0879 326.24C29.0879 323.768 31.0704 321.784 33.5413 321.784C36.0123 321.784 37.9948 323.768 37.9948 326.24Z" fill="#1010E2"/>
<path d="M76.9844 326.24C76.9844 328.453 75.203 330.264 72.9619 330.264C70.7207 330.264 68.9395 328.453 68.9395 326.24C68.9395 324.026 70.7207 322.215 72.9619 322.215C75.203 322.215 76.9844 323.998 76.9844 326.24Z" fill="#1010E2"/>
<path d="M116.003 326.24C116.003 328.223 114.394 329.833 112.44 329.833C110.486 329.833 108.877 328.223 108.877 326.24C108.877 324.256 110.486 322.675 112.44 322.675C114.394 322.675 116.003 324.285 116.003 326.24Z" fill="#1010E2"/>
<path d="M154.992 326.24C154.992 327.965 153.584 329.373 151.86 329.373C150.136 329.373 148.729 327.965 148.729 326.24C148.729 324.515 150.136 323.106 151.86 323.106C153.584 323.106 154.992 324.515 154.992 326.24Z" fill="#1010E2"/>
<path d="M193.982 326.24C193.982 327.735 192.775 328.942 191.281 328.942C189.787 328.942 188.58 327.735 188.58 326.24C188.58 324.745 189.787 323.538 191.281 323.538C192.775 323.538 193.982 324.745 193.982 326.24Z" fill="#1010E2"/>
<path d="M233 326.24C233 327.505 231.994 328.511 230.73 328.511C229.466 328.511 228.46 327.505 228.46 326.24C228.46 324.975 229.466 323.969 230.73 323.969C231.994 323.969 233 324.975 233 326.24Z" fill="#1010E2"/>
<path d="M37.9948 366.486C37.9948 368.958 36.0123 370.941 33.5413 370.941C31.0704 370.941 29.0879 368.958 29.0879 366.486C29.0879 364.013 31.0704 362.03 33.5413 362.03C36.0123 362.03 37.9948 364.013 37.9948 366.486Z" fill="#1010E2"/>
<path d="M76.9844 366.486C76.9844 368.699 75.203 370.51 72.9619 370.51C70.7207 370.51 68.9395 368.728 68.9395 366.486C68.9395 364.243 70.7207 362.461 72.9619 362.461C75.203 362.461 76.9844 364.272 76.9844 366.486Z" fill="#1010E2"/>
<path d="M116.003 366.485C116.003 368.469 114.394 370.079 112.44 370.079C110.486 370.079 108.877 368.469 108.877 366.485C108.877 364.502 110.486 362.892 112.44 362.892C114.394 362.892 116.003 364.502 116.003 366.485Z" fill="#1010E2"/>
<path d="M154.992 366.486C154.992 368.21 153.584 369.619 151.86 369.619C150.136 369.619 148.729 368.21 148.729 366.486C148.729 364.761 150.136 363.352 151.86 363.352C153.584 363.352 154.992 364.761 154.992 366.486Z" fill="#1010E2"/>
<path d="M193.982 366.486C193.982 367.98 192.775 369.188 191.281 369.188C189.787 369.188 188.58 367.98 188.58 366.486C188.58 364.991 189.787 363.783 191.281 363.783C192.775 363.783 193.982 364.991 193.982 366.486Z" fill="#1010E2"/>
<path d="M233 366.486C233 367.75 231.994 368.757 230.73 368.757C229.466 368.757 228.46 367.75 228.46 366.486C228.46 365.221 229.466 364.215 230.73 364.215C231.994 364.215 233 365.221 233 366.486Z" fill="#1010E2"/>
<path d="M37.9948 406.731C37.9948 409.203 36.0123 411.187 33.5413 411.187C31.0704 411.187 29.0879 409.203 29.0879 406.731C29.0879 404.259 31.0704 402.275 33.5413 402.275C36.0123 402.275 37.9948 404.259 37.9948 406.731Z" fill="#1010E2"/>
<path d="M76.9844 406.731C76.9844 408.945 75.203 410.756 72.9619 410.756C70.7207 410.756 68.9395 408.973 68.9395 406.731C68.9395 404.489 70.7207 402.707 72.9619 402.707C75.203 402.707 76.9844 404.518 76.9844 406.731Z" fill="#1010E2"/>
<path d="M116.003 406.731C116.003 408.715 114.394 410.325 112.44 410.325C110.486 410.325 108.877 408.715 108.877 406.731C108.877 404.748 110.486 403.138 112.44 403.138C114.394 403.138 116.003 404.748 116.003 406.731Z" fill="#1010E2"/>
<path d="M154.992 406.731C154.992 408.456 153.584 409.865 151.86 409.865C150.136 409.865 148.729 408.456 148.729 406.731C148.729 405.006 150.136 403.598 151.86 403.598C153.584 403.598 154.992 405.006 154.992 406.731Z" fill="#1010E2"/>
<path d="M193.982 406.731C193.982 408.226 192.775 409.433 191.281 409.433C189.787 409.433 188.58 408.226 188.58 406.731C188.58 405.236 189.787 404.029 191.281 404.029C192.775 404.029 193.982 405.236 193.982 406.731Z" fill="#1010E2"/>
<path d="M233 406.731C233 407.996 231.994 409.002 230.73 409.002C229.466 409.002 228.46 407.996 228.46 406.731C228.46 405.466 229.466 404.46 230.73 404.46C231.994 404.46 233 405.466 233 406.731Z" fill="#1010E2"/>
<path d="M37.9948 446.977C37.9948 449.449 36.0123 451.433 33.5413 451.433C31.0704 451.433 29.0879 449.449 29.0879 446.977C29.0879 444.505 31.0704 442.521 33.5413 442.521C36.0123 442.521 37.9948 444.505 37.9948 446.977Z" fill="#1010E2"/>
<path d="M76.9844 446.977C76.9844 449.19 75.203 451.001 72.9619 451.001C70.7207 451.001 68.9395 449.219 68.9395 446.977C68.9395 444.735 70.7207 442.952 72.9619 442.952C75.203 442.952 76.9844 444.763 76.9844 446.977Z" fill="#1010E2"/>
<path d="M116.003 446.977C116.003 448.96 114.394 450.57 112.44 450.57C110.486 450.57 108.877 448.96 108.877 446.977C108.877 444.993 110.486 443.383 112.44 443.383C114.394 443.383 116.003 444.993 116.003 446.977Z" fill="#1010E2"/>
<path d="M154.992 446.977C154.992 448.702 153.584 450.11 151.86 450.11C150.136 450.11 148.729 448.702 148.729 446.977C148.729 445.252 150.136 443.843 151.86 443.843C153.584 443.843 154.992 445.252 154.992 446.977Z" fill="#1010E2"/>
<path d="M193.982 446.977C193.982 448.472 192.775 449.679 191.281 449.679C189.787 449.679 188.58 448.472 188.58 446.977C188.58 445.482 189.787 444.275 191.281 444.275C192.775 444.275 193.982 445.482 193.982 446.977Z" fill="#1010E2"/>
<path d="M233 446.977C233 448.242 231.994 449.248 230.73 449.248C229.466 449.248 228.46 448.242 228.46 446.977C228.46 445.712 229.466 444.706 230.73 444.706C231.994 444.706 233 445.712 233 446.977Z" fill="#1010E2"/>
<path d="M37.9948 487.222C37.9948 489.695 36.0123 491.678 33.5413 491.678C31.0704 491.678 29.0879 489.695 29.0879 487.222C29.0879 484.75 31.0704 482.767 33.5413 482.767C36.0123 482.767 37.9948 484.75 37.9948 487.222Z" fill="#1010E2"/>
<path d="M76.9844 487.223C76.9844 489.436 75.203 491.247 72.9619 491.247C70.7207 491.247 68.9395 489.465 68.9395 487.223C68.9395 484.98 70.7207 483.198 72.9619 483.198C75.203 483.198 76.9844 485.009 76.9844 487.223Z" fill="#1010E2"/>
<path d="M116.003 487.222C116.003 489.206 114.394 490.816 112.44 490.816C110.486 490.816 108.877 489.206 108.877 487.222C108.877 485.239 110.486 483.629 112.44 483.629C114.394 483.629 116.003 485.239 116.003 487.222Z" fill="#1010E2"/>
<path d="M154.992 487.222C154.992 488.947 153.584 490.356 151.86 490.356C150.136 490.356 148.729 488.947 148.729 487.222C148.729 485.498 150.136 484.089 151.86 484.089C153.584 484.089 154.992 485.498 154.992 487.222Z" fill="#1010E2"/>
<path d="M193.982 487.222C193.982 488.717 192.775 489.925 191.281 489.925C189.787 489.925 188.58 488.717 188.58 487.222C188.58 485.728 189.787 484.52 191.281 484.52C192.775 484.52 193.982 485.728 193.982 487.222Z" fill="#1010E2"/>
<path d="M233 487.222C233 488.487 231.994 489.493 230.73 489.493C229.466 489.493 228.46 488.487 228.46 487.222C228.46 485.958 229.466 484.951 230.73 484.951C231.994 484.951 233 485.958 233 487.222Z" fill="#1010E2"/>
<path d="M37.9948 527.468C37.9948 529.94 36.0123 531.924 33.5413 531.924C31.0704 531.924 29.0879 529.94 29.0879 527.468C29.0879 524.996 31.0704 523.012 33.5413 523.012C36.0123 523.012 37.9948 524.996 37.9948 527.468Z" fill="#1010E2"/>
<path d="M76.9844 527.468C76.9844 529.682 75.203 531.493 72.9619 531.493C70.7207 531.493 68.9395 529.71 68.9395 527.468C68.9395 525.226 70.7207 523.444 72.9619 523.444C75.203 523.444 76.9844 525.255 76.9844 527.468Z" fill="#1010E2"/>
<path d="M116.003 527.468C116.003 529.452 114.394 531.062 112.44 531.062C110.486 531.062 108.877 529.452 108.877 527.468C108.877 525.485 110.486 523.875 112.44 523.875C114.394 523.875 116.003 525.485 116.003 527.468Z" fill="#1010E2"/>
<path d="M154.992 527.468C154.992 529.193 153.584 530.602 151.86 530.602C150.136 530.602 148.729 529.193 148.729 527.468C148.729 525.743 150.136 524.335 151.86 524.335C153.584 524.335 154.992 525.743 154.992 527.468Z" fill="#1010E2"/>
<path d="M193.982 527.468C193.982 528.963 192.775 530.17 191.281 530.17C189.787 530.17 188.58 528.963 188.58 527.468C188.58 525.973 189.787 524.766 191.281 524.766C192.775 524.766 193.982 525.973 193.982 527.468Z" fill="#1010E2"/>
<path d="M233 527.468C233 528.733 231.994 529.739 230.73 529.739C229.466 529.739 228.46 528.733 228.46 527.468C228.46 526.203 229.466 525.197 230.73 525.197C231.994 525.197 233 526.203 233 527.468Z" fill="#1010E2"/>
<path d="M37.9948 567.714C37.9948 570.186 36.0123 572.17 33.5413 572.17C31.0704 572.17 29.0879 570.186 29.0879 567.714C29.0879 565.242 31.0704 563.258 33.5413 563.258C36.0123 563.258 37.9948 565.242 37.9948 567.714Z" fill="#1010E2"/>
<path d="M76.9844 567.714C76.9844 569.927 75.203 571.738 72.9619 571.738C70.7207 571.738 68.9395 569.927 68.9395 567.714C68.9395 565.5 70.7207 563.689 72.9619 563.689C75.203 563.689 76.9844 565.5 76.9844 567.714Z" fill="#1010E2"/>
<path d="M116.003 567.714C116.003 569.697 114.394 571.307 112.44 571.307C110.486 571.307 108.877 569.697 108.877 567.714C108.877 565.73 110.486 564.12 112.44 564.12C114.394 564.12 116.003 565.73 116.003 567.714Z" fill="#1010E2"/>
<path d="M154.992 567.714C154.992 569.439 153.584 570.847 151.86 570.847C150.136 570.847 148.729 569.439 148.729 567.714C148.729 565.989 150.136 564.58 151.86 564.58C153.584 564.58 154.992 565.989 154.992 567.714Z" fill="#1010E2"/>
<path d="M193.982 567.714C193.982 569.209 192.775 570.416 191.281 570.416C189.787 570.416 188.58 569.209 188.58 567.714C188.58 566.219 189.787 565.011 191.281 565.011C192.775 565.011 193.982 566.219 193.982 567.714Z" fill="#1010E2"/>
<path d="M233 567.714C233 568.979 231.994 569.985 230.73 569.985C229.466 569.985 228.46 568.979 228.46 567.714C228.46 566.449 229.466 565.443 230.73 565.443C231.994 565.443 233 566.449 233 567.714Z" fill="#1010E2"/>
<path d="M37.9948 607.959C37.9948 610.432 36.0123 612.415 33.5413 612.415C31.0704 612.415 29.0879 610.432 29.0879 607.959C29.0879 605.487 31.0704 603.504 33.5413 603.504C36.0123 603.504 37.9948 605.487 37.9948 607.959Z" fill="#1010E2"/>
<path d="M76.9844 607.959C76.9844 610.173 75.203 611.984 72.9619 611.984C70.7207 611.984 68.9395 610.173 68.9395 607.959C68.9395 605.746 70.7207 603.935 72.9619 603.935C75.203 603.935 76.9844 605.746 76.9844 607.959Z" fill="#1010E2"/>
<path d="M116.003 607.959C116.003 609.943 114.394 611.553 112.44 611.553C110.486 611.553 108.877 609.943 108.877 607.959C108.877 605.976 110.486 604.395 112.44 604.395C114.394 604.395 116.003 606.005 116.003 607.959Z" fill="#1010E2"/>
<path d="M154.992 607.959C154.992 609.684 153.584 611.093 151.86 611.093C150.136 611.093 148.729 609.684 148.729 607.959C148.729 606.235 150.136 604.826 151.86 604.826C153.584 604.826 154.992 606.235 154.992 607.959Z" fill="#1010E2"/>
<path d="M193.982 607.959C193.982 609.454 192.775 610.662 191.281 610.662C189.787 610.662 188.58 609.454 188.58 607.959C188.58 606.465 189.787 605.257 191.281 605.257C192.775 605.257 193.982 606.465 193.982 607.959Z" fill="#1010E2"/>
<path d="M233 607.959C233 609.224 231.994 610.23 230.73 610.23C229.466 610.23 228.46 609.224 228.46 607.959C228.46 606.694 229.466 605.688 230.73 605.688C231.994 605.688 233 606.694 233 607.959Z" fill="#1010E2"/>
<path d="M37.9948 648.205C37.9948 650.677 36.0123 652.661 33.5413 652.661C31.0704 652.661 29.0879 650.677 29.0879 648.205C29.0879 645.733 31.0704 643.749 33.5413 643.749C36.0123 643.749 37.9948 645.733 37.9948 648.205Z" fill="#1010E2"/>
<path d="M76.9844 648.205C76.9844 650.419 75.203 652.23 72.9619 652.23C70.7207 652.23 68.9395 650.419 68.9395 648.205C68.9395 645.992 70.7207 644.18 72.9619 644.18C75.203 644.18 76.9844 645.992 76.9844 648.205Z" fill="#1010E2"/>
<path d="M116.003 648.205C116.003 650.189 114.394 651.798 112.44 651.798C110.486 651.798 108.877 650.189 108.877 648.205C108.877 646.221 110.486 644.64 112.44 644.64C114.394 644.64 116.003 646.25 116.003 648.205Z" fill="#1010E2"/>
<path d="M154.992 648.205C154.992 649.93 153.584 651.338 151.86 651.338C150.136 651.338 148.729 649.93 148.729 648.205C148.729 646.48 150.136 645.072 151.86 645.072C153.584 645.072 154.992 646.48 154.992 648.205Z" fill="#1010E2"/>
<path d="M193.982 648.205C193.982 649.7 192.775 650.907 191.281 650.907C189.787 650.907 188.58 649.7 188.58 648.205C188.58 646.71 189.787 645.503 191.281 645.503C192.775 645.503 193.982 646.71 193.982 648.205Z" fill="#1010E2"/>
<path d="M233 648.205C233 649.47 231.994 650.476 230.73 650.476C229.466 650.476 228.46 649.47 228.46 648.205C228.46 646.94 229.466 645.934 230.73 645.934C231.994 645.934 233 646.94 233 648.205Z" fill="#1010E2"/>
<path d="M37.9948 688.451C37.9948 690.923 36.0123 692.906 33.5413 692.906C31.0704 692.906 29.0879 690.923 29.0879 688.451C29.0879 685.978 31.0704 683.995 33.5413 683.995C36.0123 683.995 37.9948 685.978 37.9948 688.451Z" fill="#1010E2"/>
<path d="M76.9844 688.451C76.9844 690.664 75.203 692.475 72.9619 692.475C70.7207 692.475 68.9395 690.664 68.9395 688.451C68.9395 686.237 70.7207 684.426 72.9619 684.426C75.203 684.426 76.9844 686.237 76.9844 688.451Z" fill="#1010E2"/>
<path d="M116.003 688.451C116.003 690.434 114.394 692.044 112.44 692.044C110.486 692.044 108.877 690.434 108.877 688.451C108.877 686.467 110.486 684.886 112.44 684.886C114.394 684.886 116.003 686.496 116.003 688.451Z" fill="#1010E2"/>
<path d="M154.992 688.451C154.992 690.175 153.584 691.584 151.86 691.584C150.136 691.584 148.729 690.175 148.729 688.451C148.729 686.726 150.136 685.317 151.86 685.317C153.584 685.317 154.992 686.726 154.992 688.451Z" fill="#1010E2"/>
<path d="M193.982 688.451C193.982 689.945 192.775 691.153 191.281 691.153C189.787 691.153 188.58 689.945 188.58 688.451C188.58 686.956 189.787 685.748 191.281 685.748C192.775 685.748 193.982 686.956 193.982 688.451Z" fill="#1010E2"/>
<path d="M233 688.451C233 689.716 231.994 690.722 230.73 690.722C229.466 690.722 228.46 689.716 228.46 688.451C228.46 687.186 229.466 686.18 230.73 686.18C231.994 686.18 233 687.186 233 688.451Z" fill="#1010E2"/>
<path d="M37.9948 728.696C37.9948 731.168 36.0123 733.152 33.5413 733.152C31.0704 733.152 29.0879 731.168 29.0879 728.696C29.0879 726.224 31.0704 724.24 33.5413 724.24C36.0123 724.24 37.9948 726.224 37.9948 728.696Z" fill="#1010E2"/>
<path d="M76.9844 728.696C76.9844 730.91 75.203 732.721 72.9619 732.721C70.7207 732.721 68.9395 730.91 68.9395 728.696C68.9395 726.483 70.7207 724.672 72.9619 724.672C75.203 724.672 76.9844 726.483 76.9844 728.696Z" fill="#1010E2"/>
<path d="M116.003 728.696C116.003 730.68 114.394 732.29 112.44 732.29C110.486 732.29 108.877 730.68 108.877 728.696C108.877 726.713 110.486 725.132 112.44 725.132C114.394 725.132 116.003 726.742 116.003 728.696Z" fill="#1010E2"/>
<path d="M154.992 728.696C154.992 730.421 153.584 731.83 151.86 731.83C150.136 731.83 148.729 730.421 148.729 728.696C148.729 726.971 150.136 725.563 151.86 725.563C153.584 725.563 154.992 726.971 154.992 728.696Z" fill="#1010E2"/>
<path d="M193.982 728.696C193.982 730.191 192.775 731.398 191.281 731.398C189.787 731.398 188.58 730.191 188.58 728.696C188.58 727.201 189.787 725.994 191.281 725.994C192.775 725.994 193.982 727.201 193.982 728.696Z" fill="#1010E2"/>
<path d="M233 728.696C233 729.961 231.994 730.967 230.73 730.967C229.466 730.967 228.46 729.961 228.46 728.696C228.46 727.431 229.466 726.425 230.73 726.425C231.994 726.425 233 727.431 233 728.696Z" fill="#1010E2"/>
</g>
<defs>
<clipPath id="clip0_672_37282">
<rect width="749" height="1864" fill="white" transform="translate(-1631 741) rotate(-90)"/>
</clipPath>
</defs>
</svg>
