<svg width="46" height="45" viewBox="0 0 46 45" fill="none" xmlns="http://www.w3.org/2000/svg">
<g id="Money box">
<g id="Group">
<g id="Group_2">
<path id="Vector" d="M37.6001 15.9C37.6001 18.1 35.8001 19.9 33.6001 19.9C32.0001 19.9 30.6001 19 30.0001 17.5L32.4001 16.5C32.6001 17 33.1001 17.3 33.6001 17.3C34.3001 17.3 34.9001 16.7 34.9001 16C34.9001 15.3 34.3001 14.7 33.6001 14.7C31.4001 14.7 29.6001 12.9 29.6001 10.7C29.6001 8.49995 31.4001 6.69995 33.6001 6.69995C35.2001 6.69995 36.6001 7.69995 37.3001 9.09995L34.9001 10.1C34.7001 9.59995 34.2001 9.29995 33.7001 9.29995C33.0001 9.29995 32.4001 9.89995 32.4001 10.6C32.4001 11.3 33.0001 11.9 33.7001 11.9C35.8001 12 37.6001 13.7 37.6001 15.9Z" fill="#1A1F33"/>
<path id="Vector_2" d="M37.1 36.1999C35.7 37.8999 34.9 39.9999 34.9 42.2999V43.5999H27V40.9999H19V43.5999H11.1V42.1999C11.1 40.7999 10.4 39.4999 9.2 38.7999C7 37.3999 5.3 35.3999 4.3 32.9999H0.5V22.4999H4.4C4.6 22.0999 4.8 21.6999 5 21.3999L2.7 14.5999H6.7C8.2 14.5999 9.7 14.9999 11.1 15.6999C12.8 14.9999 14.6 14.5999 16.4 14.5999H21.8C21.9 15.4999 22.1 16.3999 22.4 17.1999H16.4C13.3 17.1999 11.4 18.4999 11 18.6999C10.7 18.4999 9.2 17.1999 6.8 17.1999H6.4L7.9 21.6999C7.6 22.0999 7 22.9999 6.5 24.2999L6.2 25.1999H3.1V30.4999H6.2C6.4 30.8999 7.1 34.2999 10.7 36.6999C12.3 37.6999 13.3 39.2999 13.7 41.0999H16.5V38.4999H27C27.1 38.4999 29.6 38.1999 29.6 38.1999V40.9999H32.3C32.6 38.5999 33.5 36.3999 35 34.5999C37.4 31.6999 38 27.8999 37 24.6999C37.9 24.3999 38.7 24.0999 39.4 23.6999C40.8 27.6999 40.2 32.4999 37.1 36.1999Z" fill="white"/>
<path id="Vector_3" d="M11.1001 22.5H13.7001V25.1H11.1001V22.5Z" fill="white"/>
</g>
</g>
<path id="Vector_4" d="M37.6001 15.9C37.6001 18.1 35.8001 19.9 33.6001 19.9C32.0001 19.9 30.6001 19 30.0001 17.5L32.4001 16.5C32.6001 17 33.1001 17.3 33.6001 17.3C34.3001 17.3 34.9001 16.7 34.9001 16C34.9001 15.3 34.3001 14.7 33.6001 14.7C31.4001 14.7 29.6001 12.9 29.6001 10.7C29.6001 8.49995 31.4001 6.69995 33.6001 6.69995C35.2001 6.69995 36.6001 7.69995 37.3001 9.09995L34.9001 10.1C34.7001 9.59995 34.2001 9.29995 33.7001 9.29995C33.0001 9.29995 32.4001 9.89995 32.4001 10.6C32.4001 11.3 33.0001 11.9 33.7001 11.9C35.8001 12 37.6001 13.7 37.6001 15.9Z" fill="#F1C64D"/>
<path id="Vector_5" d="M41.9999 4.8999C41.6999 4.5999 41.3999 4.3999 41.1999 4.0999C39.1999 2.3999 36.4999 1.3999 33.6999 1.3999C30.8999 1.3999 28.1999 2.3999 26.1999 4.0999C25.5999 4.5999 25.0999 5.0999 24.5999 5.6999C22.8999 7.7999 21.8999 10.3999 21.8999 13.2999C21.8999 13.6999 21.8999 14.1999 21.9999 14.5999C22.0999 15.4999 22.2999 16.3999 22.5999 17.1999C22.6999 17.4999 22.7999 17.7999 22.8999 17.9999C22.9999 18.1999 23.0999 18.3999 23.1999 18.5999C23.2999 18.8999 23.4999 19.0999 23.5999 19.3999C23.6999 19.4999 23.7999 19.6999 23.8999 19.7999C23.9999 19.9999 24.0999 20.1999 24.2999 20.3999C24.4999 20.5999 24.6999 20.8999 24.7999 21.0999C24.9999 21.2999 25.0999 21.4999 25.2999 21.6999C25.3999 21.7999 25.3999 21.7999 25.4999 21.8999C25.6999 22.0999 25.8999 22.1999 26.0999 22.3999C26.2999 22.5999 26.5999 22.7999 26.7999 22.8999C26.9999 23.0999 27.2999 23.1999 27.5999 23.3999C27.8999 23.5999 28.0999 23.6999 28.3999 23.7999C28.8999 24.0999 29.4999 24.2999 30.0999 24.4999C30.5999 24.6999 31.1999 24.7999 31.7999 24.8999C31.8999 24.8999 31.9999 24.8999 31.9999 24.8999C32.1999 24.8999 32.4999 24.9999 32.7999 24.9999C32.7999 24.9999 32.8999 24.9999 32.9999 24.9999C33.2999 24.9999 33.5999 24.9999 33.7999 24.9999C33.9999 24.9999 34.1999 24.9999 34.3999 24.9999C34.4999 24.9999 34.6999 24.9999 34.7999 24.9999C34.9999 24.9999 35.2999 24.9999 35.4999 24.8999C35.4999 24.8999 35.4999 24.8999 35.5999 24.8999C35.7999 24.8999 36.0999 24.7999 36.3999 24.7999C36.6999 24.6999 36.8999 24.6999 37.1999 24.5999C38.0999 24.2999 38.8999 23.9999 39.5999 23.5999C39.7999 23.4999 40.0999 23.2999 40.2999 23.1999C40.4999 23.0999 40.6999 22.8999 40.8999 22.7999C41.0999 22.5999 41.2999 22.4999 41.4999 22.2999C41.8999 21.8999 42.2999 21.4999 42.6999 21.0999C42.7999 20.8999 42.9999 20.7999 43.0999 20.5999C43.1999 20.3999 43.3999 20.2999 43.4999 20.0999C43.9999 19.3999 44.3999 18.6999 44.6999 17.8999C44.7999 17.6999 44.8999 17.4999 44.8999 17.1999C44.9999 16.9999 45.0999 16.6999 45.0999 16.3999C45.1999 16.0999 45.1999 15.8999 45.2999 15.5999C45.2999 15.3999 45.3999 15.1999 45.3999 14.9999C45.3999 14.8999 45.3999 14.7999 45.3999 14.5999C45.3999 14.3999 45.3999 14.2999 45.4999 14.0999C45.4999 13.7999 45.4999 13.4999 45.4999 13.1999C45.4999 9.9999 44.1999 6.9999 41.9999 4.8999ZM33.5999 22.4999C28.4999 22.4999 24.3999 18.3999 24.3999 13.2999C24.3999 8.1999 28.4999 4.0999 33.5999 4.0999C38.6999 4.0999 42.7999 8.1999 42.7999 13.2999C42.8999 18.3999 38.6999 22.4999 33.5999 22.4999Z" fill="#F1C64D"/>
</g>
</svg>
