<svg width="142" height="76" viewBox="0 0 142 76" fill="none" xmlns="http://www.w3.org/2000/svg">
<g id="pl_logo_Sebrae" clip-path="url(#clip0_1245_1154)">
<g id="Group">
<path id="Vector" opacity="0.997" fill-rule="evenodd" clip-rule="evenodd" d="M54.4994 -0.0170898C69.4506 -0.0170898 84.4014 -0.0170898 99.3525 -0.0170898C98.8073 2.70926 98.2532 5.43394 97.69 8.1569C82.7388 8.19111 67.7881 8.20249 52.8369 8.19111C53.3866 5.45415 53.9408 2.7181 54.4994 -0.0170898Z" fill="#383838"/>
</g>
<g id="Group_2">
<path id="Vector_2" opacity="0.997" fill-rule="evenodd" clip-rule="evenodd" d="M51.7631 12.6719C66.7142 12.6719 81.665 12.6719 96.6162 12.6719C96.0797 15.4001 95.5255 18.1248 94.9537 20.8459C80.0025 20.8801 65.0517 20.8915 50.1006 20.8801C50.6503 18.1431 51.2044 15.407 51.7631 12.6719Z" fill="#383838"/>
</g>
<g id="Group_3">
<path id="Vector_3" opacity="0.996" fill-rule="evenodd" clip-rule="evenodd" d="M49.0957 25.7365C53.6676 25.7308 58.2395 25.7365 62.8114 25.7536C64.1466 25.8511 65.3706 26.2615 66.4828 26.9848C67.9413 28.1009 68.5246 29.5658 68.2319 31.3797C67.9011 33.3741 66.8679 34.8958 65.132 35.9455C64.0431 36.5624 62.8883 37.0183 61.6684 37.3135C62.8977 37.5047 64.0174 37.9493 65.0281 38.6473C65.8133 39.2797 66.2809 40.095 66.4308 41.0927C66.6411 43.3999 65.9369 45.3835 64.3181 47.0436C62.7075 48.6196 60.7624 49.4917 58.482 49.66C57.6992 49.7489 56.9144 49.8057 56.1268 49.831C52.0512 49.8481 47.976 49.8539 43.9004 49.8481C45.6145 41.8071 47.3463 33.7699 49.0957 25.7365ZM54.8452 30.0458C56.2539 30.0401 57.6621 30.0458 59.0708 30.0629C60.62 30.1558 61.3186 30.9596 61.1662 32.4741C60.7658 34.5056 59.5131 35.469 57.4083 35.364C56.1728 35.3924 54.9374 35.387 53.7023 35.3469C54.0964 33.5826 54.4774 31.8155 54.8452 30.0458ZM52.7671 39.6904C54.1065 39.6846 55.4455 39.6904 56.7848 39.7076C59.3167 39.8717 60.1074 41.12 59.1574 43.4525C58.6247 44.4789 57.7761 45.089 56.6116 45.2823C56.3252 45.3356 56.0367 45.3698 55.7458 45.3849C54.3489 45.402 52.9517 45.4078 51.5549 45.402C51.9632 43.4991 52.3674 41.5951 52.7671 39.6904Z" fill="#383838"/>
</g>
<g id="Group_4">
<path id="Vector_4" opacity="0.994" fill-rule="evenodd" clip-rule="evenodd" d="M-0.0175781 44.6835C-0.0175781 44.2276 -0.0175781 43.7713 -0.0175781 43.3154C0.0510963 42.8753 0.120367 42.4307 0.190235 41.9816C2.46464 41.9816 4.73903 41.9816 7.01344 41.9816C6.50593 44.1099 7.34872 45.2898 9.54184 45.5214C10.5851 45.6318 11.6011 45.518 12.5898 45.1794C13.8143 44.6496 14.4724 43.7207 14.564 42.392C14.528 41.7678 14.2279 41.3174 13.6635 41.0411C13.4291 40.9296 13.1867 40.8386 12.9361 40.7675C10.8449 40.2257 8.75527 39.6785 6.66709 39.1258C2.83098 37.9281 1.61296 35.4602 3.01304 31.7213C3.56066 30.406 4.3977 29.3058 5.52411 28.421C7.21866 27.1234 9.13515 26.3197 11.2736 26.0098C13.0682 25.7536 14.8692 25.7023 16.6768 25.8559C17.7705 25.9442 18.8326 26.1722 19.8632 26.5399C22.3658 27.5421 23.4106 29.3719 22.9978 32.0292C22.9454 32.3963 22.8819 32.7611 22.8073 33.1236C20.5213 33.1236 18.2354 33.1236 15.9494 33.1236C15.983 32.8835 16.0234 32.6441 16.0707 32.4054C16.2394 31.0442 15.6448 30.2405 14.2869 29.9942C12.9768 29.7791 11.7876 30.0527 10.7195 30.815C9.97108 31.4356 9.64204 32.2279 9.73234 33.192C9.82412 33.545 10.0146 33.8357 10.3038 34.0641C10.5367 34.2361 10.7907 34.3729 11.0658 34.4745C12.897 34.9807 14.7326 35.4708 16.5729 35.9452C17.7106 36.2396 18.7958 36.6617 19.8286 37.2106C21.1182 38.0468 21.7647 39.2325 21.7682 40.7675C21.6064 44.0535 20.0825 46.493 17.1963 48.0864C14.9905 49.198 12.6469 49.7794 10.1653 49.8307C8.47697 49.9131 6.80293 49.7989 5.14312 49.4887C3.87324 49.2547 2.73026 48.753 1.7142 47.9838C0.701242 47.1062 0.123982 46.006 -0.0175781 44.6835Z" fill="#383838"/>
</g>
<g id="Group_5">
<path id="Vector_5" opacity="0.996" fill-rule="evenodd" clip-rule="evenodd" d="M27.6567 25.8047C33.845 25.8047 40.0331 25.8047 46.2214 25.8047C45.9034 27.3449 45.5803 28.8839 45.2516 30.4218C41.3264 30.4218 37.4008 30.4218 33.4755 30.4218C33.1088 32.0844 32.7509 33.7488 32.4018 35.4151C36.0846 35.4151 39.7678 35.4151 43.4506 35.4151C43.1201 36.9552 42.7852 38.4942 42.4461 40.0322C38.7515 40.0209 35.057 40.0322 31.3627 40.0664C30.9954 41.7607 30.6259 43.4537 30.2544 45.1452C34.2722 45.1511 38.2899 45.1682 42.3076 45.1965C41.9612 46.7356 41.6149 48.2746 41.2685 49.8137C34.988 49.8591 28.7073 49.8591 22.4268 49.8137C24.1789 41.8124 25.9223 33.8095 27.6567 25.8047Z" fill="#383838"/>
</g>
<g id="Group_6">
<path id="Vector_6" opacity="0.995" fill-rule="evenodd" clip-rule="evenodd" d="M72.4741 25.8044C77.0346 25.7987 81.5947 25.8044 86.1552 25.8215C87.3882 25.7869 88.5776 25.9921 89.7226 26.4371C91.1597 27.1515 91.939 28.3086 92.0605 29.9085C92.1502 34.2086 90.0662 36.8023 85.8088 37.6892C85.4302 37.7709 85.0493 37.8393 84.6658 37.8944C84.617 37.907 84.5824 37.9354 84.5619 37.9799C85.3239 38.0148 86.0741 38.1228 86.8132 38.3048C88.1204 38.6451 88.8304 39.483 88.9433 40.8185C88.9787 41.1595 88.996 41.5015 88.9953 41.8446C88.9174 43.5095 88.8308 45.1737 88.7355 46.8379C88.7026 47.8082 88.714 48.7771 88.7702 49.745C93.749 41.8162 98.7192 33.8815 103.681 25.9412C106.486 25.907 109.292 25.8956 112.097 25.907C113.585 33.8896 115.086 41.8699 116.6 49.8476C114.014 49.8588 111.427 49.8476 108.841 49.8134C108.614 48.2302 108.394 46.6457 108.183 45.0594C104.893 45.0482 101.603 45.0594 98.3123 45.0936C97.4072 46.67 96.5067 48.2487 95.6107 49.8305C90.8424 49.8476 86.0745 49.8534 81.3062 49.8476C81.2993 49.22 81.3166 48.5927 81.3581 47.9665C81.5209 46.1429 81.6768 44.319 81.8257 42.4944C81.8455 42.0166 81.736 41.572 81.4967 41.1606C81.2719 40.8928 80.9889 40.7159 80.6481 40.6304C80.3513 40.5627 80.0513 40.5169 79.7476 40.4936C79.1588 40.4878 78.57 40.4824 77.9812 40.4765C77.3789 40.4769 76.7845 40.4995 76.1974 40.5449C75.5155 43.6449 74.8401 46.7459 74.1713 49.8476C71.8621 49.8588 69.5529 49.8476 67.2441 49.8134C68.9984 41.8124 70.7416 33.8096 72.4741 25.8044ZM78.4314 30.2505C79.7597 30.2376 81.0873 30.2547 82.4145 30.3018C82.9126 30.3267 83.3975 30.4179 83.8692 30.5754C84.6662 30.9115 85.07 31.51 85.0815 32.3709C84.9173 34.8078 83.6011 36.0445 81.133 36.0817C79.8169 36.0988 78.5007 36.1046 77.1846 36.0988C77.6002 34.1494 78.0158 32.1999 78.4314 30.2505ZM106.486 30.6267C106.521 30.6267 106.556 30.6267 106.59 30.6267C106.909 33.956 107.232 37.2849 107.56 40.6133C105.343 40.6192 103.127 40.6133 100.91 40.5962C102.792 37.2849 104.65 33.9618 106.486 30.6267Z" fill="#383838"/>
</g>
<g id="Group_7">
<path id="Vector_7" opacity="0.996" fill-rule="evenodd" clip-rule="evenodd" d="M141.85 25.8047C141.85 25.8617 141.85 25.9187 141.85 25.9757C141.517 27.4516 141.194 28.9336 140.881 30.4218C136.955 30.4218 133.03 30.4218 129.104 30.4218C128.747 32.0862 128.388 33.7506 128.031 35.4151C131.714 35.4151 135.397 35.4151 139.079 35.4151C138.763 36.9463 138.428 38.474 138.075 39.998C134.381 40.0322 130.686 40.0435 126.992 40.0322C126.625 41.7406 126.267 43.4506 125.918 45.1623C129.924 45.1623 133.93 45.1623 137.936 45.1623C137.601 46.7216 137.255 48.2777 136.897 49.8308C130.617 49.8537 124.336 49.8537 118.056 49.8308C119.814 41.8261 121.558 33.8174 123.286 25.8047C129.474 25.8047 135.662 25.8047 141.85 25.8047Z" fill="#383838"/>
</g>
<g id="Group_8">
<path id="Vector_8" opacity="0.997" fill-rule="evenodd" clip-rule="evenodd" d="M42.7924 54.8066C57.7435 54.8066 72.6943 54.8066 87.6455 54.8066C87.1003 57.5331 86.5461 60.2576 85.983 62.9806C71.0318 63.0148 56.081 63.0261 41.1299 63.0148C41.6795 60.2777 42.2337 57.5417 42.7924 54.8066Z" fill="#383838"/>
</g>
<g id="Group_9">
<path id="Vector_9" opacity="0.997" fill-rule="evenodd" clip-rule="evenodd" d="M83.2466 75.7033C68.2955 75.7033 53.3447 75.7033 38.3936 75.7033C38.9432 72.9662 39.4974 70.2302 40.0561 67.4951C55.0072 67.4951 69.958 67.4951 84.9091 67.4951C84.3681 70.2339 83.814 72.97 83.2466 75.7033Z" fill="#383838"/>
</g>
</g>
<defs>
<clipPath id="clip0_1245_1154">
<rect width="141.867" height="75.7206" fill="white"/>
</clipPath>
</defs>
</svg>
