<?xml version="1.0" encoding="UTF-8"?><svg id="Layer_2" xmlns="http://www.w3.org/2000/svg" viewBox="0 0 267.99 281.65"><defs><style>.cls-1{fill:#1010e2;}</style></defs><g id="Layer_2-2"><path class="cls-1" d="m118.6,74.63c.07-1.99,1.74-3.55,3.73-3.47,1.99.08,3.55,1.74,3.48,3.73-.07,1.99-1.74,3.55-3.73,3.48s-3.55-1.74-3.48-3.73"/><path class="cls-1" d="m118.6,74.63c.07-1.99,1.74-3.55,3.73-3.47,1.99.08,3.55,1.74,3.48,3.73-.07,1.99-1.74,3.55-3.73,3.48s-3.55-1.74-3.48-3.73"/><path class="cls-1" d="m112.4,68.31c.07-1.89,1.65-3.36,3.53-3.3,1.89.06,3.36,1.65,3.3,3.53-.06,1.89-1.66,3.36-3.53,3.3-1.88-.06-3.36-1.65-3.3-3.53"/><path class="cls-1" d="m112.4,68.31c.07-1.89,1.65-3.36,3.53-3.3,1.89.06,3.36,1.65,3.3,3.53-.06,1.89-1.66,3.36-3.53,3.3-1.88-.06-3.36-1.65-3.3-3.53"/><path class="cls-1" d="m106.35,62.06c.06-1.78,1.56-3.18,3.35-3.11,1.78.07,3.18,1.56,3.11,3.34s-1.56,3.18-3.35,3.11c-1.78-.07-3.18-1.56-3.11-3.34"/><path class="cls-1" d="m106.35,62.06c.06-1.78,1.56-3.18,3.35-3.11,1.78.07,3.18,1.56,3.11,3.34s-1.56,3.18-3.35,3.11c-1.78-.07-3.18-1.56-3.11-3.34"/><path class="cls-1" d="m100.56,55.88c.06-1.68,1.47-2.99,3.15-2.93s2.99,1.46,2.93,3.14-1.47,2.99-3.15,2.93-2.99-1.46-2.93-3.14"/><path class="cls-1" d="m100.56,55.88c.06-1.68,1.47-2.99,3.15-2.93s2.99,1.46,2.93,3.14-1.47,2.99-3.15,2.93-2.99-1.46-2.93-3.14"/><path class="cls-1" d="m95.12,49.82c.06-1.58,1.38-2.81,2.95-2.75s2.81,1.38,2.75,2.95-1.38,2.81-2.95,2.75-2.81-1.38-2.75-2.95"/><path class="cls-1" d="m95.12,49.82c.06-1.58,1.38-2.81,2.95-2.75s2.81,1.38,2.75,2.95-1.38,2.81-2.95,2.75-2.81-1.38-2.75-2.95"/><path class="cls-1" d="m90.13,43.9c.05-1.47,1.28-2.62,2.76-2.57,1.47.05,2.62,1.28,2.57,2.76-.05,1.47-1.28,2.62-2.76,2.57-1.47-.05-2.62-1.28-2.57-2.76"/><path class="cls-1" d="m90.13,43.9c.05-1.47,1.28-2.62,2.76-2.57,1.47.05,2.62,1.28,2.57,2.76-.05,1.47-1.28,2.62-2.76,2.57-1.47-.05-2.62-1.28-2.57-2.76"/><path class="cls-1" d="m85.67,38.13c.04-1.37,1.2-2.44,2.56-2.39s2.44,1.2,2.39,2.56-1.2,2.44-2.56,2.39-2.44-1.2-2.39-2.56"/><path class="cls-1" d="m85.67,38.13c.04-1.37,1.2-2.44,2.56-2.39s2.44,1.2,2.39,2.56-1.2,2.44-2.56,2.39-2.44-1.2-2.39-2.56"/><path class="cls-1" d="m81.87,32.55c.04-1.27,1.1-2.25,2.37-2.21,1.27.04,2.25,1.1,2.21,2.36-.04,1.26-1.1,2.25-2.37,2.21-1.27-.04-2.25-1.1-2.21-2.37"/><path class="cls-1" d="m81.87,32.55c.04-1.27,1.1-2.25,2.37-2.21,1.27.04,2.25,1.1,2.21,2.36-.04,1.26-1.1,2.25-2.37,2.21-1.27-.04-2.25-1.1-2.21-2.37"/><path class="cls-1" d="m78.79,27.19c.04-1.15,1.01-2.07,2.17-2.02,1.16.04,2.07,1.01,2.03,2.17s-1.02,2.07-2.17,2.02-2.07-1.02-2.03-2.17"/><path class="cls-1" d="m78.79,27.19c.04-1.15,1.01-2.07,2.17-2.02,1.16.04,2.07,1.01,2.03,2.17s-1.02,2.07-2.17,2.02-2.07-1.02-2.03-2.17"/><path class="cls-1" d="m76.56,22.06c.03-1.05.92-1.88,1.97-1.84,1.05.03,1.88.92,1.84,1.97s-.92,1.88-1.97,1.84c-1.05-.03-1.88-.92-1.84-1.97"/><path class="cls-1" d="m76.56,22.06c.03-1.05.92-1.88,1.97-1.84,1.05.03,1.88.92,1.84,1.97s-.92,1.88-1.97,1.84c-1.05-.03-1.88-.92-1.84-1.97"/><path class="cls-1" d="m75.25,17.2c.03-.95.83-1.7,1.78-1.66.96.03,1.7.83,1.66,1.78-.03.96-.84,1.7-1.78,1.66-.95-.03-1.7-.83-1.66-1.78"/><path class="cls-1" d="m75.25,17.2c.03-.95.83-1.7,1.78-1.66.96.03,1.7.83,1.66,1.78-.03.96-.84,1.7-1.78,1.66-.95-.03-1.7-.83-1.66-1.78"/><path class="cls-1" d="m74.97,12.64c.03-.84.74-1.51,1.59-1.48.84.03,1.51.74,1.48,1.59-.03.84-.74,1.51-1.59,1.48-.84-.03-1.51-.74-1.48-1.59"/><path class="cls-1" d="m74.97,12.64c.03-.84.74-1.51,1.59-1.48.84.03,1.51.74,1.48,1.59-.03.84-.74,1.51-1.59,1.48-.84-.03-1.51-.74-1.48-1.59"/><path class="cls-1" d="m75.82,8.39c.03-.74.65-1.32,1.39-1.3.74.02,1.33.65,1.3,1.39-.03.74-.65,1.32-1.39,1.3-.74-.02-1.33-.65-1.3-1.39"/><path class="cls-1" d="m75.82,8.39c.03-.74.65-1.32,1.39-1.3.74.02,1.33.65,1.3,1.39-.03.74-.65,1.32-1.39,1.3-.74-.02-1.33-.65-1.3-1.39"/><path class="cls-1" d="m77.88,4.48c.03-.64.56-1.14,1.2-1.11.64.03,1.14.56,1.12,1.2s-.56,1.14-1.2,1.11c-.64-.03-1.14-.56-1.11-1.2"/><path class="cls-1" d="m77.88,4.48c.03-.64.56-1.14,1.2-1.11.64.03,1.14.56,1.12,1.2s-.56,1.14-1.2,1.11c-.64-.03-1.14-.56-1.11-1.2"/><path class="cls-1" d="m81.26.94c.02-.53.47-.96,1-.94s.96.47.94,1-.47.96-1,.94-.96-.47-.94-1"/><path class="cls-1" d="m81.26.94c.02-.53.47-.96,1-.94s.96.47.94,1-.47.96-1,.94-.96-.47-.94-1"/><path class="cls-1" d="m113.5,81.35c-.91-2.04,0-4.44,2.05-5.35,2.04-.91,4.44,0,5.35,2.05.91,2.04,0,4.44-2.05,5.35-2.04.91-4.44,0-5.35-2.05"/><path class="cls-1" d="m113.5,81.35c-.91-2.04,0-4.44,2.05-5.35,2.04-.91,4.44,0,5.35,2.05.91,2.04,0,4.44-2.05,5.35-2.04.91-4.44,0-5.35-2.05"/><path class="cls-1" d="m104.12,78.02c-.86-1.94,0-4.2,1.95-5.07s4.21,0,5.08,1.95,0,4.2-1.95,5.07c-1.94.86-4.21,0-5.07-1.95"/><path class="cls-1" d="m104.12,78.02c-.86-1.94,0-4.2,1.95-5.07s4.21,0,5.08,1.95,0,4.2-1.95,5.07c-1.94.86-4.21,0-5.07-1.95"/><path class="cls-1" d="m94.93,74.67c-.82-1.83,0-3.97,1.84-4.79,1.83-.82,3.97,0,4.79,1.84.82,1.83,0,3.97-1.84,4.79s-3.97,0-4.79-1.84"/><path class="cls-1" d="m94.93,74.67c-.82-1.83,0-3.97,1.84-4.79,1.83-.82,3.97,0,4.79,1.84.82,1.83,0,3.97-1.84,4.79s-3.97,0-4.79-1.84"/><path class="cls-1" d="m86.03,71.29c-.77-1.72,0-3.74,1.73-4.51s3.74,0,4.51,1.73,0,3.74-1.73,4.51c-1.72.78-3.74,0-4.51-1.73"/><path class="cls-1" d="m86.03,71.29c-.77-1.72,0-3.74,1.73-4.51s3.74,0,4.51,1.73,0,3.74-1.73,4.51c-1.72.78-3.74,0-4.51-1.73"/><path class="cls-1" d="m77.55,67.85c-.72-1.62,0-3.52,1.63-4.23s3.52,0,4.23,1.63c.72,1.62,0,3.51-1.63,4.23s-3.52,0-4.23-1.63"/><path class="cls-1" d="m77.55,67.85c-.72-1.62,0-3.52,1.63-4.23s3.52,0,4.23,1.63c.72,1.62,0,3.51-1.63,4.23s-3.52,0-4.23-1.63"/><path class="cls-1" d="m69.59,64.32c-.67-1.51,0-3.28,1.52-3.95,1.51-.67,3.28,0,3.96,1.52.67,1.51,0,3.28-1.52,3.95-1.51.67-3.28,0-3.96-1.52"/><path class="cls-1" d="m69.59,64.32c-.67-1.51,0-3.28,1.52-3.95,1.51-.67,3.28,0,3.96,1.52.67,1.51,0,3.28-1.52,3.95-1.51.67-3.28,0-3.96-1.52"/><path class="cls-1" d="m62.25,60.69c-.63-1.4,0-3.05,1.41-3.67s3.05,0,3.67,1.41,0,3.05-1.41,3.67-3.05,0-3.67-1.41"/><path class="cls-1" d="m62.25,60.69c-.63-1.4,0-3.05,1.41-3.67s3.05,0,3.67,1.41,0,3.05-1.41,3.67-3.05,0-3.67-1.41"/><path class="cls-1" d="m55.66,56.93c-.58-1.29,0-2.82,1.3-3.39,1.29-.58,2.82,0,3.4,1.3.58,1.29,0,2.82-1.3,3.39-1.29.58-2.82,0-3.4-1.3"/><path class="cls-1" d="m55.66,56.93c-.58-1.29,0-2.82,1.3-3.39,1.29-.58,2.82,0,3.4,1.3.58,1.29,0,2.82-1.3,3.39-1.29.58-2.82,0-3.4-1.3"/><path class="cls-1" d="m49.91,53.03c-.53-1.19,0-2.58,1.2-3.11,1.19-.53,2.59,0,3.11,1.2.53,1.19,0,2.58-1.2,3.11s-2.59,0-3.11-1.2"/><path class="cls-1" d="m49.91,53.03c-.53-1.19,0-2.58,1.2-3.11,1.19-.53,2.59,0,3.11,1.2.53,1.19,0,2.58-1.2,3.11s-2.59,0-3.11-1.2"/><path class="cls-1" d="m45.12,48.96c-.48-1.09,0-2.35,1.09-2.83,1.08-.48,2.35,0,2.84,1.09.48,1.08,0,2.35-1.09,2.83-1.08.48-2.35,0-2.84-1.09"/><path class="cls-1" d="m45.12,48.96c-.48-1.09,0-2.35,1.09-2.83,1.08-.48,2.35,0,2.84,1.09.48,1.08,0,2.35-1.09,2.83-1.08.48-2.35,0-2.84-1.09"/><path class="cls-1" d="m41.42,44.7c-.43-.97,0-2.12.98-2.56.98-.44,2.12,0,2.56.98.44.97,0,2.12-.98,2.56-.97.44-2.12,0-2.55-.98"/><path class="cls-1" d="m41.42,44.7c-.43-.97,0-2.12.98-2.56.98-.44,2.12,0,2.56.98.44.97,0,2.12-.98,2.56-.97.44-2.12,0-2.55-.98"/><path class="cls-1" d="m38.88,40.22c-.39-.87,0-1.89.87-2.27.87-.39,1.89,0,2.28.87s0,1.89-.88,2.27-1.89,0-2.28-.87"/><path class="cls-1" d="m38.88,40.22c-.39-.87,0-1.89.87-2.27.87-.39,1.89,0,2.28.87s0,1.89-.88,2.27-1.89,0-2.28-.87"/><path class="cls-1" d="m37.64,35.51c-.34-.77,0-1.65.77-2,.77-.34,1.66,0,2,.77s0,1.65-.77,2c-.77.34-1.66,0-2-.77"/><path class="cls-1" d="m37.64,35.51c-.34-.77,0-1.65.77-2,.77-.34,1.66,0,2,.77s0,1.65-.77,2c-.77.34-1.66,0-2-.77"/><path class="cls-1" d="m37.8,30.55c-.29-.65,0-1.42.66-1.71s1.42,0,1.72.66c.29.66,0,1.42-.66,1.71s-1.42,0-1.72-.66"/><path class="cls-1" d="m37.8,30.55c-.29-.65,0-1.42.66-1.71s1.42,0,1.72.66c.29.66,0,1.42-.66,1.71s-1.42,0-1.72-.66"/><path class="cls-1" d="m39.47,25.3c-.24-.55,0-1.19.55-1.44s1.2,0,1.44.55,0,1.19-.55,1.44-1.2,0-1.44-.55"/><path class="cls-1" d="m39.47,25.3c-.24-.55,0-1.19.55-1.44s1.2,0,1.44.55,0,1.19-.55,1.44-1.2,0-1.44-.55"/><path class="cls-1" d="m111.65,90.63c-1.92-1.62-2.18-4.49-.56-6.41s4.49-2.18,6.41-.56,2.18,4.49.56,6.41-4.49,2.18-6.41.56"/><path class="cls-1" d="m111.65,90.63c-1.92-1.62-2.18-4.49-.56-6.41s4.49-2.18,6.41-.56,2.18,4.49.56,6.41-4.49,2.18-6.41.56"/><path class="cls-1" d="m100.54,91.89c-1.83-1.53-2.07-4.25-.53-6.07,1.53-1.83,4.25-2.06,6.08-.53,1.83,1.52,2.06,4.26.53,6.07s-4.26,2.07-6.08.53"/><path class="cls-1" d="m100.54,91.89c-1.83-1.53-2.07-4.25-.53-6.07,1.53-1.83,4.25-2.06,6.08-.53,1.83,1.52,2.06,4.26.53,6.07s-4.26,2.07-6.08.53"/><path class="cls-1" d="m89.61,93.04c-1.72-1.45-1.95-4.01-.5-5.74s4.02-1.95,5.75-.5,1.95,4.01.5,5.75c-1.45,1.73-4.02,1.95-5.74.5"/><path class="cls-1" d="m89.61,93.04c-1.72-1.45-1.95-4.01-.5-5.74s4.02-1.95,5.75-.5,1.95,4.01.5,5.75c-1.45,1.73-4.02,1.95-5.74.5"/><path class="cls-1" d="m78.96,94c-1.63-1.36-1.84-3.78-.47-5.41,1.36-1.63,3.78-1.84,5.41-.47,1.63,1.36,1.84,3.78.47,5.41-1.36,1.63-3.78,1.84-5.41.47"/><path class="cls-1" d="m78.96,94c-1.63-1.36-1.84-3.78-.47-5.41,1.36-1.63,3.78-1.84,5.41-.47,1.63,1.36,1.84,3.78.47,5.41-1.36,1.63-3.78,1.84-5.41.47"/><path class="cls-1" d="m68.69,94.7c-1.53-1.28-1.72-3.55-.45-5.07,1.28-1.52,3.55-1.72,5.08-.44s1.72,3.55.45,5.07-3.55,1.72-5.08.45"/><path class="cls-1" d="m68.69,94.7c-1.53-1.28-1.72-3.55-.45-5.07,1.28-1.52,3.55-1.72,5.08-.44s1.72,3.55.45,5.07-3.55,1.72-5.08.45"/><path class="cls-1" d="m58.92,95.05c-1.42-1.2-1.61-3.32-.41-4.74,1.2-1.42,3.32-1.61,4.74-.41s1.61,3.32.41,4.74-3.32,1.61-4.74.41"/><path class="cls-1" d="m58.92,95.05c-1.42-1.2-1.61-3.32-.41-4.74,1.2-1.42,3.32-1.61,4.74-.41s1.61,3.32.41,4.74-3.32,1.61-4.74.41"/><path class="cls-1" d="m49.72,95c-1.32-1.11-1.49-3.08-.39-4.4s3.09-1.49,4.41-.39,1.49,3.08.39,4.4c-1.1,1.32-3.09,1.5-4.41.39"/><path class="cls-1" d="m49.72,95c-1.32-1.11-1.49-3.08-.39-4.4s3.09-1.49,4.41-.39,1.49,3.08.39,4.4c-1.1,1.32-3.09,1.5-4.41.39"/><path class="cls-1" d="m41.21,94.45c-1.22-1.03-1.38-2.84-.35-4.07,1.03-1.22,2.85-1.38,4.07-.35s1.38,2.84.35,4.07c-1.03,1.22-2.85,1.38-4.07.35"/><path class="cls-1" d="m41.21,94.45c-1.22-1.03-1.38-2.84-.35-4.07,1.03-1.22,2.85-1.38,4.07-.35s1.38,2.84.35,4.07c-1.03,1.22-2.85,1.38-4.07.35"/><path class="cls-1" d="m33.49,93.34c-1.12-.94-1.27-2.61-.33-3.73s2.61-1.27,3.73-.33,1.27,2.61.33,3.73-2.61,1.27-3.73.33"/><path class="cls-1" d="m33.49,93.34c-1.12-.94-1.27-2.61-.33-3.73s2.61-1.27,3.73-.33,1.27,2.61.33,3.73-2.61,1.27-3.73.33"/><path class="cls-1" d="m26.64,91.58c-1.02-.85-1.16-2.38-.3-3.4.85-1.03,2.38-1.15,3.41-.29s1.16,2.38.29,3.39c-.86,1.02-2.38,1.15-3.4.3"/><path class="cls-1" d="m26.64,91.58c-1.02-.85-1.16-2.38-.3-3.4.85-1.03,2.38-1.15,3.41-.29s1.16,2.38.29,3.39c-.86,1.02-2.38,1.15-3.4.3"/><path class="cls-1" d="m20.8,89.1c-.92-.78-1.04-2.15-.27-3.06.78-.91,2.15-1.04,3.06-.27.91.78,1.04,2.15.27,3.06-.78.91-2.15,1.04-3.06.27"/><path class="cls-1" d="m20.8,89.1c-.92-.78-1.04-2.15-.27-3.06.78-.91,2.15-1.04,3.06-.27.91.78,1.04,2.15.27,3.06-.78.91-2.15,1.04-3.06.27"/><path class="cls-1" d="m16.03,85.84c-.82-.69-.93-1.91-.24-2.73s1.91-.92,2.73-.24c.83.68.93,1.9.24,2.73s-1.91.92-2.73.24"/><path class="cls-1" d="m16.03,85.84c-.82-.69-.93-1.91-.24-2.73s1.91-.92,2.73-.24c.83.68.93,1.9.24,2.73s-1.91.92-2.73.24"/><path class="cls-1" d="m12.45,81.69c-.72-.6-.81-1.67-.21-2.4.6-.73,1.67-.81,2.4-.21s.81,1.67.21,2.4-1.67.81-2.4.21"/><path class="cls-1" d="m12.45,81.69c-.72-.6-.81-1.67-.21-2.4.6-.73,1.67-.81,2.4-.21s.81,1.67.21,2.4-1.67.81-2.4.21"/><path class="cls-1" d="m10.17,76.6c-.62-.52-.7-1.44-.18-2.06s1.44-.7,2.06-.18c.62.52.7,1.44.18,2.06-.52.62-1.44.7-2.06.18"/><path class="cls-1" d="m10.17,76.6c-.62-.52-.7-1.44-.18-2.06s1.44-.7,2.06-.18c.62.52.7,1.44.18,2.06-.52.62-1.44.7-2.06.18"/><path class="cls-1" d="m9.27,70.48c-.52-.43-.59-1.21-.16-1.72s1.21-.59,1.72-.15c.52.44.59,1.21.15,1.72-.44.52-1.21.59-1.72.16"/><path class="cls-1" d="m9.27,70.48c-.52-.43-.59-1.21-.16-1.72s1.21-.59,1.72-.15c.52.44.59,1.21.15,1.72-.44.52-1.21.59-1.72.16"/><path class="cls-1" d="m114.37,100.93c-2.74-.68-4.41-3.46-3.72-6.2s3.46-4.41,6.2-3.72c2.74.69,4.41,3.45,3.72,6.2-.69,2.75-3.46,4.41-6.21,3.72"/><path class="cls-1" d="m114.37,100.93c-2.74-.68-4.41-3.46-3.72-6.2s3.46-4.41,6.2-3.72c2.74.69,4.41,3.45,3.72,6.2-.69,2.75-3.46,4.41-6.21,3.72"/><path class="cls-1" d="m103.77,107.67c-2.6-.65-4.18-3.27-3.53-5.88.65-2.6,3.28-4.18,5.88-3.53s4.18,3.28,3.53,5.88c-.65,2.59-3.28,4.18-5.88,3.53"/><path class="cls-1" d="m103.77,107.67c-2.6-.65-4.18-3.27-3.53-5.88.65-2.6,3.28-4.18,5.88-3.53s4.18,3.28,3.53,5.88c-.65,2.59-3.28,4.18-5.88,3.53"/><path class="cls-1" d="m93.29,114.21c-2.46-.61-3.95-3.1-3.34-5.56s3.1-3.95,5.55-3.33c2.45.61,3.95,3.1,3.34,5.56s-3.1,3.95-5.56,3.33"/><path class="cls-1" d="m93.29,114.21c-2.46-.61-3.95-3.1-3.34-5.56s3.1-3.95,5.55-3.33c2.45.61,3.95,3.1,3.34,5.56s-3.1,3.95-5.56,3.33"/><path class="cls-1" d="m83.01,120.42c-2.31-.58-3.72-2.92-3.15-5.23.57-2.31,2.92-3.71,5.23-3.14s3.72,2.92,3.15,5.23c-.58,2.31-2.92,3.72-5.23,3.14"/><path class="cls-1" d="m83.01,120.42c-2.31-.58-3.72-2.92-3.15-5.23.57-2.31,2.92-3.71,5.23-3.14s3.72,2.92,3.15,5.23c-.58,2.31-2.92,3.72-5.23,3.14"/><path class="cls-1" d="m72.99,126.17c-2.17-.54-3.49-2.74-2.95-4.9s2.74-3.49,4.91-2.95c2.16.54,3.49,2.74,2.95,4.9s-2.74,3.49-4.91,2.95"/><path class="cls-1" d="m72.99,126.17c-2.17-.54-3.49-2.74-2.95-4.9s2.74-3.49,4.91-2.95c2.16.54,3.49,2.74,2.95,4.9s-2.74,3.49-4.91,2.95"/><path class="cls-1" d="m63.29,131.35c-2.03-.51-3.26-2.56-2.76-4.58s2.56-3.26,4.59-2.75c2.03.51,3.26,2.56,2.76,4.58s-2.56,3.26-4.59,2.76"/><path class="cls-1" d="m63.29,131.35c-2.03-.51-3.26-2.56-2.76-4.58s2.56-3.26,4.59-2.75c2.03.51,3.26,2.56,2.76,4.58s-2.56,3.26-4.59,2.76"/><path class="cls-1" d="m53.97,135.82c-1.88-.47-3.03-2.38-2.56-4.26s2.37-3.02,4.26-2.56c1.89.47,3.03,2.38,2.56,4.26s-2.38,3.02-4.26,2.56"/><path class="cls-1" d="m53.97,135.82c-1.88-.47-3.03-2.38-2.56-4.26s2.37-3.02,4.26-2.56c1.89.47,3.03,2.38,2.56,4.26s-2.38,3.02-4.26,2.56"/><path class="cls-1" d="m45.11,139.46c-1.74-.43-2.8-2.2-2.36-3.93s2.2-2.8,3.93-2.36,2.8,2.2,2.36,3.94-2.2,2.79-3.93,2.36"/><path class="cls-1" d="m45.11,139.46c-1.74-.43-2.8-2.2-2.36-3.93s2.2-2.8,3.93-2.36,2.8,2.2,2.36,3.94-2.2,2.79-3.93,2.36"/><path class="cls-1" d="m36.76,142.14c-1.59-.4-2.57-2.02-2.17-3.61s2.02-2.57,3.61-2.17c1.59.4,2.57,2.02,2.17,3.61s-2.02,2.57-3.61,2.17"/><path class="cls-1" d="m36.76,142.14c-1.59-.4-2.57-2.02-2.17-3.61s2.02-2.57,3.61-2.17c1.59.4,2.57,2.02,2.17,3.61s-2.02,2.57-3.61,2.17"/><path class="cls-1" d="m28.99,143.72c-1.45-.36-2.34-1.84-1.97-3.28.36-1.45,1.84-2.33,3.28-1.97,1.45.36,2.34,1.84,1.97,3.28-.36,1.45-1.84,2.33-3.28,1.97"/><path class="cls-1" d="m28.99,143.72c-1.45-.36-2.34-1.84-1.97-3.28.36-1.45,1.84-2.33,3.28-1.97,1.45.36,2.34,1.84,1.97,3.28-.36,1.45-1.84,2.33-3.28,1.97"/><path class="cls-1" d="m21.86,144.1c-1.31-.33-2.11-1.65-1.78-2.96.33-1.31,1.66-2.1,2.97-1.78s2.1,1.65,1.78,2.96-1.66,2.11-2.97,1.78"/><path class="cls-1" d="m21.86,144.1c-1.31-.33-2.11-1.65-1.78-2.96.33-1.31,1.66-2.1,2.97-1.78s2.1,1.65,1.78,2.96-1.66,2.11-2.97,1.78"/><path class="cls-1" d="m15.43,143.15c-1.16-.29-1.88-1.47-1.59-2.64s1.47-1.88,2.64-1.59c1.16.29,1.88,1.47,1.59,2.64-.29,1.16-1.47,1.88-2.64,1.59"/><path class="cls-1" d="m15.43,143.15c-1.16-.29-1.88-1.47-1.59-2.64s1.47-1.88,2.64-1.59c1.16.29,1.88,1.47,1.59,2.64-.29,1.16-1.47,1.88-2.64,1.59"/><path class="cls-1" d="m9.78,140.73c-1.03-.26-1.65-1.29-1.39-2.31.26-1.02,1.29-1.65,2.32-1.39s1.65,1.29,1.39,2.32-1.29,1.65-2.31,1.39"/><path class="cls-1" d="m9.78,140.73c-1.03-.26-1.65-1.29-1.39-2.31.26-1.02,1.29-1.65,2.32-1.39s1.65,1.29,1.39,2.32-1.29,1.65-2.31,1.39"/><path class="cls-1" d="m4.96,136.7c-.88-.22-1.41-1.11-1.2-1.99.22-.88,1.11-1.41,1.99-1.2.88.22,1.41,1.11,1.2,1.99-.22.88-1.11,1.41-1.99,1.2"/><path class="cls-1" d="m4.96,136.7c-.88-.22-1.41-1.11-1.2-1.99.22-.88,1.11-1.41,1.99-1.2.88.22,1.41,1.11,1.2,1.99-.22.88-1.11,1.41-1.99,1.2"/><path class="cls-1" d="m1.04,130.97c-.74-.18-1.19-.93-1-1.66.19-.73.93-1.19,1.66-1s1.19.93,1,1.66c-.19.73-.93,1.19-1.66,1"/><path class="cls-1" d="m1.04,130.97c-.74-.18-1.19-.93-1-1.66.19-.73.93-1.19,1.66-1s1.19.93,1,1.66c-.19.73-.93,1.19-1.66,1"/><path class="cls-1" d="m122.18,109.99c-3.1.66-6.16-1.32-6.82-4.43s1.32-6.15,4.43-6.81c3.11-.66,6.16,1.33,6.82,4.43s-1.32,6.15-4.43,6.81"/><path class="cls-1" d="m122.18,109.99c-3.1.66-6.16-1.32-6.82-4.43s1.32-6.15,4.43-6.81c3.11-.66,6.16,1.33,6.82,4.43s-1.32,6.15-4.43,6.81"/><path class="cls-1" d="m114.8,122.01c-2.94.63-5.84-1.25-6.47-4.2-.63-2.95,1.25-5.83,4.2-6.46s5.84,1.25,6.47,4.2c.63,2.95-1.25,5.83-4.2,6.46"/><path class="cls-1" d="m114.8,122.01c-2.94.63-5.84-1.25-6.47-4.2-.63-2.95,1.25-5.83,4.2-6.46s5.84,1.25,6.47,4.2c.63,2.95-1.25,5.83-4.2,6.46"/><path class="cls-1" d="m107.45,133.76c-2.78.59-5.52-1.19-6.1-3.96-.59-2.77,1.19-5.51,3.97-6.1,2.78-.59,5.52,1.19,6.1,3.96.59,2.77-1.19,5.51-3.97,6.1"/><path class="cls-1" d="m107.45,133.76c-2.78.59-5.52-1.19-6.1-3.96-.59-2.77,1.19-5.51,3.97-6.1,2.78-.59,5.52,1.19,6.1,3.96.59,2.77-1.19,5.51-3.97,6.1"/><path class="cls-1" d="m100.13,145.1c-2.62.56-5.2-1.11-5.75-3.73s1.11-5.2,3.73-5.75,5.19,1.11,5.75,3.73-1.11,5.19-3.73,5.75"/><path class="cls-1" d="m100.13,145.1c-2.62.56-5.2-1.11-5.75-3.73s1.11-5.2,3.73-5.75,5.19,1.11,5.75,3.73-1.11,5.19-3.73,5.75"/><path class="cls-1" d="m92.84,155.85c-2.46.53-4.87-1.04-5.4-3.5s1.04-4.87,3.51-5.39c2.47-.53,4.87,1.04,5.4,3.5s-1.05,4.87-3.51,5.39"/><path class="cls-1" d="m92.84,155.85c-2.46.53-4.87-1.04-5.4-3.5s1.04-4.87,3.51-5.39c2.47-.53,4.87,1.04,5.4,3.5s-1.05,4.87-3.51,5.39"/><path class="cls-1" d="m85.59,165.85c-2.29.49-4.55-.97-5.03-3.27s.97-4.55,3.27-5.04c2.29-.49,4.55.97,5.03,3.27s-.97,4.55-3.27,5.03"/><path class="cls-1" d="m85.59,165.85c-2.29.49-4.55-.97-5.03-3.27s.97-4.55,3.27-5.04c2.29-.49,4.55.97,5.03,3.27s-.97,4.55-3.27,5.03"/><path class="cls-1" d="m78.39,174.95c-2.13.45-4.23-.9-4.68-3.04s.91-4.23,3.04-4.68c2.14-.45,4.23.9,4.68,3.04s-.91,4.22-3.04,4.68"/><path class="cls-1" d="m78.39,174.95c-2.13.45-4.23-.9-4.68-3.04s.91-4.23,3.04-4.68c2.14-.45,4.23.9,4.68,3.04s-.91,4.22-3.04,4.68"/><path class="cls-1" d="m71.23,182.99c-1.97.42-3.91-.84-4.33-2.81s.84-3.9,2.81-4.33c1.97-.42,3.91.84,4.33,2.81s-.84,3.9-2.81,4.33"/><path class="cls-1" d="m71.23,182.99c-1.97.42-3.91-.84-4.33-2.81s.84-3.9,2.81-4.33c1.97-.42,3.91.84,4.33,2.81s-.84,3.9-2.81,4.33"/><path class="cls-1" d="m64.12,189.8c-1.81.39-3.59-.77-3.97-2.58s.77-3.58,2.58-3.97c1.81-.39,3.59.77,3.97,2.58.39,1.81-.77,3.58-2.58,3.97"/><path class="cls-1" d="m64.12,189.8c-1.81.39-3.59-.77-3.97-2.58s.77-3.58,2.58-3.97c1.81-.39,3.59.77,3.97,2.58.39,1.81-.77,3.58-2.58,3.97"/><path class="cls-1" d="m57.05,195.24c-1.65.34-3.27-.7-3.61-2.34s.7-3.27,2.34-3.61c1.65-.34,3.27.7,3.61,2.34s-.7,3.27-2.35,3.61"/><path class="cls-1" d="m57.05,195.24c-1.65.34-3.27-.7-3.61-2.34s.7-3.27,2.34-3.61c1.65-.34,3.27.7,3.61,2.34s-.7,3.27-2.35,3.61"/><path class="cls-1" d="m50.04,199.13c-1.48.32-2.94-.63-3.26-2.11s.63-2.94,2.11-3.26c1.48-.32,2.94.63,3.26,2.11s-.63,2.94-2.11,3.26"/><path class="cls-1" d="m50.04,199.13c-1.48.32-2.94-.63-3.26-2.11s.63-2.94,2.11-3.26c1.48-.32,2.94.63,3.26,2.11s-.63,2.94-2.11,3.26"/><path class="cls-1" d="m43.08,201.32c-1.32.28-2.62-.56-2.9-1.89-.28-1.33.56-2.62,1.88-2.89,1.32-.28,2.62.56,2.91,1.88.28,1.32-.56,2.62-1.89,2.9"/><path class="cls-1" d="m43.08,201.32c-1.32.28-2.62-.56-2.9-1.89-.28-1.33.56-2.62,1.88-2.89,1.32-.28,2.62.56,2.91,1.88.28,1.32-.56,2.62-1.89,2.9"/><path class="cls-1" d="m36.18,201.66c-1.16.25-2.3-.49-2.54-1.65-.24-1.16.49-2.29,1.66-2.54,1.16-.25,2.3.49,2.55,1.65.25,1.16-.49,2.3-1.66,2.54"/><path class="cls-1" d="m36.18,201.66c-1.16.25-2.3-.49-2.54-1.65-.24-1.16.49-2.29,1.66-2.54,1.16-.25,2.3.49,2.55,1.65.25,1.16-.49,2.3-1.66,2.54"/><path class="cls-1" d="m29.33,199.97c-1,.22-1.97-.42-2.19-1.42-.22-1,.42-1.97,1.42-2.19s1.97.42,2.19,1.42c.22,1-.42,1.97-1.42,2.19"/><path class="cls-1" d="m29.33,199.97c-1,.22-1.97-.42-2.19-1.42-.22-1,.42-1.97,1.42-2.19s1.97.42,2.19,1.42c.22,1-.42,1.97-1.42,2.19"/><path class="cls-1" d="m22.55,196.11c-.84.17-1.66-.35-1.83-1.19s.35-1.65,1.19-1.84c.84-.18,1.66.35,1.83,1.19s-.35,1.65-1.19,1.84"/><path class="cls-1" d="m22.55,196.11c-.84.17-1.66-.35-1.83-1.19s.35-1.65,1.19-1.84c.84-.18,1.66.35,1.83,1.19s-.35,1.65-1.19,1.84"/><path class="cls-1" d="m134.53,115.28c-2.81,2.2-6.87,1.7-9.07-1.11-2.2-2.81-1.7-6.87,1.11-9.06,2.81-2.2,6.87-1.7,9.07,1.11s1.7,6.87-1.11,9.06"/><path class="cls-1" d="m134.53,115.28c-2.81,2.2-6.87,1.7-9.07-1.11-2.2-2.81-1.7-6.87,1.11-9.06,2.81-2.2,6.87-1.7,9.07,1.11s1.7,6.87-1.11,9.06"/><path class="cls-1" d="m133.01,131.06c-2.66,2.08-6.51,1.61-8.6-1.05-2.09-2.66-1.61-6.51,1.05-8.59s6.51-1.61,8.6,1.05c2.09,2.66,1.61,6.5-1.05,8.59"/><path class="cls-1" d="m133.01,131.06c-2.66,2.08-6.51,1.61-8.6-1.05-2.09-2.66-1.61-6.51,1.05-8.59s6.51-1.61,8.6,1.05c2.09,2.66,1.61,6.5-1.05,8.59"/><path class="cls-1" d="m131.38,146.56c-2.52,1.96-6.16,1.52-8.12-1-1.97-2.52-1.52-6.15,1-8.12s6.16-1.52,8.12,1,1.52,6.15-1,8.12"/><path class="cls-1" d="m131.38,146.56c-2.52,1.96-6.16,1.52-8.12-1-1.97-2.52-1.52-6.15,1-8.12s6.16-1.52,8.12,1,1.52,6.15-1,8.12"/><path class="cls-1" d="m129.57,161.6c-2.37,1.85-5.79,1.43-7.65-.94-1.85-2.37-1.43-5.79.94-7.64s5.79-1.43,7.65.94,1.43,5.79-.94,7.64"/><path class="cls-1" d="m129.57,161.6c-2.37,1.85-5.79,1.43-7.65-.94-1.85-2.37-1.43-5.79.94-7.64s5.79-1.43,7.65.94,1.43,5.79-.94,7.64"/><path class="cls-1" d="m127.51,176.04c-2.22,1.74-5.44,1.34-7.17-.88-1.73-2.22-1.34-5.44.88-7.17,2.22-1.73,5.44-1.34,7.17.88,1.73,2.22,1.34,5.43-.88,7.17"/><path class="cls-1" d="m127.51,176.04c-2.22,1.74-5.44,1.34-7.17-.88-1.73-2.22-1.34-5.44.88-7.17,2.22-1.73,5.44-1.34,7.17.88,1.73,2.22,1.34,5.43-.88,7.17"/><path class="cls-1" d="m125.12,189.71c-2.08,1.62-5.08,1.26-6.7-.82s-1.26-5.07.83-6.69c2.09-1.62,5.08-1.25,6.7.82s1.25,5.07-.83,6.69"/><path class="cls-1" d="m125.12,189.71c-2.08,1.62-5.08,1.26-6.7-.82s-1.26-5.07.83-6.69c2.09-1.62,5.08-1.25,6.7.82s1.25,5.07-.83,6.69"/><path class="cls-1" d="m122.34,202.45c-1.93,1.51-4.72,1.16-6.22-.77-1.51-1.93-1.16-4.71.77-6.22s4.72-1.16,6.22.77c1.51,1.93,1.16,4.71-.77,6.22"/><path class="cls-1" d="m122.34,202.45c-1.93,1.51-4.72,1.16-6.22-.77-1.51-1.93-1.16-4.71.77-6.22s4.72-1.16,6.22.77c1.51,1.93,1.16,4.71-.77,6.22"/><path class="cls-1" d="m119.06,214.09c-1.78,1.4-4.35,1.08-5.75-.71-1.4-1.78-1.08-4.36.71-5.75,1.78-1.39,4.36-1.08,5.75.71,1.39,1.78,1.08,4.35-.71,5.75"/><path class="cls-1" d="m119.06,214.09c-1.78,1.4-4.35,1.08-5.75-.71-1.4-1.78-1.08-4.36.71-5.75,1.78-1.39,4.36-1.08,5.75.71,1.39,1.78,1.08,4.35-.71,5.75"/><path class="cls-1" d="m115.24,224.47c-1.64,1.28-4,.99-5.28-.65s-.99-4,.65-5.27c1.64-1.28,4-.99,5.28.65s.99,4-.65,5.27"/><path class="cls-1" d="m115.24,224.47c-1.64,1.28-4,.99-5.28-.65s-.99-4,.65-5.27c1.64-1.28,4-.99,5.28.65s.99,4-.65,5.27"/><path class="cls-1" d="m110.78,233.44c-1.49,1.16-3.64.9-4.81-.59-1.17-1.48-.9-3.64.59-4.8s3.64-.9,4.8.59c1.16,1.48.9,3.64-.59,4.81"/><path class="cls-1" d="m110.78,233.44c-1.49,1.16-3.64.9-4.81-.59-1.17-1.48-.9-3.64.59-4.8s3.64-.9,4.8.59c1.16,1.48.9,3.64-.59,4.81"/><path class="cls-1" d="m105.62,240.82c-1.34,1.05-3.28.81-4.33-.53s-.81-3.28.53-4.32c1.34-1.04,3.28-.81,4.33.53,1.04,1.34.81,3.28-.53,4.33"/><path class="cls-1" d="m105.62,240.82c-1.34,1.05-3.28.81-4.33-.53s-.81-3.28.53-4.32c1.34-1.04,3.28-.81,4.33.53,1.04,1.34.81,3.28-.53,4.33"/><path class="cls-1" d="m99.67,246.46c-1.2.93-2.92.72-3.85-.47-.93-1.2-.72-2.92.47-3.85,1.2-.93,2.92-.72,3.86.47.94,1.2.72,2.92-.47,3.86"/><path class="cls-1" d="m99.67,246.46c-1.2.93-2.92.72-3.85-.47-.93-1.2-.72-2.92.47-3.85,1.2-.93,2.92-.72,3.86.47.94,1.2.72,2.92-.47,3.86"/><path class="cls-1" d="m92.86,250.2c-1.05.82-2.56.63-3.39-.41-.83-1.04-.63-2.57.41-3.39,1.04-.82,2.56-.63,3.39.41.83,1.04.64,2.56-.41,3.39"/><path class="cls-1" d="m92.86,250.2c-1.05.82-2.56.63-3.39-.41-.83-1.04-.63-2.57.41-3.39,1.04-.82,2.56-.63,3.39.41.83,1.04.64,2.56-.41,3.39"/><path class="cls-1" d="m85.12,251.87c-.91.71-2.21.54-2.91-.35-.71-.9-.54-2.21.35-2.91s2.21-.54,2.91.36c.71.9.54,2.21-.36,2.91"/><path class="cls-1" d="m85.12,251.87c-.91.71-2.21.54-2.91-.35-.71-.9-.54-2.21.35-2.91s2.21-.54,2.91.36c.71.9.54,2.21-.36,2.91"/><path class="cls-1" d="m76.37,251.3c-.76.59-1.84.46-2.44-.3s-.46-1.84.3-2.44c.76-.59,1.84-.46,2.44.3.59.76.46,1.84-.3,2.44"/><path class="cls-1" d="m76.37,251.3c-.76.59-1.84.46-2.44-.3s-.46-1.84.3-2.44c.76-.59,1.84-.46,2.44.3.59.76.46,1.84-.3,2.44"/><path class="cls-1" d="m149.63,114.55c-1.76,3.6-6.1,5.1-9.71,3.34-3.6-1.76-5.1-6.1-3.34-9.7,1.75-3.6,6.1-5.1,9.71-3.34,3.6,1.76,5.1,6.1,3.35,9.7"/><path class="cls-1" d="m149.63,114.55c-1.76,3.6-6.1,5.1-9.71,3.34-3.6-1.76-5.1-6.1-3.34-9.7,1.75-3.6,6.1-5.1,9.71-3.34,3.6,1.76,5.1,6.1,3.35,9.7"/><path class="cls-1" d="m155.86,131.24c-1.66,3.41-5.78,4.83-9.2,3.16s-4.84-5.78-3.16-9.19c1.67-3.41,5.78-4.83,9.2-3.16,3.41,1.67,4.84,5.78,3.16,9.19"/><path class="cls-1" d="m155.86,131.24c-1.66,3.41-5.78,4.83-9.2,3.16s-4.84-5.78-3.16-9.19c1.67-3.41,5.78-4.83,9.2-3.16,3.41,1.67,4.84,5.78,3.16,9.19"/><path class="cls-1" d="m161.85,147.7c-1.58,3.22-5.47,4.57-8.69,2.99s-4.57-5.46-2.99-8.68,5.47-4.57,8.69-2.99,4.57,5.46,2.99,8.68"/><path class="cls-1" d="m161.85,147.7c-1.58,3.22-5.47,4.57-8.69,2.99s-4.57-5.46-2.99-8.68,5.47-4.57,8.69-2.99,4.57,5.46,2.99,8.68"/><path class="cls-1" d="m167.44,163.78c-1.48,3.03-5.15,4.3-8.18,2.82s-4.3-5.14-2.82-8.18,5.15-4.3,8.18-2.82,4.3,5.14,2.82,8.18"/><path class="cls-1" d="m167.44,163.78c-1.48,3.03-5.15,4.3-8.18,2.82s-4.3-5.14-2.82-8.18,5.15-4.3,8.18-2.82,4.3,5.14,2.82,8.18"/><path class="cls-1" d="m172.48,179.38c-1.39,2.85-4.83,4.03-7.68,2.64-2.85-1.39-4.03-4.82-2.65-7.68,1.39-2.85,4.83-4.03,7.68-2.64,2.85,1.39,4.03,4.82,2.65,7.68"/><path class="cls-1" d="m172.48,179.38c-1.39,2.85-4.83,4.03-7.68,2.64-2.85-1.39-4.03-4.82-2.65-7.68,1.39-2.85,4.83-4.03,7.68-2.64,2.85,1.39,4.03,4.82,2.65,7.68"/><path class="cls-1" d="m176.8,194.35c-1.3,2.66-4.51,3.76-7.17,2.46s-3.77-4.51-2.47-7.17,4.51-3.76,7.17-2.46c2.66,1.3,3.77,4.51,2.47,7.17"/><path class="cls-1" d="m176.8,194.35c-1.3,2.66-4.51,3.76-7.17,2.46s-3.77-4.51-2.47-7.17,4.51-3.76,7.17-2.46c2.66,1.3,3.77,4.51,2.47,7.17"/><path class="cls-1" d="m180.26,208.58c-1.21,2.47-4.19,3.5-6.66,2.29s-3.5-4.19-2.29-6.66,4.19-3.5,6.66-2.29,3.5,4.19,2.29,6.66"/><path class="cls-1" d="m180.26,208.58c-1.21,2.47-4.19,3.5-6.66,2.29s-3.5-4.19-2.29-6.66,4.19-3.5,6.66-2.29,3.5,4.19,2.29,6.66"/><path class="cls-1" d="m182.7,221.95c-1.11,2.28-3.87,3.23-6.16,2.12-2.28-1.11-3.23-3.87-2.12-6.15s3.87-3.23,6.16-2.12c2.28,1.11,3.23,3.87,2.12,6.15"/><path class="cls-1" d="m182.7,221.95c-1.11,2.28-3.87,3.23-6.16,2.12-2.28-1.11-3.23-3.87-2.12-6.15s3.87-3.23,6.16-2.12c2.28,1.11,3.23,3.87,2.12,6.15"/><path class="cls-1" d="m183.95,234.33c-1.03,2.09-3.55,2.96-5.65,1.95s-2.97-3.55-1.95-5.64,3.55-2.96,5.65-1.95,2.97,3.55,1.95,5.64"/><path class="cls-1" d="m183.95,234.33c-1.03,2.09-3.55,2.96-5.65,1.95s-2.97-3.55-1.95-5.64,3.55-2.96,5.65-1.95,2.97,3.55,1.95,5.64"/><path class="cls-1" d="m183.87,245.57c-.93,1.9-3.23,2.7-5.15,1.77-1.91-.93-2.7-3.23-1.77-5.14s3.23-2.71,5.14-1.77,2.71,3.23,1.77,5.14"/><path class="cls-1" d="m183.87,245.57c-.93,1.9-3.23,2.7-5.15,1.77-1.91-.93-2.7-3.23-1.77-5.14s3.23-2.71,5.14-1.77,2.71,3.23,1.77,5.14"/><path class="cls-1" d="m182.3,255.56c-.84,1.72-2.91,2.44-4.64,1.59s-2.44-2.91-1.59-4.64c.84-1.72,2.91-2.44,4.64-1.59s2.44,2.91,1.59,4.64"/><path class="cls-1" d="m182.3,255.56c-.84,1.72-2.91,2.44-4.64,1.59s-2.44-2.91-1.59-4.64c.84-1.72,2.91-2.44,4.64-1.59s2.44,2.91,1.59,4.64"/><path class="cls-1" d="m179.06,264.19c-.75,1.53-2.59,2.17-4.13,1.42-1.53-.75-2.17-2.59-1.42-4.13.75-1.53,2.59-2.17,4.13-1.42,1.53.75,2.17,2.59,1.42,4.13"/><path class="cls-1" d="m179.06,264.19c-.75,1.53-2.59,2.17-4.13,1.42-1.53-.75-2.17-2.59-1.42-4.13.75-1.53,2.59-2.17,4.13-1.42,1.53.75,2.17,2.59,1.42,4.13"/><path class="cls-1" d="m174.04,271.31c-.66,1.34-2.28,1.9-3.62,1.25s-1.91-2.27-1.25-3.62,2.28-1.9,3.62-1.25,1.91,2.27,1.25,3.62"/><path class="cls-1" d="m174.04,271.31c-.66,1.34-2.28,1.9-3.62,1.25s-1.91-2.27-1.25-3.62,2.28-1.9,3.62-1.25,1.91,2.27,1.25,3.62"/><path class="cls-1" d="m167.04,276.81c-.56,1.15-1.96,1.64-3.11,1.07-1.16-.57-1.64-1.96-1.07-3.11.57-1.15,1.96-1.64,3.11-1.08,1.16.56,1.64,1.96,1.07,3.11"/><path class="cls-1" d="m167.04,276.81c-.56,1.15-1.96,1.64-3.11,1.07-1.16-.57-1.64-1.96-1.07-3.11.57-1.15,1.96-1.64,3.11-1.08,1.16.56,1.64,1.96,1.07,3.11"/><path class="cls-1" d="m157.92,280.55c-.47.96-1.64,1.37-2.61.9s-1.37-1.64-.9-2.61c.47-.97,1.64-1.37,2.61-.9s1.37,1.64.9,2.6"/><path class="cls-1" d="m157.92,280.55c-.47.96-1.64,1.37-2.61.9s-1.37-1.64-.9-2.61c.47-.97,1.64-1.37,2.61-.9s1.37,1.64.9,2.6"/><path class="cls-1" d="m164.51,106.39c0,4.51-3.65,8.15-8.16,8.15s-8.16-3.64-8.16-8.15,3.66-8.15,8.16-8.15,8.16,3.65,8.16,8.15"/><path class="cls-1" d="m164.51,106.39c0,4.51-3.65,8.15-8.16,8.15s-8.16-3.64-8.16-8.15,3.66-8.15,8.16-8.15,8.16,3.65,8.16,8.15"/><path class="cls-1" d="m179.03,120.18c0,4.26-3.47,7.73-7.73,7.73s-7.73-3.46-7.73-7.73,3.47-7.73,7.73-7.73,7.73,3.46,7.73,7.73"/><path class="cls-1" d="m179.03,120.18c0,4.26-3.47,7.73-7.73,7.73s-7.73-3.46-7.73-7.73,3.47-7.73,7.73-7.73,7.73,3.46,7.73,7.73"/><path class="cls-1" d="m193.19,133.84c0,4.03-3.27,7.3-7.3,7.3s-7.3-3.27-7.3-7.3,3.27-7.3,7.3-7.3,7.3,3.27,7.3,7.3"/><path class="cls-1" d="m193.19,133.84c0,4.03-3.27,7.3-7.3,7.3s-7.3-3.27-7.3-7.3,3.27-7.3,7.3-7.3,7.3,3.27,7.3,7.3"/><path class="cls-1" d="m206.75,147.33c0,3.8-3.08,6.88-6.88,6.88s-6.88-3.08-6.88-6.88,3.08-6.88,6.88-6.88,6.88,3.08,6.88,6.88"/><path class="cls-1" d="m206.75,147.33c0,3.8-3.08,6.88-6.88,6.88s-6.88-3.08-6.88-6.88,3.08-6.88,6.88-6.88,6.88,3.08,6.88,6.88"/><path class="cls-1" d="m219.53,160.6c0,3.56-2.89,6.44-6.45,6.44s-6.45-2.89-6.45-6.44,2.89-6.44,6.45-6.44,6.45,2.89,6.45,6.44"/><path class="cls-1" d="m219.53,160.6c0,3.56-2.89,6.44-6.45,6.44s-6.45-2.89-6.45-6.44,2.89-6.44,6.45-6.44,6.45,2.89,6.45,6.44"/><path class="cls-1" d="m231.28,173.59c0,3.33-2.7,6.02-6.03,6.02s-6.03-2.7-6.03-6.02,2.7-6.02,6.03-6.02,6.03,2.7,6.03,6.02"/><path class="cls-1" d="m231.28,173.59c0,3.33-2.7,6.02-6.03,6.02s-6.03-2.7-6.03-6.02,2.7-6.02,6.03-6.02,6.03,2.7,6.03,6.02"/><path class="cls-1" d="m241.79,186.27c0,3.09-2.51,5.6-5.6,5.6s-5.6-2.51-5.6-5.6,2.51-5.6,5.6-5.6,5.6,2.51,5.6,5.6"/><path class="cls-1" d="m241.79,186.27c0,3.09-2.51,5.6-5.6,5.6s-5.6-2.51-5.6-5.6,2.51-5.6,5.6-5.6,5.6,2.51,5.6,5.6"/><path class="cls-1" d="m250.84,198.57c0,2.86-2.32,5.17-5.17,5.17s-5.17-2.32-5.17-5.17,2.32-5.17,5.17-5.17,5.17,2.32,5.17,5.17"/><path class="cls-1" d="m250.84,198.57c0,2.86-2.32,5.17-5.17,5.17s-5.17-2.32-5.17-5.17,2.32-5.17,5.17-5.17,5.17,2.32,5.17,5.17"/><path class="cls-1" d="m258.2,210.44c0,2.62-2.13,4.75-4.75,4.75s-4.75-2.13-4.75-4.75,2.12-4.75,4.75-4.75,4.75,2.13,4.75,4.75"/><path class="cls-1" d="m258.2,210.44c0,2.62-2.13,4.75-4.75,4.75s-4.75-2.13-4.75-4.75,2.12-4.75,4.75-4.75,4.75,2.13,4.75,4.75"/><path class="cls-1" d="m263.66,221.84c0,2.39-1.93,4.32-4.32,4.32s-4.32-1.93-4.32-4.32,1.93-4.32,4.32-4.32,4.32,1.93,4.32,4.32"/><path class="cls-1" d="m263.66,221.84c0,2.39-1.93,4.32-4.32,4.32s-4.32-1.93-4.32-4.32,1.93-4.32,4.32-4.32,4.32,1.93,4.32,4.32"/><path class="cls-1" d="m267,232.71c0,2.15-1.74,3.89-3.9,3.89s-3.9-1.74-3.9-3.89,1.75-3.89,3.9-3.89,3.9,1.74,3.9,3.89"/><path class="cls-1" d="m267,232.71c0,2.15-1.74,3.89-3.9,3.89s-3.9-1.74-3.9-3.89,1.75-3.89,3.9-3.89,3.9,1.74,3.9,3.89"/><path class="cls-1" d="m267.99,243.01c0,1.91-1.55,3.46-3.47,3.46s-3.47-1.55-3.47-3.46,1.55-3.46,3.47-3.46,3.47,1.55,3.47,3.46"/><path class="cls-1" d="m267.99,243.01c0,1.91-1.55,3.46-3.47,3.46s-3.47-1.55-3.47-3.46,1.55-3.46,3.47-3.46,3.47,1.55,3.47,3.46"/><path class="cls-1" d="m266.41,252.69c0,1.68-1.36,3.04-3.04,3.04s-3.04-1.36-3.04-3.04,1.36-3.04,3.04-3.04,3.04,1.36,3.04,3.04"/><path class="cls-1" d="m266.41,252.69c0,1.68-1.36,3.04-3.04,3.04s-3.04-1.36-3.04-3.04,1.36-3.04,3.04-3.04,3.04,1.36,3.04,3.04"/><path class="cls-1" d="m262.06,261.68c0,1.45-1.17,2.62-2.62,2.62s-2.62-1.17-2.62-2.62,1.17-2.62,2.62-2.62,2.62,1.17,2.62,2.62"/><path class="cls-1" d="m262.06,261.68c0,1.45-1.17,2.62-2.62,2.62s-2.62-1.17-2.62-2.62,1.17-2.62,2.62-2.62,2.62,1.17,2.62,2.62"/><path class="cls-1" d="m254.7,269.94c0,1.21-.98,2.19-2.19,2.19s-2.19-.98-2.19-2.19.98-2.19,2.19-2.19,2.19.98,2.19,2.19"/><path class="cls-1" d="m254.7,269.94c0,1.21-.98,2.19-2.19,2.19s-2.19-.98-2.19-2.19.98-2.19,2.19-2.19,2.19.98,2.19,2.19"/><path class="cls-1" d="m129.02,78.35c5.46-2.24,13.32,4,18.12,9.86,4.76,5.8,2.04,11.36-4.56,13.26-6.6,1.9-15.04-2.09-17.77-6.39-5.66-8.94-1.39-14.44,4.21-16.73"/><path class="cls-1" d="m129.02,78.35c5.46-2.24,13.32,4,18.12,9.86,4.76,5.8,2.04,11.36-4.56,13.26-6.6,1.9-15.04-2.09-17.77-6.39-5.66-8.94-1.39-14.44,4.21-16.73"/></g></svg>