<?xml version="1.0" encoding="UTF-8"?><svg id="Layer_2" xmlns="http://www.w3.org/2000/svg" viewBox="0 0 632.98 624.72"><g id="Layer_1-2"><path d="m632.93,224.97s-.02.01-.03.01c-1.55.89-2.95,1.73-4.27,2.56-1.1.69-2.07,1.34-2.98,1.98-.78.54-1.6,1.13-2.53,1.82l-.4.32-.36.28c-.72.54-1.4,1.1-1.98,1.57-.8.67-1.57,1.34-2.32,2.02-.36.33-.72.66-1.08,1-.41.39-.75.73-1.06,1.04-.44.43-.89.89-1.44,1.49-.47.48-.94,1-1.42,1.56-.39.44-.77.89-1.15,1.35-.29.35-.57.69-.84,1.04l-.16.19c-.33.42-.66.86-.97,1.28l-.03.04c-.07.08-.13.17-.19.25-.56.76-1.03,1.43-1.45,2.04l-.03.04v.03s-.05.05-.05.05c-.03.05-.07.11-.11.16-.28.42-.56.85-.83,1.26-.91,1.41-1.83,2.93-2.8,4.67l-.15.26c-.15.27-.3.53-.42.76-.76,1.39-1.49,2.78-2.2,4.13-.3.6-.61,1.19-.93,1.8l-.66,1.28c-.3.59-.6,1.18-.91,1.77v.02s-.16.27-.16.27c-.3.59-.61,1.18-.93,1.77h-.01s-.14.27-.14.27l-.13.25c-.14.25-.27.5-.43.78-.37.67-.76,1.35-1.16,2.05-.34.6-.73,1.26-1.19,2.01-.21.35-.43.69-.65,1.04-.36.58-.77,1.21-1.21,1.86l-.02.02-.11.17c-.24.37-.45.67-.66.96l-.02.02-.02.03c-.22.32-.44.63-.66.93l-.35.47c-.13.17-.25.34-.38.52h0l-.08.11c-.77,1.01-1.61,2.04-2.48,3.06-.29.34-.59.68-.89,1.02-.31.35-.62.69-.93,1.03-.7.73-1.35,1.41-2.01,2.05-1.79,1.76-3.76,3.5-5.82,5.15-3.73,2.84-8.23,5.44-13.4,7.74-.81.37-1.64.78-2.65,1.31-.43.22-.86.45-1.27.7-.46.24-.9.5-1.33.77-.3.18-.61.37-.88.54-.42.27-.85.54-1.24.81-.71.49-1.4.99-2.03,1.47-.35.26-.68.52-.98.77-.64.51-1.24,1.03-1.8,1.55-.55.49-1.12,1.03-1.67,1.59-1.95,1.96-3.74,4.13-5.63,6.83-.26.36-.51.71-.73,1.05-.9,1.32-1.75,2.65-2.58,3.94l-.33.52c-.34.54-.68,1.08-1.03,1.62-.54.85-1.13,1.73-1.73,2.61-.29.43-.58.85-.89,1.27l-.02.03-.02.03c-.18.28-.38.55-.6.85-.26.34-.51.68-.77,1.02l-.02.02-.02.02c-.13.19-.28.37-.46.59-.52.66-1.05,1.3-1.62,1.93-.48.55-1.03,1.13-1.63,1.73-.43.44-.91.9-1.5,1.44-.27.24-.53.47-.81.71-.11.09-.22.18-.33.27-.1.09-.2.18-.31.27-.44.35-.88.71-1.33,1.04l-.02.02h-.02c-.22.18-.43.34-.64.49-.66.47-1.32.92-2,1.36l-.23.14c-.19.12-.38.24-.58.36l-.14.09c-.21.13-.43.26-.65.38l-.05.03-.04.03c-.17.1-.34.2-.51.29l-.24.14c-.3.16-.6.33-.93.5-1.64.87-3.41,1.7-5.3,2.47-.42.18-.88.37-1.42.57-.65.24-1.35.5-2.1.76-.64.23-1.25.44-1.91.64-.61.21-1.27.41-2.14.66l-.29.08c-.54-2.31-1.08-4.62-1.62-6.94-1.87-7.96-3.8-16.2-5.57-24.3-1.38-6.65-2.57-13.5-3.71-20.11-.6-3.47-1.22-7.06-1.86-10.59.02-7.78.05-15.55.08-23.32,2.88-19.18,6.26-35.66,10.32-50.35,1.92-6.7,4.34-13.41,6.69-19.91.99-2.75,2.02-5.6,3-8.42.6-1.73,1.18-3.48,1.74-5.18,1.38-4.15,2.8-8.44,4.53-12.47,1.53-3.55,3.46-7.04,5.34-10.42.75-1.36,1.52-2.76,2.27-4.16,1.86.68,4.34,1.52,7.68,2.54l.07.02.06.02c5.49,1.3,9.9,2.54,13.87,3.88l.12.04c.67.21,1.34.44,2.04.7,8.89,3.68,24.88,16.97,36.14,26.66,2.71,2.33,5.27,4.55,7.57,6.55,3.06,2.67,5.71,4.97,7.62,6.56l.21.17.25.11c3.14,1.42,6.62,2.55,10.94,3.57,8.16,1.93,11.85,5.08,13.17,11.21l.19.88c.08.35.15.68.21.97.03.14.06.27.09.41.02.12.05.24.07.37.29,1.36.56,2.72.84,4.09.34,2.24.57,5.5.67,9.46Z"/><path d="m356.69,584.45c-1.51,2.1-3.43,3.9-5.81,5.46-2.11,1.41-4.59,2.62-7.59,3.72-12,4.39-18.29,14.28-23.25,23.22-.28.51-.52,1.02-.72,1.53-.17.41-.35.87-.56,1.42-.48,1.28-.94,2.49-1.69,3.37-.04.06-.09.11-.16.17l-.05.05-.05.06c-.07.07-.15.14-.2.18l-.12.09-.1.06-.07.07-.04.02-.07.05s-.05.03-.07.05l-.26.14c-.13.07-.2.1-.23.11l-.1.03h-.02s-.07.03-.07.03l-.15.07s-.19.06-.24.07l-.05.02h-.05c-.07.03-.13.05-.2.06l-.06.02h-.05s-.03.02-.03.02h-.05l-.08.02c-.19.04-.4.07-.62.09-.39.05-.76.07-1.11.07-.16,0-.33-.01-.5-.02-.12,0-.24-.01-.35-.02l-.15-.03h-.11s-.15-.03-.15-.03h-.08s-.03-.02-.03-.02h-.04c-.52-.1-1.01-.25-1.51-.47-.15-.07-.31-.16-.5-.26-.12-.06-.22-.12-.32-.19l-.08-.05c-.1-.07-.2-.13-.3-.2l-.06-.05-.07-.04s-.09-.06-.13-.09c-.07-.05-.13-.1-.2-.15l-.1-.08c-.17-.14-.33-.28-.5-.43l-.04-.04-.04-.03s-.09-.08-.12-.11l-.04-.04-.05-.04c-.16-.15-.31-.3-.47-.46l-.27-.26c-.08-.09-.17-.18-.26-.28l-.02-.02-.11-.11c-.05-.06-.1-.11-.16-.17-.26-.28-.53-.57-.82-.87-.18-.2-.38-.41-.62-.65l-.1-.12s-.09-.09-.14-.14c-.08-.08-.15-.16-.23-.24-.13-.14-.27-.28-.4-.41-1.51-1.51-3.05-3.15-4.54-4.74-5.88-6.26-11.96-12.73-19.54-15.52-.22-.08-.44-.17-.63-.25-.22-.09-.44-.19-.64-.28-.29-.13-.56-.26-.83-.4l-.02-.02h-.02c-.11-.06-.21-.12-.36-.2-.4-.22-.82-.48-1.26-.77-.22-.15-.43-.3-.63-.45-.07-.06-.13-.11-.2-.15-.23-.19-.46-.37-.67-.55-.43-.37-.88-.79-1.37-1.29-.27-.27-.53-.54-.81-.85-.12-.14-.25-.29-.36-.43l-.03-.04-.04-.05c-.21-.23-.42-.47-.62-.73-.46-.55-.9-1.11-1.34-1.68-.31-.39-.61-.77-.92-1.17-.26-.32-.52-.64-.77-.93-.23-.29-.47-.57-.71-.84-.15-.18-.31-.36-.5-.55-.1-.11-.2-.22-.31-.33l-.13-.14c-.37-.39-.74-.75-1.04-1.02l-.14-.14c-.06-.05-.11-.11-.17-.16-.13-.13-.25-.26-.36-.38l-.16-.17c-.07-.07-.13-.15-.19-.22l-.04-.05-.03-.04s-.06-.07-.09-.1l-.1-.14c-.06-.06-.1-.13-.15-.2-.15-.21-.27-.4-.36-.59-.02-.04-.04-.09-.07-.14l-.04-.12-.05-.13v-.02s-.03-.03-.03-.03c-.03-.09-.06-.19-.07-.25-.03-.1-.03-.19-.05-.29,0-.06-.01-.12-.01-.18,0-1.01.89-2.23,2.71-3.73l.41-.34c.38-.31.75-.62,1.1-.91l.36-.3c.34-.29.68-.57,1-.83l.75-.62.71-.59.29-.25c.11-.09.22-.18.34-.28l.24-.19c.32-.27.63-.52.9-.75l.26-.22c.15-.12.3-.24.44-.36l.13-.1c.17-.14.34-.28.46-.39.21-.17.4-.32.58-.47l.17-.15.21-.17c.16-.13.32-.25.46-.38l.98-.81c.3-.24.53-.43.72-.59h.02s.02-.03.02-.03c.04-.03.07-.06.1-.08h.11l.03-.03.52-.52c.88-.74,1.8-1.54,2.98-2.58l.05-.04c5.69-4.99,11.58-10.64,16.75-16.07l.07.05.1.06c3.65,2.07,7.29,4.15,10.6,6.05-1.59,5.35-5.65,6.84-10.7,8.69-3.64,1.34-7.76,2.86-11.06,6.16l-1.95,1.94,2.45,1.25c1.64.83,3.18,1.77,4.67,2.67,3.28,1.97,6.36,3.83,9.8,4.26,7.38.93,14.91,1.17,22.19,1.41,3.38.11,6.88.23,10.3.41,4.25.23,8.56.49,12.73.75,1.03.06,2.07.13,3.1.19,1.09.07,2.19.14,3.28.22,1.34.08,2.68.17,4.01.25Z"/><path d="m491.06,141.98c-.15,1.11-.33,2.19-.76,2.74-2.31,2.99-4.81,5.93-7.23,8.78-3.01,3.54-6.12,7.2-8.95,11.02-7.25,9.79-15.56,14.55-25.4,14.55-1.02,0-2.07-.06-3.12-.16-3.6-.36-7.13-1.68-10.87-3.09-1.87-.7-3.8-1.43-5.75-2.02-3.54-1.08-6.18-1.58-8.33-1.58-2.52,0-4.48.73-5.83,2.18-1.79,1.92-2.48,4.99-2.15,9.66.39,5.84,1.21,11.71,2,17.39.44,3.16.9,6.43,1.27,9.64.07.59.15,1.19.22,1.79.87,6.99,1.76,14.22-3.59,17.96-11.5,8.06-23.92,14.63-37.79,21.77-10.27,5.28-21.88,11.26-19.93,27.18-.18.32-.37.65-.58,1-.78,1.31-1.66,2.8-1.77,4.52-.23,3.85-.18,7.75-.14,11.51.02,1.52.04,3.03.04,4.54-.04.43-.09.87-.14,1.3-.06.45-.13.9-.2,1.34-.08.46-.16.91-.25,1.35-.06.31-.13.61-.22.95-.08.3-.16.6-.24.91-.12.4-.24.78-.37,1.16-.14.4-.27.74-.42,1.09-.13.33-.28.65-.45.99-.15.29-.31.58-.51.92-.14.24-.3.48-.5.75-.18.25-.35.45-.54.65-.08.09-.17.18-.26.26l-.02.02v.02c-.28.26-.57.49-.88.68-.09.06-.21.13-.38.21-.09.05-.18.09-.28.13h-.02l-.12.05-.05.02h-.02s-.08.01-.08.01l-.23.09h-.03l-.15.04c-.08.02-.22.05-.48.07-.11.01-.22.01-.32.01h-.29c-.2-.02-.42-.05-.63-.09h-.03s-.04-.01-.04-.01c-.15-.03-.29-.06-.43-.11l-.04-.02h-.04c-.14-.05-.28-.09-.41-.14l-.08-.02c-.05-.02-.1-.04-.16-.06l-.11-.04c-.31-.12-.63-.27-.97-.46-.37-.19-.64-.36-.89-.52l-.44-.28c-.06-.05-.13-.09-.19-.14-.59-.4-1.24-.92-1.93-1.53-2.72-2.43-5.51-4.86-8.2-7.21-5.6-4.89-11.38-9.94-16.84-15.12-6.09-5.78-10.61-8.24-15.1-8.24-4.76,0-9.25,2.75-15.02,9.21l-.07.07-.06.09c-2.02,2.8-5.02,4.34-8.43,4.34-3.81,0-7.41-1.94-9.65-5.23-.54-.76-1.07-1.53-1.6-2.31-3.11-4.53-6.33-9.21-10.6-12.67-2.65-2.15-6.96-3.53-10.99-3.53-1.19,0-2.31.12-3.32.36-3.71.89-7.35,6.66-7.73,10.76-1.01,10.85-1.46,22.51-1.4,36.7.01,4.24,1.72,8.55,3.48,12.59,1.52,3.53,5.87,5.13,9.27,5.13,2.74,0,4.97-1.01,6.12-2.78,3.15-4.84,6.75-10.61,9.5-16.73,1.37-3.06,2.3-3.68,3.29-3.68.3,0,.65.06,1.04.17,3.29,1.01,5.8,2.49,6.53,3.88.31.59-.05,2.92-1.83,6.25-1.2,2.23-2.78,4.26-4.47,6.41-.7.9-1.42,1.83-2.12,2.77l-1.08,1.11c-2.65,2.01-5.3,4.01-7.95,6.02-2.66,2-5.31,4.01-7.97,6.02l-2.05,1.36c-2.2-2.37-4.38-3.85-6.48-4.41h-.04s-.01-.02-.01-.02h-.05s-.04-.02-.04-.02c-5.49-1.57-16.78-9.92-15.68-14.47v-.08s.03-.07.03-.07l.79-4.97c.02-.1.04-.2.05-.31l.04-.21c1.3-8.2-2.6-14.78-11.61-19.57-13.15-6.97-26.67-13.75-39.75-20.31l-5.23-2.62c-2.51-1.26-5.23-2.23-7.87-2.78-11.74-2.43-17.21-9.21-17.21-21.31v-.41c-.01-4.83-.02-9.83-1.42-14.5-2.02-6.72-8.5-11.23-16.15-11.23-3.46,0-6.79.96-9.61,2.78-7.17,4.61-14.67,9.01-21.92,13.27-1.84,1.08-3.68,2.16-5.52,3.25-1.22.72-2.45,1.16-3.46,1.25-3.31.24-6.68.43-9.95.61-4.09.23-8.32.46-12.48.82-.33.03-.65.04-.94.04-1.12,0-1.89-.21-2.28-.62-.53-.54-.75-1.74-.68-3.59.01-.2.01-.4.02-.59.01-.17.02-.33.02-.47l.2-5.1v-.11c0-.71-.05-1.41-.12-2.09v-.15c-.74-6.47-4.28-10.81-8.81-10.81-.88,0-1.78.17-2.66.49l-.35.13c-.17.06-.35.13-.53.2-.15.05-.32.11-.48.17-5.34,1.84-13.14,4.14-15.65,4.52l-.02-.03h-.02c-.79-.81-2.1-2.01-3.55-3.23h0s-.06-.06-.06-.06c-1.89-1.61-3.83-3.09-5.48-4.17-2.17-1.42-6.41-9.05-7.8-11.56-.72-1.31-1.43-2.61-2.1-3.85-1.52-2.8-2.84-5.23-3.8-6.73l-2.3-4.37c-.36-.67-.41-2.15-.25-2.68,7.22-6.41,10.42-14.87,12.6-22.32,3.69-12.58,12.9-19.15,28.96-20.68.84-.06,1.63-.14,2.42-.22l.21-.02h.03s.22-.04.22-.04c.28-.03.56-.07.84-.11.39-.05.78-.1,1.15-.17h.1c.3-.06.59-.11.85-.17.37-.07.72-.14,1.1-.21.55-.12,1.07-.25,1.56-.38.19-.05.38-.09.56-.15.32-.08.63-.17.92-.26l.17-.04.07-.04.47-.16c.31-.09.61-.2.94-.33l.5-.19c.23-.08.44-.17.61-.25.18-.07.35-.14.51-.23.09-.04.18-.08.26-.12l.1-.04c.14-.07.3-.14.45-.21.28-.15.57-.3.81-.44.17-.08.32-.17.48-.26.17-.1.34-.2.5-.3.19-.12.41-.25.64-.42.2-.13.39-.27.57-.39.23-.16.44-.33.65-.49.21-.17.41-.33.58-.48.15-.13.31-.26.42-.37.21-.18.41-.37.57-.53.38-.37.73-.75,1.04-1.11.34-.38.67-.79.94-1.17.33-.43.61-.84.86-1.24l.08-.12c.1-.16.2-.33.3-.5.07-.11.13-.23.2-.34l.04-.07c.16-.28.33-.58.48-.88.13-.25.28-.54.41-.85.16-.34.33-.7.49-1.09.02-.04.04-.08.06-.13v-.02s.03-.06.03-.06c.1-.22.19-.44.27-.66l.02-.06v-.03s.02-.04.02-.04c.14-.33.26-.64.36-.95.03-.07.06-.14.08-.21.13-.38.26-.77.39-1.16.13-.42.27-.86.38-1.26.14-.44.26-.88.39-1.34.27-1.01.54-2.06.79-3.12.28-1.12.54-2.27.81-3.45l.34-1.45.19-.81c.2-.86.41-1.73.63-2.6.28-1.11.59-2.31.94-3.53.31-1.12.67-2.3,1.11-3.63,2.09-6.67,3.13-12.45,3.19-17.73v-.34l-.11-.31c-3.36-9.74-6.24-18.03-7.5-21.64v-.14l-.15-.3c-.26-.75-.46-1.32-.58-1.67.38-1.08,2.86-4.54,7.12-6.56l.67-.32.3-.69,1.58-3.62,1.35-3.08.37-.84-.39-.82c-.6-1.26-1.11-3.09-.13-4.68.95-1.52,3.07-2.42,5.81-2.45h.28l.27-.08,6.05-1.8c1.8-.54,3.46-.81,4.93-.81,4.5,0,7.78,2.44,11.33,8.42,4.25,7.15,10.76,10.63,19.92,10.63,3.89,0,7.81-.6,11.18-1.16,8.22-1.34,15.98-5.24,23.49-9.01l1.23-.61,18.78-9.13,1.65-.8-.66-1.72c-5.16-13.42-6.95-22.3-6.72-25.06l2.46.12c.82.04,1.57.06,2.28.06,4.63,0,7.39-.84,8.7-2.65,4.94-6.85,11.97-8.74,19.36-10.21,4.04-.82,7.81-2.68,11.45-4.48l1.04-.51c1.11-.55,2.11-.84,2.91-.84.56,0,1.61,0,2.02,2.12.11.58.23,1.18.36,1.79.84,4.13,1.89,9.27.38,12.03-3.44,6.27-3.81,12.74-1.06,18.71,3.25,7.05,10.67,12.71,18.89,14.42,11.49,2.39,24.33,4.15,39.26,5.38.6.05,1.24.08,1.87.08,4.92,0,10.06-1.44,13.76-3.84,5.21-3.38,10.55-5.02,16.32-5.02,1.25,0,2.55.08,3.86.23.03.01.06.01.09.02,1.79.39,3.65.77,5.55,1.13l.16.16h.57s.05.01.05.01c1.96.56,3.97,1.26,6.14,2.15l.08.03.08.03c2.65.83,5.34,1.26,8.01,1.26,7.96,0,15.03-3.81,20.31-7.13l.2-.13.17-.17c.66-.69,1.36-1.34,2.11-2.03.38-.36.77-.72,1.16-1.09h.02s.4-.41.4-.41c2.29-1.34,4.06-2.5,5.25-3.44l.85-.66,4.56-2.18.32.32c1.03,2.3,2.88,5.47,5.01,9.1.34.59.69,1.19,1.04,1.79v1.47h.85c4.29,7.45,6.4,12.05,6.28,13.71-.87,1.08-1.79,2.2-2.73,3.29-.04.05-.09.11-.13.16l-.12.14c-.05.06-.11.12-.17.18-.04.05-.09.11-.16.19-2.2,2.49-4.52,4.97-6.77,7.37-4.05,4.32-8.24,8.8-11.96,13.57-2.13,2.73-2.05,9.06.15,11.68,2.13,2.51,6.42,4.48,9.78,4.48.62,0,1.2-.07,1.74-.2,4.91-1.2,9.59-3.31,14.12-5.36,1.7-.76,3.46-1.55,5.18-2.28,3.43-1.44,6.03-2.11,8.17-2.11,3.53,0,6.33,1.87,9.66,6.43,4.94,6.77,12.67,13.98,32.63,16.15,7.55.82,14.97,3.02,20.59,4.85,7.66,2.5,7.77,10.52,7.88,19.02.02,1.48.04,3.01.11,4.45l.1,2.08,2.07-.18c.88-.07,1.77-.14,2.65-.21,1.05-.08,2.09-.16,3.14-.25.13.02.26.02.39.02h.3s.05-.02.05-.02h.11s.06-.01.06-.01h.01s2.44-.31,2.44-.31l.25-.03c.09-.02.18-.03.28-.04h.06s.78-.11.78-.11l.64-.08.47-.44c.11-.11.23-.2.35-.29Z"/><path d="m527.1,145.79c-.58,1.07-1.17,2.14-1.75,3.19-1.92,3.47-3.91,7.05-5.52,10.78-1.8,4.19-3.24,8.56-4.64,12.79-.56,1.69-1.14,3.43-1.73,5.12-.97,2.8-2,5.64-2.99,8.39-2.36,6.55-4.81,13.33-6.77,20.18-4.12,14.89-7.54,31.57-10.45,50.98l-.02.15v.37c-.03,7.81-.06,15.61-.08,23.42v.19l.03.18c.65,3.57,1.28,7.21,1.89,10.73,1.15,6.65,2.34,13.52,3.74,20.27,1.78,8.14,3.72,16.4,5.59,24.38.67,2.88,1.35,5.76,2.02,8.65-.34,3.34-.32,6.7-.3,9.96.05,7.14.09,13.89-3.35,20.38-2.23,4.22-3.76,8.8-5.24,13.22-1.01,3.02-2.06,6.13-3.3,9.05-.89,2.08-2.07,4.04-3.32,6.12-1.55,2.59-3.16,5.26-4.17,8.21-1.64,4.75-5.14,7.89-11.01,9.89-8.27,2.8-16.89,5.13-25.22,7.38-2.74.74-5.48,1.48-8.21,2.24-1.36.38-2.9.58-4.54.79-3.47.46-7.07.93-9.35,3.23-8.55,8.54-16.29,18.1-23.78,27.34l-1.04,1.29c-3.19,3.93-6.26,8.04-9.23,12.02-3.13,4.17-6.36,8.49-9.71,12.59-.13.02-.35.04-.68.04-1.05,0-2.04-.21-2.51-.37-2.54-5.79-5.13-11.77-6.02-17.79,0-.78.32-1.72.92-2.8l.4-.4v-.25c1-1.48,2.35-2.96,3.67-4.35.71-.75,1.51-1.53,2.51-2.47l.03-.02.03-.03c.09-.09.19-.18.29-.27l.03-.03.03-.02c.26-.24.53-.49.81-.74.4-.35.81-.71,1.24-1.09.27-.24.54-.47.81-.7l.28-.24.16-.13c.28-.25.56-.49.84-.73.27-.23.54-.46.79-.68.27-.23.54-.46.8-.69.22-.18.44-.37.64-.55l.08-.07.23-.19.23-.21c1.92-1.69,3.43-3.08,4.52-4.36,3.78-4.09,3.77-9.68-.04-13.91-2.25-2.51-4.66-4.9-7-7.21-2.32-2.29-4.71-4.65-6.89-7.09-3.04-3.4-6.02-7.29-9.65-12.58-.03-.37.1-1.11.26-1.49,7.55-3.89,16.15-5.32,24.46-6.71,2.71-.45,5.51-.92,8.25-1.47l1.27-.25.29-1.26.09-.38c.13-.57.26-1.13.38-1.69l.25-1.1-.82-.78c-.41-.39-.86-.93-1.33-1.51-1.35-1.64-2.75-3.34-4.78-3.37-1.38-.02-2.76-.02-4.14-.02-8.92,0-17.98.33-26.74.65l-1.1.04c-1.73.06-3.47,1.47-4.2,2.73-8.11,13.26-15.16,27.31-21.98,40.9-1.87,3.73-3.8,7.59-5.72,11.34-2.14,4.04-5.48,5.83-11.16,5.98h-.34c-4.25,0-6.64-1.98-9.68-4.49-.73-.61-1.48-1.23-2.29-1.84-6.28-4.77-10.08-7.65-14.28-7.65s-7.58,2.69-12.07,7.03c-1.86,1.79-3.72,3.57-5.58,5.36-1.66-.54-3.34-1.06-4.97-1.56-4.37-1.34-8.9-2.72-13.07-4.54-.19-.09-.38-.18-.58-.27-.18-.08-.36-.16-.55-.25-1.37-.64-2.56-2.52-3.71-4.36v-.26l-.31-.31c-.14-.33-.29-.66-.43-1.01,5.56-4.84,8.05-11.48,7.8-20.77-.05-1.82,1.93-4.86,2.86-5.14l.36-.11c1.3-.39,2.65-.79,3.91-.79,1.11,0,2.58.27,4.07,2.37,1.92,2.72,6.55,4.54,9.68,4.54.79,0,1.5-.1,2.13-.32,3.88-1.3,7.34-6.07,8.32-9.73,1.57-5.8,2.48-11.82,3.36-17.64.36-2.33.72-4.74,1.12-7.09l.03-.17v-.17l-.04-28.02-.02-9.52v-.13c-.58-8.69-7.71-9.46-12.42-9.97h-.12s-13.45-.67-13.45-.67l-9.45-.46c.29-.38.59-.75.88-1.13,1.71-2.19,3.48-4.45,4.83-6.99,1.64-3.05,3.28-7.27,1.85-10-1.72-3.24-6.32-5.05-8.91-5.83-.76-.24-1.5-.35-2.2-.35-4.23,0-6.06,4.08-6.94,6.04-2.64,5.87-6.13,11.48-9.21,16.19-.38.59-1.44.96-2.76.96-2.44,0-4.95-1.22-5.6-2.71-1.66-3.82-3.14-7.53-3.15-11.03-.06-14.05.38-25.59,1.38-36.3.27-2.85,3.1-6.87,4.68-7.24.7-.17,1.51-.26,2.39-.26,3.12,0,6.53,1.06,8.47,2.63,3.82,3.1,6.87,7.54,9.82,11.84.54.78,1.08,1.56,1.61,2.32,2.97,4.35,7.8,6.95,12.94,6.95,4.63,0,8.85-2.15,11.61-5.91,4.83-5.39,8.53-7.8,11.97-7.8s7.14,2.2,12.34,7.14c5.52,5.24,11.34,10.32,16.97,15.23,2.69,2.35,5.47,4.78,8.17,7.18.81.72,1.59,1.34,2.27,1.82.3.21.57.39.82.54l.06.03c.3.2.67.43,1.07.63.47.26.94.47,1.39.65.18.08.35.14.51.19.19.07.38.13.59.18.32.11.63.18.96.24.37.07.74.12,1.08.14.2.02.4.03.59.03.12,0,.24,0,.35,0,.15,0,.28-.02.38-.03.35-.03.68-.08.98-.16.06-.01.12-.02.17-.03h.08l.3-.1h.03c.1-.04.22-.07.35-.13.04-.01.08-.02.11-.04.07-.02.15-.05.22-.08.22-.08.44-.18.65-.29.25-.13.5-.27.7-.4.52-.33,1.01-.72,1.48-1.17.16-.15.31-.3.46-.46.28-.31.55-.64.8-.98.29-.38.54-.76.74-1.1.24-.4.45-.78.65-1.18.21-.42.4-.83.55-1.21.18-.41.35-.85.52-1.35.14-.4.3-.87.44-1.39.1-.35.19-.69.26-1,.11-.39.2-.77.26-1.11.11-.49.2-.99.28-1.49.09-.49.16-1,.23-1.53.06-.51.12-1.03.16-1.55v-.08s.01-.08.01-.08c0-1.55-.02-3.11-.04-4.66-.04-3.7-.09-7.52.14-11.23.04-.75.64-1.75,1.21-2.72.35-.58.7-1.18,1.01-1.82l.26-.54-.09-.6c-1.8-12.64,5.84-17.59,17.72-23.7,14-7.21,26.54-13.85,38.26-22.05,7.31-5.13,6.18-14.33,5.26-21.73-.07-.59-.14-1.18-.21-1.76-.38-3.26-.84-6.55-1.29-9.73-.78-5.61-1.59-11.42-1.97-17.12-.24-3.39.13-5.63,1.08-6.65.37-.39,1.07-.91,2.91-.91,1.72,0,4.06.46,7.17,1.4,1.82.56,3.69,1.27,5.5,1.95,3.82,1.43,7.76,2.91,11.89,3.32,1.18.12,2.36.18,3.51.18,11.04,0,20.67-5.44,28.62-16.17,2.74-3.71,5.81-7.32,8.78-10.81,2.44-2.88,4.98-5.86,7.35-8.92,1.12-1.46,1.37-3.34,1.6-4.99,0-.05,0-.1.02-.16,1.98.16,3.95.3,5.93.45,7.61.58,15.48,1.17,23.19,1.9.31.03.64.06.95.09.42.04,1.25.74,1.86,1.26.03.02.06.05.08.07Z"/><path d="m296.26,381.61c-.39,2.33-.75,4.7-1.1,7-.87,5.71-1.76,11.62-3.27,17.2-.77,2.85-3.56,6.25-5.74,6.98-.15.05-.41.11-.85.11-2.18,0-5.42-1.43-6.42-2.84-1.9-2.7-4.37-4.07-7.33-4.07-1.85,0-3.55.51-5.05.96l-.36.1c-3.05.92-5.81,5.9-5.72,9.09.2,7.48-1.49,12.75-5.43,16.71-1.16-2.97-2.28-6.05-3.17-8.8.08-.46.21-1.32.47-2.95l.34-2.23c.04-.19.07-.39.1-.63.93-6.83,2.65-12.22,4.17-16.98,3.75-11.75,6.46-20.27-7.3-36.2-.6-2.81-1.02-4.98-1.18-6v-.11s-.02-.61-.02-.61l-.19-.19c-.62-2.24-2.33-5.48-4.37-8.33l1.79-1.18.05-.04.05-.03c2.68-2.03,5.36-4.06,8.04-6.09,2.49-1.88,4.97-3.76,7.46-5.64l12.8.63,13.37.65c5.72.63,8.46,1.45,8.8,6.19l.03,15.48.03,21.82Z"/><path d="m632.98,229.56c0,4.11-.11,8.52-.33,12.74-1.84,6.33-5.14,11.67-10.09,16.32-2.73,2.57-5.24,5.41-7.66,8.14-2.56,2.89-5.2,5.87-8.04,8.46-1.79,1.64-4.26,2.69-6.87,3.81-3.76,3.78-20.94,20.65-22.99,23.18-.04.04-.07.08-.09.11-1.03,1.43-2.1,2.8-3.27,4.1-.55.61-1.1,1.24-1.65,1.88-2.16,2.49-4.39,5.07-6.95,6.35-9.29,4.64-14.82,13.07-16.9,25.8-1.26,7.72-1.73,15.64-2.19,23.31-.29,4.91-.59,9.98-1.1,14.93-.46,4.59-1.64,9.12-3.4,13.1-1.38,3.12-2.76,6.32-4.1,9.4-4.96,11.45-10.09,23.28-16.36,34.15-9.16,15.84-20.2,31.57-38.76,39.34-4.16,1.74-7.56,2.59-10.39,2.59-.42,0-.83-.02-1.22-.06-2.38-.23-4.79-.35-7.16-.35-21.3,0-39.46,9.38-55.91,19.53-2.04,1.26-4.17,2.49-6.22,3.67-3.55,2.05-7.22,4.17-10.65,6.57-11.3,7.87-16.92,20.25-16.7,36.77,0,.15,0,.3.01.45v.35c0,6.96-1.19,13.3-3.63,19.35h-.68v1.58c-2.42,5.43-5.82,10.5-10.38,15.47-2.12-.13-4.23-.26-6.36-.4-1.09-.07-2.19-.14-3.29-.21-1.03-.06-2.06-.13-3.12-.2-4.17-.25-8.49-.52-12.74-.75-3.47-.18-6.99-.3-10.39-.41-7.19-.23-14.63-.47-21.82-1.37-2.6-.33-5.21-1.9-8.23-3.73-.74-.45-1.5-.91-2.29-1.36,2.29-1.56,4.92-2.53,7.49-3.47,5.57-2.05,11.87-4.36,13.58-13.05l.28-1.41-1.25-.72c-3.45-1.98-7.34-4.2-11.25-6.42,1.93-2.11,3.62-4.05,5.05-5.8h.01s.06-.08.06-.08c1.31-1.61,2.42-3.09,3.29-4.41l.12-.17.07-.2,2.73-6.95c1.75-4.45,2.97-10.3-4.64-23.55-1.92-3.34-2.22-5.59-1.18-8.57l5.17-14.31.76-2.11-2.18-.52c-10.68-2.53-19.49-8.39-20.74-12.08-.03-.08-.06-.16-.09-.25-1.01-2.81-4.3-8-8.39-12.71l1.32-1.48.87-.84c2.16-2.06,4.31-4.12,6.46-6.19,4.4-4.26,7.01-5.91,9.29-5.91,2.86,0,6.25,2.57,11.86,6.83.74.56,1.46,1.16,2.16,1.74,3.22,2.66,6.54,5.41,12.23,5.41h.44c7.12-.19,11.76-2.76,14.61-8.13,1.94-3.79,3.87-7.66,5.75-11.4,6.78-13.51,13.79-27.49,21.84-40.65.18-.3.69-.7.95-.77l1.05-.04c8.73-.32,17.75-.65,26.6-.65,1.33,0,2.67,0,4,.02.42.2,1.3,1.27,1.83,1.92.22.26.44.53.67.79-2.2.42-4.44.79-6.61,1.15-8.74,1.46-17.78,2.97-25.92,7.25-.88.43-1.51,1.37-1.88,2.79-.22.81-.61,2.84.31,4.2,3.79,5.53,6.9,9.59,10.09,13.15,2.26,2.53,4.7,4.94,7.06,7.27,2.29,2.27,4.67,4.62,6.83,7.04,2.44,2.7,2.46,5.98.06,8.55-1.4,1.49-2.91,2.89-4.19,4.04l-.3.26-.15.13-.09.07c-.19.17-.39.35-.59.51l-.02.02-.02.02c-.26.22-.52.45-.79.68-.26.22-.52.44-.78.67-.29.25-.58.5-.86.74l-.42.36c-.29.25-.58.5-.84.73-.43.37-.87.75-1.28,1.13-.28.25-.56.5-.83.75-.16.13-.31.28-.46.42-3.4,3.11-5.54,5.51-6.93,7.75l-.02.02-.1.17-.4.4v.27c-1.09,1.88-1.52,3.53-1.29,5,.96,6.69,3.74,13.05,6.44,19.2l.09.22c.97,2.2,5.15,2.31,5.98,2.31,1.74,0,2.86-.38,3.53-1.2,3.49-4.25,6.83-8.72,10.06-13.04,2.95-3.94,6-8.02,9.13-11.89l1.05-1.29c7.42-9.16,15.1-18.64,23.5-27.04,1.33-1.33,4.23-1.71,7.04-2.08,1.7-.22,3.46-.45,5.09-.9,2.72-.76,5.45-1.5,8.18-2.24,8.4-2.27,17.07-4.61,25.47-7.46,7.03-2.39,11.45-6.44,13.5-12.37.88-2.55,2.31-4.93,3.82-7.45,1.27-2.1,2.58-4.28,3.57-6.62,1.3-3.06,2.37-6.25,3.41-9.34,1.5-4.47,2.91-8.69,4.99-12.61,3.91-7.39,3.86-14.96,3.81-22.29-.02-2.81-.03-5.69.19-8.5.22-.07.45-.13.68-.2l.33-.1c.92-.26,1.62-.48,2.25-.69.68-.21,1.34-.44,2.01-.68.76-.26,1.5-.53,2.17-.79.59-.22,1.12-.43,1.57-.62,1.97-.81,3.87-1.69,5.61-2.61.35-.18.69-.37,1.04-.57l.23-.13c.21-.12.42-.24.63-.37.25-.14.5-.29.74-.44l.14-.08c.21-.13.43-.27.64-.4l.22-.14c.76-.48,1.49-.99,2.19-1.48.26-.19.52-.38.77-.58.53-.39,1.02-.77,1.46-1.14.11-.1.23-.2.35-.29.1-.09.2-.18.31-.26l.02-.02.02-.02c.3-.25.58-.51.89-.78.66-.61,1.2-1.12,1.67-1.6.64-.64,1.24-1.28,1.78-1.89.61-.69,1.19-1.38,1.74-2.07.2-.25.38-.48.56-.72.27-.35.53-.7.78-1.03.23-.3.46-.63.71-.99.32-.45.63-.9.93-1.34.63-.92,1.23-1.83,1.79-2.7.35-.55.71-1.11,1.05-1.64l.32-.51c.81-1.27,1.64-2.58,2.53-3.87.22-.33.45-.65.68-.98,1.76-2.51,3.41-4.51,5.21-6.32.49-.5.99-.98,1.5-1.43.52-.48,1.06-.94,1.65-1.42.28-.23.56-.45.88-.69.58-.45,1.2-.9,1.85-1.34.36-.24.73-.49,1.13-.74.26-.16.53-.33.79-.48l.03-.02.03-.02c.37-.23.75-.46,1.14-.67l.04-.02.04-.02c.35-.21.72-.41,1.11-.61.96-.5,1.73-.88,2.45-1.21,5.44-2.42,10.21-5.18,14.22-8.24,2.2-1.76,4.28-3.59,6.17-5.45.69-.68,1.38-1.39,2.11-2.16.34-.36.67-.74,1.01-1.11.32-.36.63-.72.93-1.07.84-.97,1.67-1.99,2.55-3.14v-.02s.1-.1.1-.1c.16-.22.32-.44.48-.65l.36-.48c.24-.34.47-.67.7-1,.22-.29.44-.6.67-.95l.1-.15c.52-.76.99-1.48,1.4-2.15.23-.35.45-.71.68-1.08.48-.79.89-1.49,1.24-2.11.41-.7.81-1.4,1.18-2.08.16-.28.3-.55.45-.82h0s.14-.27.14-.27c.33-.61.65-1.22.96-1.82h.01l.14-.27c.37-.7.72-1.38,1.07-2.07l.65-1.27c.31-.59.63-1.2.93-1.79.7-1.33,1.41-2.7,2.17-4.07.12-.24.25-.47.38-.7l.15-.27c.94-1.66,1.81-3.12,2.68-4.46.27-.41.54-.82.81-1.23l.03-.03v-.02s.04-.05.04-.05c.03-.05.07-.1.1-.14.39-.58.84-1.21,1.38-1.94v-.02s.03-.03.03-.03l.04-.05.11-.14c.3-.41.61-.81.9-1.19l.14-.17c.27-.34.53-.66.79-.99.35-.41.71-.84,1.1-1.27.45-.53.87-.99,1.3-1.44.54-.57.96-1.01,1.36-1.4l.04-.04c.3-.31.62-.62.95-.93.34-.32.68-.65,1.02-.96.7-.62,1.44-1.26,2.18-1.89.54-.44,1.18-.96,1.86-1.47l.4-.32.35-.27c.86-.65,1.65-1.21,2.38-1.72.85-.58,1.79-1.2,2.85-1.89.71-.45,1.44-.9,2.21-1.36Z"/></g></svg>