<svg width="62" height="62" viewBox="0 0 62 62" fill="none" xmlns="http://www.w3.org/2000/svg">
<circle cx="31" cy="31" r="31" fill="#1010E2"/>
<g clip-path="url(#clip0_702_25396)">
<path d="M44.3875 34.5095C42.3956 34.5095 40.0275 34.0417 39.355 32.7292C38.9498 31.9379 39.3614 31.0821 39.7781 30.5035C41.2923 28.4007 42.0927 26.0557 42.0927 23.7223C42.0927 17.6057 37.1167 12.6296 31.0003 12.6296C24.8839 12.6296 19.9077 17.6057 19.9077 23.7221C19.9077 26.0556 20.7081 28.4005 22.2223 30.5034C22.6389 31.082 23.0506 31.9378 22.6453 32.729C21.9729 34.0417 19.6049 34.5093 17.6128 34.5093C15.486 34.5093 13.7559 36.2395 13.7559 38.3663C13.7559 40.4931 15.486 42.2233 17.6128 42.2233C18.7171 42.2233 20.2576 41.9556 21.5717 41.6103C21.2185 41.8793 20.8435 42.1622 20.4927 42.4144C18.9809 43.5012 18.4996 45.2494 19.2365 46.9766C19.6708 47.9945 20.5157 48.7893 21.5542 49.157C22.5112 49.4957 23.5157 49.4293 24.3828 48.97C26.9683 47.6005 28.6463 45.2972 29.8717 43.6154C30.2314 43.1215 30.697 42.4825 31.0002 42.1712C31.3034 42.4825 31.7689 43.1215 32.1287 43.6154C33.354 45.2972 35.032 47.6005 37.6175 48.97C38.1199 49.236 38.6682 49.3703 39.2267 49.3703C39.6324 49.3703 40.0435 49.2995 40.4461 49.157C41.4849 48.7893 42.3296 47.9946 42.7639 46.9766C43.5008 45.2493 43.0195 43.5012 41.5077 42.4145C41.1569 42.1622 40.7819 41.8794 40.4287 41.6103C41.7427 41.9556 43.2833 42.2233 44.3875 42.2233C46.5143 42.2233 48.2445 40.4931 48.2445 38.3663C48.2445 36.2395 46.5144 34.5095 44.3875 34.5095ZM44.3875 39.974C43.0227 39.974 40.5361 39.4013 39.4577 38.9325C38.4909 38.5123 37.3914 38.8739 36.9003 39.7737C36.4143 40.6643 36.7031 41.7061 37.6027 42.3074C37.8652 42.4829 38.3033 42.8175 38.7671 43.1718C39.2123 43.512 39.7171 43.8975 40.1946 44.2409C41.0112 44.8278 40.9174 45.5726 40.6949 46.094C40.5096 46.5283 40.136 46.8806 39.6954 47.0365C39.4432 47.1258 39.0604 47.1889 38.6705 46.9824C36.5442 45.8561 35.0429 43.7955 33.9468 42.2909C32.8905 40.8411 32.1274 39.7935 31.0002 39.7935C29.8729 39.7935 29.1098 40.8411 28.0536 42.2909C26.9575 43.7954 25.4563 45.856 23.3299 46.9824C22.9398 47.189 22.5571 47.1259 22.305 47.0365C21.8644 46.8806 21.4908 46.5283 21.3055 46.094C21.0831 45.5726 20.9893 44.8278 21.8057 44.2409C22.2833 43.8976 22.7881 43.512 23.2333 43.1718C23.6972 42.8175 24.1352 42.4829 24.3975 42.3075C25.2973 41.7062 25.5862 40.6643 25.1001 39.7738C24.6089 38.8738 23.5092 38.5121 22.5427 38.9326C21.4643 39.4014 18.9777 39.9741 17.6128 39.9741C16.7263 39.9741 16.0052 39.2529 16.0052 38.3665C16.0052 37.48 16.7264 36.7588 17.6128 36.7588C21.1054 36.7588 23.6693 35.6639 24.6473 33.7546C25.3573 32.3684 25.1388 30.7044 24.0477 29.1891C22.7932 27.4468 22.1571 25.6076 22.1571 23.7222C22.1571 18.846 26.1241 14.879 31.0003 14.879C35.8764 14.879 39.8434 18.846 39.8434 23.7221C39.8434 25.6074 39.2073 27.4468 37.9527 29.189C36.8616 30.7043 36.6431 32.3684 37.3531 33.7546C38.331 35.6638 40.8951 36.7588 44.3876 36.7588C45.2741 36.7588 45.9952 37.4799 45.9952 38.3664C45.9952 39.2528 45.2741 39.974 44.3875 39.974Z" fill="white"/>
<path d="M27.2573 23.5061C26.4435 23.5061 25.7812 24.1751 25.7812 25.0012C25.7812 25.8272 26.4434 26.4968 27.2573 26.4968C28.0721 26.4968 28.7342 25.8272 28.7342 25.0012C28.7341 24.175 28.0721 23.5061 27.2573 23.5061Z" fill="white"/>
<path d="M34.7323 23.4944C33.9106 23.4944 33.2441 24.169 33.2441 25.0012C33.2441 25.8334 33.9106 26.508 34.7323 26.508C35.5529 26.508 36.2194 25.8334 36.2194 25.0012C36.2194 24.169 35.5529 23.4944 34.7323 23.4944Z" fill="white"/>
</g>
<defs>
<clipPath id="clip0_702_25396">
<rect width="36.7407" height="36.7407" fill="white" transform="translate(12.6299 12.6296)"/>
</clipPath>
</defs>
</svg>
