<svg width="62" height="62" viewBox="0 0 62 62" fill="none" xmlns="http://www.w3.org/2000/svg">
<circle cx="31" cy="31" r="31" fill="#1010E2"/>
<g clip-path="url(#clip0_702_25392)">
<path d="M48.2223 30.067C48.2223 28.3503 47.2564 26.7824 45.7923 25.9387C46.3268 24.9921 46.5859 23.9116 46.5339 22.7931C46.3923 19.7384 43.8848 17.2901 40.8252 17.2192C38.8055 17.1744 36.9509 18.1696 35.855 19.7698C34.991 17.5807 33.1391 16.074 31.029 16.074C28.8997 16.074 27.0365 17.6044 26.1822 19.8224C25.0926 18.1889 23.2221 17.1714 21.1748 17.2193C18.1153 17.2901 15.6078 19.7384 15.4661 22.7929C15.4142 23.9116 15.6732 24.9921 16.2078 25.9387C14.7438 26.7824 13.7778 28.3503 13.7778 30.067C13.7778 31.8211 14.7947 33.4281 16.32 34.257C15.5151 36.3263 16.2333 38.7641 18.2178 40.0219C18.221 40.0241 18.2243 40.0262 18.2275 40.0285C21.8455 42.4145 24.7742 45.729 26.6967 49.6133L26.8662 49.9564C27.0363 50.3006 27.387 50.5184 27.7709 50.5184H34.2292C34.6132 50.5184 34.9639 50.3005 35.1339 49.9563L35.3031 49.6138C37.2258 45.7291 40.1545 42.4145 43.7726 40.0285C43.7759 40.0264 43.7791 40.0242 43.7824 40.022C45.7634 38.7664 46.4865 36.3297 45.6802 34.2571C47.2055 33.4281 48.2223 31.8211 48.2223 30.067ZM27.7128 22.2101C27.8401 19.9395 29.3277 18.0922 31.029 18.0922C31.8259 18.0922 32.6027 18.4915 33.2163 19.2164C33.8768 19.9968 34.2773 21.0548 34.3439 22.1955C34.3815 22.8389 35.0056 23.2836 35.6264 23.1076C37.3849 22.6094 39.116 23.9348 39.14 25.7234C39.1524 26.6488 38.7037 27.5141 37.9397 28.038C37.3263 28.4587 37.3637 29.3798 38.0125 29.7479C39.1951 30.4189 39.5142 32.0021 38.6502 33.0728C38.6457 33.0785 38.6411 33.0842 38.6368 33.09C35.4575 37.209 33.6256 42.1321 33.339 47.3274L33.2743 48.5002H32.0092V37.4815L34.9427 34.548C35.3368 34.1539 35.3368 33.515 34.9427 33.1209C34.5487 32.7269 33.9097 32.7269 33.5156 33.1209L32.0092 34.6274V30.485L34.9427 27.5514C35.3368 27.1574 35.3368 26.5184 34.9427 26.1244C34.5487 25.7303 33.9097 25.7303 33.5156 26.1244L32.0092 27.6308V25.7615C32.0092 25.2042 31.5574 24.7524 31.0001 24.7524C30.4428 24.7524 29.9909 25.2042 29.9909 25.7615V27.6308L28.4844 26.1243C28.0904 25.7303 27.4514 25.7303 27.0573 26.1243C26.6632 26.5183 26.6632 27.1573 27.0573 27.5514L29.9909 30.485V34.6274L28.4844 33.1208C28.0904 32.7268 27.4514 32.7268 27.0573 33.1208C26.6632 33.5148 26.6632 34.1538 27.0573 34.5479L29.9909 37.4815V48.5002H28.7258L28.6611 47.3273C28.3745 42.1321 26.5425 37.2089 23.3633 33.0899C23.3589 33.0842 23.3544 33.0785 23.3499 33.0728C22.4858 32.0018 22.805 30.4188 23.9876 29.7478C24.6344 29.3808 24.6756 28.46 24.0604 28.038C23.2908 27.5101 22.8422 26.6381 22.8605 25.7056C22.896 23.8931 24.6613 22.5925 26.4147 23.1198C27.0373 23.3073 27.6762 22.8635 27.7128 22.2101ZM19.3668 38.3622C19.3505 38.3507 19.3339 38.3396 19.3169 38.3291C17.9296 37.4642 17.6078 35.618 18.5632 34.3377C18.9971 33.7561 18.6925 32.9183 17.9857 32.7519C16.7169 32.4532 15.7961 31.3241 15.7961 30.067C15.7961 28.7975 16.7271 27.6661 18.01 27.3769C18.7711 27.2052 19.0579 26.2684 18.5222 25.7003C17.8027 24.9372 17.4334 23.9379 17.4822 22.8865C17.5749 20.8865 19.2174 19.2834 21.2214 19.2369C22.6257 19.2026 23.9044 19.9358 24.6007 21.0959C22.4915 21.5572 20.8866 23.4193 20.8426 25.6661C20.8196 26.8361 21.2212 27.9509 21.9512 28.8237C20.525 30.3887 20.4844 32.7261 21.7717 34.3309C24.2383 37.5292 25.8233 41.2534 26.4178 45.2101C24.5205 42.5177 22.1301 40.1896 19.3668 38.3622ZM44.0144 32.7519C43.3082 32.9181 43.0025 33.7555 43.4369 34.3377C44.3914 35.6165 44.0723 37.4632 42.6832 38.329C42.6663 38.3395 42.6497 38.3506 42.6335 38.3621C39.8702 40.1894 37.4798 42.5177 35.5823 45.2102C36.1767 41.2535 37.7617 37.5293 40.2283 34.3309C41.5174 32.724 41.4736 30.3867 40.0487 28.8234C40.772 27.9583 41.1735 26.8545 41.1581 25.6964C41.1279 23.4466 39.5176 21.5619 37.3992 21.0963C38.0959 19.9373 39.3762 19.2036 40.7785 19.2369C42.7826 19.2833 44.4251 20.8864 44.5179 22.8866C44.5667 23.9379 44.1973 24.937 43.4778 25.7002C42.9424 26.2681 43.2284 27.2052 43.99 27.3769C45.2729 27.6661 46.204 28.7975 46.204 30.067C46.204 31.3241 45.2832 32.4532 44.0144 32.7519Z" fill="white"/>
</g>
<defs>
<clipPath id="clip0_702_25392">
<rect width="34.4444" height="34.4444" fill="white" transform="translate(13.7778 16.074)"/>
</clipPath>
</defs>
</svg>
