<svg width="173" height="173" viewBox="0 0 173 173" fill="none" xmlns="http://www.w3.org/2000/svg">
<path d="M86.7214 0.677493C117.462 0.677494 145.867 17.0774 161.238 43.6995C176.608 70.3215 176.608 103.121 161.238 129.743C145.867 156.365 117.462 172.765 86.7214 172.765C55.9809 172.765 27.5755 156.365 12.2052 129.743C-3.16508 103.121 -3.16508 70.3215 12.2052 43.6995C27.5755 17.0774 55.9809 0.677493 86.7214 0.677493Z" fill="#1010E2"/>
<path d="M48.4514 99.7062V97.5149C45.8839 97.8092 44.9682 98.3816 44.9682 99.3792C44.9682 100.18 45.6223 100.687 46.5054 100.687C47.3067 100.687 47.9935 100.23 48.4514 99.7062ZM48.5168 100.458H48.4678C47.9608 101.08 47.1595 101.571 46.2764 101.571C44.9027 101.571 43.9052 100.687 43.9052 99.4936C43.9052 98.1363 44.9682 97.0243 48.4514 96.8281C48.4514 96.8281 48.4514 96.4356 48.4514 96.3865C48.4514 95.2091 47.9281 94.604 46.6852 94.604C45.8676 94.604 44.87 95.0292 44.2323 95.5034L44.0033 94.5549C44.6738 94.0807 45.8022 93.6555 46.7834 93.6555C48.5168 93.6555 49.4817 94.4405 49.4653 96.3375C49.4653 96.3865 49.4653 99.9352 49.4653 99.9352C49.4653 100.475 49.5634 100.704 50.2176 100.687L50.1521 101.521C49.1709 101.587 48.6313 101.194 48.5168 100.458ZM57.2242 100.933C56.5864 101.325 55.7687 101.571 54.902 101.571C52.6453 101.571 51.2389 99.9515 51.2389 97.6294C51.2389 95.2908 52.7924 93.6555 54.9184 93.6555C55.8341 93.6555 56.6191 93.8845 57.2569 94.2933L56.9952 95.2091C56.4229 94.833 55.7033 94.604 54.9184 94.604C53.2994 94.604 52.2855 95.8141 52.2855 97.5967C52.2855 99.4282 53.3484 100.622 54.9347 100.622C55.687 100.622 56.4392 100.377 57.0116 100.001L57.2242 100.933ZM60.1215 96.55V101.358H59.1076V93.8681L60.1215 93.6555V95.2581C60.6121 94.2933 61.348 93.6555 62.3292 93.6555C62.8198 93.6555 63.294 93.8027 63.6375 93.9989L63.3758 94.9474C63.0487 94.7512 62.6563 94.6204 62.2311 94.6204C61.4461 94.6204 60.7102 95.2091 60.1215 96.55ZM65.3166 97.6457V97.7275C65.3493 99.4119 66.3632 100.622 67.9331 100.622C68.7508 100.622 69.5358 100.377 70.1081 100.001L70.3044 100.933C69.6666 101.325 68.8326 101.571 67.9004 101.571C65.7418 101.571 64.2864 99.9515 64.2864 97.6784C64.2864 95.3236 65.7909 93.6555 67.8187 93.6555C69.4703 93.6555 70.5497 94.7348 70.5497 96.4192C70.5497 96.8117 70.4842 97.2859 70.3861 97.613L65.3166 97.6457ZM65.382 96.8444L69.5358 96.8281C69.5521 96.7463 69.5521 96.5828 69.5521 96.501C69.5521 95.3563 68.9307 94.5713 67.7533 94.5713C66.4123 94.5713 65.5456 95.6016 65.382 96.8444ZM70.288 89.9597L67.8023 92.8869H67.0501L68.9797 89.9597H70.288ZM76.9557 99.3138C76.9557 100.687 75.7782 101.571 74.2737 101.571C73.3907 101.571 72.4585 101.309 71.8207 100.9L72.0987 99.9679C72.7365 100.393 73.5378 100.655 74.3064 100.655C75.2059 100.655 75.9908 100.213 75.9908 99.3955C75.9908 98.4961 75.0423 98.2344 74.1102 97.9401C73.0799 97.6294 71.9352 97.1224 71.9352 95.8141C71.9352 94.4568 73.0636 93.6555 74.47 93.6555C75.2876 93.6555 76.1053 93.8845 76.7431 94.2115L76.4487 95.1273C75.8273 94.7839 75.0587 94.5713 74.4046 94.5713C73.4888 94.5713 72.9001 94.9965 72.9001 95.716C72.9001 96.5664 73.7831 96.8281 74.748 97.1224C75.8109 97.4331 76.9557 97.9237 76.9557 99.3138ZM84.2773 100.933C83.6396 101.325 82.8219 101.571 81.9552 101.571C79.6984 101.571 78.292 99.9515 78.292 97.6294C78.292 95.2908 79.8456 93.6555 81.9715 93.6555C82.8873 93.6555 83.6723 93.8845 84.31 94.2933L84.0484 95.2091C83.476 94.833 82.7565 94.604 81.9715 94.604C80.3526 94.604 79.3387 95.8141 79.3387 97.5967C79.3387 99.4282 80.4016 100.622 81.9879 100.622C82.7401 100.622 83.4924 100.377 84.0648 100.001L84.2773 100.933ZM87.3709 91.3988C87.3709 91.7912 87.142 92.151 86.6841 92.151C86.2262 92.151 85.9972 91.7912 85.9972 91.3988C85.9972 91.0226 86.2262 90.6792 86.6841 90.6792C87.142 90.6792 87.3709 91.0226 87.3709 91.3988ZM87.191 101.358H86.1771V93.8681L87.191 93.6555V101.358ZM99.9463 101.358H98.9324V96.5337C98.9324 95.2254 98.4255 94.6204 97.3462 94.6204C96.5449 94.6204 95.809 95.0455 95.2366 95.5852C95.2529 95.6833 95.2693 96.0758 95.2693 96.2557V101.358H94.2554V96.5337C94.2554 95.2254 93.7484 94.6204 92.6691 94.6204C91.8842 94.6204 91.1646 94.9801 90.5923 95.4871V101.358H89.5784V93.8681L90.5923 93.6555C90.5923 93.6555 90.5923 94.6204 90.5923 94.6858C91.3609 93.9826 92.1949 93.6555 92.9635 93.6555C93.8956 93.6555 94.6315 94.0643 94.9913 94.8984C95.8253 94.0643 96.7738 93.6555 97.6405 93.6555C99.0633 93.6555 99.9463 94.5877 99.9463 96.2393V101.358ZM109.062 97.5967C109.062 99.9842 107.459 101.571 105.382 101.571C103.305 101.571 101.768 100.033 101.768 97.6294C101.768 95.2418 103.371 93.6555 105.464 93.6555C107.557 93.6555 109.062 95.1927 109.062 97.5967ZM108.064 97.6294C108.064 95.7978 107.001 94.5713 105.415 94.5713C103.828 94.5713 102.782 95.8305 102.782 97.5967C102.782 99.4282 103.845 100.655 105.431 100.655C107.017 100.655 108.064 99.3955 108.064 97.6294ZM119.704 94.1134V90.3358L120.718 90.1232V101.358H119.704C119.704 101.358 119.704 100.687 119.704 100.655C119.213 101.113 118.461 101.571 117.529 101.571C115.518 101.571 114.177 99.9515 114.177 97.6784C114.177 95.3563 115.73 93.7046 117.889 93.7046C118.527 93.7046 119.213 93.8845 119.704 94.1134ZM119.704 95.1927C119.246 94.833 118.559 94.6204 117.84 94.6204C116.237 94.6204 115.223 95.8959 115.223 97.6621C115.223 99.3955 116.188 100.638 117.709 100.638C118.478 100.638 119.181 100.295 119.704 99.8043C119.704 99.8371 119.704 95.1927 119.704 95.1927ZM123.607 97.6457V97.7275C123.64 99.4119 124.654 100.622 126.224 100.622C127.041 100.622 127.826 100.377 128.399 100.001L128.595 100.933C127.957 101.325 127.123 101.571 126.191 101.571C124.032 101.571 122.577 99.9515 122.577 97.6784C122.577 95.3236 124.081 93.6555 126.109 93.6555C127.761 93.6555 128.84 94.7348 128.84 96.4192C128.84 96.8117 128.775 97.2859 128.677 97.613L123.607 97.6457ZM123.673 96.8444L127.826 96.8281C127.843 96.7463 127.843 96.5828 127.843 96.501C127.843 95.3563 127.221 94.5713 126.044 94.5713C124.703 94.5713 123.836 95.6016 123.673 96.8444ZM47.7288 113.55V118.358H46.7149V110.868L47.7288 110.656V112.258C48.2194 111.293 48.9553 110.656 49.9365 110.656C50.4271 110.656 50.9013 110.803 51.2447 110.999L50.9831 111.947C50.656 111.751 50.2635 111.62 49.8384 111.62C49.0534 111.62 48.3175 112.209 47.7288 113.55ZM52.9239 114.646V114.727C52.9566 116.412 53.9705 117.622 55.5404 117.622C56.3581 117.622 57.143 117.377 57.7154 117.001L57.9116 117.933C57.2739 118.325 56.4399 118.571 55.5077 118.571C53.3491 118.571 51.8936 116.952 51.8936 114.678C51.8936 112.324 53.3981 110.656 55.4259 110.656C57.0776 110.656 58.1569 111.735 58.1569 113.419C58.1569 113.812 58.0915 114.286 57.9934 114.613L52.9239 114.646ZM52.9893 113.844L57.143 113.828C57.1594 113.746 57.1594 113.583 57.1594 113.501C57.1594 112.356 56.538 111.571 55.3605 111.571C54.0196 111.571 53.1528 112.602 52.9893 113.844ZM66.0184 118.358H65.0045V113.517C65.0045 112.209 64.4812 111.62 63.3528 111.62C62.5352 111.62 61.7011 112.062 61.0797 112.683V118.358H60.0658V110.868L61.0797 110.656V111.882C61.8647 111.097 62.8459 110.656 63.6308 110.656C65.1353 110.656 66.0184 111.588 66.0184 113.223V118.358ZM73.3591 111.113V107.336L74.373 107.123V118.358H73.3591C73.3591 118.358 73.3591 117.687 73.3591 117.655C72.8685 118.113 72.1163 118.571 71.1841 118.571C69.1727 118.571 67.8317 116.952 67.8317 114.678C67.8317 112.356 69.3853 110.705 71.5439 110.705C72.1817 110.705 72.8685 110.884 73.3591 111.113ZM73.3591 112.193C72.9012 111.833 72.2144 111.62 71.4948 111.62C69.8922 111.62 68.8783 112.896 68.8783 114.662C68.8783 116.396 69.8432 117.638 71.364 117.638C72.1326 117.638 72.8358 117.295 73.3591 116.804C73.3591 116.837 73.3591 112.193 73.3591 112.193ZM80.6309 116.706V114.515C78.0635 114.809 77.1477 115.382 77.1477 116.379C77.1477 117.18 77.8018 117.687 78.6849 117.687C79.4862 117.687 80.1731 117.23 80.6309 116.706ZM80.6964 117.458H80.6473C80.1403 118.08 79.339 118.571 78.456 118.571C77.0823 118.571 76.0847 117.687 76.0847 116.494C76.0847 115.136 77.1477 114.024 80.6309 113.828C80.6309 113.828 80.6309 113.436 80.6309 113.387C80.6309 112.209 80.1076 111.604 78.8648 111.604C78.0471 111.604 77.0496 112.029 76.4118 112.503L76.1829 111.555C76.8533 111.081 77.9817 110.656 78.9629 110.656C80.6964 110.656 81.6612 111.44 81.6449 113.337C81.6449 113.387 81.6449 116.935 81.6449 116.935C81.6449 117.475 81.743 117.704 82.3971 117.687L82.3317 118.521C81.3505 118.587 80.8108 118.194 80.6964 117.458ZM88.6439 111.62C89.1509 111.146 89.9031 110.705 90.8189 110.705C92.8467 110.705 94.1713 112.307 94.1713 114.58C94.1713 116.902 92.6341 118.571 90.4755 118.571C89.8868 118.571 89.1345 118.407 88.6439 118.178V122.168H87.63V110.835L88.6439 110.623C88.6439 110.623 88.6439 111.571 88.6439 111.62ZM88.6439 112.471C88.6439 112.422 88.6439 117.066 88.6439 117.066C89.1018 117.426 89.805 117.655 90.5246 117.655C92.1272 117.655 93.1247 116.363 93.1247 114.597C93.1247 112.863 92.1762 111.637 90.6554 111.637C89.8868 111.637 89.1836 111.98 88.6439 112.471ZM99.9546 116.706V114.515C97.3872 114.809 96.4714 115.382 96.4714 116.379C96.4714 117.18 97.1255 117.687 98.0086 117.687C98.8099 117.687 99.4968 117.23 99.9546 116.706ZM100.02 117.458H99.971C99.464 118.08 98.6627 118.571 97.7797 118.571C96.406 118.571 95.4084 117.687 95.4084 116.494C95.4084 115.136 96.4714 114.024 99.9546 113.828C99.9546 113.828 99.9546 113.436 99.9546 113.387C99.9546 112.209 99.4313 111.604 98.1885 111.604C97.3708 111.604 96.3733 112.029 95.7355 112.503L95.5066 111.555C96.177 111.081 97.3054 110.656 98.2866 110.656C100.02 110.656 100.985 111.44 100.969 113.337C100.969 113.387 100.969 116.935 100.969 116.935C100.969 117.475 101.067 117.704 101.721 117.687L101.655 118.521C100.674 118.587 100.135 118.194 100.02 117.458ZM104.247 113.55V118.358H103.233V110.868L104.247 110.656V112.258C104.737 111.293 105.473 110.656 106.454 110.656C106.945 110.656 107.419 110.803 107.763 110.999L107.501 111.947C107.174 111.751 106.781 111.62 106.356 111.62C105.571 111.62 104.835 112.209 104.247 113.55ZM112.89 116.706V114.515C110.323 114.809 109.407 115.382 109.407 116.379C109.407 117.18 110.061 117.687 110.944 117.687C111.746 117.687 112.432 117.23 112.89 116.706ZM112.956 117.458H112.907C112.4 118.08 111.598 118.571 110.715 118.571C109.342 118.571 108.344 117.687 108.344 116.494C108.344 115.136 109.407 114.024 112.89 113.828C112.89 113.828 112.89 113.436 112.89 113.387C112.89 112.209 112.367 111.604 111.124 111.604C110.307 111.604 109.309 112.029 108.671 112.503L108.442 111.555C109.113 111.081 110.241 110.656 111.222 110.656C112.956 110.656 113.921 111.44 113.904 113.337C113.904 113.387 113.904 116.935 113.904 116.935C113.904 117.475 114.002 117.704 114.656 117.687L114.591 118.521C113.61 118.587 113.07 118.194 112.956 117.458ZM126.692 114.597C126.692 116.984 125.09 118.571 123.013 118.571C120.936 118.571 119.399 117.033 119.399 114.629C119.399 112.242 121.001 110.656 123.095 110.656C125.188 110.656 126.692 112.193 126.692 114.597ZM125.695 114.629C125.695 112.798 124.632 111.571 123.046 111.571C121.459 111.571 120.413 112.831 120.413 114.597C120.413 116.428 121.476 117.655 123.062 117.655C124.648 117.655 125.695 116.396 125.695 114.629ZM62.6407 132.706V130.515C60.0733 130.809 59.1575 131.382 59.1575 132.379C59.1575 133.18 59.8116 133.687 60.6947 133.687C61.496 133.687 62.1829 133.23 62.6407 132.706ZM62.7062 133.458H62.6571C62.1501 134.08 61.3488 134.571 60.4658 134.571C59.0921 134.571 58.0945 133.687 58.0945 132.494C58.0945 131.136 59.1575 130.024 62.6407 129.828C62.6407 129.828 62.6407 129.436 62.6407 129.387C62.6407 128.209 62.1174 127.604 60.8746 127.604C60.0569 127.604 59.0594 128.029 58.4216 128.503L58.1927 127.555C58.8631 127.081 59.9915 126.656 60.9727 126.656C62.7062 126.656 63.671 127.44 63.6546 129.337C63.6546 129.387 63.6546 132.935 63.6546 132.935C63.6546 133.475 63.7528 133.704 64.4069 133.687L64.3415 134.521C63.3603 134.587 62.8206 134.194 62.7062 133.458ZM66.9327 127.62C67.4397 127.146 68.1919 126.705 69.1077 126.705C71.1355 126.705 72.4601 128.307 72.4601 130.58C72.4601 132.902 70.9229 134.571 68.7643 134.571C68.1756 134.571 67.4233 134.407 66.9327 134.178V138.168H65.9188V126.835L66.9327 126.623C66.9327 126.623 66.9327 127.571 66.9327 127.62ZM66.9327 128.471C66.9327 128.422 66.9327 133.066 66.9327 133.066C67.3906 133.426 68.0938 133.655 68.8133 133.655C70.416 133.655 71.4135 132.363 71.4135 130.597C71.4135 128.863 70.465 127.637 68.9442 127.637C68.1756 127.637 67.4724 127.98 66.9327 128.471ZM75.5451 124.399C75.5451 124.791 75.3162 125.151 74.8583 125.151C74.4004 125.151 74.1715 124.791 74.1715 124.399C74.1715 124.023 74.4004 123.679 74.8583 123.679C75.3162 123.679 75.5451 124.023 75.5451 124.399ZM75.3653 134.358H74.3514V126.868L75.3653 126.656V134.358ZM83.2473 133.933C82.6095 134.325 81.7918 134.571 80.9251 134.571C78.6684 134.571 77.262 132.952 77.262 130.629C77.262 128.291 78.8155 126.656 80.9415 126.656C81.8573 126.656 82.6422 126.884 83.28 127.293L83.0183 128.209C82.446 127.833 81.7264 127.604 80.9415 127.604C79.3225 127.604 78.3086 128.814 78.3086 130.597C78.3086 132.428 79.3716 133.622 80.9578 133.622C81.7101 133.622 82.4623 133.377 83.0347 133.001L83.2473 133.933ZM85.0653 126.868H86.0792V131.709C86.0792 133.017 86.6025 133.606 87.6982 133.606C88.5649 133.606 89.3989 133.164 90.004 132.543V126.868H91.0179V134.358L90.004 134.571C90.004 134.571 90.004 133.393 90.004 133.36C89.2354 134.145 88.2542 134.571 87.4202 134.571C85.9647 134.571 85.0653 133.638 85.0653 132.003V126.868ZM94.3851 134.358H93.3712V123.336L94.3851 123.123V134.358ZM100.469 134.211C99.9461 134.456 99.3411 134.603 98.8014 134.603C97.3787 134.603 96.7409 133.818 96.79 132.248L96.9044 127.817L95.7597 127.751L95.8088 127.113L96.9371 126.852L96.9862 125.151H97.951L97.902 126.901H100.404L100.355 127.8H97.8693L97.7548 132.281C97.7221 133.23 98.0655 133.687 98.8505 133.687C99.3411 133.687 99.8317 133.524 100.29 133.328L100.469 134.211ZM108.846 130.597C108.846 132.984 107.243 134.571 105.166 134.571C103.09 134.571 101.552 133.033 101.552 130.629C101.552 128.242 103.155 126.656 105.248 126.656C107.341 126.656 108.846 128.193 108.846 130.597ZM107.848 130.629C107.848 128.798 106.785 127.571 105.199 127.571C103.613 127.571 102.566 128.831 102.566 130.597C102.566 132.428 103.629 133.655 105.215 133.655C106.802 133.655 107.848 132.396 107.848 130.629ZM111.745 129.55V134.358H110.731V126.868L111.745 126.656V128.258C112.235 127.293 112.971 126.656 113.952 126.656C114.443 126.656 114.917 126.803 115.26 126.999L114.999 127.947C114.672 127.751 114.279 127.62 113.854 127.62C113.069 127.62 112.333 128.209 111.745 129.55Z" fill="white"/>
<path d="M63.8251 54.2541C68.0904 54.2541 71.2379 57.078 71.2085 60.9903C71.2085 65.0497 67.9433 66.4911 65.0018 67.7266C62.2661 68.9032 60.2952 69.6092 60.2952 71.5212V72.2272H71.2379V75.8159H55.3239L55.3534 72.3743C55.3534 67.3441 59.2951 66.1381 62.4132 64.8144C64.5311 63.9319 66.2666 62.9906 66.2666 60.8727C66.2666 59.2548 65.1783 58.2546 63.6486 58.2546C61.8837 58.2546 60.5305 59.696 60.5011 62.4905L55.7358 61.6375C55.9711 57.2839 59.3833 54.2541 63.8251 54.2541ZM81.1341 76.4337C76.3687 76.4337 72.7211 73.7274 72.2799 69.7562L76.9276 68.7855C77.1923 71.0505 78.6926 72.4331 80.987 72.4331C83.1049 72.4331 84.6934 71.0505 84.664 69.0797C84.664 66.9617 83.1638 65.5498 80.4869 65.5498H74.4273L75.045 54.8718H87.5467V58.6076H79.075L78.8985 62.1964H81.8989C86.5172 62.1964 89.6353 65.1968 89.6353 69.2856C89.6353 73.5215 86.0759 76.4337 81.1341 76.4337ZM96.9633 76.1101L95.9925 75.4335L111.318 53.8717L112.289 54.5482L96.9633 76.1101ZM96.4926 65.9322C93.0804 65.9322 90.58 63.4612 90.6094 60.0784C90.6094 56.6368 93.1098 54.1658 96.4926 54.1658C99.9049 54.1658 102.376 56.6368 102.376 60.0784C102.376 63.4907 99.9049 65.9322 96.4926 65.9322ZM96.522 63.0788C98.287 63.0788 99.5224 61.814 99.5224 60.0784C99.5224 58.3135 98.287 57.0192 96.522 57.0192C94.7571 57.0192 93.4922 58.3135 93.4922 60.0784C93.4922 61.814 94.7865 63.0788 96.522 63.0788ZM111.495 76.2277C108.082 76.2277 105.612 73.7568 105.612 70.374C105.641 66.9323 108.112 64.4614 111.495 64.4614C114.907 64.4614 117.378 66.9323 117.378 70.374C117.378 73.7862 114.907 76.2277 111.495 76.2277ZM111.524 73.3744C113.289 73.3744 114.525 72.1095 114.525 70.374C114.525 68.609 113.289 67.3147 111.524 67.3147C109.759 67.3147 108.494 68.609 108.494 70.374C108.494 72.1095 109.759 73.3744 111.524 73.3744Z" fill="white"/>
</svg>
