<svg width="268" height="267" viewBox="0 0 268 267" fill="none" xmlns="http://www.w3.org/2000/svg">
<ellipse cx="134" cy="133.5" rx="134" ry="133.5" fill="#1010E2"/>
<path d="M63.821 124.673C63.821 124.694 63.5056 125.871 63.5056 125.85C63.0641 125.64 62.5595 125.451 62.0338 125.451C60.9615 125.451 60.4359 126.145 60.4359 127.701V129.299H63.4636L63.4005 130.455H60.4359V138.886H59.1533V130.497L57.5974 130.392L57.6815 129.572L59.1323 129.235L59.1533 127.722C59.1954 125.178 60.3728 124.252 62.0549 124.252C62.7066 124.252 63.3795 124.463 63.821 124.673ZM70.1676 136.763V133.945C66.8666 134.324 65.6892 135.06 65.6892 136.342C65.6892 137.372 66.5302 138.024 67.6656 138.024C68.6958 138.024 69.5789 137.435 70.1676 136.763ZM70.2517 137.73H70.1887C69.5369 138.529 68.5066 139.16 67.3712 139.16C65.6051 139.16 64.3225 138.024 64.3225 136.489C64.3225 134.744 65.6892 133.314 70.1676 133.062C70.1676 133.062 70.1676 132.558 70.1676 132.494C70.1676 130.981 69.4948 130.203 67.8969 130.203C66.8456 130.203 65.563 130.749 64.743 131.359L64.4487 130.14C65.3107 129.53 66.7615 128.983 68.023 128.983C70.2517 128.983 71.4922 129.992 71.4712 132.431C71.4712 132.494 71.4712 137.057 71.4712 137.057C71.4712 137.751 71.5974 138.045 72.4384 138.024L72.3543 139.096C71.0928 139.181 70.3989 138.676 70.2517 137.73ZM87.7125 138.886H86.409V132.684C86.409 131.002 85.7572 130.224 84.3695 130.224C83.3392 130.224 82.3931 130.77 81.6572 131.464C81.6782 131.59 81.6992 132.095 81.6992 132.326V138.886H80.3956V132.684C80.3956 131.002 79.7438 130.224 78.3561 130.224C77.3469 130.224 76.4218 130.686 75.6859 131.338V138.886H74.3823V129.256L75.6859 128.983C75.6859 128.983 75.6859 130.224 75.6859 130.308C76.6741 129.404 77.7464 128.983 78.7346 128.983C79.9331 128.983 80.8792 129.509 81.3418 130.581C82.4141 129.509 83.6336 128.983 84.7479 128.983C86.5772 128.983 87.7125 130.182 87.7125 132.305V138.886ZM94.9536 124.231L91.7577 127.995H90.7905L93.2715 124.231H94.9536ZM92.052 138.886H90.7484V129.362L92.052 129.088V138.886ZM96.383 138.886H95.0794V124.715L96.383 124.442V138.886ZM100.968 126.082C100.968 126.586 100.673 127.049 100.085 127.049C99.4959 127.049 99.2016 126.586 99.2016 126.082C99.2016 125.598 99.4959 125.156 100.085 125.156C100.673 125.156 100.968 125.598 100.968 126.082ZM100.736 138.886H99.4329V129.256L100.736 128.983V138.886ZM108.831 136.763V133.945C105.53 134.324 104.353 135.06 104.353 136.342C104.353 137.372 105.194 138.024 106.329 138.024C107.359 138.024 108.242 137.435 108.831 136.763ZM108.915 137.73H108.852C108.2 138.529 107.17 139.16 106.035 139.16C104.268 139.16 102.986 138.024 102.986 136.489C102.986 134.744 104.353 133.314 108.831 133.062C108.831 133.062 108.831 132.558 108.831 132.494C108.831 130.981 108.158 130.203 106.56 130.203C105.509 130.203 104.226 130.749 103.406 131.359L103.112 130.14C103.974 129.53 105.425 128.983 106.686 128.983C108.915 128.983 110.156 129.992 110.135 132.431C110.135 132.494 110.135 137.057 110.135 137.057C110.135 137.751 110.261 138.045 111.102 138.024L111.018 139.096C109.756 139.181 109.062 138.676 108.915 137.73ZM119.386 126.082C119.386 126.586 119.091 127.049 118.503 127.049C117.914 127.049 117.62 126.586 117.62 126.082C117.62 125.598 117.914 125.156 118.503 125.156C119.091 125.156 119.386 125.598 119.386 126.082ZM119.154 138.886H117.851V129.256L119.154 128.983V138.886ZM135.554 138.886H134.25V132.684C134.25 131.002 133.599 130.224 132.211 130.224C131.181 130.224 130.235 130.77 129.499 131.464C129.52 131.59 129.541 132.095 129.541 132.326V138.886H128.237V132.684C128.237 131.002 127.585 130.224 126.198 130.224C125.188 130.224 124.263 130.686 123.527 131.338V138.886H122.224V129.256L123.527 128.983C123.527 128.983 123.527 130.224 123.527 130.308C124.516 129.404 125.588 128.983 126.576 128.983C127.775 128.983 128.721 129.509 129.183 130.581C130.256 129.509 131.475 128.983 132.589 128.983C134.419 128.983 135.554 130.182 135.554 132.305V138.886ZM139.831 130.224C140.482 129.614 141.449 129.046 142.627 129.046C145.234 129.046 146.937 131.107 146.937 134.029C146.937 137.015 144.961 139.16 142.185 139.16C141.428 139.16 140.461 138.949 139.831 138.655V143.785H138.527V129.214L139.831 128.941C139.831 128.941 139.831 130.161 139.831 130.224ZM139.831 131.317C139.831 131.254 139.831 137.225 139.831 137.225C140.419 137.688 141.323 137.982 142.248 137.982C144.309 137.982 145.592 136.321 145.592 134.05C145.592 131.822 144.372 130.245 142.417 130.245C141.428 130.245 140.524 130.686 139.831 131.317ZM154.373 136.763V133.945C151.072 134.324 149.894 135.06 149.894 136.342C149.894 137.372 150.735 138.024 151.871 138.024C152.901 138.024 153.784 137.435 154.373 136.763ZM154.457 137.73H154.394C153.742 138.529 152.712 139.16 151.576 139.16C149.81 139.16 148.528 138.024 148.528 136.489C148.528 134.744 149.894 133.314 154.373 133.062C154.373 133.062 154.373 132.558 154.373 132.494C154.373 130.981 153.7 130.203 152.102 130.203C151.051 130.203 149.768 130.749 148.948 131.359L148.654 130.14C149.516 129.53 150.967 128.983 152.228 128.983C154.457 128.983 155.697 129.992 155.676 132.431C155.676 132.494 155.676 137.057 155.676 137.057C155.676 137.751 155.803 138.045 156.644 138.024L156.56 139.096C155.298 139.181 154.604 138.676 154.457 137.73ZM165.652 138.34C164.832 138.844 163.781 139.16 162.666 139.16C159.765 139.16 157.957 137.078 157.957 134.092C157.957 131.086 159.954 128.983 162.688 128.983C163.865 128.983 164.874 129.278 165.694 129.803L165.358 130.981C164.622 130.497 163.697 130.203 162.688 130.203C160.606 130.203 159.302 131.759 159.302 134.05C159.302 136.405 160.669 137.94 162.709 137.94C163.676 137.94 164.643 137.625 165.379 137.141L165.652 138.34ZM172.868 138.697C172.195 139.012 171.417 139.202 170.723 139.202C168.894 139.202 168.074 138.192 168.137 136.174L168.284 130.476L166.812 130.392L166.875 129.572L168.326 129.235L168.389 127.049H169.63L169.567 129.299H172.783L172.72 130.455H169.524L169.377 136.216C169.335 137.435 169.777 138.024 170.786 138.024C171.417 138.024 172.048 137.814 172.636 137.562L172.868 138.697ZM180.018 136.763V133.945C176.717 134.324 175.54 135.06 175.54 136.342C175.54 137.372 176.381 138.024 177.516 138.024C178.547 138.024 179.43 137.435 180.018 136.763ZM180.102 137.73H180.039C179.388 138.529 178.357 139.16 177.222 139.16C175.456 139.16 174.173 138.024 174.173 136.489C174.173 134.744 175.54 133.314 180.018 133.062C180.018 133.062 180.018 132.558 180.018 132.494C180.018 130.981 179.346 130.203 177.748 130.203C176.696 130.203 175.414 130.749 174.594 131.359L174.299 130.14C175.161 129.53 176.612 128.983 177.874 128.983C180.102 128.983 181.343 129.992 181.322 132.431C181.322 132.494 181.322 137.057 181.322 137.057C181.322 137.751 181.448 138.045 182.289 138.024L182.205 139.096C180.944 139.181 180.25 138.676 180.102 137.73ZM190.709 129.572V124.715L192.013 124.442V138.886H190.709C190.709 138.886 190.709 138.024 190.709 137.982C190.078 138.571 189.111 139.16 187.913 139.16C185.326 139.16 183.602 137.078 183.602 134.155C183.602 131.17 185.6 129.046 188.375 129.046C189.195 129.046 190.078 129.278 190.709 129.572ZM190.709 130.96C190.12 130.497 189.237 130.224 188.312 130.224C186.252 130.224 184.948 131.864 184.948 134.134C184.948 136.363 186.188 137.961 188.144 137.961C189.132 137.961 190.036 137.52 190.709 136.889C190.709 136.931 190.709 130.96 190.709 130.96ZM200.058 136.763V133.945C196.757 134.324 195.58 135.06 195.58 136.342C195.58 137.372 196.421 138.024 197.556 138.024C198.587 138.024 199.47 137.435 200.058 136.763ZM200.143 137.73H200.079C199.428 138.529 198.397 139.16 197.262 139.16C195.496 139.16 194.213 138.024 194.213 136.489C194.213 134.744 195.58 133.314 200.058 133.062C200.058 133.062 200.058 132.558 200.058 132.494C200.058 130.981 199.386 130.203 197.788 130.203C196.736 130.203 195.454 130.749 194.634 131.359L194.339 130.14C195.202 129.53 196.652 128.983 197.914 128.983C200.143 128.983 201.383 129.992 201.362 132.431C201.362 132.494 201.362 137.057 201.362 137.057C201.362 137.751 201.488 138.045 202.329 138.024L202.245 139.096C200.984 139.181 200.29 138.676 200.143 137.73ZM210.055 136.258C210.055 138.024 208.541 139.16 206.607 139.16C205.472 139.16 204.273 138.823 203.453 138.298L203.811 137.099C204.631 137.646 205.661 137.982 206.649 137.982C207.805 137.982 208.815 137.414 208.815 136.363C208.815 135.207 207.595 134.87 206.397 134.492C205.072 134.092 203.6 133.441 203.6 131.759C203.6 130.013 205.051 128.983 206.859 128.983C207.911 128.983 208.962 129.278 209.782 129.698L209.403 130.875C208.604 130.434 207.616 130.161 206.775 130.161C205.598 130.161 204.841 130.707 204.841 131.632C204.841 132.726 205.976 133.062 207.217 133.441C208.583 133.84 210.055 134.471 210.055 136.258ZM63.2821 154.572V149.715L64.5857 149.442V163.886H63.2821C63.2821 163.886 63.2821 163.024 63.2821 162.982C62.6513 163.571 61.6841 164.16 60.4857 164.16C57.8995 164.16 56.1754 162.078 56.1754 159.155C56.1754 156.17 58.1728 154.046 60.9482 154.046C61.7682 154.046 62.6513 154.278 63.2821 154.572ZM63.2821 155.96C62.6933 155.497 61.8103 155.224 60.8851 155.224C58.8246 155.224 57.521 156.864 57.521 159.134C57.521 161.363 58.7616 162.961 60.7169 162.961C61.7051 162.961 62.6092 162.52 63.2821 161.889C63.2821 161.931 63.2821 155.96 63.2821 155.96ZM69.1623 151.082C69.1623 151.586 68.868 152.049 68.2793 152.049C67.6906 152.049 67.3962 151.586 67.3962 151.082C67.3962 150.598 67.6906 150.156 68.2793 150.156C68.868 150.156 69.1623 150.598 69.1623 151.082ZM68.9311 163.886H67.6275V154.256L68.9311 153.983V163.886ZM73.3041 157.705V163.886H72.0005V154.256L73.3041 153.983V156.044C73.9348 154.803 74.881 153.983 76.1425 153.983C76.7733 153.983 77.383 154.172 77.8246 154.425L77.4882 155.644C77.0677 155.392 76.563 155.224 76.0164 155.224C75.0071 155.224 74.061 155.981 73.3041 157.705ZM79.9835 159.113V159.219C80.0255 161.384 81.3291 162.94 83.3476 162.94C84.3989 162.94 85.4081 162.625 86.144 162.141L86.3963 163.34C85.5763 163.844 84.504 164.16 83.3055 164.16C80.5302 164.16 78.6589 162.078 78.6589 159.155C78.6589 156.128 80.5932 153.983 83.2004 153.983C85.324 153.983 86.7117 155.371 86.7117 157.536C86.7117 158.041 86.6276 158.651 86.5014 159.071L79.9835 159.113ZM80.0676 158.083L85.4081 158.062C85.4291 157.957 85.4291 157.747 85.4291 157.642C85.4291 156.17 84.6302 155.161 83.1163 155.161C81.3922 155.161 80.2778 156.485 80.0676 158.083ZM93.9598 163.697C93.287 164.012 92.509 164.202 91.8152 164.202C89.9859 164.202 89.1659 163.192 89.229 161.174L89.3762 155.476L87.9044 155.392L87.9675 154.572L89.4182 154.235L89.4813 152.049H90.7218L90.6588 154.299H93.8757L93.8126 155.455H90.6167L90.4695 161.216C90.4275 162.435 90.869 163.024 91.8782 163.024C92.509 163.024 93.1398 162.814 93.7285 162.562L93.9598 163.697ZM101.111 161.763V158.945C97.8096 159.324 96.6322 160.06 96.6322 161.342C96.6322 162.372 97.4732 163.024 98.6086 163.024C99.6389 163.024 100.522 162.435 101.111 161.763ZM101.195 162.73H101.132C100.48 163.529 99.4496 164.16 98.3142 164.16C96.5481 164.16 95.2655 163.024 95.2655 161.489C95.2655 159.744 96.6322 158.314 101.111 158.062C101.111 158.062 101.111 157.558 101.111 157.494C101.111 155.981 100.438 155.203 98.8399 155.203C97.7886 155.203 96.506 155.749 95.686 156.359L95.3917 155.14C96.2537 154.53 97.7045 153.983 98.966 153.983C101.195 153.983 102.435 154.992 102.414 157.431C102.414 157.494 102.414 162.057 102.414 162.057C102.414 162.751 102.54 163.045 103.381 163.024L103.297 164.096C102.036 164.181 101.342 163.676 101.195 162.73ZM118.656 163.886H117.352V157.684C117.352 156.002 116.7 155.224 115.312 155.224C114.282 155.224 113.336 155.77 112.6 156.464C112.621 156.59 112.642 157.095 112.642 157.326V163.886H111.339V157.684C111.339 156.002 110.687 155.224 109.299 155.224C108.29 155.224 107.365 155.686 106.629 156.338V163.886H105.325V154.256L106.629 153.983C106.629 153.983 106.629 155.224 106.629 155.308C107.617 154.404 108.689 153.983 109.678 153.983C110.876 153.983 111.822 154.509 112.285 155.581C113.357 154.509 114.577 153.983 115.691 153.983C117.52 153.983 118.656 155.182 118.656 157.305V163.886ZM122.322 159.113V159.219C122.364 161.384 123.668 162.94 125.686 162.94C126.738 162.94 127.747 162.625 128.483 162.141L128.735 163.34C127.915 163.844 126.843 164.16 125.644 164.16C122.869 164.16 120.998 162.078 120.998 159.155C120.998 156.128 122.932 153.983 125.539 153.983C127.663 153.983 129.05 155.371 129.05 157.536C129.05 158.041 128.966 158.651 128.84 159.071L122.322 159.113ZM122.406 158.083L127.747 158.062C127.768 157.957 127.768 157.747 127.768 157.642C127.768 156.17 126.969 155.161 125.455 155.161C123.731 155.161 122.617 156.485 122.406 158.083ZM139.158 163.886H137.854V157.663C137.854 155.981 137.182 155.224 135.731 155.224C134.68 155.224 133.607 155.791 132.808 156.59V163.886H131.505V154.256L132.808 153.983V155.56C133.818 154.551 135.079 153.983 136.088 153.983C138.023 153.983 139.158 155.182 139.158 157.284V163.886ZM146.914 163.697C146.241 164.012 145.463 164.202 144.769 164.202C142.94 164.202 142.12 163.192 142.183 161.174L142.33 155.476L140.859 155.392L140.922 154.572L142.372 154.235L142.436 152.049H143.676L143.613 154.299H146.83L146.767 155.455H143.571L143.424 161.216C143.382 162.435 143.823 163.024 144.832 163.024C145.463 163.024 146.094 162.814 146.683 162.562L146.914 163.697ZM149.631 159.113V159.219C149.673 161.384 150.977 162.94 152.995 162.94C154.046 162.94 155.056 162.625 155.791 162.141L156.044 163.34C155.224 163.844 154.151 164.16 152.953 164.16C150.178 164.16 148.306 162.078 148.306 159.155C148.306 156.128 150.241 153.983 152.848 153.983C154.971 153.983 156.359 155.371 156.359 157.536C156.359 158.041 156.275 158.651 156.149 159.071L149.631 159.113ZM149.715 158.083L155.056 158.062C155.077 157.957 155.077 157.747 155.077 157.642C155.077 156.17 154.278 155.161 152.764 155.161C151.04 155.161 149.925 156.485 149.715 158.083ZM170.662 163.34C169.842 163.844 168.791 164.16 167.676 164.16C164.775 164.16 162.967 162.078 162.967 159.092C162.967 156.086 164.964 153.983 167.698 153.983C168.875 153.983 169.884 154.278 170.704 154.803L170.368 155.981C169.632 155.497 168.707 155.203 167.698 155.203C165.616 155.203 164.312 156.759 164.312 159.05C164.312 161.405 165.679 162.94 167.719 162.94C168.686 162.94 169.653 162.625 170.389 162.141L170.662 163.34ZM181.728 159.05C181.728 162.12 179.667 164.16 176.997 164.16C174.327 164.16 172.35 162.183 172.35 159.092C172.35 156.023 174.411 153.983 177.102 153.983C179.793 153.983 181.728 155.96 181.728 159.05ZM180.445 159.092C180.445 156.738 179.078 155.161 177.039 155.161C175 155.161 173.654 156.78 173.654 159.05C173.654 161.405 175.021 162.982 177.06 162.982C179.1 162.982 180.445 161.363 180.445 159.092ZM197.481 163.886H196.178V157.684C196.178 156.002 195.526 155.224 194.138 155.224C193.108 155.224 192.162 155.77 191.426 156.464C191.447 156.59 191.468 157.095 191.468 157.326V163.886H190.164V157.684C190.164 156.002 189.512 155.224 188.125 155.224C187.116 155.224 186.19 155.686 185.455 156.338V163.886H184.151V154.256L185.455 153.983C185.455 153.983 185.455 155.224 185.455 155.308C186.443 154.404 187.515 153.983 188.503 153.983C189.702 153.983 190.648 154.509 191.11 155.581C192.183 154.509 193.402 153.983 194.517 153.983C196.346 153.983 197.481 155.182 197.481 157.305V163.886ZM210.263 161.763V158.945C206.962 159.324 205.785 160.06 205.785 161.342C205.785 162.372 206.626 163.024 207.761 163.024C208.791 163.024 209.675 162.435 210.263 161.763ZM210.347 162.73H210.284C209.633 163.529 208.602 164.16 207.467 164.16C205.701 164.16 204.418 163.024 204.418 161.489C204.418 159.744 205.785 158.314 210.263 158.062C210.263 158.062 210.263 157.558 210.263 157.494C210.263 155.981 209.59 155.203 207.993 155.203C206.941 155.203 205.659 155.749 204.839 156.359L204.544 155.14C205.406 154.53 206.857 153.983 208.119 153.983C210.347 153.983 211.588 154.992 211.567 157.431C211.567 157.494 211.567 162.057 211.567 162.057C211.567 162.751 211.693 163.045 212.534 163.024L212.45 164.096C211.188 164.181 210.495 163.676 210.347 162.73ZM54.2879 180.256L50.5032 189.907H49.3258L45.5202 180.256H46.9289L49.9776 188.204L52.9212 180.256H54.2879ZM56.4734 185.113V185.219C56.5154 187.384 57.819 188.94 59.8375 188.94C60.8888 188.94 61.898 188.625 62.6339 188.141L62.8862 189.34C62.0662 189.844 60.9939 190.16 59.7954 190.16C57.02 190.16 55.1488 188.078 55.1488 185.155C55.1488 182.128 57.0831 179.983 59.6903 179.983C61.8139 179.983 63.2016 181.371 63.2016 183.536C63.2016 184.041 63.1175 184.651 62.9913 185.071L56.4734 185.113ZM56.5575 184.083L61.898 184.062C61.919 183.957 61.919 183.747 61.919 183.642C61.919 182.17 61.12 181.161 59.6062 181.161C57.8821 181.161 56.7677 182.485 56.5575 184.083ZM73.3092 189.886H72.0056V183.663C72.0056 181.981 71.3327 181.224 69.882 181.224C68.8307 181.224 67.7584 181.791 66.9594 182.59V189.886H65.6558V180.256L66.9594 179.983V181.56C67.9686 180.551 69.2302 179.983 70.2394 179.983C72.1738 179.983 73.3092 181.182 73.3092 183.284V189.886ZM82.7472 180.572V175.715L84.0508 175.442V189.886H82.7472C82.7472 189.886 82.7472 189.024 82.7472 188.982C82.1164 189.571 81.1493 190.16 79.9508 190.16C77.3646 190.16 75.6405 188.078 75.6405 185.155C75.6405 182.17 77.638 180.046 80.4134 180.046C81.2334 180.046 82.1164 180.278 82.7472 180.572ZM82.7472 181.96C82.1585 181.497 81.2754 181.224 80.3503 181.224C78.2898 181.224 76.9862 182.864 76.9862 185.134C76.9862 187.363 78.2267 188.961 80.1821 188.961C81.1703 188.961 82.0744 188.52 82.7472 187.889C82.7472 187.931 82.7472 181.96 82.7472 181.96ZM92.0967 187.763V184.945C88.7957 185.324 87.6183 186.06 87.6183 187.342C87.6183 188.372 88.4593 189.024 89.5947 189.024C90.6249 189.024 91.508 188.435 92.0967 187.763ZM92.1808 188.73H92.1177C91.466 189.529 90.4357 190.16 89.3003 190.16C87.5342 190.16 86.2516 189.024 86.2516 187.489C86.2516 185.744 87.6183 184.314 92.0967 184.062C92.0967 184.062 92.0967 183.558 92.0967 183.494C92.0967 181.981 91.4239 181.203 89.826 181.203C88.7747 181.203 87.4921 181.749 86.6721 182.359L86.3777 181.14C87.2398 180.53 88.6906 179.983 89.9521 179.983C92.1808 179.983 93.4213 180.992 93.4003 183.431C93.4003 183.494 93.4003 188.057 93.4003 188.057C93.4003 188.751 93.5265 189.045 94.3675 189.024L94.2834 190.096C93.0218 190.181 92.328 189.676 92.1808 188.73ZM107.571 180.572V175.715L108.875 175.442V189.886H107.571C107.571 189.886 107.571 189.024 107.571 188.982C106.941 189.571 105.973 190.16 104.775 190.16C102.189 190.16 100.465 188.078 100.465 185.155C100.465 182.17 102.462 180.046 105.238 180.046C106.058 180.046 106.941 180.278 107.571 180.572ZM107.571 181.96C106.983 181.497 106.1 181.224 105.175 181.224C103.114 181.224 101.81 182.864 101.81 185.134C101.81 187.363 103.051 188.961 105.006 188.961C105.995 188.961 106.899 188.52 107.571 187.889C107.571 187.931 107.571 181.96 107.571 181.96ZM120.642 185.05C120.642 188.12 118.582 190.16 115.912 190.16C113.241 190.16 111.265 188.183 111.265 185.092C111.265 182.023 113.326 179.983 116.017 179.983C118.708 179.983 120.642 181.96 120.642 185.05ZM119.36 185.092C119.36 182.738 117.993 181.161 115.954 181.161C113.914 181.161 112.569 182.78 112.569 185.05C112.569 187.405 113.935 188.982 115.975 188.982C118.014 188.982 119.36 187.363 119.36 185.092ZM139.603 189.886L139.393 178.406L135.083 189.802H133.611L129.259 178.385L129.027 189.886H127.703L128.144 176.745H129.952L134.389 188.351L138.762 176.745H140.549L140.97 189.886H139.603ZM144.539 185.113V185.219C144.581 187.384 145.884 188.94 147.903 188.94C148.954 188.94 149.963 188.625 150.699 188.141L150.952 189.34C150.132 189.844 149.059 190.16 147.861 190.16C145.085 190.16 143.214 188.078 143.214 185.155C143.214 182.128 145.149 179.983 147.756 179.983C149.879 179.983 151.267 181.371 151.267 183.536C151.267 184.041 151.183 184.651 151.057 185.071L144.539 185.113ZM144.623 184.083L149.963 184.062C149.984 183.957 149.984 183.747 149.984 183.642C149.984 182.17 149.185 181.161 147.672 181.161C145.947 181.161 144.833 182.485 144.623 184.083ZM155.025 189.886H153.721V175.715L155.025 175.442V189.886ZM174.591 189.886L174.381 178.406L170.071 189.802H168.599L164.247 178.385L164.015 189.886H162.691L163.132 176.745H164.94L169.377 188.351L173.75 176.745H175.537L175.958 189.886H174.591ZM179.527 185.113V185.219C179.569 187.384 180.872 188.94 182.891 188.94C183.942 188.94 184.951 188.625 185.687 188.141L185.94 189.34C185.12 189.844 184.047 190.16 182.849 190.16C180.073 190.16 178.202 188.078 178.202 185.155C178.202 182.128 180.136 179.983 182.744 179.983C184.867 179.983 186.255 181.371 186.255 183.536C186.255 184.041 186.171 184.651 186.045 185.071L179.527 185.113ZM179.611 184.083L184.951 184.062C184.972 183.957 184.972 183.747 184.972 183.642C184.972 182.17 184.173 181.161 182.66 181.161C180.935 181.161 179.821 182.485 179.611 184.083ZM194.491 187.258C194.491 189.024 192.977 190.16 191.043 190.16C189.908 190.16 188.709 189.823 187.889 189.298L188.247 188.099C189.067 188.646 190.097 188.982 191.085 188.982C192.242 188.982 193.251 188.414 193.251 187.363C193.251 186.207 192.031 185.87 190.833 185.492C189.508 185.092 188.036 184.441 188.036 182.759C188.036 181.013 189.487 179.983 191.295 179.983C192.347 179.983 193.398 180.278 194.218 180.698L193.839 181.875C193.041 181.434 192.052 181.161 191.211 181.161C190.034 181.161 189.277 181.707 189.277 182.632C189.277 183.726 190.412 184.062 191.653 184.441C193.019 184.84 194.491 185.471 194.491 187.258ZM210.17 189.886H208.867V183.684C208.867 182.002 208.215 181.224 206.827 181.224C205.797 181.224 204.851 181.77 204.115 182.464C204.136 182.59 204.157 183.095 204.157 183.326V189.886H202.854V183.684C202.854 182.002 202.202 181.224 200.814 181.224C199.805 181.224 198.88 181.686 198.144 182.338V189.886H196.84V180.256L198.144 179.983C198.144 179.983 198.144 181.224 198.144 181.308C199.132 180.404 200.204 179.983 201.193 179.983C202.391 179.983 203.337 180.509 203.8 181.581C204.872 180.509 206.092 179.983 207.206 179.983C209.035 179.983 210.17 181.182 210.17 183.305V189.886ZM221.89 185.05C221.89 188.12 219.829 190.16 217.159 190.16C214.489 190.16 212.513 188.183 212.513 185.092C212.513 182.023 214.573 179.983 217.264 179.983C219.956 179.983 221.89 181.96 221.89 185.05ZM220.607 185.092C220.607 182.738 219.241 181.161 217.201 181.161C215.162 181.161 213.816 182.78 213.816 185.05C213.816 187.405 215.183 188.982 217.222 188.982C219.262 188.982 220.607 187.363 220.607 185.092Z" fill="white"/>
<path d="M109.408 65.0183C116.931 65.0183 120.949 69.13 121.93 75.8115L114.875 76.746C114.221 73.2417 112.819 70.9522 109.502 70.9522C105.624 70.9522 103.381 74.363 103.288 80.5773C105.297 78.4747 107.866 77.4001 111.511 77.4001C117.865 77.4001 122.771 81.8856 122.771 88.3334C122.771 95.342 117.211 100.155 109.175 100.155C101.278 100.155 95.8117 95.6223 95.8117 84.8291C95.8117 73.5687 99.0357 65.0183 109.408 65.0183ZM109.408 82.5864C106.044 82.5864 103.661 84.7824 103.661 88.0998C103.661 91.5106 106.044 93.8001 109.408 93.8001C112.632 93.8001 114.922 91.4639 114.922 88.0998C114.922 84.8291 112.632 82.5864 109.408 82.5864ZM127.214 99.3135C128.336 89.7819 132.307 80.4371 138.849 72.3539H123.336V66.0462H146.745V71.5129C140.11 80.2502 136.886 89.5482 135.858 99.3135H127.214ZM161.441 65.065C168.216 65.065 173.215 69.5505 173.169 75.7648C173.169 82.2126 167.982 84.5021 163.31 86.4645C158.965 88.3334 155.834 89.4548 155.834 92.4918V93.6132H173.215V99.3135H147.938L147.985 93.8468C147.985 85.8571 154.245 83.9414 159.198 81.8388C162.562 80.4371 165.319 78.942 165.319 75.5779C165.319 73.0081 163.59 71.4195 161.161 71.4195C158.357 71.4195 156.208 73.7089 156.161 78.1477L148.592 76.7927C148.966 69.8776 154.386 65.065 161.441 65.065Z" fill="white"/>
</svg>
