<svg width="234" height="234" viewBox="0 0 234 234" fill="none" xmlns="http://www.w3.org/2000/svg">
<path d="M116.776 0.266891C158.401 0.266893 196.864 22.4735 217.677 58.5217C238.489 94.5699 238.489 138.983 217.677 175.031C196.864 211.08 158.401 233.286 116.776 233.286C75.1516 233.286 36.6886 211.08 15.8761 175.031C-4.9363 138.983 -4.9363 94.5699 15.8761 58.5217C36.6886 22.4735 75.1516 0.266892 116.776 0.266891Z" fill="#FADF4B"/>
<path d="M67.5952 121.611C68.247 121.002 69.2142 120.434 70.3916 120.434C72.9988 120.434 74.7019 122.494 74.7019 125.417C74.7019 128.403 72.7255 130.547 69.9501 130.547C69.1932 130.547 68.226 130.337 67.5952 130.043V135.173H66.2916V120.602L67.5952 120.329C67.5952 120.329 67.5952 121.548 67.5952 121.611ZM67.5952 122.705C67.5952 122.642 67.5952 128.613 67.5952 128.613C68.1839 129.075 69.088 129.37 70.0132 129.37C72.0737 129.37 73.3562 127.709 73.3562 125.438C73.3562 123.209 72.1368 121.632 70.1814 121.632C69.1932 121.632 68.2891 122.074 67.5952 122.705ZM78.416 124.092V130.274H77.1124V120.644L78.416 120.371V122.431C79.0468 121.191 79.993 120.371 81.2545 120.371C81.8853 120.371 82.495 120.56 82.9365 120.812L82.6001 122.032C82.1796 121.78 81.675 121.611 81.1283 121.611C80.1191 121.611 79.173 122.368 78.416 124.092ZM85.0955 125.501V125.606C85.1375 127.772 86.4411 129.328 88.4596 129.328C89.5108 129.328 90.5201 129.012 91.256 128.529L91.5083 129.727C90.6883 130.232 89.616 130.547 88.4175 130.547C85.6421 130.547 83.7708 128.466 83.7708 125.543C83.7708 122.515 85.7052 120.371 88.3124 120.371C90.436 120.371 91.8237 121.759 91.8237 123.924C91.8237 124.429 91.7396 125.039 91.6134 125.459L85.0955 125.501ZM85.1796 124.471L90.5201 124.45C90.5411 124.345 90.5411 124.134 90.5411 124.029C90.5411 122.558 89.7421 121.548 88.2283 121.548C86.5042 121.548 85.3898 122.873 85.1796 124.471ZM100.06 127.646C100.06 129.412 98.5461 130.547 96.6118 130.547C95.4764 130.547 94.2779 130.211 93.4579 129.685L93.8153 128.487C94.6353 129.033 95.6656 129.37 96.6538 129.37C97.8102 129.37 98.8194 128.802 98.8194 127.751C98.8194 126.594 97.6 126.258 96.4015 125.88C95.0769 125.48 93.6051 124.828 93.6051 123.146C93.6051 121.401 95.0559 120.371 96.8641 120.371C97.9153 120.371 98.9666 120.665 99.7866 121.086L99.4082 122.263C98.6092 121.822 97.621 121.548 96.78 121.548C95.6025 121.548 94.8456 122.095 94.8456 123.02C94.8456 124.113 95.981 124.45 97.2215 124.828C98.5882 125.228 100.06 125.859 100.06 127.646ZM103.103 125.501V125.606C103.145 127.772 104.448 129.328 106.467 129.328C107.518 129.328 108.527 129.012 109.263 128.529L109.516 129.727C108.696 130.232 107.623 130.547 106.425 130.547C103.649 130.547 101.778 128.466 101.778 125.543C101.778 122.515 103.713 120.371 106.32 120.371C108.443 120.371 109.831 121.759 109.831 123.924C109.831 124.429 109.747 125.039 109.621 125.459L103.103 125.501ZM103.187 124.471L108.527 124.45C108.548 124.345 108.548 124.134 108.548 124.029C108.548 122.558 107.749 121.548 106.236 121.548C104.511 121.548 103.397 122.873 103.187 124.471ZM119.939 130.274H118.635V124.05C118.635 122.368 117.962 121.611 116.511 121.611C115.46 121.611 114.388 122.179 113.589 122.978V130.274H112.285V120.644L113.589 120.371V121.948C114.598 120.939 115.86 120.371 116.869 120.371C118.803 120.371 119.939 121.569 119.939 123.672V130.274ZM126.433 130.526C123.868 130.274 122.27 128.276 122.27 125.48C122.27 122.473 124.267 120.371 127.001 120.371C128.178 120.371 129.187 120.665 130.007 121.191L129.671 122.368C128.935 121.885 128.01 121.59 127.001 121.59C124.919 121.59 123.616 123.146 123.616 125.438C123.616 127.793 124.982 129.328 127.022 129.328C127.989 129.328 128.956 129.012 129.692 128.529L129.965 129.727C129.271 130.148 128.409 130.442 127.484 130.526L126.286 131.704C127.779 131.641 128.851 132.25 128.851 133.428C128.851 134.584 127.779 135.488 125.487 135.741L125.382 134.858C127.001 134.773 127.8 134.269 127.8 133.533C127.8 132.629 126.769 132.334 125.045 132.65L124.919 132.019L126.433 130.526ZM137.412 128.15V125.333C134.111 125.711 132.934 126.447 132.934 127.73C132.934 128.76 133.775 129.412 134.91 129.412C135.94 129.412 136.823 128.823 137.412 128.15ZM137.496 129.118H137.433C136.781 129.916 135.751 130.547 134.616 130.547C132.849 130.547 131.567 129.412 131.567 127.877C131.567 126.132 132.934 124.702 137.412 124.45C137.412 124.45 137.412 123.945 137.412 123.882C137.412 122.368 136.739 121.59 135.141 121.59C134.09 121.59 132.807 122.137 131.987 122.747L131.693 121.527C132.555 120.918 134.006 120.371 135.267 120.371C137.496 120.371 138.737 121.38 138.716 123.819C138.716 123.882 138.716 128.445 138.716 128.445C138.716 129.139 138.842 129.433 139.683 129.412L139.599 130.484C138.337 130.568 137.643 130.064 137.496 129.118ZM154.064 130.274H152.761V124.05C152.761 122.368 152.088 121.611 150.637 121.611C149.586 121.611 148.513 122.179 147.714 122.978V130.274H146.411V120.644L147.714 120.371V121.948C148.724 120.939 149.985 120.371 150.994 120.371C152.929 120.371 154.064 121.569 154.064 123.672V130.274ZM165.773 125.438C165.773 128.508 163.712 130.547 161.042 130.547C158.372 130.547 156.396 128.571 156.396 125.48C156.396 122.41 158.456 120.371 161.147 120.371C163.839 120.371 165.773 122.347 165.773 125.438ZM164.49 125.48C164.49 123.125 163.124 121.548 161.084 121.548C159.045 121.548 157.699 123.167 157.699 125.438C157.699 127.793 159.066 129.37 161.105 129.37C163.145 129.37 164.49 127.751 164.49 125.48ZM52.6212 155.274H51.3176V149.071C51.3176 147.389 50.6658 146.611 49.2781 146.611C48.2479 146.611 47.3017 147.158 46.5658 147.852C46.5868 147.978 46.6079 148.483 46.6079 148.714V155.274H45.3043V149.071C45.3043 147.389 44.6525 146.611 43.2648 146.611C42.2555 146.611 41.3304 147.074 40.5945 147.726V155.274H39.2909V145.644L40.5945 145.371C40.5945 145.371 40.5945 146.611 40.5945 146.695C41.5827 145.791 42.655 145.371 43.6432 145.371C44.8417 145.371 45.7879 145.896 46.2504 146.969C47.3227 145.896 48.5422 145.371 49.6566 145.371C51.4858 145.371 52.6212 146.569 52.6212 148.693V155.274ZM56.2879 150.501V150.606C56.3299 152.772 57.6335 154.328 59.652 154.328C60.7032 154.328 61.7125 154.012 62.4484 153.529L62.7007 154.727C61.8807 155.232 60.8084 155.547 59.6099 155.547C56.8345 155.547 54.9632 153.466 54.9632 150.543C54.9632 147.515 56.8976 145.371 59.5048 145.371C61.6284 145.371 63.0161 146.759 63.0161 148.924C63.0161 149.429 62.932 150.039 62.8058 150.459L56.2879 150.501ZM56.372 149.471L61.7125 149.45C61.7335 149.345 61.7335 149.134 61.7335 149.029C61.7335 147.558 60.9345 146.548 59.4207 146.548C57.6966 146.548 56.5822 147.873 56.372 149.471ZM66.7739 149.092V155.274H65.4703V145.644L66.7739 145.371V147.431C67.4047 146.191 68.3508 145.371 69.6124 145.371C70.2431 145.371 70.8529 145.56 71.2944 145.812L70.958 147.032C70.5375 146.78 70.0329 146.611 69.4862 146.611C68.477 146.611 67.5308 147.368 66.7739 149.092ZM79.8241 154.727C79.0041 155.232 77.9528 155.547 76.8385 155.547C73.9369 155.547 72.1287 153.466 72.1287 150.48C72.1287 147.473 74.1261 145.371 76.8595 145.371C78.0369 145.371 79.0461 145.665 79.8661 146.191L79.5297 147.368C78.7938 146.885 77.8687 146.59 76.8595 146.59C74.7779 146.59 73.4744 148.146 73.4744 150.438C73.4744 152.793 74.841 154.328 76.8805 154.328C77.8477 154.328 78.8149 154.012 79.5508 153.529L79.8241 154.727ZM87.2708 153.15V150.333C83.9698 150.711 82.7923 151.447 82.7923 152.73C82.7923 153.76 83.6334 154.412 84.7687 154.412C85.799 154.412 86.6821 153.823 87.2708 153.15ZM87.3549 154.118H87.2918C86.64 154.916 85.6098 155.547 84.4744 155.547C82.7082 155.547 81.4257 154.412 81.4257 152.877C81.4257 151.132 82.7923 149.702 87.2708 149.45C87.2708 149.45 87.2708 148.945 87.2708 148.882C87.2708 147.368 86.598 146.59 85 146.59C83.9487 146.59 82.6662 147.137 81.8462 147.747L81.5518 146.527C82.4139 145.918 83.8646 145.371 85.1262 145.371C87.3549 145.371 88.5954 146.38 88.5744 148.819C88.5744 148.882 88.5744 153.445 88.5744 153.445C88.5744 154.139 88.7005 154.433 89.5416 154.412L89.4575 155.484C88.1959 155.568 87.5021 155.064 87.3549 154.118ZM97.9613 145.96V141.103L99.2649 140.829V155.274H97.9613C97.9613 155.274 97.9613 154.412 97.9613 154.37C97.3306 154.959 96.3634 155.547 95.1649 155.547C92.5788 155.547 90.8547 153.466 90.8547 150.543C90.8547 147.558 92.8521 145.434 95.6275 145.434C96.4475 145.434 97.3306 145.665 97.9613 145.96ZM97.9613 147.347C97.3726 146.885 96.4895 146.611 95.5644 146.611C93.5039 146.611 92.2003 148.251 92.2003 150.522C92.2003 152.751 93.4408 154.349 95.3962 154.349C96.3844 154.349 97.2885 153.907 97.9613 153.276C97.9613 153.319 97.9613 147.347 97.9613 147.347ZM111.032 150.438C111.032 153.508 108.972 155.547 106.302 155.547C103.631 155.547 101.655 153.571 101.655 150.48C101.655 147.41 103.715 145.371 106.407 145.371C109.098 145.371 111.032 147.347 111.032 150.438ZM109.75 150.48C109.75 148.125 108.383 146.548 106.344 146.548C104.304 146.548 102.959 148.167 102.959 150.438C102.959 152.793 104.325 154.37 106.365 154.37C108.404 154.37 109.75 152.751 109.75 150.48ZM126.65 150.333C126.65 153.361 124.674 155.547 121.898 155.547C121.12 155.547 120.174 155.316 119.543 155.022L118.24 155.589V141.103L119.543 140.829C119.543 140.829 119.543 146.59 119.543 146.653C120.195 146.044 121.204 145.434 122.445 145.434C124.989 145.434 126.65 147.452 126.65 150.333ZM125.304 150.396C125.304 148.209 124.106 146.632 122.193 146.632C121.141 146.632 120.237 147.074 119.543 147.705C119.543 147.642 119.543 153.613 119.543 153.613C120.132 154.075 121.036 154.37 121.961 154.37C124.022 154.37 125.304 152.709 125.304 150.396ZM130.282 149.092V155.274H128.978V145.644L130.282 145.371V147.431C130.913 146.191 131.859 145.371 133.12 145.371C133.751 145.371 134.361 145.56 134.803 145.812L134.466 147.032C134.046 146.78 133.541 146.611 132.994 146.611C131.985 146.611 131.039 147.368 130.282 149.092ZM141.395 153.15V150.333C138.094 150.711 136.917 151.447 136.917 152.73C136.917 153.76 137.758 154.412 138.893 154.412C139.924 154.412 140.807 153.823 141.395 153.15ZM141.479 154.118H141.416C140.765 154.916 139.734 155.547 138.599 155.547C136.833 155.547 135.55 154.412 135.55 152.877C135.55 151.132 136.917 149.702 141.395 149.45C141.395 149.45 141.395 148.945 141.395 148.882C141.395 147.368 140.723 146.59 139.125 146.59C138.073 146.59 136.791 147.137 135.971 147.747L135.676 146.527C136.538 145.918 137.989 145.371 139.251 145.371C141.479 145.371 142.72 146.38 142.699 148.819C142.699 148.882 142.699 153.445 142.699 153.445C142.699 154.139 142.825 154.433 143.666 154.412L143.582 155.484C142.321 155.568 141.627 155.064 141.479 154.118ZM151.392 152.646C151.392 154.412 149.878 155.547 147.944 155.547C146.808 155.547 145.61 155.211 144.79 154.685L145.147 153.487C145.967 154.033 146.998 154.37 147.986 154.37C149.142 154.37 150.152 153.802 150.152 152.751C150.152 151.594 148.932 151.258 147.734 150.88C146.409 150.48 144.937 149.828 144.937 148.146C144.937 146.401 146.388 145.371 148.196 145.371C149.247 145.371 150.299 145.665 151.119 146.086L150.74 147.263C149.941 146.822 148.953 146.548 148.112 146.548C146.935 146.548 146.178 147.095 146.178 148.02C146.178 149.113 147.313 149.45 148.554 149.828C149.92 150.228 151.392 150.859 151.392 152.646ZM155.297 142.469C155.297 142.974 155.003 143.436 154.414 143.436C153.825 143.436 153.531 142.974 153.531 142.469C153.531 141.986 153.825 141.544 154.414 141.544C155.003 141.544 155.297 141.986 155.297 142.469ZM155.066 155.274H153.762V145.644L155.066 145.371V155.274ZM159.439 155.274H158.135V141.103L159.439 140.829V155.274ZM163.161 150.501V150.606C163.203 152.772 164.507 154.328 166.525 154.328C167.577 154.328 168.586 154.012 169.322 153.529L169.574 154.727C168.754 155.232 167.682 155.547 166.483 155.547C163.708 155.547 161.837 153.466 161.837 150.543C161.837 147.515 163.771 145.371 166.378 145.371C168.502 145.371 169.89 146.759 169.89 148.924C169.89 149.429 169.805 150.039 169.679 150.459L163.161 150.501ZM163.245 149.471L168.586 149.45C168.607 149.345 168.607 149.134 168.607 149.029C168.607 147.558 167.808 146.548 166.294 146.548C164.57 146.548 163.456 147.873 163.245 149.471ZM173.9 142.469C173.9 142.974 173.605 143.436 173.017 143.436C172.428 143.436 172.134 142.974 172.134 142.469C172.134 141.986 172.428 141.544 173.017 141.544C173.605 141.544 173.9 141.986 173.9 142.469ZM173.668 155.274H172.365V145.644L173.668 145.371V155.274ZM178.041 149.092V155.274H176.738V145.644L178.041 145.371V147.431C178.672 146.191 179.618 145.371 180.88 145.371C181.511 145.371 182.12 145.56 182.562 145.812L182.226 147.032C181.805 146.78 181.3 146.611 180.754 146.611C179.745 146.611 178.798 147.368 178.041 149.092ZM192.774 150.438C192.774 153.508 190.713 155.547 188.043 155.547C185.373 155.547 183.396 153.571 183.396 150.48C183.396 147.41 185.457 145.371 188.148 145.371C190.839 145.371 192.774 147.347 192.774 150.438ZM191.491 150.48C191.491 148.125 190.124 146.548 188.085 146.548C186.045 146.548 184.7 148.167 184.7 150.438C184.7 152.793 186.066 154.37 188.106 154.37C190.145 154.37 191.491 152.751 191.491 150.48Z" fill="#1A1F33"/>
<path d="M75.5721 94.7769L85.2205 68.253H92.8201L102.431 94.7769H95.8748L94.1239 89.5242H83.8794L82.1286 94.7769H75.5721ZM85.0715 84.9794H92.9318L89.0203 73.3193L85.0715 84.9794ZM102.521 94.7769L112.169 68.253H119.769L129.38 94.7769H122.823L121.072 89.5242H110.828L109.077 94.7769H102.521ZM112.02 84.9794H119.88L115.969 73.3193L112.02 84.9794ZM129.469 94.7769L139.118 68.253H146.717L156.328 94.7769H149.772L148.021 89.5242H137.776L136.026 94.7769H129.469ZM138.969 84.9794H146.829L142.917 73.3193L138.969 84.9794Z" fill="#1A1F33"/>
</svg>
