<svg width="208" height="208" viewBox="0 0 208 208" fill="none" xmlns="http://www.w3.org/2000/svg">
<path d="M103.889 0.621373C140.782 0.621374 174.874 20.304 193.321 52.255C211.768 84.206 211.768 123.571 193.321 155.522C174.874 187.473 140.782 207.156 103.889 207.156C66.9947 207.156 32.9034 187.473 14.4565 155.522C-3.99042 123.571 -3.99042 84.206 14.4565 52.255C32.9034 20.304 66.9947 0.621374 103.889 0.621373Z" fill="#1010E2"/>
<path d="M65.5112 116.495L61.7336 126.715H60.5071L56.7622 116.495H57.8252L61.1449 125.636L64.4483 116.495H65.5112ZM70.516 125.064V122.872C67.9485 123.167 67.0327 123.739 67.0327 124.737C67.0327 125.538 67.6868 126.045 68.5699 126.045C69.3712 126.045 70.0581 125.587 70.516 125.064ZM70.5814 125.816H70.5323C70.0254 126.437 69.2241 126.928 68.341 126.928C66.9673 126.928 65.9698 126.045 65.9698 124.851C65.9698 123.494 67.0327 122.382 70.516 122.185C70.516 122.185 70.516 121.793 70.516 121.744C70.516 120.566 69.9927 119.961 68.7498 119.961C67.9321 119.961 66.9346 120.387 66.2968 120.861L66.0679 119.912C66.7384 119.438 67.8667 119.013 68.8479 119.013C70.5814 119.013 71.5462 119.798 71.5299 121.695C71.5299 121.744 71.5299 125.293 71.5299 125.293C71.5299 125.832 71.628 126.061 72.2821 126.045L72.2167 126.879C71.2355 126.944 70.6959 126.552 70.5814 125.816ZM74.8079 126.715H73.794V115.693L74.8079 115.481V126.715ZM83.9667 122.954C83.9667 125.342 82.364 126.928 80.2872 126.928C78.2103 126.928 76.6731 125.391 76.6731 122.987C76.6731 120.599 78.2757 119.013 80.3689 119.013C82.4622 119.013 83.9667 120.55 83.9667 122.954ZM82.9691 122.987C82.9691 121.155 81.9061 119.929 80.3199 119.929C78.7336 119.929 77.687 121.188 77.687 122.954C77.687 124.786 78.75 126.012 80.3362 126.012C81.9225 126.012 82.9691 124.753 82.9691 122.987ZM86.8653 121.907V126.715H85.8514V119.226L86.8653 119.013V120.616C87.3559 119.651 88.0918 119.013 89.073 119.013C89.5636 119.013 90.0378 119.16 90.3812 119.356L90.1196 120.305C89.7925 120.109 89.4 119.978 88.9749 119.978C88.1899 119.978 87.454 120.566 86.8653 121.907ZM92.8906 116.756C92.8906 117.149 92.6616 117.508 92.2037 117.508C91.7458 117.508 91.5169 117.149 91.5169 116.756C91.5169 116.38 91.7458 116.037 92.2037 116.037C92.6616 116.037 92.8906 116.38 92.8906 116.756ZM92.7107 126.715H91.6968V119.226L92.7107 119.013V126.715ZM99.9386 126.715H94.264V125.914L98.7284 120.125H94.4112V119.226H99.9386V120.01L95.4741 125.816H99.9386V126.715ZM105.41 125.064V122.872C102.843 123.167 101.927 123.739 101.927 124.737C101.927 125.538 102.581 126.045 103.464 126.045C104.266 126.045 104.953 125.587 105.41 125.064ZM105.476 125.816H105.427C104.92 126.437 104.118 126.928 103.235 126.928C101.862 126.928 100.864 126.045 100.864 124.851C100.864 123.494 101.927 122.382 105.41 122.185C105.41 122.185 105.41 121.793 105.41 121.744C105.41 120.566 104.887 119.961 103.644 119.961C102.827 119.961 101.829 120.387 101.191 120.861L100.962 119.912C101.633 119.438 102.761 119.013 103.742 119.013C105.476 119.013 106.441 119.798 106.424 121.695C106.424 121.744 106.424 125.293 106.424 125.293C106.424 125.832 106.522 126.061 107.177 126.045L107.111 126.879C106.13 126.944 105.59 126.552 105.476 125.816ZM111.436 126.912C109.441 126.715 108.198 125.162 108.198 122.987C108.198 120.648 109.751 119.013 111.877 119.013C112.793 119.013 113.578 119.242 114.216 119.651L113.954 120.566C113.382 120.19 112.662 119.961 111.877 119.961C110.258 119.961 109.244 121.172 109.244 122.954C109.244 124.786 110.307 125.979 111.894 125.979C112.646 125.979 113.398 125.734 113.971 125.358L114.183 126.29C113.644 126.617 112.973 126.846 112.253 126.912L111.321 127.827C112.482 127.778 113.316 128.253 113.316 129.168C113.316 130.068 112.482 130.771 110.7 130.967L110.618 130.28C111.877 130.215 112.499 129.822 112.499 129.25C112.499 128.547 111.697 128.318 110.357 128.563L110.258 128.073L111.436 126.912ZM119.975 125.064V122.872C117.408 123.167 116.492 123.739 116.492 124.737C116.492 125.538 117.146 126.045 118.029 126.045C118.83 126.045 119.517 125.587 119.975 125.064ZM120.04 125.816H119.991C119.484 126.437 118.683 126.928 117.8 126.928C116.426 126.928 115.429 126.045 115.429 124.851C115.429 123.494 116.492 122.382 119.975 122.185C119.975 122.185 119.975 121.793 119.975 121.744C119.975 120.566 119.452 119.961 118.209 119.961C117.391 119.961 116.394 120.387 115.756 120.861L115.527 119.912C116.197 119.438 117.326 119.013 118.307 119.013C120.04 119.013 121.005 119.798 120.989 121.695C120.989 121.744 120.989 125.293 120.989 125.293C120.989 125.832 121.087 126.061 121.741 126.045L121.676 126.879C120.695 126.944 120.155 126.552 120.04 125.816ZM120.973 116.298C120.793 117.574 120.351 118.179 119.517 118.179C118.569 118.179 117.669 117.018 117.064 117.018C116.737 117.018 116.541 117.247 116.328 118.081C116.263 118.081 115.609 118.081 115.658 118.081C115.838 116.805 116.279 116.2 117.113 116.2C118.062 116.2 118.994 117.378 119.583 117.378C119.893 117.378 120.106 117.149 120.302 116.298C120.368 116.298 121.005 116.298 120.973 116.298ZM130.056 122.954C130.056 125.342 128.453 126.928 126.377 126.928C124.3 126.928 122.763 125.391 122.763 122.987C122.763 120.599 124.365 119.013 126.458 119.013C128.552 119.013 130.056 120.55 130.056 122.954ZM129.059 122.987C129.059 121.155 127.996 119.929 126.409 119.929C124.823 119.929 123.776 121.188 123.776 122.954C123.776 124.786 124.839 126.012 126.426 126.012C128.012 126.012 129.059 124.753 129.059 122.987ZM140.699 119.471V115.693L141.713 115.481V126.715H140.699C140.699 126.715 140.699 126.045 140.699 126.012C140.208 126.47 139.456 126.928 138.524 126.928C136.512 126.928 135.171 125.309 135.171 123.036C135.171 120.714 136.725 119.062 138.883 119.062C139.521 119.062 140.208 119.242 140.699 119.471ZM140.699 120.55C140.241 120.19 139.554 119.978 138.834 119.978C137.232 119.978 136.218 121.253 136.218 123.019C136.218 124.753 137.183 125.996 138.704 125.996C139.472 125.996 140.175 125.652 140.699 125.162C140.699 125.194 140.699 120.55 140.699 120.55ZM150.865 122.954C150.865 125.342 149.262 126.928 147.185 126.928C145.109 126.928 143.571 125.391 143.571 122.987C143.571 120.599 145.174 119.013 147.267 119.013C149.36 119.013 150.865 120.55 150.865 122.954ZM149.867 122.987C149.867 121.155 148.804 119.929 147.218 119.929C145.632 119.929 144.585 121.188 144.585 122.954C144.585 124.786 145.648 126.012 147.235 126.012C148.821 126.012 149.867 124.753 149.867 122.987ZM79.575 138.978C80.0819 138.504 80.8342 138.062 81.75 138.062C83.7778 138.062 85.1024 139.665 85.1024 141.938C85.1024 144.26 83.5652 145.928 81.4065 145.928C80.8178 145.928 80.0656 145.764 79.575 145.535V149.526H78.5611V138.193L79.575 137.98C79.575 137.98 79.575 138.929 79.575 138.978ZM79.575 139.828C79.575 139.779 79.575 144.423 79.575 144.423C80.0329 144.783 80.7361 145.012 81.4556 145.012C83.0582 145.012 84.0558 143.72 84.0558 141.954C84.0558 140.221 83.1073 138.994 81.5864 138.994C80.8178 138.994 80.1146 139.338 79.575 139.828ZM87.9912 140.907V145.715H86.9773V138.226L87.9912 138.013V139.616C88.4818 138.651 89.2177 138.013 90.1989 138.013C90.6895 138.013 91.1637 138.16 91.5071 138.356L91.2455 139.305C90.9184 139.109 90.5259 138.978 90.1007 138.978C89.3158 138.978 88.5799 139.566 87.9912 140.907ZM99.4496 141.954C99.4496 144.342 97.847 145.928 95.7701 145.928C93.6932 145.928 92.156 144.391 92.156 141.987C92.156 139.599 93.7586 138.013 95.8519 138.013C97.9451 138.013 99.4496 139.55 99.4496 141.954ZM98.452 141.987C98.452 140.155 97.3891 138.929 95.8028 138.929C94.2165 138.929 93.1699 140.188 93.1699 141.954C93.1699 143.786 94.2329 145.012 95.8191 145.012C97.4054 145.012 98.452 143.753 98.452 141.987ZM106.371 138.471V134.693L107.385 134.481V145.715H106.371C106.371 145.715 106.371 145.045 106.371 145.012C105.881 145.47 105.128 145.928 104.196 145.928C102.185 145.928 100.844 144.309 100.844 142.036C100.844 139.714 102.397 138.062 104.556 138.062C105.194 138.062 105.881 138.242 106.371 138.471ZM106.371 139.55C105.913 139.19 105.226 138.978 104.507 138.978C102.904 138.978 101.89 140.253 101.89 142.019C101.89 143.753 102.855 144.996 104.376 144.996C105.145 144.996 105.848 144.652 106.371 144.162C106.371 144.194 106.371 139.55 106.371 139.55ZM109.669 138.226H110.683V143.066C110.683 144.374 111.206 144.963 112.302 144.963C113.169 144.963 114.003 144.522 114.608 143.9V138.226H115.622V145.715L114.608 145.928C114.608 145.928 114.608 144.75 114.608 144.718C113.839 145.503 112.858 145.928 112.024 145.928C110.569 145.928 109.669 144.996 109.669 143.36V138.226ZM121.704 145.568C121.18 145.813 120.575 145.961 120.036 145.961C118.613 145.961 117.975 145.176 118.024 143.606L118.139 139.174L116.994 139.109L117.043 138.471L118.171 138.209L118.22 136.508H119.185L119.136 138.258H121.638L121.589 139.158H119.103L118.989 143.638C118.956 144.587 119.3 145.045 120.085 145.045C120.575 145.045 121.066 144.881 121.524 144.685L121.704 145.568ZM130.08 141.954C130.08 144.342 128.477 145.928 126.401 145.928C124.324 145.928 122.786 144.391 122.786 141.987C122.786 139.599 124.389 138.013 126.482 138.013C128.576 138.013 130.08 139.55 130.08 141.954ZM129.082 141.987C129.082 140.155 128.02 138.929 126.433 138.929C124.847 138.929 123.8 140.188 123.8 141.954C123.8 143.786 124.863 145.012 126.45 145.012C128.036 145.012 129.082 143.753 129.082 141.987Z" fill="white"/>
<path d="M40.679 100V95.8984H46.5026V83.4057C45.7825 84.6268 44.3736 85.5661 42.6828 86.2236L41.0547 81.8089C43.7787 81.0575 45.7199 79.7112 46.847 77.7073H51.6375V95.8984H56.3966V100H40.679ZM66.0552 100.658C60.8264 100.658 57.1945 97.5891 56.7561 93.1431L61.6405 91.9847C61.9223 94.6147 63.4565 96.3994 65.836 96.3994C67.8712 96.3994 69.3427 95.147 69.3427 93.2371C69.3427 91.2332 67.7459 89.9495 65.5229 89.9495H64.7715V86.9751H65.9926C67.5894 86.9751 68.5913 85.5661 68.5913 83.938C68.5913 82.216 67.4954 81.1514 65.9926 81.1514C64.1766 81.1514 62.8303 82.7482 62.7676 85.1278L57.6954 84.345C57.9146 80.1182 61.2335 77.1751 65.9926 77.1751C70.376 77.1751 73.5069 79.6486 73.5069 83.3431C73.5069 85.4722 72.4737 87.3195 70.783 88.0396C73.1938 89.0102 74.7593 91.1393 74.7593 93.7693C74.7593 97.8083 71.0961 100.658 66.0552 100.658ZM85.219 100.658C79.9903 100.658 76.3583 97.5891 75.92 93.1431L80.8044 91.9847C81.0861 94.6147 82.6203 96.3994 84.9999 96.3994C87.035 96.3994 88.5066 95.147 88.5066 93.2371C88.5066 91.2332 86.9098 89.9495 84.6868 89.9495H83.9353V86.9751H85.1564C86.7532 86.9751 87.7552 85.5661 87.7552 83.938C87.7552 82.216 86.6593 81.1514 85.1564 81.1514C83.3405 81.1514 81.9941 82.7482 81.9315 85.1278L76.8593 84.345C77.0785 80.1182 80.3973 77.1751 85.1564 77.1751C89.5398 77.1751 92.6708 79.6486 92.6708 83.3431C92.6708 85.4722 91.6376 87.3195 89.9468 88.0396C92.3577 89.0102 93.9232 91.1393 93.9232 93.7693C93.9232 97.8083 90.2599 100.658 85.219 100.658ZM98.0038 100.376C96.3757 100.376 95.1859 99.2173 95.1859 97.6204C95.1859 96.0236 96.3757 94.8965 98.0038 94.8965C99.6632 94.8965 100.853 96.0236 100.853 97.6204C100.853 99.2173 99.6632 100.376 98.0038 100.376ZM111.011 100.658C105.782 100.658 102.15 97.5891 101.712 93.1431L106.596 91.9847C106.878 94.6147 108.412 96.3994 110.791 96.3994C112.827 96.3994 114.298 95.147 114.298 93.2371C114.298 91.2332 112.701 89.9495 110.478 89.9495H109.727V86.9751H110.948C112.545 86.9751 113.547 85.5661 113.547 83.938C113.547 82.216 112.451 81.1514 110.948 81.1514C109.132 81.1514 107.786 82.7482 107.723 85.1278L102.651 84.345C102.87 80.1182 106.189 77.1751 110.948 77.1751C115.331 77.1751 118.462 79.6486 118.462 83.3431C118.462 85.4722 117.429 87.3195 115.738 88.0396C118.149 89.0102 119.715 91.1393 119.715 93.7693C119.715 97.8083 116.051 100.658 111.011 100.658ZM130.174 100.658C124.946 100.658 121.314 97.5891 120.875 93.1431L125.76 91.9847C126.042 94.6147 127.576 96.3994 129.955 96.3994C131.99 96.3994 133.462 95.147 133.462 93.2371C133.462 91.2332 131.865 89.9495 129.642 89.9495H128.891V86.9751H130.112C131.709 86.9751 132.711 85.5661 132.711 83.938C132.711 82.216 131.615 81.1514 130.112 81.1514C128.296 81.1514 126.95 82.7482 126.887 85.1278L121.815 84.345C122.034 80.1182 125.353 77.1751 130.112 77.1751C134.495 77.1751 137.626 79.6486 137.626 83.3431C137.626 85.4722 136.593 87.3195 134.902 88.0396C137.313 89.0102 138.879 91.1393 138.879 93.7693C138.879 97.8083 135.215 100.658 130.174 100.658ZM146.99 100.313L145.957 99.593L162.269 76.6428L163.303 77.3629L146.99 100.313ZM146.489 89.4799C142.857 89.4799 140.196 86.8498 140.227 83.2492C140.227 79.5859 142.888 76.9559 146.489 76.9559C150.121 76.9559 152.751 79.5859 152.751 83.2492C152.751 86.8811 150.121 89.4799 146.489 89.4799ZM146.52 86.4428C148.399 86.4428 149.714 85.0965 149.714 83.2492C149.714 81.3706 148.399 79.993 146.52 79.993C144.642 79.993 143.296 81.3706 143.296 83.2492C143.296 85.0965 144.673 86.4428 146.52 86.4428ZM162.457 100.438C158.825 100.438 156.195 97.8083 156.195 94.2077C156.227 90.5444 158.857 87.9144 162.457 87.9144C166.089 87.9144 168.719 90.5444 168.719 94.2077C168.719 97.8396 166.089 100.438 162.457 100.438ZM162.488 97.4013C164.367 97.4013 165.682 96.055 165.682 94.2077C165.682 92.3291 164.367 90.9514 162.488 90.9514C160.61 90.9514 159.264 92.3291 159.264 94.2077C159.264 96.055 160.61 97.4013 162.488 97.4013Z" fill="white"/>
</svg>
