<svg width="196" height="196" viewBox="0 0 196 196" fill="none" xmlns="http://www.w3.org/2000/svg">
<path d="M97.7779 0.161412C132.653 0.161412 164.879 18.767 182.316 48.9695C199.753 79.172 199.753 116.383 182.316 146.586C164.879 176.788 132.653 195.394 97.7779 195.394C62.9031 195.394 30.6773 176.788 13.2399 146.586C-4.19752 116.383 -4.19751 79.172 13.2399 48.9695C30.6774 18.7669 62.9031 0.161413 97.7779 0.161412Z" fill="#FADF4B"/>
<path d="M35.4581 116.576V114.385C32.8906 114.679 31.9748 115.252 31.9748 116.249C31.9748 117.051 32.629 117.558 33.512 117.558C34.3134 117.558 35.0002 117.1 35.4581 116.576ZM35.5235 117.329H35.4744C34.9675 117.95 34.1662 118.441 33.2831 118.441C31.9094 118.441 30.9119 117.558 30.9119 116.364C30.9119 115.006 31.9748 113.894 35.4581 113.698C35.4581 113.698 35.4581 113.306 35.4581 113.257C35.4581 112.079 34.9348 111.474 33.6919 111.474C32.8743 111.474 31.8767 111.899 31.2389 112.374L31.01 111.425C31.6805 110.951 32.8089 110.526 33.7901 110.526C35.5235 110.526 36.4883 111.311 36.472 113.208C36.472 113.257 36.472 116.805 36.472 116.805C36.472 117.345 36.5701 117.574 37.2242 117.558L37.1588 118.392C36.1776 118.457 35.638 118.064 35.5235 117.329ZM38.6707 110.738H39.6846V115.579C39.6846 116.887 40.2079 117.476 41.3036 117.476C42.1703 117.476 43.0044 117.034 43.6094 116.413V110.738H44.6233V118.228L43.6094 118.441C43.6094 118.441 43.6094 117.263 43.6094 117.23C42.8408 118.015 41.8596 118.441 41.0256 118.441C39.5702 118.441 38.6707 117.508 38.6707 115.873V110.738ZM57.3446 118.228H56.3307V113.404C56.3307 112.096 55.8238 111.49 54.7445 111.49C53.9432 111.49 53.2073 111.916 52.6349 112.455C52.6513 112.553 52.6676 112.946 52.6676 113.126V118.228H51.6537V113.404C51.6537 112.096 51.1468 111.49 50.0674 111.49C49.2825 111.49 48.5629 111.85 47.9906 112.357V118.228H46.9767V110.738L47.9906 110.526C47.9906 110.526 47.9906 111.49 47.9906 111.556C48.7592 110.853 49.5932 110.526 50.3618 110.526C51.2939 110.526 52.0298 110.934 52.3896 111.768C53.2236 110.934 54.1721 110.526 55.0388 110.526C56.4616 110.526 57.3446 111.458 57.3446 113.109V118.228ZM60.1965 114.516V114.598C60.2292 116.282 61.2431 117.492 62.813 117.492C63.6307 117.492 64.4156 117.247 64.988 116.871L65.1843 117.803C64.5465 118.195 63.7125 118.441 62.7803 118.441C60.6217 118.441 59.1662 116.822 59.1662 114.549C59.1662 112.194 60.6707 110.526 62.6986 110.526C64.3502 110.526 65.4296 111.605 65.4296 113.289C65.4296 113.682 65.3641 114.156 65.266 114.483L60.1965 114.516ZM60.2619 113.715L64.4156 113.698C64.432 113.616 64.432 113.453 64.432 113.371C64.432 112.226 63.8106 111.441 62.6331 111.441C61.2922 111.441 60.4255 112.472 60.2619 113.715ZM73.291 118.228H72.2771V113.387C72.2771 112.079 71.7538 111.49 70.6254 111.49C69.8078 111.49 68.9737 111.932 68.3523 112.553V118.228H67.3384V110.738L68.3523 110.526V111.752C69.1373 110.967 70.1185 110.526 70.9034 110.526C72.4079 110.526 73.291 111.458 73.291 113.093V118.228ZM79.3235 118.081C78.8001 118.326 78.1951 118.473 77.6554 118.473C76.2327 118.473 75.5949 117.688 75.644 116.118L75.7584 111.687L74.6137 111.621L74.6628 110.984L75.7911 110.722L75.8402 109.021H76.805L76.756 110.771H79.258L79.209 111.67H76.7233L76.6088 116.151C76.5761 117.1 76.9195 117.558 77.7045 117.558C78.1951 117.558 78.6857 117.394 79.1436 117.198L79.3235 118.081ZM87.6999 114.467C87.6999 116.854 86.0973 118.441 84.0204 118.441C81.9436 118.441 80.4063 116.903 80.4063 114.499C80.4063 112.112 82.009 110.526 84.1022 110.526C86.1954 110.526 87.6999 112.063 87.6999 114.467ZM86.7024 114.499C86.7024 112.668 85.6394 111.441 84.0531 111.441C82.4669 111.441 81.4202 112.701 81.4202 114.467C81.4202 116.298 82.4832 117.525 84.0695 117.525C85.6557 117.525 86.7024 116.266 86.7024 114.499ZM98.3424 110.984V107.206L99.3563 106.993V118.228H98.3424C98.3424 118.228 98.3424 117.558 98.3424 117.525C97.8518 117.983 97.0996 118.441 96.1675 118.441C94.156 118.441 92.815 116.822 92.815 114.549C92.815 112.226 94.3686 110.575 96.5272 110.575C97.165 110.575 97.8518 110.755 98.3424 110.984ZM98.3424 112.063C97.8846 111.703 97.1977 111.49 96.4782 111.49C94.8755 111.49 93.8616 112.766 93.8616 114.532C93.8616 116.266 94.8265 117.508 96.3473 117.508C97.1159 117.508 97.8191 117.165 98.3424 116.674C98.3424 116.707 98.3424 112.063 98.3424 112.063ZM105.614 116.576V114.385C103.047 114.679 102.131 115.252 102.131 116.249C102.131 117.051 102.785 117.558 103.668 117.558C104.47 117.558 105.156 117.1 105.614 116.576ZM105.68 117.329H105.631C105.124 117.95 104.322 118.441 103.439 118.441C102.066 118.441 101.068 117.558 101.068 116.364C101.068 115.006 102.131 113.894 105.614 113.698C105.614 113.698 105.614 113.306 105.614 113.257C105.614 112.079 105.091 111.474 103.848 111.474C103.03 111.474 102.033 111.899 101.395 112.374L101.166 111.425C101.837 110.951 102.965 110.526 103.946 110.526C105.68 110.526 106.645 111.311 106.628 113.208C106.628 113.257 106.628 116.805 106.628 116.805C106.628 117.345 106.726 117.574 107.38 117.558L107.315 118.392C106.334 118.457 105.794 118.064 105.68 117.329ZM122.981 118.228H121.967V113.404C121.967 112.096 121.46 111.49 120.381 111.49C119.58 111.49 118.844 111.916 118.272 112.455C118.288 112.553 118.304 112.946 118.304 113.126V118.228H117.29V113.404C117.29 112.096 116.783 111.49 115.704 111.49C114.919 111.49 114.2 111.85 113.627 112.357V118.228H112.613V110.738L113.627 110.526C113.627 110.526 113.627 111.49 113.627 111.556C114.396 110.853 115.23 110.526 115.998 110.526C116.931 110.526 117.667 110.934 118.026 111.768C118.86 110.934 119.809 110.526 120.676 110.526C122.098 110.526 122.981 111.458 122.981 113.109V118.228ZM129.202 116.576V114.385C126.635 114.679 125.719 115.252 125.719 116.249C125.719 117.051 126.373 117.558 127.256 117.558C128.057 117.558 128.744 117.1 129.202 116.576ZM129.267 117.329H129.218C128.711 117.95 127.91 118.441 127.027 118.441C125.653 118.441 124.656 117.558 124.656 116.364C124.656 115.006 125.719 113.894 129.202 113.698C129.202 113.698 129.202 113.306 129.202 113.257C129.202 112.079 128.679 111.474 127.436 111.474C126.618 111.474 125.621 111.899 124.983 112.374L124.754 111.425C125.424 110.951 126.553 110.526 127.534 110.526C129.267 110.526 130.232 111.311 130.216 113.208C130.216 113.257 130.216 116.805 130.216 116.805C130.216 117.345 130.314 117.574 130.968 117.558L130.903 118.392C129.922 118.457 129.382 118.064 129.267 117.329ZM133.494 113.42V118.228H132.48V110.738L133.494 110.526V112.128C133.985 111.163 134.72 110.526 135.702 110.526C136.192 110.526 136.666 110.673 137.01 110.869L136.748 111.818C136.421 111.621 136.029 111.49 135.604 111.49C134.819 111.49 134.083 112.079 133.494 113.42ZM138.722 113.355C138.722 114.434 139.441 115.268 140.651 115.268C141.796 115.268 142.516 114.45 142.516 113.306C142.516 112.194 141.862 111.36 140.602 111.36C139.441 111.36 138.722 112.194 138.722 113.355ZM139.605 118.441C138.705 118.686 138.084 119.275 138.084 119.912C138.084 120.795 139.049 121.45 140.635 121.45C142.189 121.45 143.448 120.697 143.448 119.683C143.448 118.8 142.663 118.49 141.175 118.49C140.668 118.49 140.03 118.473 139.605 118.441ZM138.722 118.244C138.084 118.015 137.708 117.59 137.708 117.051C137.708 116.429 138.248 115.89 138.934 115.628C138.215 115.186 137.724 114.369 137.724 113.338C137.724 111.752 138.902 110.526 140.668 110.526C141.453 110.526 142.025 110.738 142.434 110.967L144.511 110.804L144.56 111.818L142.908 111.654C143.268 112.014 143.513 112.733 143.513 113.338C143.513 114.925 142.27 116.086 140.602 116.086C140.194 116.086 139.866 116.004 139.49 115.873C139.098 116.037 138.656 116.347 138.656 116.773C138.656 117.247 139.016 117.541 140.357 117.541C140.357 117.541 141.436 117.541 141.322 117.541C143.497 117.541 144.429 118.277 144.429 119.504C144.429 121.155 142.581 122.284 140.488 122.284C138.476 122.284 137.103 121.401 137.103 120.092C137.103 119.242 137.757 118.49 138.722 118.244ZM146.339 114.516V114.598C146.371 116.282 147.385 117.492 148.955 117.492C149.773 117.492 150.558 117.247 151.13 116.871L151.326 117.803C150.689 118.195 149.855 118.441 148.922 118.441C146.764 118.441 145.308 116.822 145.308 114.549C145.308 112.194 146.813 110.526 148.841 110.526C150.492 110.526 151.572 111.605 151.572 113.289C151.572 113.682 151.506 114.156 151.408 114.483L146.339 114.516ZM146.404 113.715L150.558 113.698C150.574 113.616 150.574 113.453 150.574 113.371C150.574 112.226 149.953 111.441 148.775 111.441C147.434 111.441 146.568 112.472 146.404 113.715ZM163.849 118.228H162.835V113.404C162.835 112.096 162.328 111.49 161.248 111.49C160.447 111.49 159.711 111.916 159.139 112.455C159.155 112.553 159.172 112.946 159.172 113.126V118.228H158.158V113.404C158.158 112.096 157.651 111.49 156.571 111.49C155.786 111.49 155.067 111.85 154.494 112.357V118.228H153.481V110.738L154.494 110.526C154.494 110.526 154.494 111.49 154.494 111.556C155.263 110.853 156.097 110.526 156.866 110.526C157.798 110.526 158.534 110.934 158.894 111.768C159.728 110.934 160.676 110.526 161.543 110.526C162.965 110.526 163.849 111.458 163.849 113.109V118.228ZM61.1882 129.984V126.206L62.2021 125.993V137.228H61.1882C61.1882 137.228 61.1882 136.558 61.1882 136.525C60.6976 136.983 59.9454 137.441 59.0133 137.441C57.0018 137.441 55.6608 135.822 55.6608 133.549C55.6608 131.226 57.2144 129.575 59.373 129.575C60.0108 129.575 60.6976 129.755 61.1882 129.984ZM61.1882 131.063C60.7303 130.703 60.0435 130.49 59.324 130.49C57.7213 130.49 56.7074 131.766 56.7074 133.532C56.7074 135.266 57.6723 136.508 59.1931 136.508C59.9617 136.508 60.6649 136.165 61.1882 135.674C61.1882 135.707 61.1882 131.063 61.1882 131.063ZM65.0913 133.516V133.598C65.124 135.282 66.1379 136.492 67.7078 136.492C68.5255 136.492 69.3105 136.247 69.8828 135.871L70.0791 136.803C69.4413 137.195 68.6073 137.441 67.6751 137.441C65.5165 137.441 64.061 135.822 64.061 133.549C64.061 131.194 65.5655 129.526 67.5934 129.526C69.245 129.526 70.3244 130.605 70.3244 132.289C70.3244 132.682 70.2589 133.156 70.1608 133.483L65.0913 133.516ZM65.1567 132.715L69.3105 132.698C69.3268 132.616 69.3268 132.453 69.3268 132.371C69.3268 131.226 68.7054 130.441 67.5279 130.441C66.187 130.441 65.3203 131.472 65.1567 132.715ZM76.9681 137.228H75.9542V126.206L76.9681 125.993V137.228ZM79.2585 129.738H80.2724V134.579C80.2724 135.887 80.7957 136.476 81.8914 136.476C82.7581 136.476 83.5921 136.034 84.1972 135.413V129.738H85.2111V137.228L84.1972 137.441C84.1972 137.441 84.1972 136.263 84.1972 136.23C83.4286 137.015 82.4474 137.441 81.6134 137.441C80.1579 137.441 79.2585 136.508 79.2585 134.873V129.738ZM93.0591 136.803C92.4213 137.195 91.6037 137.441 90.7369 137.441C88.4802 137.441 87.0738 135.822 87.0738 133.499C87.0738 131.161 88.6274 129.526 90.7533 129.526C91.6691 129.526 92.454 129.755 93.0918 130.163L92.8302 131.079C92.2578 130.703 91.5383 130.474 90.7533 130.474C89.1343 130.474 88.1204 131.684 88.1204 133.467C88.1204 135.298 89.1834 136.492 90.7697 136.492C91.5219 136.492 92.2742 136.247 92.8465 135.871L93.0591 136.803ZM95.9565 132.42V137.228H94.9425V129.738L95.9565 129.526V131.128C96.4471 130.163 97.1829 129.526 98.1641 129.526C98.6547 129.526 99.129 129.673 99.4724 129.869L99.2108 130.818C98.8837 130.621 98.4912 130.49 98.066 130.49C97.2811 130.49 96.5452 131.079 95.9565 132.42ZM107.415 133.467C107.415 135.854 105.812 137.441 103.735 137.441C101.659 137.441 100.121 135.903 100.121 133.499C100.121 131.112 101.724 129.526 103.817 129.526C105.91 129.526 107.415 131.063 107.415 133.467ZM106.417 133.499C106.417 131.668 105.354 130.441 103.768 130.441C102.182 130.441 101.135 131.701 101.135 133.467C101.135 135.298 102.198 136.525 103.784 136.525C105.371 136.525 106.417 135.266 106.417 133.499ZM114.034 130.49C114.541 130.016 115.294 129.575 116.209 129.575C118.237 129.575 119.562 131.177 119.562 133.45C119.562 135.773 118.025 137.441 115.866 137.441C115.277 137.441 114.525 137.277 114.034 137.048V141.038H113.021V129.706L114.034 129.493C114.034 129.493 114.034 130.441 114.034 130.49ZM114.034 131.341C114.034 131.292 114.034 135.936 114.034 135.936C114.492 136.296 115.196 136.525 115.915 136.525C117.518 136.525 118.515 135.233 118.515 133.467C118.515 131.733 117.567 130.507 116.046 130.507C115.277 130.507 114.574 130.85 114.034 131.341ZM125.345 135.576V133.385C122.778 133.679 121.862 134.252 121.862 135.249C121.862 136.051 122.516 136.558 123.399 136.558C124.2 136.558 124.887 136.1 125.345 135.576ZM125.411 136.329H125.362C124.855 136.95 124.053 137.441 123.17 137.441C121.797 137.441 120.799 136.558 120.799 135.364C120.799 134.006 121.862 132.894 125.345 132.698C125.345 132.698 125.345 132.306 125.345 132.257C125.345 131.079 124.822 130.474 123.579 130.474C122.761 130.474 121.764 130.899 121.126 131.374L120.897 130.425C121.568 129.951 122.696 129.526 123.677 129.526C125.411 129.526 126.375 130.311 126.359 132.208C126.359 132.257 126.359 135.805 126.359 135.805C126.359 136.345 126.457 136.574 127.111 136.558L127.046 137.392C126.065 137.457 125.525 137.064 125.411 136.329ZM129.637 132.42V137.228H128.623V129.738L129.637 129.526V131.128C130.128 130.163 130.864 129.526 131.845 129.526C132.335 129.526 132.81 129.673 133.153 129.869L132.891 130.818C132.564 130.621 132.172 130.49 131.747 130.49C130.962 130.49 130.226 131.079 129.637 132.42ZM138.281 135.576V133.385C135.713 133.679 134.798 134.252 134.798 135.249C134.798 136.051 135.452 136.558 136.335 136.558C137.136 136.558 137.823 136.1 138.281 135.576ZM138.346 136.329H138.297C137.79 136.95 136.989 137.441 136.106 137.441C134.732 137.441 133.735 136.558 133.735 135.364C133.735 134.006 134.798 132.894 138.281 132.698C138.281 132.698 138.281 132.306 138.281 132.257C138.281 131.079 137.758 130.474 136.515 130.474C135.697 130.474 134.7 130.899 134.062 131.374L133.833 130.425C134.503 129.951 135.632 129.526 136.613 129.526C138.346 129.526 139.311 130.311 139.295 132.208C139.295 132.257 139.295 135.805 139.295 135.805C139.295 136.345 139.393 136.574 140.047 136.558L139.982 137.392C139 137.457 138.461 137.064 138.346 136.329ZM66.0379 155.803C65.4001 156.195 64.5824 156.441 63.7157 156.441C61.459 156.441 60.0526 154.822 60.0526 152.499C60.0526 150.161 61.6061 148.526 63.7321 148.526C64.6479 148.526 65.4328 148.755 66.0706 149.163L65.8089 150.079C65.2366 149.703 64.517 149.474 63.7321 149.474C62.1131 149.474 61.0992 150.684 61.0992 152.467C61.0992 154.298 62.1622 155.492 63.7484 155.492C64.5007 155.492 65.2529 155.247 65.8253 154.871L66.0379 155.803ZM74.6444 152.467C74.6444 154.854 73.0418 156.441 70.9649 156.441C68.8881 156.441 67.3509 154.903 67.3509 152.499C67.3509 150.112 68.9535 148.526 71.0467 148.526C73.1399 148.526 74.6444 150.063 74.6444 152.467ZM73.6469 152.499C73.6469 150.668 72.5839 149.441 70.9977 149.441C69.4114 149.441 68.3648 150.701 68.3648 152.467C68.3648 154.298 69.4277 155.525 71.014 155.525C72.6003 155.525 73.6469 154.266 73.6469 152.499ZM83.3321 152.467C83.3321 154.854 81.7295 156.441 79.6526 156.441C77.5758 156.441 76.0385 154.903 76.0385 152.499C76.0385 150.112 77.6412 148.526 79.7344 148.526C81.8276 148.526 83.3321 150.063 83.3321 152.467ZM82.3346 152.499C82.3346 150.668 81.2716 149.441 79.6853 149.441C78.0991 149.441 77.0524 150.701 77.0524 152.467C77.0524 154.298 78.1154 155.525 79.7017 155.525C81.2879 155.525 82.3346 154.266 82.3346 152.499ZM86.2307 149.49C86.7377 149.016 87.4899 148.575 88.4057 148.575C90.4335 148.575 91.7581 150.177 91.7581 152.45C91.7581 154.773 90.2209 156.441 88.0623 156.441C87.4736 156.441 86.7213 156.277 86.2307 156.048V160.038H85.2168V148.706L86.2307 148.493C86.2307 148.493 86.2307 149.441 86.2307 149.49ZM86.2307 150.341C86.2307 150.292 86.2307 154.936 86.2307 154.936C86.6886 155.296 87.3918 155.525 88.1114 155.525C89.714 155.525 90.7115 154.233 90.7115 152.467C90.7115 150.733 89.763 149.507 88.2422 149.507C87.4736 149.507 86.7704 149.85 86.2307 150.341ZM94.1727 152.516V152.598C94.2054 154.282 95.2193 155.492 96.7892 155.492C97.6069 155.492 98.3918 155.247 98.9642 154.871L99.1604 155.803C98.5226 156.195 97.6886 156.441 96.7565 156.441C94.5979 156.441 93.1424 154.822 93.1424 152.549C93.1424 150.194 94.6469 148.526 96.6747 148.526C98.3264 148.526 99.4057 149.605 99.4057 151.289C99.4057 151.682 99.3403 152.156 99.2422 152.483L94.1727 152.516ZM94.2381 151.715L98.3918 151.698C98.4082 151.616 98.4082 151.453 98.4082 151.371C98.4082 150.226 97.7867 149.441 96.6093 149.441C95.2683 149.441 94.4016 150.472 94.2381 151.715ZM102.328 151.42V156.228H101.315V148.738L102.328 148.526V150.128C102.819 149.163 103.555 148.526 104.536 148.526C105.027 148.526 105.501 148.673 105.844 148.869L105.583 149.818C105.256 149.621 104.863 149.49 104.438 149.49C103.653 149.49 102.917 150.079 102.328 151.42ZM110.972 154.576V152.385C108.405 152.679 107.489 153.252 107.489 154.249C107.489 155.051 108.143 155.558 109.026 155.558C109.827 155.558 110.514 155.1 110.972 154.576ZM111.038 155.329H110.989C110.482 155.95 109.68 156.441 108.797 156.441C107.424 156.441 106.426 155.558 106.426 154.364C106.426 153.006 107.489 151.894 110.972 151.698C110.972 151.698 110.972 151.306 110.972 151.257C110.972 150.079 110.449 149.474 109.206 149.474C108.388 149.474 107.391 149.899 106.753 150.374L106.524 149.425C107.195 148.951 108.323 148.526 109.304 148.526C111.038 148.526 112.002 149.311 111.986 151.208C111.986 151.257 111.986 154.805 111.986 154.805C111.986 155.345 112.084 155.574 112.738 155.558L112.673 156.392C111.692 156.457 111.152 156.064 111.038 155.329ZM117.979 156.081C117.456 156.326 116.85 156.473 116.311 156.473C114.888 156.473 114.25 155.688 114.299 154.118L114.414 149.687L113.269 149.621L113.318 148.984L114.447 148.722L114.496 147.021H115.46L115.411 148.771H117.913L117.864 149.67H115.379L115.264 154.151C115.231 155.1 115.575 155.558 116.36 155.558C116.85 155.558 117.341 155.394 117.799 155.198L117.979 156.081ZM120.842 146.269C120.842 146.661 120.613 147.021 120.155 147.021C119.698 147.021 119.469 146.661 119.469 146.269C119.469 145.893 119.698 145.549 120.155 145.549C120.613 145.549 120.842 145.893 120.842 146.269ZM120.662 156.228H119.649V148.738L120.662 148.526V156.228ZM128.741 148.738L125.797 156.244H124.881L121.921 148.738H123.017L125.388 154.92L127.678 148.738H128.741ZM133.889 154.576V152.385C131.322 152.679 130.406 153.252 130.406 154.249C130.406 155.051 131.06 155.558 131.943 155.558C132.744 155.558 133.431 155.1 133.889 154.576ZM133.955 155.329H133.906C133.399 155.95 132.597 156.441 131.714 156.441C130.34 156.441 129.343 155.558 129.343 154.364C129.343 153.006 130.406 151.894 133.889 151.698C133.889 151.698 133.889 151.306 133.889 151.257C133.889 150.079 133.366 149.474 132.123 149.474C131.305 149.474 130.308 149.899 129.67 150.374L129.441 149.425C130.112 148.951 131.24 148.526 132.221 148.526C133.955 148.526 134.919 149.311 134.903 151.208C134.903 151.257 134.903 154.805 134.903 154.805C134.903 155.345 135.001 155.574 135.655 155.558L135.59 156.392C134.609 156.457 134.069 156.064 133.955 155.329Z" fill="#1A1F33"/>
<path d="M38.907 92.1702C33.8348 92.1702 29.9524 89.2897 29.4828 85.0629L34.4297 84.0296C34.7115 86.4405 36.3083 87.9121 38.7505 87.9121C41.0048 87.9121 42.6955 86.4405 42.6642 84.3427C42.6642 82.0884 41.0674 80.5855 38.2182 80.5855H31.7684L32.4259 69.22H45.7326V73.1964H36.7154L36.5275 77.0162H39.7211C44.6368 77.0162 47.9556 80.2098 47.9556 84.5619C47.9556 89.0705 44.1671 92.1702 38.907 92.1702ZM59.5439 92.1702C53.5638 92.1702 49.3995 87.2859 49.3995 80.3664C49.3995 73.4469 53.5638 68.5625 59.5439 68.5625C65.5554 68.5625 69.7197 73.4469 69.7197 80.3664C69.7197 87.2859 65.5554 92.1702 59.5439 92.1702ZM59.5439 87.7868C62.581 87.7868 64.5848 84.7498 64.5848 80.3664C64.5848 75.983 62.581 72.9459 59.5439 72.9459C56.5382 72.9459 54.5344 75.983 54.5344 80.3664C54.5344 84.7498 56.5382 87.7868 59.5439 87.7868ZM80.2312 92.0763C74.9085 92.0763 71.2453 89.3836 71.2453 85.1568C71.2453 82.4954 72.9673 80.1785 75.6287 79.6149C73.7501 78.9574 72.3724 76.8283 72.3724 74.6993C72.3724 70.9421 75.6913 68.4999 80.2312 68.4999C84.7712 68.4999 88.0587 70.8795 88.0587 74.668C88.0587 76.8283 86.7124 78.9574 84.8025 79.6462C87.4325 80.1785 89.1859 82.4954 89.1859 85.1881C89.1859 89.4149 85.5226 92.0763 80.2312 92.0763ZM80.2312 78.2686C81.9533 78.2686 83.1744 77.0162 83.1744 75.3568C83.1744 73.7287 81.9533 72.5076 80.2312 72.5076C78.5092 72.5076 77.2568 73.7287 77.2568 75.3568C77.2568 77.0162 78.5092 78.2686 80.2312 78.2686ZM80.2312 88.0373C82.3603 88.0373 83.9258 86.691 83.9258 84.8437C83.9258 83.0277 82.3603 81.6501 80.2312 81.6501C78.0708 81.6501 76.5367 83.0277 76.5367 84.8437C76.5367 86.691 78.0708 88.0373 80.2312 88.0373ZM93.4156 91.8884C91.7875 91.8884 90.5978 90.7299 90.5978 89.1331C90.5978 87.5363 91.7875 86.4092 93.4156 86.4092C95.0751 86.4092 96.2648 87.5363 96.2648 89.1331C96.2648 90.7299 95.0751 91.8884 93.4156 91.8884ZM106.665 92.1702C101.593 92.1702 97.7102 89.2897 97.2406 85.0629L102.188 84.0296C102.469 86.4405 104.066 87.9121 106.508 87.9121C108.763 87.9121 110.453 86.4405 110.422 84.3427C110.422 82.0884 108.825 80.5855 105.976 80.5855H99.5262L100.184 69.22H113.49V73.1964H104.473L104.285 77.0162H107.479C112.395 77.0162 115.713 80.2098 115.713 84.5619C115.713 89.0705 111.925 92.1702 106.665 92.1702ZM125.736 92.0763C120.445 92.0763 117.126 89.321 116.469 84.8437L121.196 84.2488C121.509 86.6597 123.075 88.2565 125.705 88.2565C128.679 88.2565 130.495 85.8456 130.558 81.6501C129.243 83.059 127.49 83.8105 125.047 83.8105C120.789 83.8105 117.502 80.7734 117.502 76.4839C117.502 71.7561 121.228 68.5625 126.644 68.5625C131.904 68.5625 135.599 71.5683 135.599 78.9887C135.599 86.3466 133.094 92.0763 125.736 92.0763ZM126.456 80.3037C128.711 80.3351 130.308 78.8322 130.308 76.6405C130.308 74.3549 128.711 72.7894 126.456 72.7894C124.327 72.8207 122.762 74.4801 122.762 76.6405C122.762 78.8322 124.327 80.3037 126.456 80.3037ZM143.87 91.8258L142.836 91.1057L159.149 68.1555L160.182 68.8756L143.87 91.8258ZM143.369 80.9926C139.737 80.9926 137.075 78.3625 137.107 74.7619C137.107 71.0986 139.768 68.4686 143.369 68.4686C147.001 68.4686 149.631 71.0986 149.631 74.7619C149.631 78.3938 147.001 80.9926 143.369 80.9926ZM143.4 77.9555C145.279 77.9555 146.594 76.6092 146.594 74.7619C146.594 72.8833 145.279 71.5057 143.4 71.5057C141.521 71.5057 140.175 72.8833 140.175 74.7619C140.175 76.6092 141.553 77.9555 143.4 77.9555ZM159.337 91.951C155.705 91.951 153.075 89.321 153.075 85.7204C153.106 82.0571 155.736 79.4271 159.337 79.4271C162.969 79.4271 165.599 82.0571 165.599 85.7204C165.599 89.3523 162.969 91.951 159.337 91.951ZM159.368 88.914C161.247 88.914 162.562 87.5676 162.562 85.7204C162.562 83.8418 161.247 82.4641 159.368 82.4641C157.489 82.4641 156.143 83.8418 156.143 85.7204C156.143 87.5676 157.489 88.914 159.368 88.914Z" fill="#1A1F33"/>
</svg>
